<?xml version="1.0" encoding="UTF-8"?>
<svg id="Layer_2" data-name="Layer 2" xmlns="http://www.w3.org/2000/svg" xmlns:xlink="http://www.w3.org/1999/xlink" viewBox="0 0 401.5 868">
  <defs>
    <style>
      .cls-1 {
        fill: none;
      }

      .cls-1, .cls-2, .cls-3, .cls-4, .cls-5, .cls-6, .cls-7, .cls-8, .cls-9, .cls-10, .cls-11, .cls-12 {
        stroke-width: 0px;
      }

      .cls-2 {
        fill: url(#linear-gradient);
      }

      .cls-3 {
        fill: url(#linear-gradient-4);
      }

      .cls-4 {
        fill: url(#linear-gradient-2);
      }

      .cls-5 {
        fill: url(#linear-gradient-3);
      }

      .cls-6 {
        fill: url(#linear-gradient-5);
      }

      .cls-7 {
        fill: url(#linear-gradient-6);
      }

      .cls-13 {
        isolation: isolate;
      }

      .cls-9 {
        fill: #383838;
      }

      .cls-10 {
        fill: #1b1464;
      }

      .cls-11 {
        fill: #afaaaa;
      }

      .cls-12 {
        fill: #fff;
      }
    </style>
    <linearGradient id="linear-gradient" x1="195.4" y1="863.06" x2="186.84" y2="848.23" gradientTransform="translate(0 871.81) scale(1 -1)" gradientUnits="userSpaceOnUse">
      <stop offset=".04" stop-color="#777"/>
      <stop offset=".1" stop-color="#7e7e7e"/>
      <stop offset=".19" stop-color="#909090"/>
      <stop offset=".3" stop-color="#afafaf"/>
      <stop offset=".42" stop-color="#d9d9d9"/>
      <stop offset=".51" stop-color="#fff"/>
      <stop offset=".57" stop-color="#ccc" stop-opacity=".97"/>
      <stop offset=".66" stop-color="#8f8f8f" stop-opacity=".94"/>
      <stop offset=".74" stop-color="#5c5c5c" stop-opacity=".9"/>
      <stop offset=".82" stop-color="#343434" stop-opacity=".87"/>
      <stop offset=".89" stop-color="#171717" stop-opacity=".84"/>
      <stop offset=".95" stop-color="#060606" stop-opacity=".82"/>
      <stop offset="1" stop-color="#000" stop-opacity=".8"/>
    </linearGradient>
    <linearGradient id="linear-gradient-2" x1="267.94" y1="1701.58" x2="259.54" y2="1687.05" gradientTransform="translate(-1058.03 1136.06) rotate(39.3) scale(.98 -.98)" gradientUnits="userSpaceOnUse">
      <stop offset=".04" stop-color="#777"/>
      <stop offset=".1" stop-color="#7e7e7e"/>
      <stop offset=".19" stop-color="#909090"/>
      <stop offset=".3" stop-color="#afafaf"/>
      <stop offset=".42" stop-color="#d9d9d9"/>
      <stop offset=".51" stop-color="#fff"/>
      <stop offset=".55" stop-color="#dedede" stop-opacity=".96"/>
      <stop offset=".65" stop-color="#9d9d9d" stop-opacity=".86"/>
      <stop offset=".73" stop-color="#666" stop-opacity=".77"/>
      <stop offset=".82" stop-color="#3c3c3c" stop-opacity=".68"/>
      <stop offset=".89" stop-color="#1d1d1d" stop-opacity=".61"/>
      <stop offset=".96" stop-color="#0b0b0b" stop-opacity=".55"/>
      <stop offset="1" stop-color="#040404" stop-opacity=".5"/>
      <stop offset="1" stop-color="#000" stop-opacity=".6"/>
    </linearGradient>
    <linearGradient id="linear-gradient-3" x1="-185.76" y1="559.4" x2="-176.14" y2="559.4" gradientTransform="translate(684.13 569.26) rotate(-27.54) scale(1 -1.29)" gradientUnits="userSpaceOnUse">
      <stop offset="0" stop-color="#fff" stop-opacity=".9"/>
      <stop offset=".06" stop-color="#cce0f4"/>
      <stop offset=".14" stop-color="#c3daf0" stop-opacity=".9"/>
      <stop offset=".26" stop-color="#a9c9e4" stop-opacity=".73"/>
      <stop offset=".42" stop-color="#80aed1" stop-opacity=".52"/>
      <stop offset=".61" stop-color="#4689b7" stop-opacity=".27"/>
    </linearGradient>
    <linearGradient id="linear-gradient-4" x1="217.82" y1="859.98" x2="212.78" y2="851.24" xlink:href="#linear-gradient"/>
    <linearGradient id="linear-gradient-5" x1="285.36" y1="1714.25" x2="280.41" y2="1705.68" xlink:href="#linear-gradient-2"/>
    <linearGradient id="linear-gradient-6" x1="-162.57" y1="549.71" x2="-156.9" y2="549.71" xlink:href="#linear-gradient-3"/>
  </defs>
  <g id="Layer_1-2" data-name="Layer 1">
    <path class="cls-9" d="m41.69,4.44h316.5c20.18,0,36.56,16.38,36.56,36.56H5.13C5.13,20.83,21.51,4.44,41.69,4.44Z"/>
    <path class="cls-8" d="m352.1,0H49.4C22.1,0,0,22.1,0,49.4v769.2c0,27.3,22.1,49.4,49.4,49.4h302.7c27.3,0,49.4-22.1,49.4-49.4V49.4c.1-27.3-22.1-49.4-49.4-49.4Zm38.9,823.7c0,17.6-14.3,31.9-32,31.9H42.5c-17.7,0-32-14.3-32-32V41.3c0-17.7,14.3-32,32-32h316.5c17.7,0,32,14.3,32,32v782.4Z"/>
    <path class="cls-8" d="m282.6,1l-2.2,8.3-1.1,4.6c0,12.8-13.2,23.2-29.4,23.2h-98.2c-16.3,0-29.4-10.4-29.4-23.2l-1.1-4.6-2.2-8.3s163.6,0,163.6,0Z"/>
    <rect class="cls-1" x="43.2" y="18.5" width="60.7" height="13.9"/>
    <g class="cls-13">
      <path class="cls-12" d="m58.44,20.95h-.03l-1.92,1.04-.29-1.14,2.41-1.29h1.27v11.04h-1.44v-9.65Z"/>
      <path class="cls-12" d="m71.26,24.96c0,3.75-1.41,5.83-3.84,5.83-2.16,0-3.63-2.02-3.67-5.67,0-3.72,1.61-5.74,3.85-5.74s3.65,2.07,3.65,5.59Zm-5.99.17c0,2.87.88,4.5,2.24,4.5,1.51,0,2.24-1.78,2.24-4.6s-.68-4.5-2.24-4.5c-1.29,0-2.24,1.6-2.24,4.6Z"/>
      <path class="cls-12" d="m72.76,23.73c0-.63.42-1.07,1-1.07.61,0,1,.44,1,1.07,0,.59-.39,1.05-1.02,1.05-.58,0-.99-.46-.99-1.05Zm0,6c0-.63.42-1.07,1-1.07.61,0,1,.44,1,1.07,0,.59-.39,1.05-1.02,1.05-.58,0-.99-.46-.99-1.05Z"/>
      <path class="cls-12" d="m83.5,24.96c0,3.75-1.41,5.83-3.84,5.83-2.16,0-3.63-2.02-3.67-5.67,0-3.72,1.61-5.74,3.85-5.74s3.65,2.07,3.65,5.59Zm-5.99.17c0,2.87.88,4.5,2.24,4.5,1.51,0,2.24-1.78,2.24-4.6s-.68-4.5-2.24-4.5c-1.29,0-2.24,1.6-2.24,4.6Z"/>
      <path class="cls-12" d="m92.21,24.96c0,3.75-1.41,5.83-3.84,5.83-2.16,0-3.63-2.02-3.67-5.67,0-3.72,1.61-5.74,3.85-5.74s3.65,2.07,3.65,5.59Zm-5.99.17c0,2.87.88,4.5,2.24,4.5,1.51,0,2.24-1.78,2.24-4.6s-.68-4.5-2.24-4.5c-1.29,0-2.24,1.6-2.24,4.6Z"/>
    </g>
    <g id="_1" data-name="1">
      <g>
        <circle class="cls-2" cx="191.1" cy="16.2" r="8.6"/>
        <path class="cls-4" d="m197.5,21.4c-2.9,3.5-8,4-11.5,1.2-3.5-2.9-4-8-1.1-11.5s8-4,11.5-1.2,3.9,8,1.1,11.5Z"/>
        <ellipse class="cls-10" cx="190.99" cy="16.2" rx="6.6" ry="7" transform="translate(-.58 9.69) rotate(-2.9)"/>
        <path class="cls-5" d="m194.5,11c.8,1.6-.4,3.9-2.7,5.1-2.4,1.2-4.9.9-5.8-.7-.8-1.6.4-3.9,2.7-5.1,2.3-1.2,4.9-.9,5.8.7Z"/>
        <circle class="cls-3" cx="215.3" cy="16.2" r="5"/>
        <path class="cls-6" d="m219.1,19.3c-1.7,2.1-4.7,2.4-6.8.7-2.1-1.7-2.4-4.7-.7-6.8s4.7-2.4,6.8-.7c2,1.7,2.3,4.7.7,6.8Z"/>
        <ellipse class="cls-10" cx="215.18" cy="16.2" rx="3.9" ry="4.1" transform="translate(-.54 10.92) rotate(-2.9)"/>
        <path class="cls-7" d="m217.3,13.2c.5.9-.2,2.3-1.6,3-1.4.7-2.9.5-3.4-.4s.2-2.3,1.6-3c1.4-.8,2.9-.6,3.4.4Z"/>
      </g>
    </g>
    <g id="_2" data-name="2">
      <g>
        <path class="cls-12" d="m306.7,19.9c1.4,0,2.3,1.4,1.6,2.5l-.2.3-7,11.1c-.7,1.1-2.5,1.1-3.2,0l-6.9-11.3c-.7-1.1.2-2.5,1.6-2.5,7.5-.1,11.8-.1,14.1-.1Z"/>
        <path class="cls-11" d="m308.6,21.9h0c-.3.5-.9.9-1.6.9h-14.8c-.7,0-1.3-.3-1.6-.9h0c-.6-1,0-2.2,1.1-2.5,2.1-.5,4.9-.9,8.3-.9,3,0,5.5.4,7.5.9,1.2.3,1.8,1.5,1.1,2.5Z"/>
      </g>
      <g>
        <rect class="cls-11" x="346" y="20.5" width="9" height="15"/>
        <rect class="cls-11" x="348.5" y="18.5" width="4" height="2"/>
        <rect class="cls-12" x="346" y="25" width="9" height="10.5"/>
      </g>
      <polyline class="cls-12" points="335.2 36.3 313.5 36.3 335.2 20.5"/>
    </g>
  </g>
</svg>