<svg width="17" height="14" viewBox="0 0 17 14" fill="none" xmlns="http://www.w3.org/2000/svg">
<path d="M0 7.00089L4.15084 0H12.4418L16.5926 7.00089L12.4418 14H4.15084L0 7.00089ZM4.85238 1.23692L1.41726 7.00089L4.85238 12.7631H11.7403L15.1754 7.00089L11.7403 1.2387L4.85238 1.23692Z" fill="#888888"/>
<path d="M9.07219 8.34858C8.82129 8.42855 8.55945 8.46826 8.29626 8.46622C7.97998 8.46797 7.66643 8.40742 7.37327 8.28798C7.10675 8.17806 6.86772 8.01006 6.67347 7.79607C6.47127 7.56909 6.31755 7.30279 6.22175 7.01363C6.01631 6.33208 6.01631 5.60455 6.22175 4.92299C6.31675 4.63188 6.47052 4.36368 6.67347 4.13522C6.86801 3.92069 7.10689 3.75157 7.37327 3.63973C7.96738 3.40979 8.62514 3.40979 9.21924 3.63973C9.48649 3.75 9.72568 3.91935 9.91905 4.13522C10.1256 4.36253 10.2826 4.63089 10.3797 4.92299C10.49 5.25983 10.5439 5.61279 10.5391 5.96742C10.5449 6.32329 10.491 6.6776 10.3797 7.01542C10.3482 7.11173 10.3103 7.20581 10.2663 7.29702L10.6737 8.32541C10.943 8.03307 11.1524 7.69031 11.2902 7.31663C11.5996 6.4496 11.5996 5.50129 11.2902 4.63426C11.1448 4.24161 10.9219 3.88268 10.6348 3.57913C10.3464 3.28148 10.0002 3.04669 9.61785 2.88938C8.77288 2.55901 7.83555 2.55901 6.99059 2.88938C6.60807 3.04549 6.26228 3.28044 5.97547 3.57913C5.68872 3.88295 5.46584 4.24181 5.32004 4.63426C5.0066 5.50058 5.0066 6.45031 5.32004 7.31663C5.46721 7.70839 5.68993 8.06699 5.97547 8.37175C6.26197 8.66993 6.60791 8.90378 6.99059 9.05794C7.40876 9.22144 7.8548 9.30077 8.30335 9.29142C8.66839 9.29497 9.03177 9.24146 9.38049 9.1328L9.07219 8.34858Z" fill="#888888"/>
<path d="M7.78434 4.33789L6.64172 7.22344C6.71068 7.35692 6.79641 7.48092 6.89682 7.59238C7.01466 7.7211 7.15219 7.83001 7.30425 7.91498L8.06426 5.91702C8.09792 5.82791 8.1316 5.7281 8.16703 5.61581C8.20246 5.50353 8.23432 5.38233 8.26798 5.25935C8.32366 5.48146 8.39295 5.6999 8.47532 5.91345L9.43724 8.44967L9.6977 9.13942L10.2735 10.6526C10.2959 10.7174 10.3366 10.7744 10.3904 10.8166C10.4505 10.8605 10.5234 10.8831 10.5977 10.8807H11.3435L8.75516 4.34503L7.78434 4.33789Z" fill="#888888"/>
<path d="M6.00745 8.82959L5.20142 10.8614H5.94188C6.01724 10.8635 6.09082 10.8382 6.14914 10.7901C6.20205 10.7496 6.24314 10.6954 6.26791 10.6333L6.77101 9.29834C6.49619 9.17833 6.23922 9.02058 6.00745 8.82959Z" fill="#888888"/>
</svg>
