<svg width="20" height="14" viewBox="0 0 20 14" fill="none" xmlns="http://www.w3.org/2000/svg">
<path d="M15.0079 0H5C3.67392 0 2.40214 0.553172 1.46446 1.53784C0.526779 2.5225 0 3.85799 0 5.25051V12.8336C0 13.143 0.117005 13.4397 0.325298 13.6584C0.53359 13.8771 0.816137 14 1.11071 14H18.8874C19.0334 14.0003 19.1781 13.9703 19.3131 13.9119C19.4481 13.8534 19.5707 13.7674 19.674 13.6591C19.7774 13.5508 19.8594 13.4221 19.9153 13.2805C19.9712 13.1388 20 12.987 20 12.8336V5.25051C20 3.85942 19.4743 2.52518 18.5383 1.54075C17.6023 0.556327 16.3326 0.00218383 15.0079 0ZM8.33595 12.2505H1.66405V5.24428C1.66405 4.3152 2.01557 3.42424 2.64119 2.76728C3.2668 2.11032 4.11525 1.74118 5 1.74118C5.88475 1.74118 6.7333 2.11032 7.35891 2.76728C7.98452 3.42424 8.33595 4.3152 8.33595 5.24428V12.2505ZM18.334 12.2505H10.002V5.24428C9.99928 3.94788 9.53689 2.69901 8.70494 1.74118H15.002C15.8868 1.74118 16.7353 2.11032 17.3609 2.76728C17.9865 3.42424 18.338 4.3152 18.338 5.24428L18.334 12.2505ZM16.1127 4.66532H11.9467C11.873 4.66586 11.8023 4.69679 11.7502 4.75155C11.698 4.80631 11.6685 4.88048 11.668 4.95792V6.12418C11.6685 6.20161 11.698 6.27578 11.7502 6.33054C11.8023 6.3853 11.873 6.41633 11.9467 6.41687H14.4467V7.58313C14.4467 7.73779 14.5052 7.88619 14.6094 7.99556C14.7135 8.10492 14.8547 8.16631 15.002 8.16631H16.1127C16.26 8.16631 16.4012 8.10492 16.5054 7.99556C16.6095 7.88619 16.668 7.73779 16.668 7.58313V5.25051C16.668 5.09672 16.6104 4.94911 16.5076 4.83959C16.4048 4.73008 16.265 4.66749 16.1186 4.66532H16.1127ZM6.39135 4.66532H3.61267C3.53911 4.66587 3.46875 4.69694 3.41692 4.75175C3.36508 4.80657 3.33595 4.88067 3.33595 4.95792V6.70735C3.33595 6.7846 3.36508 6.8587 3.41692 6.91352C3.46875 6.96834 3.53911 6.9994 3.61267 6.99995H6.39135C6.46492 6.9994 6.53527 6.96834 6.58711 6.91352C6.63894 6.8587 6.66798 6.7846 6.66798 6.70735V4.95792C6.668 4.88172 6.63979 4.80851 6.58921 4.75387C6.53864 4.69922 6.46973 4.66747 6.3972 4.66532H6.39135Z" fill="#888888"/>
</svg>
