<svg width="14" height="14" viewBox="0 0 14 14" fill="none" xmlns="http://www.w3.org/2000/svg">
<path d="M7.00006 14C5.6327 14 4.29527 13.5996 3.15292 12.8481C2.01057 12.0966 1.11333 11.027 0.571976 9.77137C0.0306246 8.51573 -0.13113 7.12903 0.106696 5.7825C0.344522 4.43597 0.971512 3.18856 1.91024 2.19434C2.02023 2.08101 2.17041 2.01555 2.3283 2.01211C2.48619 2.00867 2.63909 2.06754 2.75391 2.17597C2.86873 2.2844 2.93625 2.43367 2.94185 2.5915C2.94746 2.74932 2.89072 2.90301 2.78388 3.01931C1.86785 3.9895 1.31444 5.24592 1.21703 6.57667C1.11961 7.90742 1.48414 9.23105 2.24913 10.3243C3.01411 11.4175 4.13274 12.2135 5.41632 12.5779C6.6999 12.9423 8.06988 12.8528 9.29517 12.3246C10.5205 11.7964 11.5261 10.8617 12.1424 9.67828C12.7587 8.49484 12.948 7.13502 12.6784 5.82824C12.4087 4.52146 11.6967 3.34767 10.6622 2.50486C9.62781 1.66204 8.33436 1.20178 7.00006 1.20172C6.84071 1.20172 6.68788 1.13843 6.5752 1.02574C6.46251 0.91306 6.39921 0.760216 6.39921 0.600858C6.39921 0.441501 6.46251 0.288686 6.5752 0.176003C6.68788 0.0633206 6.84071 0 7.00006 0C8.85656 0 10.637 0.737499 11.9498 2.05025C13.2625 3.36301 14 5.14348 14 7C14 8.85651 13.2625 10.637 11.9498 11.9497C10.637 13.2625 8.85656 14 7.00006 14Z" fill="#888888"/>
</svg>
