<svg width="21" height="14" viewBox="0 0 21 14" fill="none" xmlns="http://www.w3.org/2000/svg">
<path d="M19.237 5.83052H17.4912V4.07955C17.4905 3.61562 17.3058 3.17095 16.9775 2.84314C16.6492 2.51533 16.2043 2.33117 15.7403 2.33117H9.9125L7.58137 0H1.74835C1.28442 0.000686298 0.839764 0.185505 0.511959 0.513802C0.184154 0.842098 -5.07607e-07 1.28703 0 1.75097V12.249C-5.07608e-07 12.713 0.184154 13.158 0.511959 13.4863C0.839764 13.8146 1.28442 13.9993 1.74835 14H16.3308C16.6278 13.9998 16.9198 13.9241 17.1795 13.78C17.4391 13.6359 17.6577 13.4282 17.815 13.1763L20.7289 8.51399C20.8969 8.24852 20.9904 7.94267 20.9993 7.62861C21.0082 7.31455 20.9324 7.00385 20.7797 6.72925C20.6271 6.45465 20.4032 6.22626 20.1317 6.06811C19.8602 5.90995 19.5512 5.82789 19.237 5.83052ZM1.74063 1.96598C1.74132 1.90804 1.76481 1.85266 1.80602 1.81193C1.84724 1.7712 1.90275 1.74838 1.9607 1.74838H6.84833L9.17947 4.07955H15.5201C15.5781 4.08023 15.6335 4.10372 15.6742 4.14494C15.7149 4.18615 15.7378 4.2418 15.7378 4.29974V5.83052H5.52999C5.22861 5.83069 4.93242 5.90876 4.67011 6.05717C4.40779 6.20557 4.18819 6.41928 4.03281 6.67752L1.73798 10.4747L1.74063 1.96598ZM16.3231 12.2464H2.61607L5.43159 7.58409H19.237L16.3231 12.2464Z" fill="#888888"/>
</svg>
