<svg width="11" height="14" viewBox="0 0 11 14" fill="none" xmlns="http://www.w3.org/2000/svg">
<path d="M10.5962 2.68304L8.19345 0.385441C7.93595 0.139352 7.58669 0.000735563 7.22228 0H1.375C1.01017 0.00118949 0.660669 0.140234 0.402986 0.386723C0.145302 0.633211 0.000413401 0.967077 0 1.31527V12.6877C0 13.0358 0.144893 13.3696 0.402755 13.6157C0.660618 13.8618 1.01033 14 1.375 14H9.625C9.98967 14 10.3395 13.8618 10.5973 13.6157C10.8552 13.3696 11 13.0358 11 12.6877V3.60836C10.9976 3.26133 10.8526 2.92906 10.5962 2.68304ZM9.51344 3.50639H7.32916V1.42625L9.51344 3.50639ZM1.375 12.6922V1.31977H5.95885V4.16926C5.95864 4.25538 5.97628 4.34068 6.01071 4.42029C6.04515 4.49989 6.09576 4.57223 6.15957 4.63313C6.22338 4.69403 6.29914 4.74229 6.38255 4.77516C6.46596 4.80802 6.55534 4.82486 6.64558 4.82466H9.63129V12.6982L1.375 12.6922ZM2.29277 11.38H8.70885V7.88409L8.03477 7.2407C7.97028 7.17944 7.88292 7.14503 7.79192 7.14503C7.70092 7.14503 7.61364 7.17944 7.54915 7.2407L5.04277 9.63277L3.90977 8.55297C3.84528 8.4917 3.75792 8.45729 3.66692 8.45729C3.57592 8.45729 3.48864 8.4917 3.42415 8.55297L2.29277 9.63277V11.38ZM3.66777 4.81865C3.39582 4.81865 3.12996 4.89561 2.90384 5.03981C2.67773 5.184 2.5015 5.38893 2.39743 5.62871C2.29336 5.8685 2.26611 6.13237 2.31916 6.38693C2.37222 6.64148 2.50315 6.87528 2.69545 7.0588C2.88774 7.24233 3.13279 7.36732 3.39952 7.41795C3.66624 7.46859 3.94266 7.44262 4.1939 7.3433C4.44515 7.24398 4.65996 7.07575 4.81104 6.85995C4.96213 6.64415 5.04277 6.39046 5.04277 6.13092C5.04277 5.78288 4.89787 5.44909 4.64001 5.203C4.38215 4.9569 4.03244 4.81865 3.66777 4.81865Z" fill="#888888"/>
</svg>
