<svg width="17" height="14" viewBox="0 0 17 14" fill="none" xmlns="http://www.w3.org/2000/svg">
<path d="M15.6993 11.0663C16.0991 10.6733 16.4201 10.1993 16.6433 9.67234C16.8664 9.14536 16.9871 8.57614 16.9982 7.99876C16.9982 5.4913 14.7399 3.43312 11.7987 3.06536C10.8689 1.26625 8.68364 0 6.13717 0C2.74582 0 0 2.23789 0 4.99819C0.0110843 5.57568 0.13154 6.14491 0.354319 6.67218C0.577098 7.19945 0.897631 7.67402 1.29689 8.06773C0.99691 8.68667 0.623452 9.26252 0.185545 9.78121C0.0943673 9.88386 0.0335525 10.0125 0.0105062 10.1513C-0.01254 10.29 0.00317067 10.4329 0.0558082 10.5623C0.108446 10.6918 0.195728 10.802 0.306801 10.8797C0.417873 10.9573 0.547961 10.999 0.681072 10.9994C1.99786 10.9836 3.2818 10.5625 4.37637 9.78743C4.65259 9.85455 4.93202 9.90621 5.21339 9.94211C6.14118 11.7349 8.31646 12.9971 10.859 12.9971C11.4528 12.9989 12.045 12.9288 12.6238 12.7881C13.7187 13.5625 15.0024 13.9835 16.3191 14C16.4522 13.9996 16.5823 13.958 16.6934 13.8803C16.8045 13.8027 16.8917 13.6923 16.9443 13.5629C16.9969 13.4335 17.0127 13.2906 16.9897 13.1518C16.9666 13.0131 16.9058 12.8844 16.8147 12.7818C16.3739 12.2638 15.9989 11.6871 15.6993 11.0663ZM4.10793 8.18272L3.60257 8.52952C3.20484 8.80402 2.77821 9.02846 2.33132 9.19821C2.41028 9.04986 2.48923 8.89518 2.56621 8.73429L3.02415 7.76481L2.2918 6.99786C2.02811 6.74239 1.81485 6.43416 1.66441 6.09092C1.51397 5.74768 1.42934 5.37628 1.41535 4.99819C1.41535 3.10297 3.58675 1.50034 6.13717 1.50034C8.68759 1.50034 10.859 3.10297 10.859 4.99819C10.859 6.89342 8.68759 8.49819 6.13717 8.49819C5.6508 8.49743 5.16611 8.43858 4.69223 8.3227L4.10002 8.18272H4.10793ZM14.7044 9.99639L13.976 10.7591L14.434 11.7308C14.509 11.8896 14.5899 12.0463 14.6689 12.1926C14.2213 12.0244 13.7945 11.7999 13.3976 11.5239L12.8923 11.1791L12.3001 11.3212C11.8257 11.4382 11.3402 11.4971 10.8531 11.4967C9.26008 11.4967 7.83684 10.8698 6.97815 9.94415C9.96877 9.60773 12.2705 7.52655 12.2705 4.99819C12.2682 4.89409 12.2609 4.79023 12.2487 4.6869C14.1497 5.14034 15.5749 6.46085 15.5749 7.99876C15.5808 8.891 15.1032 9.57429 14.7044 9.9922V9.99639Z" fill="#888888"/>
</svg>
