<svg width="14" height="14" viewBox="0 0 14 14" fill="none" xmlns="http://www.w3.org/2000/svg">
<path d="M13.5714 3.05797L10.9473 0.43739C10.8082 0.29816 10.643 0.187824 10.461 0.112752C10.279 0.0376806 10.0839 -0.000637442 9.88698 8.02072e-06H1.50041C1.10412 3.86702e-07 0.723894 0.156576 0.442806 0.435547C0.161719 0.714517 0.0024614 1.09322 0 1.48897V12.5017C0.000493173 12.8989 0.158829 13.2797 0.440076 13.5606C0.721324 13.8415 1.10267 13.9995 1.50041 14H12.5091C12.9053 13.9975 13.2846 13.8386 13.5639 13.5579C13.8433 13.2772 14 12.8975 14 12.5017V4.1263C14.0004 3.9294 13.9619 3.73436 13.8868 3.55233C13.8116 3.37029 13.7013 3.20483 13.5621 3.06541L13.5714 3.05797ZM8.50596 1.49828V3.99602H4.50268V1.49828H8.50596ZM12.3209 12.5017H1.69788C1.64845 12.5017 1.60106 12.4821 1.56611 12.4472C1.53116 12.4123 1.51151 12.365 1.51151 12.3156V1.68626C1.51151 1.6369 1.53116 1.58956 1.56611 1.55465C1.60106 1.51975 1.64845 1.50014 1.69788 1.50014H3.00246V4.74794C3.00246 4.94539 3.08105 5.13476 3.22086 5.27437C3.36066 5.41399 3.55022 5.49243 3.74793 5.49243H9.25143C9.44914 5.49243 9.6387 5.41399 9.7785 5.27437C9.91831 5.13476 9.9969 4.94539 9.9969 4.74794V1.62112L12.4439 4.06488C12.478 4.10055 12.4973 4.14775 12.498 4.19703V12.3063C12.498 12.3557 12.4783 12.403 12.4433 12.4379C12.4084 12.4728 12.361 12.4924 12.3116 12.4924L12.3209 12.5017ZM7.00573 6.25552C6.46115 6.25515 5.92861 6.41611 5.47566 6.71804C5.0227 7.01996 4.66958 7.44928 4.46101 7.95166C4.25243 8.45406 4.19779 9.00694 4.30394 9.54037C4.41009 10.0738 4.67234 10.5638 5.05742 10.9484C5.4425 11.3329 5.93306 11.5948 6.46719 11.7008C7.00133 11.8068 7.555 11.7522 8.05806 11.5439C8.56112 11.3356 8.99097 10.983 9.29329 10.5306C9.59562 10.0783 9.75685 9.54652 9.75648 9.00266C9.75722 8.64126 9.68669 8.28325 9.54882 7.94909C9.41095 7.61494 9.20841 7.3112 8.95295 7.05521C8.69749 6.79923 8.394 6.59602 8.05988 6.45721C7.72575 6.3184 7.36762 6.2467 7.00573 6.24621V6.25552ZM7.00573 10.2515C6.7584 10.2515 6.5165 10.1783 6.31086 10.0411C6.10521 9.90383 5.94504 9.70878 5.85039 9.48058C5.75574 9.25238 5.73098 9.00128 5.77923 8.75902C5.82748 8.51676 5.9465 8.29423 6.12139 8.11958C6.29628 7.94492 6.51909 7.82598 6.76167 7.77779C7.00425 7.7296 7.25571 7.75433 7.48421 7.84886C7.71271 7.94338 7.90809 8.10345 8.0455 8.30883C8.18291 8.5142 8.25626 8.75566 8.25626 9.00266C8.25331 9.33211 8.12022 9.6471 7.88607 9.8792C7.65192 10.1113 7.33564 10.2417 7.00573 10.2422V10.2515Z" fill="#888888"/>
</svg>
