<svg width="10" height="14" viewBox="0 0 10 14" fill="none" xmlns="http://www.w3.org/2000/svg">
<path d="M9.63148 2.67798L7.44588 0.384909C7.21219 0.139228 6.89529 0.000819381 6.56461 0H1.24969C0.918214 0.00108228 0.600632 0.139983 0.366425 0.386308C0.132217 0.632634 0.000513915 0.96633 0 1.31442V12.6876C0 13.0357 0.131669 13.3695 0.366044 13.6156C0.600419 13.8617 0.918235 14 1.24969 14H8.74831C9.07995 14 9.39794 13.8618 9.63262 13.6157C9.86731 13.3697 9.99948 13.0359 10 12.6876V3.60749C9.99825 3.25884 9.86585 2.92494 9.63148 2.67798ZM6.666 1.42088L8.64692 3.50102H6.666V1.42088ZM8.75021 12.6815H1.24969V1.30623H5.41621V4.15005C5.41621 4.32381 5.48199 4.49045 5.599 4.61332C5.716 4.73619 5.87469 4.80521 6.04015 4.80521H8.75021V12.6815ZM3.334 7.44838C3.334 7.7946 3.43176 8.13304 3.61493 8.42091C3.79811 8.70878 4.05841 8.93315 4.36302 9.06564C4.66762 9.19813 5.00279 9.2328 5.32616 9.16526C5.64952 9.09772 5.94659 8.93099 6.17972 8.68618C6.41285 8.44137 6.5716 8.12945 6.63592 7.78989C6.70024 7.45032 6.66717 7.09834 6.541 6.77848C6.41483 6.45862 6.20119 6.18523 5.92706 5.99288C5.65292 5.80053 5.33065 5.69787 5.00095 5.69787C4.78197 5.6976 4.5651 5.74269 4.36273 5.83057C4.16037 5.91844 3.97646 6.04737 3.82161 6.20998C3.66677 6.37258 3.54401 6.56566 3.46033 6.77817C3.37665 6.99067 3.33374 7.21842 3.334 7.44838ZM6.03816 9.63498C5.70933 9.77953 5.35647 9.85398 5 9.85398C4.64353 9.85398 4.29057 9.77953 3.96175 9.63498H3.82723C2.86213 9.63498 2.0725 10.3413 2.0725 11.2094V11.3855C2.07225 11.4429 2.08278 11.4999 2.10354 11.553C2.12429 11.6061 2.15482 11.6545 2.19341 11.6952C2.232 11.7359 2.27789 11.7682 2.3284 11.7902C2.37891 11.8123 2.43307 11.8236 2.48777 11.8236H7.48872C7.54342 11.8236 7.59767 11.8123 7.64818 11.7902C7.69869 11.7682 7.74449 11.7359 7.78308 11.6952C7.82167 11.6545 7.85229 11.6061 7.87304 11.553C7.8938 11.4999 7.90433 11.4429 7.90408 11.3855V11.2094C7.90408 10.3413 7.1242 9.63498 6.14935 9.63498H6.03816Z" fill="#888888"/>
</svg>
