<svg width="14" height="14" viewBox="0 0 14 14" fill="none" xmlns="http://www.w3.org/2000/svg">
<path d="M13.027 0.625665L10.4472 0.0325475C10.1615 -0.0340704 9.86153 0.00227274 9.59999 0.135174C9.33846 0.268075 9.13215 0.489017 9.01737 0.759124L7.82915 3.53333C7.72338 3.78302 7.70122 4.06029 7.76594 4.32363C7.83067 4.58698 7.97882 4.82229 8.18826 4.99442L9.28142 5.89006C8.49863 7.3244 7.31982 8.50303 5.88575 9.28518L4.99194 8.19003C4.81987 7.98051 4.58462 7.83238 4.32139 7.76784C4.05816 7.70331 3.78112 7.72583 3.53174 7.83203L0.75922 9.02097C0.489533 9.13622 0.268916 9.34263 0.135938 9.60415C0.00296029 9.86568 -0.0339176 10.1657 0.0317622 10.4517L0.624553 13.029C0.687727 13.3053 0.842879 13.5519 1.06454 13.7283C1.28621 13.9047 1.56123 14.0005 1.84447 14C3.44032 14.0012 5.02076 13.6878 6.49548 13.0775C7.97021 12.4673 9.3103 11.5722 10.4392 10.4435C11.568 9.31486 12.4635 7.97465 13.0745 6.4995C13.6855 5.02434 14 3.44316 14 1.84635C14.0011 1.56238 13.9053 1.28655 13.7283 1.06455C13.5514 0.842557 13.3039 0.687695 13.027 0.625665ZM1.89332 12.6935L1.32297 10.2112L4.00703 9.06058L5.5306 10.9233C8.23183 9.65374 9.64845 8.24156 10.9159 5.53341L9.05434 4.01021L10.2056 1.32322L12.685 1.89524C12.6722 4.75515 11.5311 7.49427 9.51001 9.51656C7.48895 11.5388 4.7515 12.6806 1.89332 12.6935Z" fill="#888888"/>
</svg>
