<svg width="14" height="14" viewBox="0 0 14 14" fill="none" xmlns="http://www.w3.org/2000/svg">
<path d="M7.00188 2.71087C6.46609 2.71087 5.94233 2.86976 5.49684 3.16743C5.05135 3.4651 4.70414 3.88825 4.4991 4.38326C4.29406 4.87827 4.24041 5.42295 4.34494 5.94845C4.44946 6.47394 4.70746 6.95659 5.08632 7.33545C5.46519 7.71431 5.94788 7.97231 6.47338 8.07684C6.99887 8.18137 7.54355 8.12776 8.03856 7.92272C8.53357 7.71768 8.95668 7.37048 9.25434 6.92498C9.55201 6.47949 9.7109 5.95569 9.7109 5.4199C9.7104 4.70158 9.42481 4.01282 8.91688 3.50489C8.40895 2.99696 7.7202 2.71137 7.00188 2.71087ZM7.00188 6.77344C6.73364 6.77381 6.47133 6.69465 6.24814 6.54585C6.02495 6.39706 5.8509 6.18532 5.74807 5.93757C5.64525 5.68982 5.61826 5.41716 5.6705 5.15405C5.72274 4.89095 5.85189 4.64926 6.04157 4.45958C6.23124 4.26991 6.47293 4.14081 6.73604 4.08857C6.99914 4.03633 7.2718 4.06326 7.51955 4.16609C7.7673 4.26891 7.97899 4.44296 8.12779 4.66615C8.27658 4.88935 8.3558 5.15165 8.35542 5.4199C8.35492 5.77873 8.21219 6.1227 7.95846 6.37643C7.70472 6.63016 7.36071 6.77294 7.00188 6.77344ZM7.00188 2.54689e-07C5.61733 -0.000373141 4.26377 0.409833 3.11238 1.17878C1.96098 1.94772 1.06347 3.04088 0.533368 4.31993C0.00326571 5.59898 -0.1356 7.00645 0.134283 8.36444C0.404166 9.72243 1.07067 10.9699 2.04956 11.9491C3.02845 12.9282 4.27576 13.5951 5.63368 13.8654C6.9916 14.1356 8.39913 13.9971 9.67832 13.4673C10.9575 12.9376 12.0509 12.0404 12.8201 10.8892C13.5894 9.73801 14 8.38456 14 7.00001C14 5.14383 13.2628 3.36367 11.9504 2.05097C10.6381 0.738265 8.85807 0.000500845 7.00188 2.54689e-07ZM7.00188 12.6483C5.6535 12.6486 4.35011 12.1635 3.3301 11.2816C3.54305 10.9512 3.83286 10.6772 4.17477 10.4832C4.51669 10.2893 4.90052 10.181 5.2934 10.1677C5.84592 10.3438 6.422 10.4348 7.00188 10.4377C7.57866 10.4348 8.15162 10.3437 8.70091 10.1677C9.09394 10.1815 9.47785 10.29 9.82 10.4839C10.1621 10.6778 10.4524 10.9515 10.6661 11.2816C9.64751 12.1604 8.34717 12.6441 7.00188 12.6445V12.6483ZM11.593 10.2754C11.2441 9.82012 10.7952 9.4512 10.2809 9.19718C9.76667 8.94315 9.20088 8.81079 8.6273 8.8104C8.33847 8.8104 7.89292 9.08039 7.00188 9.08039C6.11083 9.08039 5.6634 8.8104 5.37646 8.8104C4.80295 8.81122 4.2373 8.94374 3.7231 9.19773C3.2089 9.45172 2.75991 9.82044 2.41071 10.2754C1.80722 9.43158 1.44794 8.43776 1.37233 7.40311C1.29672 6.36846 1.50772 5.33303 1.98213 4.41045C2.45655 3.48788 3.17604 2.71386 4.06158 2.17347C4.94712 1.63308 5.96447 1.34719 7.00188 1.34719C8.03928 1.34719 9.05663 1.63308 9.94218 2.17347C10.8277 2.71386 11.5472 3.48788 12.0216 4.41045C12.496 5.33303 12.707 6.36846 12.6314 7.40311C12.5558 8.43776 12.1965 9.43158 11.593 10.2754Z" fill="#888888"/>
</svg>
