<svg width="15" height="14" viewBox="0 0 15 14" fill="none" xmlns="http://www.w3.org/2000/svg">
<path d="M9.54829 8.4546C9.03536 8.54599 8.50433 8.46448 8.0498 8.22461C7.59526 7.98474 7.24674 7.60213 7.0664 7.14489C6.88606 6.68764 6.8856 6.18546 7.06507 5.72792C7.24454 5.27037 7.59228 4.88719 8.04636 4.64657C8.07001 4.63421 8.08897 4.61533 8.10067 4.59251C8.11237 4.5697 8.11624 4.54406 8.11172 4.51913C8.1072 4.49419 8.09451 4.47114 8.07542 4.45318C8.05632 4.43523 8.03175 4.42321 8.00506 4.4188C7.83605 4.38931 7.66446 4.37465 7.49253 4.37501C7.01656 4.37397 6.54805 4.48556 6.13081 4.69925C5.71356 4.91295 5.36118 5.22185 5.10657 5.59706C4.85196 5.97227 4.70346 6.40156 4.67489 6.84485C4.64632 7.28814 4.73867 7.73093 4.94326 8.1319C5.14784 8.53287 5.458 8.87893 5.84479 9.13773C6.23159 9.39653 6.68237 9.55964 7.15504 9.61182C7.62772 9.664 8.10686 9.60349 8.54771 9.43605C8.98855 9.26862 9.37671 8.99967 9.67594 8.65431C9.69389 8.63482 9.70484 8.61055 9.7072 8.58495C9.70957 8.55934 9.70325 8.53372 9.68914 8.51165C9.67503 8.48958 9.65382 8.47218 9.62855 8.46196C9.60328 8.45173 9.57521 8.44913 9.54829 8.4546ZM14.4746 6.06713L12.7212 4.96012L13.1229 3.01928C13.1605 2.84169 13.1508 2.65816 13.0946 2.48489C13.0384 2.31163 12.9375 2.15395 12.8006 2.0256C12.6638 1.89725 12.4953 1.80218 12.3099 1.74882C12.1245 1.69546 11.9279 1.68544 11.7373 1.71957L9.65908 2.09436L8.47441 0.456643C8.36 0.314832 8.21183 0.19975 8.04159 0.120511C7.87136 0.0412721 7.68369 0 7.49345 0C7.3032 0 7.11558 0.0412721 6.94535 0.120511C6.77511 0.19975 6.62694 0.314832 6.51252 0.456643L5.32786 2.09436L3.2627 1.71957C3.07204 1.68567 2.87537 1.69579 2.6899 1.74917C2.50442 1.80254 2.33578 1.89754 2.19872 2.02577C2.06166 2.15399 1.96035 2.31162 1.90364 2.48481C1.84693 2.658 1.83658 2.84148 1.87343 3.01928L2.27518 4.96012L0.521653 6.06713C0.360964 6.16873 0.229411 6.30552 0.138469 6.46553C0.0475263 6.62553 0 6.80392 0 6.98503C0 7.16614 0.0475263 7.34445 0.138469 7.50445C0.229411 7.66446 0.360964 7.80124 0.521653 7.90285L2.27518 9.00986L1.87343 10.9507C1.83634 11.1284 1.84658 11.3119 1.90327 11.485C1.95996 11.6581 2.06135 11.8156 2.19854 11.9436C2.33573 12.0716 2.50453 12.1662 2.69008 12.2191C2.87563 12.272 3.07226 12.2816 3.2627 12.247L5.32786 11.8721L6.51252 13.5116C6.62048 13.6619 6.76642 13.7851 6.93751 13.8703C7.10859 13.9554 7.29953 14 7.49345 14C7.68736 14 7.8783 13.9554 8.04938 13.8703C8.22047 13.7851 8.36645 13.6619 8.47441 13.5116L9.65908 11.8738L11.7373 12.2487C11.9278 12.2843 12.1248 12.2753 12.3106 12.2224C12.4964 12.1695 12.6652 12.0744 12.8019 11.9457C12.9384 11.8172 13.0393 11.6596 13.0959 11.4865C13.1525 11.3135 13.163 11.1302 13.1267 10.9525L12.7249 9.01166L14.4784 7.90285C14.6391 7.80104 14.7706 7.66408 14.8615 7.50394C14.9525 7.3438 15 7.16531 15 6.98409C15 6.80287 14.9525 6.62447 14.8615 6.46433C14.7706 6.30418 14.6391 6.16723 14.4784 6.06542L14.4746 6.06713ZM11.1666 8.4091L11.6811 10.9017L9.01509 10.4217L7.49253 12.5237L5.9718 10.4217L3.30776 10.9034L3.82405 8.4091L1.57115 6.98674L3.82405 5.56439L3.30776 3.0718L5.97556 3.5535L7.49253 1.45152L9.01509 3.5535L11.6811 3.0718L11.1666 5.56267L13.4195 6.98503L11.1666 8.41081V8.4091Z" fill="#888888"/>
</svg>
