<svg width="20" height="14" viewBox="0 0 20 14" fill="none" xmlns="http://www.w3.org/2000/svg">
<path d="M14.4443 4.99963C14.4443 2.23645 11.2112 0 7.22099 0C3.23074 0 0 2.23645 0 4.99963C0.0181537 6.07364 0.489838 7.10117 1.31926 7.8736C0.999154 8.49319 0.579712 9.06711 0.0743394 9.57705C0.0375368 9.61304 0.0131235 9.65793 0.00405436 9.70615C-0.00501482 9.75438 0.00162771 9.80394 0.0232204 9.84883C0.0437423 9.8939 0.0788849 9.93231 0.124041 9.95916C0.169197 9.986 0.222293 9.99996 0.276405 9.99927C1.36193 9.9895 2.42498 9.71973 3.35619 9.2176C4.56201 9.73834 5.88354 10.0056 7.22099 9.99927C11.2112 9.99927 14.4443 7.76282 14.4443 4.99963ZM18.6808 11.8742C19.5092 11.1012 19.9807 10.074 20 9.00022C20 6.91006 18.1419 5.11877 15.5104 4.37259C15.5404 4.5805 15.5552 4.78997 15.5545 4.99963C15.5545 8.30835 11.8151 10.9984 7.22099 10.9984C6.85315 10.9959 6.48569 10.9763 6.12007 10.9398C7.21402 12.7374 9.78284 13.9999 12.7767 13.9999C14.1143 14.0073 15.4361 13.7399 16.6415 13.2181C17.5727 13.7202 18.6358 13.9901 19.7213 13.9999C19.7746 13.9989 19.8265 13.9841 19.8708 13.9574C19.9151 13.9307 19.95 13.8931 19.9713 13.8491C19.9925 13.8051 19.9993 13.7566 19.9908 13.7092C19.9824 13.6618 19.9589 13.6176 19.9234 13.5818C19.4179 13.0708 18.9992 12.4954 18.6808 11.8742Z" fill="#888888"/>
</svg>
