<svg width="14" height="14" viewBox="0 0 14 14" fill="none" xmlns="http://www.w3.org/2000/svg">
<path d="M10.7392 1.28518C12.0216 2.0828 13.0061 3.26892 13.5444 4.66495C14.0828 6.06097 14.1458 7.59141 13.724 9.02572C13.3022 10.46 12.4184 11.7206 11.2057 12.6177C9.99298 13.5148 8.51704 14 7.00001 14C5.48299 14 4.00699 13.5148 2.79429 12.6177C1.5816 11.7206 0.697851 10.46 0.276044 9.02572C-0.145763 7.59141 -0.0827928 6.06097 0.455523 4.66495C0.993839 3.26892 1.97835 2.0828 3.26081 1.28518C3.29951 1.26077 3.34289 1.2445 3.38826 1.23721C3.43364 1.22991 3.48002 1.23181 3.5246 1.24284C3.56919 1.25386 3.61105 1.27372 3.64753 1.30125C3.68401 1.32879 3.71435 1.36343 3.73674 1.40296L4.07114 1.98197C4.11359 2.05553 4.12583 2.14226 4.10541 2.22444C4.08499 2.30662 4.03347 2.37799 3.96132 2.42397C2.93247 3.07112 2.14447 4.02911 1.71557 5.15434C1.28667 6.27957 1.23996 7.51133 1.58245 8.6649C1.92494 9.81846 2.63819 10.8317 3.61518 11.5526C4.59216 12.2734 5.78021 12.663 7.0012 12.663C8.2222 12.663 9.41031 12.2734 10.3873 11.5526C11.3643 10.8317 12.0775 9.81846 12.42 8.6649C12.7624 7.51133 12.7157 6.27957 12.2868 5.15434C11.8579 4.02911 11.07 3.07112 10.0411 2.42397C9.96858 2.37837 9.91651 2.30711 9.89563 2.22491C9.87475 2.1427 9.88666 2.05581 9.92888 1.98197L10.2632 1.40296C10.2856 1.36343 10.316 1.32879 10.3525 1.30125C10.389 1.27372 10.4308 1.25386 10.4754 1.24284C10.5199 1.23181 10.5664 1.22991 10.6118 1.23721C10.6571 1.2445 10.7005 1.26077 10.7392 1.28518ZM7.67854 7.66594V0.331501C7.6779 0.243354 7.64187 0.158999 7.57831 0.0968931C7.51476 0.0347874 7.4288 -2.2811e-06 7.33925 1.12088e-10H6.66072C6.57139 1.12088e-10 6.48571 0.0348366 6.42254 0.0970104C6.35938 0.159184 6.32393 0.243574 6.32393 0.331501V7.66594C6.3236 7.70967 6.33205 7.75306 6.34883 7.79356C6.36562 7.83406 6.3904 7.87091 6.42171 7.90195C6.45302 7.93299 6.49027 7.95763 6.53129 7.97444C6.57232 7.99126 6.61628 7.9999 6.66072 7.9999H7.33925C7.3838 7.9999 7.42793 7.99123 7.46909 7.97444C7.51025 7.95766 7.54764 7.93308 7.57915 7.90207C7.61065 7.87106 7.63563 7.83431 7.65268 7.7938C7.66973 7.75328 7.67854 7.70979 7.67854 7.66594Z" fill="#888888"/>
</svg>
