<svg width="19" height="14" viewBox="0 0 19 14" fill="none" xmlns="http://www.w3.org/2000/svg">
<path d="M9.24828 3.63176L3.16661 8.37831V13.5005C3.1666 13.5668 3.1805 13.6325 3.20753 13.6936C3.23457 13.7547 3.2742 13.8102 3.32408 13.8566C3.37395 13.9031 3.43309 13.9398 3.49806 13.9644C3.56302 13.989 3.6325 14.001 3.70245 13.9999H7.40549C7.54512 13.9988 7.67863 13.9455 7.77695 13.8516C7.87528 13.7577 7.93046 13.6307 7.93046 13.4984V10.4916C7.93017 10.4259 7.94358 10.3607 7.96994 10.2999C7.9963 10.239 8.03509 10.1837 8.08407 10.1371C8.13304 10.0905 8.19126 10.0536 8.25536 10.0284C8.31946 10.0032 8.38817 9.99009 8.45758 9.99009H10.5683C10.7087 9.99009 10.8433 10.043 10.9426 10.137C11.0419 10.2311 11.0976 10.3586 11.0976 10.4916V13.4799C11.097 13.5455 11.1102 13.6106 11.1363 13.6714C11.1625 13.7322 11.201 13.7876 11.2498 13.8343C11.2987 13.8809 11.3567 13.9178 11.4207 13.9431C11.4847 13.9684 11.5533 13.9814 11.6226 13.9814L15.3256 13.9917C15.395 13.9919 15.4638 13.9793 15.528 13.9543C15.5922 13.9293 15.6506 13.8926 15.6998 13.8462C15.749 13.7998 15.788 13.7446 15.8146 13.6838C15.8412 13.6231 15.855 13.558 15.855 13.4923V8.36602L9.77325 3.61947C9.70182 3.5645 9.61259 3.53442 9.52057 3.53442C9.42854 3.53442 9.33934 3.5645 9.26791 3.61947L9.24828 3.63176ZM18.8566 6.85743L10.5051 0.342206C10.2222 0.120948 9.86676 0 9.49988 0C9.133 0 8.77757 0.120948 8.49462 0.342206L0.143191 6.85743C0.0624058 6.92098 0.0115329 7.01232 0.00173192 7.11136C-0.00806905 7.21041 0.0240047 7.30909 0.0909149 7.38575L0.931718 8.35363C0.964606 8.39191 1.00517 8.4236 1.05108 8.44694C1.09699 8.47027 1.14731 8.48476 1.19916 8.48956C1.25101 8.49436 1.30336 8.48933 1.35317 8.47485C1.40298 8.46037 1.44925 8.43675 1.48934 8.40522L9.24828 2.3502C9.31972 2.29524 9.40895 2.26525 9.50097 2.26525C9.59299 2.26525 9.68222 2.29524 9.75365 2.3502L17.5148 8.40522C17.5547 8.43655 17.6007 8.46008 17.6502 8.47455C17.6997 8.48902 17.7517 8.49406 17.8033 8.48946C17.8549 8.48486 17.9051 8.47071 17.9509 8.44774C17.9967 8.42478 18.0372 8.39347 18.0702 8.35564L18.911 7.38575C18.977 7.30895 19.0083 7.21052 18.9981 7.11197C18.9879 7.01341 18.937 6.92265 18.8566 6.85945V6.85743Z" fill="#888888"/>
</svg>
