<svg width="14" height="14" viewBox="0 0 14 14" fill="none" xmlns="http://www.w3.org/2000/svg">
<path d="M6.99997 2.37082e-07C5.6155 2.37082e-07 4.26212 0.410532 3.11098 1.1797C1.95984 1.94887 1.06264 3.04216 0.53283 4.32125C0.00301675 5.60033 -0.135585 7.00775 0.134512 8.36562C0.404608 9.72349 1.07127 10.9708 2.05024 11.9497C3.0292 12.9287 4.27648 13.5954 5.63434 13.8655C6.99221 14.1356 8.39968 13.9969 9.67876 13.4671C10.9578 12.9373 12.0511 12.0402 12.8203 10.889C13.5894 9.73788 14 8.3845 14 7.00003C14.0002 6.08071 13.8193 5.17037 13.4676 4.32098C13.116 3.47159 12.6003 2.69977 11.9503 2.04971C11.3002 1.39966 10.5285 0.884094 9.67907 0.532396C8.82968 0.180698 7.91929 -0.000239076 6.99997 2.37082e-07ZM6.99997 2.70858C7.49144 2.70822 7.97199 2.85364 8.38081 3.12642C8.78963 3.39921 9.10835 3.78707 9.29667 4.24102C9.485 4.69498 9.53446 5.19462 9.4388 5.67669C9.34314 6.15876 9.10669 6.6016 8.7593 6.94925C8.4119 7.2969 7.96918 7.53372 7.48719 7.62973C7.00519 7.72574 6.50556 7.67666 6.05147 7.48867C5.59738 7.30068 5.2092 6.98227 4.93612 6.57365C4.66304 6.16504 4.5173 5.68459 4.5173 5.19313C4.5173 4.53451 4.7788 3.9028 5.24434 3.43691C5.70988 2.97103 6.34135 2.70907 6.99997 2.70858ZM6.99997 12.419C6.21215 12.4185 5.43396 12.2459 4.71977 11.9134C4.00558 11.5808 3.37263 11.0963 2.86519 10.4937C3.13234 9.9859 3.53315 9.56071 4.0243 9.26409C4.51546 8.96747 5.07831 8.81064 5.65209 8.81059C5.71997 8.81182 5.78738 8.82222 5.85247 8.84154C6.5998 9.10138 7.41295 9.10138 8.16028 8.84154C8.22537 8.82222 8.29279 8.81182 8.36067 8.81059C8.93389 8.81189 9.49582 8.96986 9.98573 9.26747C10.4756 9.56508 10.8749 9.99101 11.1402 10.4991C10.6319 11.1017 9.99793 11.5859 9.28271 11.9175C8.56749 12.2492 7.78835 12.4203 6.99997 12.419Z" fill="#888888"/>
</svg>
