<svg width="13" height="14" viewBox="0 0 13 14" fill="none" xmlns="http://www.w3.org/2000/svg">
<path d="M3.71356 4.05066V2.94934C3.71356 2.86229 3.7503 2.77882 3.81565 2.71727C3.88099 2.65572 3.96953 2.62114 4.06195 2.62114H5.23121C5.32363 2.62114 5.41228 2.65572 5.47763 2.71727C5.54297 2.77882 5.57971 2.86229 5.57971 2.94934V4.05066C5.57971 4.1377 5.54297 4.22118 5.47763 4.28273C5.41228 4.34427 5.32363 4.37886 5.23121 4.37886H4.06195C3.96953 4.37886 3.88099 4.34427 3.81565 4.28273C3.7503 4.22118 3.71356 4.1377 3.71356 4.05066ZM7.77563 4.37886H8.94489C9.0373 4.37886 9.12585 4.34427 9.19119 4.28273C9.25654 4.22118 9.29327 4.1377 9.29327 4.05066V2.94934C9.29327 2.86229 9.25654 2.77882 9.19119 2.71727C9.12585 2.65572 9.0373 2.62114 8.94489 2.62114H7.77563C7.68362 2.62173 7.59554 2.65656 7.5307 2.71805C7.46586 2.77953 7.42952 2.86267 7.42953 2.94934V4.05066C7.42952 4.13732 7.46586 4.22047 7.5307 4.28195C7.59554 4.34344 7.68362 4.37827 7.77563 4.37886ZM4.06195 7.0022H5.23121C5.32363 7.0022 5.41228 6.96762 5.47763 6.90607C5.54297 6.84453 5.57971 6.76105 5.57971 6.67401V5.57268C5.57971 5.48564 5.54297 5.40216 5.47763 5.34062C5.41228 5.27907 5.32363 5.24449 5.23121 5.24449H4.06195C3.96953 5.24449 3.88099 5.27907 3.81565 5.34062C3.7503 5.40216 3.71356 5.48564 3.71356 5.57268V6.67401C3.71356 6.76105 3.7503 6.84453 3.81565 6.90607C3.88099 6.96762 3.96953 7.0022 4.06195 7.0022ZM7.77563 7.0022H8.94489C9.0373 7.0022 9.12585 6.96762 9.19119 6.90607C9.25654 6.84453 9.29327 6.76105 9.29327 6.67401V5.57268C9.29327 5.48564 9.25654 5.40216 9.19119 5.34062C9.12585 5.27907 9.0373 5.24449 8.94489 5.24449H7.77563C7.68362 5.24507 7.59554 5.27991 7.5307 5.3414C7.46586 5.40288 7.42952 5.48602 7.42953 5.57268V6.67401C7.42952 6.76067 7.46586 6.84382 7.5307 6.9053C7.59554 6.96679 7.68362 7.00162 7.77563 7.0022ZM5.57035 9.29956V8.19824C5.57035 8.1112 5.53361 8.02772 5.46826 7.96617C5.40292 7.90462 5.31438 7.87005 5.22196 7.87005H4.0527C3.96028 7.87005 3.87163 7.90462 3.80628 7.96617C3.74094 8.02772 3.7042 8.1112 3.7042 8.19824V9.29956C3.70482 9.38622 3.7418 9.46913 3.80708 9.5302C3.87236 9.59128 3.96069 9.62556 4.0527 9.62555H5.22196C5.31397 9.62556 5.40219 9.59128 5.46746 9.5302C5.53274 9.46913 5.56973 9.38622 5.57035 9.29956ZM7.77563 9.62555H8.94489C9.0369 9.62556 9.12511 9.59128 9.19039 9.5302C9.25567 9.46913 9.29266 9.38622 9.29327 9.29956V8.19824C9.29327 8.1112 9.25654 8.02772 9.19119 7.96617C9.12585 7.90462 9.0373 7.87005 8.94489 7.87005H7.77563C7.68362 7.87063 7.59554 7.90546 7.5307 7.96694C7.46586 8.02843 7.42952 8.11158 7.42953 8.19824V9.29956C7.43014 9.38584 7.46672 9.46842 7.5315 9.52943C7.59627 9.59044 7.68402 9.62498 7.77563 9.62555ZM12.9999 13.0154V14H0V13.0154C0 12.9284 0.0366228 12.8449 0.101968 12.7833C0.167314 12.7218 0.25597 12.6872 0.348382 12.6872H0.914289V0.660793C0.914289 0.48554 0.988256 0.317461 1.11982 0.193538C1.25139 0.0696152 1.42978 0 1.61585 0H11.3957C11.5817 0 11.7601 0.0696152 11.8917 0.193538C12.0233 0.317461 12.0972 0.48554 12.0972 0.660793V12.6784H12.6538C12.7001 12.6787 12.746 12.6877 12.7886 12.7049C12.8313 12.722 12.8698 12.747 12.902 12.7784C12.9342 12.8098 12.9595 12.8469 12.9764 12.8876C12.9932 12.9283 13.0011 12.9718 12.9999 13.0154ZM2.30576 12.6608H5.57971V10.8282C5.58033 10.7415 5.61731 10.6586 5.68259 10.5975C5.74787 10.5365 5.8362 10.5022 5.92821 10.5022H7.09747C7.18948 10.5022 7.27769 10.5365 7.34297 10.5975C7.40825 10.6586 7.44524 10.7415 7.44586 10.8282V12.6608H10.7198V1.34361L2.3455 1.31718L2.30576 12.6608Z" fill="#888888"/>
</svg>
