<svg width="17" height="14" viewBox="0 0 17 14" fill="none" xmlns="http://www.w3.org/2000/svg">
<path d="M5.77364 13.0846C5.2558 13.0875 4.73978 13.0211 4.23856 12.887C4.10128 12.8509 3.97958 12.7689 3.8927 12.6536C3.80582 12.5383 3.75872 12.3965 3.75884 12.2506V11.3829C3.50868 11.2623 3.2692 11.1194 3.04312 10.956L2.33506 11.3769C2.21099 11.4516 2.06603 11.4807 1.92383 11.4596C1.78164 11.4384 1.65061 11.3681 1.55216 11.2604C0.611921 10.2306 0.377818 9.65724 0.0324244 8.56421C-0.0133625 8.41994 -0.00933833 8.26393 0.0438141 8.12237C0.0969665 7.98081 0.195984 7.86246 0.324094 7.78748L1.03599 7.37827C1.01297 7.0948 1.01297 6.80993 1.03599 6.52645L0.324094 6.11338C0.195457 6.03896 0.0959882 5.92062 0.0427659 5.77887C-0.0104565 5.63713 -0.0141158 5.48068 0.0324244 5.33646C0.379737 4.24343 0.608084 3.67222 1.55216 2.64243C1.65061 2.53465 1.78164 2.46442 1.92383 2.44323C2.06603 2.42205 2.21099 2.45121 2.33506 2.52585L3.04312 2.94683C3.2692 2.78337 3.50868 2.64048 3.75884 2.51986V1.69372C3.75838 1.54631 3.80626 1.40309 3.89472 1.28722C3.98319 1.17134 4.10704 1.08969 4.24623 1.05539C5.23898 0.768786 6.28911 0.768786 7.28186 1.05539C7.42124 1.08963 7.54534 1.17118 7.63413 1.28702C7.72291 1.40287 7.77119 1.54613 7.77117 1.69372V2.52585C8.02133 2.64528 8.26028 2.78823 8.48499 2.95282L9.19497 2.5299C9.31992 2.4563 9.46529 2.42812 9.60767 2.44999C9.75003 2.47186 9.8811 2.54239 9.97977 2.65035C10.6744 3.4133 11.2654 4.25134 11.488 5.39379C11.5136 5.52499 11.4998 5.66119 11.4483 5.78409C11.3969 5.90698 11.3103 6.01081 11.2002 6.08173L10.4921 6.53244C10.5171 6.81582 10.5171 7.10087 10.4921 7.38425L11.2002 7.83496C11.3099 7.90489 11.3962 8.00765 11.4477 8.12952C11.4991 8.25138 11.5132 8.38658 11.488 8.51691C11.2731 9.62379 10.7032 10.4658 9.97785 11.2683C9.8794 11.3761 9.74838 11.4461 9.60619 11.4673C9.46399 11.4885 9.31903 11.4595 9.19497 11.3849L8.48499 10.9639C8.25983 11.1277 8.02094 11.2705 7.77117 11.3906V12.2585C7.77118 12.4047 7.7238 12.5466 7.63655 12.6619C7.5493 12.7772 7.42718 12.8592 7.28954 12.8949C6.79172 13.0262 6.27986 13.0926 5.76597 13.0925L5.77364 13.0846ZM5.04064 11.701C5.52565 11.7801 6.01971 11.7801 6.50473 11.701V10.4755L6.9288 10.3194C7.3308 10.174 7.70301 9.95288 8.02638 9.66714L8.36794 9.36467L9.39836 9.97752C9.70839 9.58553 9.95582 9.14505 10.1314 8.67288L9.10094 8.06022L9.18345 7.60372C9.26019 7.17048 9.26019 6.72653 9.18345 6.29328L9.10094 5.83659L10.1314 5.22393C9.95582 4.75176 9.70839 4.31128 9.39836 3.91929L8.36794 4.53214L8.02638 4.2316C7.70321 3.94508 7.33098 3.72329 6.9288 3.57744L6.50473 3.42128V2.19771C6.01971 2.11866 5.52565 2.11866 5.04064 2.19771V3.42321L4.61657 3.57937C4.21464 3.72581 3.84252 3.94754 3.51899 4.23353L3.17552 4.53407L2.14509 3.92141C1.83683 4.31465 1.58956 4.75464 1.41209 5.22586L2.44251 5.83852L2.36191 6.29714C2.28338 6.72955 2.28338 7.17324 2.36191 7.60565L2.44251 8.06427L1.41209 8.67693C1.58868 9.14859 1.83602 9.58871 2.14509 9.98138L3.17552 9.36873L3.51899 9.66907C3.84285 9.95458 4.21488 10.1764 4.61657 10.3234L5.04064 10.4796V11.701ZM5.75446 9.36081C5.21244 9.36024 4.68738 9.16609 4.26873 8.81147C3.85008 8.45685 3.56375 7.96379 3.45851 7.4161C3.35327 6.86841 3.43563 6.29998 3.69157 5.80783C3.94751 5.31568 4.36119 4.93026 4.86213 4.71705C5.36307 4.50384 5.92028 4.47598 6.43882 4.63849C6.95737 4.80101 7.40517 5.14377 7.70594 5.60824C8.00671 6.07271 8.14184 6.63024 8.08831 7.18582C8.03477 7.74141 7.79588 8.26061 7.41234 8.65512C7.1946 8.87923 6.9361 9.05694 6.65162 9.17802C6.36713 9.2991 6.06227 9.36124 5.75446 9.36081ZM5.75446 5.84856C5.50663 5.84758 5.26615 5.93515 5.07403 6.0964C4.8819 6.25765 4.75003 6.48258 4.70089 6.7328C4.65176 6.98301 4.6884 7.24292 4.80459 7.46841C4.92077 7.6939 5.1093 7.87099 5.33801 7.96931C5.56672 8.06762 5.82146 8.08106 6.05878 8.00752C6.2961 7.93399 6.50131 7.77805 6.63941 7.56608C6.77752 7.35411 6.83997 7.09923 6.81611 6.84514C6.79224 6.59104 6.68355 6.35341 6.50857 6.17264C6.4103 6.06942 6.29292 5.98743 6.16339 5.93175C6.03386 5.87607 5.89481 5.84791 5.75446 5.84856ZM16.9586 2.32433C16.9459 2.24736 16.9072 2.17736 16.8492 2.12706C16.7912 2.07676 16.7178 2.0493 16.642 2.04947H16.2161C16.1234 1.78103 15.9835 1.53247 15.8035 1.31617L16.0165 0.936685C16.0543 0.869208 16.0677 0.790237 16.0544 0.71355C16.041 0.636863 16.0018 0.56738 15.9436 0.517631C15.6952 0.305464 15.4145 0.137246 15.1127 0.0196303C15.0423 -0.00670562 14.9651 -0.00657185 14.8948 0.0202093C14.8245 0.0469905 14.7658 0.0987298 14.7289 0.165942L14.5159 0.545426C14.2445 0.494036 13.9662 0.494036 13.6947 0.545426L13.4836 0.165942C13.4452 0.100386 13.3863 0.0500637 13.3166 0.0234907C13.2468 -0.00308221 13.1704 -0.00437721 13.0998 0.0196303C12.7975 0.137215 12.5161 0.305426 12.2671 0.517631C12.2085 0.567143 12.169 0.636563 12.1557 0.713357C12.1423 0.790151 12.1559 0.869314 12.1941 0.936685L12.4071 1.31617C12.2271 1.53247 12.0873 1.78103 11.9946 2.04947H11.5686C11.4922 2.04945 11.4184 2.07751 11.3603 2.12861C11.3023 2.1797 11.2639 2.2505 11.252 2.32819C11.2004 2.65547 11.2004 2.98919 11.252 3.31647C11.2647 3.39344 11.3035 3.46325 11.3614 3.51355C11.4194 3.56385 11.4928 3.59132 11.5686 3.59115H11.9946C12.0873 3.85958 12.2271 4.10814 12.4071 4.32444L12.1941 4.70412C12.1563 4.7716 12.1429 4.85057 12.1562 4.92725C12.1696 5.00394 12.2088 5.07323 12.2671 5.12298C12.5161 5.33519 12.7975 5.50359 13.0998 5.62117C13.1703 5.64671 13.2473 5.64595 13.3173 5.61924C13.3874 5.59254 13.4462 5.54151 13.4836 5.47486L13.6947 5.09538C13.9662 5.14677 14.2445 5.14677 14.5159 5.09538L14.7289 5.47486C14.7669 5.54096 14.8257 5.59164 14.8956 5.61828C14.9655 5.64492 15.0422 5.64593 15.1127 5.62117C15.4155 5.50317 15.6974 5.33481 15.9474 5.12298C16.0056 5.0732 16.0448 5.00384 16.0578 4.92706C16.0708 4.85028 16.0568 4.77127 16.0184 4.70412L15.8054 4.32444C15.9854 4.10814 16.1253 3.85958 16.218 3.59115H16.6459C16.722 3.5911 16.7956 3.56313 16.8533 3.51201C16.9111 3.46088 16.9491 3.39014 16.9606 3.31261C17.0131 2.98541 17.0131 2.65153 16.9606 2.32433H16.9586ZM14.0957 3.69596C13.9276 3.69596 13.7632 3.6447 13.6235 3.54849C13.4837 3.45227 13.3747 3.31549 13.3104 3.15549C13.246 2.99549 13.2292 2.81943 13.262 2.64958C13.2948 2.47972 13.3758 2.32364 13.4946 2.20118C13.6135 2.07873 13.765 1.99543 13.9299 1.96164C14.0948 1.92785 14.2657 1.94517 14.421 2.01144C14.5764 2.07771 14.7091 2.18999 14.8025 2.33398C14.8959 2.47798 14.9458 2.64722 14.9458 2.8204C14.9468 2.93605 14.9256 3.05066 14.8833 3.15781C14.841 3.26496 14.7786 3.36249 14.6995 3.44464C14.6205 3.52679 14.5264 3.59201 14.4228 3.63651C14.3192 3.681 14.208 3.70388 14.0957 3.70387V3.69596ZM16.9586 10.6832C16.9455 10.6066 16.9066 10.5372 16.8487 10.4873C16.7907 10.4374 16.7176 10.41 16.642 10.4103H16.2161C16.1234 10.1419 15.9835 9.89329 15.8035 9.67699L16.0165 9.29557C16.0542 9.2284 16.0675 9.14975 16.0542 9.0734C16.0408 8.99705 16.0016 8.92786 15.9436 8.87845C15.6955 8.66486 15.4139 8.4965 15.1108 8.38045C15.0405 8.35435 14.9636 8.35446 14.8935 8.38083C14.8233 8.40721 14.7644 8.45806 14.727 8.52464L14.5159 8.90431C14.2445 8.85292 13.9662 8.85292 13.6947 8.90431L13.4817 8.52464C13.444 8.45834 13.3851 8.40775 13.315 8.38141C13.245 8.35507 13.1682 8.35474 13.0979 8.38045C12.7945 8.49693 12.5123 8.66523 12.2632 8.87845C12.2051 8.92789 12.1661 8.99715 12.1531 9.07359C12.1401 9.15004 12.1539 9.22872 12.1922 9.29557L12.4052 9.67699C12.2252 9.89329 12.0853 10.1419 11.9926 10.4103H11.5647C11.4886 10.4103 11.415 10.4385 11.3573 10.4896C11.2996 10.5407 11.2615 10.6115 11.2501 10.689C11.1975 11.0162 11.1975 11.3501 11.2501 11.6773C11.2628 11.7537 11.3013 11.8231 11.3589 11.873C11.4165 11.9229 11.4895 11.9502 11.5647 11.95H11.9926C12.0853 12.2185 12.2252 12.467 12.4052 12.6833L12.1922 13.063C12.1546 13.1304 12.1411 13.2092 12.154 13.2858C12.167 13.3623 12.2056 13.4316 12.2632 13.4819C12.5123 13.6951 12.7945 13.8636 13.0979 13.9801C13.1681 14.0066 13.2452 14.0067 13.3154 13.9803C13.3857 13.9538 13.4446 13.9025 13.4817 13.8357L13.6947 13.4543C13.966 13.5076 14.2446 13.5076 14.5159 13.4543L14.727 13.8357C14.7655 13.9011 14.8245 13.9511 14.8943 13.9774C14.964 14.0036 15.0404 14.0046 15.1108 13.9801C15.4139 13.864 15.6955 13.6955 15.9436 13.4819C16.0021 13.4324 16.0416 13.3631 16.055 13.2863C16.0683 13.2095 16.0547 13.1304 16.0165 13.063L15.8035 12.6833C15.9835 12.467 16.1234 12.2185 16.2161 11.95H16.642C16.7185 11.9505 16.7926 11.9226 16.8507 11.8715C16.9088 11.8203 16.9471 11.7494 16.9586 11.6715C17.0123 11.3444 17.0123 11.0103 16.9586 10.6832ZM14.0957 12.0668C13.9276 12.0668 13.7632 12.0154 13.6235 11.9191C13.4837 11.8229 13.3747 11.6861 13.3104 11.5262C13.246 11.3662 13.2292 11.1901 13.262 11.0202C13.2948 10.8504 13.3758 10.6945 13.4946 10.572C13.6135 10.4496 13.765 10.3661 13.9299 10.3323C14.0948 10.2985 14.2657 10.3158 14.421 10.3821C14.5764 10.4484 14.7091 10.5606 14.8025 10.7046C14.8959 10.8486 14.9458 11.0179 14.9458 11.1911C14.9453 11.4229 14.8555 11.6451 14.6961 11.8089C14.5368 11.9727 14.3208 12.0647 14.0957 12.0647V12.0668Z" fill="#888888"/>
</svg>
