<svg width="14" height="14" viewBox="0 0 14 14" fill="none" xmlns="http://www.w3.org/2000/svg">
<path d="M8.05242 13.0589L7.35791 13.7713C7.28835 13.8437 7.20542 13.9013 7.114 13.9405C7.02257 13.9798 6.92447 14 6.82536 14C6.72625 14 6.62814 13.9798 6.53672 13.9405C6.44529 13.9013 6.36237 13.8437 6.2928 13.7713L0.22384 7.54741C0.152989 7.47619 0.0966744 7.39121 0.0582484 7.29739C0.0198224 7.20358 0 7.10283 0 7.00107C0 6.89931 0.0198224 6.79855 0.0582484 6.70474C0.0966744 6.61093 0.152989 6.52594 0.22384 6.45473L6.2928 0.22862C6.36237 0.156202 6.44529 0.0986879 6.53672 0.059436C6.62814 0.0201841 6.72625 0 6.82536 0C6.92447 0 7.02257 0.0201841 7.114 0.059436C7.20542 0.0986879 7.28835 0.156202 7.35791 0.22862L8.05242 0.941052C8.12192 1.01343 8.17674 1.09923 8.21375 1.19347C8.25075 1.28771 8.26923 1.38852 8.26804 1.49011C8.26686 1.59171 8.24598 1.69207 8.20678 1.78537C8.16758 1.87868 8.1108 1.96309 8.03963 2.03373L4.27762 5.71172H13.2502C13.3487 5.71143 13.4463 5.73111 13.5374 5.76966C13.6285 5.80822 13.7113 5.86485 13.7809 5.93634C13.8506 6.00783 13.9059 6.09279 13.9435 6.18625C13.9811 6.27971 14.0003 6.37988 14 6.48098V7.50371C14.0003 7.60481 13.9811 7.70498 13.9435 7.79844C13.9059 7.8919 13.8506 7.9768 13.7809 8.04829C13.7113 8.11978 13.6285 8.17641 13.5374 8.21497C13.4463 8.25353 13.3487 8.27325 13.2502 8.27296H4.27762L8.03963 11.9509C8.11184 12.0209 8.16962 12.1051 8.20948 12.1985C8.24935 12.2919 8.27049 12.3925 8.27168 12.4945C8.27288 12.5964 8.25402 12.6976 8.21635 12.7919C8.17868 12.8862 8.12298 12.9718 8.05242 13.0436V13.0589Z" fill="#888888"/>
</svg>
