<svg width="17" height="14" viewBox="0 0 17 14" fill="none" xmlns="http://www.w3.org/2000/svg">
<path d="M15.7293 1.75001H10.628L9.17526 0.256913C9.09666 0.175608 9.00323 0.111079 8.90035 0.0669918C8.79747 0.022905 8.68713 0.000133757 8.57568 0H4.67563C4.33753 0 4.01328 0.138222 3.77421 0.384265C3.53514 0.630307 3.40079 0.964013 3.40079 1.31197V3.49997H1.27479C0.936694 3.49997 0.612445 3.63825 0.373375 3.88429C0.134305 4.13033 0 4.46404 0 4.812V12.688C0 13.036 0.134305 13.3697 0.373375 13.6157C0.612445 13.8618 0.936694 14 1.27479 14H12.3244C12.6625 14 12.9867 13.8618 13.2258 13.6157C13.4649 13.3697 13.5992 13.036 13.5992 12.688V10.5H15.7252C16.0633 10.5 16.3876 10.3618 16.6266 10.1157C16.8657 9.86967 17 9.53596 17 9.188V3.06198C17 2.71475 16.8663 2.38169 16.6281 2.13577C16.3899 1.88985 16.0666 1.75113 15.7293 1.75001ZM12.3244 12.688H1.27479V4.812H3.40079V9.188C3.40079 9.53596 3.53514 9.86967 3.77421 10.1157C4.01328 10.3618 4.33753 10.5 4.67563 10.5H12.3244V12.688ZM15.7252 9.188H4.67563V1.31197H8.39974L9.85047 2.80507C10.01 2.9694 10.2264 3.06181 10.4521 3.06198H15.7293L15.7252 9.188Z" fill="#888888"/>
</svg>
