<svg width="12" height="14" viewBox="0 0 12 14" fill="none" xmlns="http://www.w3.org/2000/svg">
<path d="M11.6375 1.80251L10.2495 0.383051C10.13 0.261307 9.988 0.164887 9.83189 0.0991593C9.67578 0.0334313 9.50857 -0.000305795 9.3397 2.08843e-06H4.71352C4.37271 2.08843e-06 4.04595 0.138185 3.80495 0.384204C3.56396 0.630223 3.42847 0.963926 3.42847 1.31185V2.6237H1.28505C0.944234 2.6237 0.617473 2.76188 0.37648 3.0079C0.135486 3.25392 0 3.58762 0 3.93554V12.6882C0 13.0361 0.135486 13.3698 0.37648 13.6158C0.617473 13.8618 0.944234 14 1.28505 14H7.28613C7.62695 14 7.95396 13.8618 8.19496 13.6158C8.43595 13.3698 8.57118 13.0361 8.57118 12.6882V11.3763H10.7149C11.0557 11.3763 11.3824 11.2381 11.6234 10.9921C11.8644 10.7461 11.9999 10.4124 11.9999 10.0645V2.73131C12.0039 2.38502 11.8736 2.05114 11.6375 1.80251ZM7.13981 12.6908H1.45723C1.41473 12.6902 1.37435 12.6724 1.34453 12.6415C1.31472 12.6106 1.29785 12.569 1.29785 12.5256V4.10081C1.29785 4.05766 1.31465 4.01627 1.34453 3.98576C1.37442 3.95526 1.41497 3.93823 1.45723 3.93823H3.44127V10.0645C3.44127 10.4124 3.57676 10.7461 3.81775 10.9921C4.05875 11.2381 4.38551 11.3763 4.72632 11.3763H7.29642V12.5256C7.29643 12.5475 7.29217 12.5692 7.28388 12.5894C7.27558 12.6096 7.26354 12.6279 7.24824 12.6433C7.23293 12.6587 7.21472 12.6709 7.19478 12.6791C7.17483 12.6872 7.15351 12.6912 7.13203 12.6908H7.13981ZM10.5683 10.0671H4.88821C4.84527 10.0671 4.80413 10.0497 4.77376 10.0187C4.7434 9.98772 4.72632 9.94573 4.72632 9.90189V1.4798C4.72632 1.43596 4.7434 1.39384 4.77376 1.36284C4.80413 1.33184 4.84527 1.31454 4.88821 1.31454H7.71532V3.72045C7.71498 3.8068 7.73137 3.8923 7.76351 3.97218C7.79565 4.05207 7.84311 4.12468 7.90281 4.18587C7.96251 4.24706 8.03325 4.29571 8.11138 4.32884C8.1895 4.36197 8.27325 4.37893 8.35785 4.37893H10.7174V9.88869C10.7202 9.93213 10.7061 9.97492 10.6782 10.0078C10.6503 10.0407 10.6108 10.0611 10.5683 10.0645V10.0671ZM10.7302 3.06452H9.01342V1.32235H9.27043C9.31252 1.32346 9.3526 1.3403 9.38338 1.36963L10.6684 2.68147C10.6839 2.69626 10.6962 2.71414 10.7046 2.734C10.713 2.75386 10.7174 2.77527 10.7174 2.7969L10.7302 3.06452Z" fill="#888888"/>
</svg>
