<svg width="11" height="14" viewBox="0 0 11 14" fill="none" xmlns="http://www.w3.org/2000/svg">
<path d="M10.5962 2.68004L8.19345 0.385441C7.93595 0.139352 7.58669 0.000735563 7.22228 0H1.375C1.01017 0.00118949 0.660669 0.140234 0.402986 0.386723C0.145302 0.633211 0.000413401 0.967077 0 1.31527V12.6877C0 13.0358 0.144893 13.3695 0.402755 13.6156C0.660618 13.8617 1.01033 14 1.375 14H9.625C9.98967 14 10.3394 13.8617 10.5972 13.6156C10.8551 13.3695 11 13.0358 11 12.6877V3.60836C10.9993 3.26012 10.8541 2.92634 10.5962 2.68004ZM9.51344 3.50189H7.33385V1.42174L9.51344 3.50189ZM1.375 12.6877V1.31527H5.95885V4.16475C5.95864 4.25088 5.97628 4.33618 6.01071 4.41578C6.04515 4.49539 6.09569 4.56769 6.15949 4.62859C6.2233 4.68949 6.29914 4.73779 6.38255 4.77065C6.46596 4.80352 6.55534 4.82035 6.64558 4.82015H9.63129V12.6937L1.375 12.6877Z" fill="#888888"/>
</svg>
