<svg width="12" height="14" viewBox="0 0 12 14" fill="none" xmlns="http://www.w3.org/2000/svg">
<path d="M2.50731 6.56212V11.3758C2.50731 11.4332 2.52023 11.4901 2.5454 11.5431C2.57057 11.5961 2.60752 11.6443 2.65401 11.6849C2.7005 11.7254 2.75567 11.7575 2.81638 11.7794C2.87708 11.8012 2.94209 11.8123 3.00773 11.8121H9.00777C9.14004 11.8121 9.26687 11.7662 9.3604 11.6843C9.45393 11.6025 9.50651 11.4915 9.50651 11.3758V6.56212C9.50651 6.44639 9.45393 6.33541 9.3604 6.25357C9.26687 6.17174 9.14004 6.12577 9.00777 6.12577H3.00773C2.94209 6.12557 2.87708 6.1367 2.81638 6.15854C2.75567 6.18038 2.7005 6.21252 2.65401 6.25306C2.60752 6.2936 2.57057 6.34175 2.5454 6.3948C2.52023 6.44784 2.50731 6.50469 2.50731 6.56212ZM6.50737 7.43788H8.50736V8.75H6.50737V7.43788ZM6.50737 9.62576H8.50736V10.9379H6.50737V9.62576ZM3.50646 7.43788H5.50645V8.75H3.50646V7.43788ZM3.50646 9.62576H5.50645V10.9379H3.50646V9.62576ZM11.5635 2.68011L8.94222 0.386549C8.66193 0.140346 8.28158 0.00134613 7.88442 0H1.49957C1.10182 0.00159374 0.720934 0.14076 0.440004 0.387139C0.159073 0.633517 0.000907063 0.967106 0 1.31514V12.6879C0.000456718 13.0358 0.15854 13.3693 0.439667 13.6153C0.720793 13.8612 1.102 13.9996 1.49957 14H10.4987C10.8966 14 11.2782 13.8618 11.5597 13.6158C11.8412 13.3697 11.9995 13.036 12 12.6879V3.60874C11.9956 3.26247 11.8358 2.9316 11.5549 2.68767L11.5635 2.68011ZM8.00517 1.42237L10.3831 3.50301H8.00517V1.42237ZM10.5073 12.6879H1.50648V1.31514H6.51082V4.15833C6.5106 4.24464 6.5298 4.33015 6.56745 4.40993C6.60509 4.4897 6.6604 4.56219 6.73015 4.62322C6.7999 4.68425 6.88274 4.73261 6.97391 4.76555C7.06509 4.79848 7.16277 4.81536 7.26141 4.81516H10.5126L10.5073 12.6879Z" fill="#888888"/>
</svg>
