<svg width="14" height="14" viewBox="0 0 14 14" fill="none" xmlns="http://www.w3.org/2000/svg">
<path d="M7.00299 6.72552C6.82865 6.72552 6.66147 6.79478 6.53819 6.91806C6.41491 7.04133 6.34564 7.20854 6.34564 7.38287C6.3779 9.33752 6.12311 11.2863 5.58944 13.167C5.51414 13.4321 5.64749 14 6.21699 14C6.35929 13.9989 6.49742 13.9517 6.61058 13.8654C6.72374 13.7791 6.80582 13.6584 6.84453 13.5215C7.41286 11.5259 7.68458 9.45756 7.65095 7.38287C7.65095 7.20881 7.58192 7.04186 7.45898 6.91863C7.33604 6.7954 7.16921 6.72593 6.99514 6.72552H7.00299ZM6.97947 4.49157C5.30392 4.49157 4.13512 5.77799 4.15551 7.25579C4.1756 8.56417 4.05302 9.87085 3.78996 11.1527C3.75459 11.323 3.78836 11.5005 3.88384 11.646C3.97931 11.7915 4.12868 11.893 4.29907 11.9284C4.46946 11.9638 4.64691 11.93 4.79241 11.8345C4.9379 11.7391 5.03948 11.5897 5.07485 11.4194C5.35773 10.0432 5.48925 8.64015 5.46706 7.23537C5.46603 7.04218 5.50426 6.85079 5.57944 6.67282C5.65463 6.49485 5.76521 6.33402 5.90444 6.20007C6.04367 6.06613 6.20867 5.96188 6.38942 5.89363C6.57018 5.82539 6.7629 5.79459 6.95592 5.80309C7.3619 5.80712 7.75088 5.96669 8.04275 6.24891C8.33461 6.53113 8.50713 6.91449 8.52478 7.32009C8.54516 8.63345 8.44804 9.94601 8.23457 11.2421C8.22042 11.327 8.22318 11.414 8.24265 11.4979C8.26212 11.5818 8.29794 11.6611 8.34806 11.7312C8.39818 11.8013 8.46161 11.8608 8.53474 11.9063C8.60787 11.9519 8.68925 11.9826 8.77425 11.9967C9.32021 12.0876 9.50692 11.5841 9.52888 11.4554C9.75741 10.0813 9.86242 8.68945 9.84265 7.29658C9.81807 6.54934 9.50621 5.84037 8.972 5.31729C8.43779 4.79421 7.72239 4.49735 6.97476 4.48847L6.97947 4.49157ZM3.95312 3.95034C3.81769 3.84102 3.64449 3.78975 3.47136 3.80768C3.29822 3.82561 3.13924 3.9113 3.02908 4.04606C2.32785 4.91103 1.953 5.99497 1.97009 7.10833C1.98622 8.13527 1.90267 9.16137 1.72063 10.1722C1.7011 10.2588 1.69932 10.3484 1.71538 10.4357C1.73144 10.523 1.76499 10.6061 1.81405 10.6801C1.86311 10.754 1.92667 10.8173 2.00085 10.8661C2.07503 10.9148 2.15831 10.948 2.24568 10.9637C2.33305 10.9794 2.42269 10.9773 2.5092 10.9574C2.59571 10.9375 2.67727 10.9003 2.74901 10.848C2.82075 10.7957 2.88115 10.7295 2.92658 10.6532C2.97202 10.577 3.00155 10.4923 3.01338 10.4044C3.2103 9.31022 3.30014 8.19948 3.28165 7.08792C3.26537 6.28201 3.53683 5.49669 4.04727 4.87281C4.15709 4.73799 4.20886 4.56509 4.19121 4.3921C4.17356 4.21912 4.08791 4.0602 3.95312 3.95034ZM6.94653 2.24666C6.52411 2.23761 6.10228 2.28293 5.69144 2.38156C5.52795 2.42714 5.38841 2.53419 5.30206 2.6803C5.21571 2.82641 5.18922 3.00026 5.22813 3.16545C5.26705 3.33065 5.36839 3.47441 5.51088 3.56661C5.65338 3.65881 5.826 3.69233 5.99265 3.66014C6.29758 3.58914 6.60991 3.55489 6.92298 3.55815C8.98604 3.58952 10.6883 5.23988 10.7197 7.23851C10.735 8.27622 10.6826 9.31383 10.5628 10.3447C10.5525 10.4303 10.5591 10.5171 10.5823 10.6001C10.6056 10.6832 10.645 10.7608 10.6982 10.8286C10.7515 10.8964 10.8175 10.9531 10.8927 10.9954C10.9678 11.0376 11.0506 11.0647 11.1362 11.075C11.2218 11.0853 11.3086 11.0786 11.3916 11.0554C11.4746 11.0321 11.5523 10.9928 11.6201 10.9396C11.6879 10.8863 11.7446 10.8202 11.7868 10.7451C11.8291 10.6699 11.8562 10.5872 11.8665 10.5016C11.9901 9.41378 12.0425 8.31907 12.0234 7.22442C11.981 4.52454 9.69674 2.29373 6.93397 2.25295L6.94653 2.24666ZM13.8386 5.5662C13.8009 5.39624 13.6973 5.24818 13.5504 5.15463C13.4036 5.06107 13.2257 5.02969 13.0557 5.06734C12.8857 5.10499 12.7377 5.20863 12.6441 5.35543C12.5505 5.50224 12.5191 5.6802 12.5568 5.85016C12.6687 6.40384 12.7119 6.96921 12.6854 7.53347C12.6846 7.61971 12.7008 7.70528 12.7331 7.78525C12.7654 7.86523 12.8131 7.93805 12.8736 7.99954C12.9341 8.06104 13.0061 8.11001 13.0856 8.14363C13.165 8.17725 13.2503 8.19487 13.3365 8.19549C13.5096 8.19549 13.6757 8.12706 13.7986 8.0051C13.9214 7.88314 13.9911 7.71756 13.9923 7.54446C14.0212 6.88111 13.9685 6.2167 13.8354 5.5662H13.8386ZM12.7403 3.08594C12.0803 2.14896 11.2082 1.38119 10.195 0.845213C9.18191 0.309234 8.05648 0.0202292 6.91045 0.00172178C5.98792 -0.0189678 5.07071 0.146988 4.21393 0.489631C3.35714 0.832275 2.57844 1.34453 1.92459 1.99564C1.29999 2.61633 0.807561 3.35708 0.476991 4.17321C0.146421 4.98935 -0.0154482 5.86398 0.00116011 6.74436V7.33109C-0.00390966 7.50518 0.0603001 7.67415 0.179726 7.80092C0.299152 7.92769 0.464039 8.00191 0.638129 8.00724H0.658506C0.829066 8.0073 0.992903 7.94073 1.11511 7.82175C1.23731 7.70278 1.30821 7.5408 1.31271 7.37031V6.72399C1.29948 6.01933 1.42901 5.31926 1.69351 4.66599C1.95801 4.01272 2.35202 3.41975 2.85178 2.92278C3.38165 2.39628 4.01258 1.98243 4.70657 1.70609C5.40056 1.42975 6.14327 1.29662 6.89004 1.31478C7.82845 1.33029 8.74994 1.56717 9.57952 2.00606C10.4091 2.44496 11.1233 3.07349 11.6641 3.84054C11.7116 3.91578 11.774 3.98057 11.8474 4.03101C11.9207 4.08144 12.0035 4.11645 12.0908 4.13392C12.1781 4.15138 12.268 4.15094 12.3551 4.13262C12.4422 4.11429 12.5247 4.07848 12.5976 4.02733C12.6704 3.97618 12.7321 3.91077 12.7789 3.83506C12.8257 3.75935 12.8567 3.67494 12.8699 3.58691C12.8831 3.49889 12.8783 3.40909 12.8558 3.32298C12.8332 3.23687 12.7934 3.15622 12.7388 3.08594H12.7403Z" fill="#888888"/>
</svg>
