<svg width="14" height="14" viewBox="0 0 14 14" fill="none" xmlns="http://www.w3.org/2000/svg">
<path d="M9.77645 9.43187L10.5558 8.55579C10.5832 8.52552 10.6182 8.50492 10.656 8.49678C10.6938 8.48865 10.7327 8.49321 10.7681 8.50992C10.8036 8.52664 10.8339 8.55495 10.8552 8.59093C10.8766 8.62692 10.8881 8.6692 10.8882 8.71245V12.687C10.8882 13.0352 10.765 13.3691 10.546 13.6153C10.327 13.8616 10.0299 14 9.72013 14H1.16804C0.858472 13.9993 0.561793 13.8606 0.342895 13.6145C0.123998 13.3685 0.000645606 13.035 0 12.687V3.07323C0.000645606 2.72523 0.123998 2.39173 0.342895 2.14565C0.561793 1.89958 0.858472 1.76092 1.16804 1.76019H7.82407C7.86233 1.7608 7.89957 1.7741 7.93121 1.79828C7.96285 1.82247 7.98751 1.85642 8.00208 1.89619C8.01665 1.93596 8.02038 1.97978 8.01306 2.022C8.00574 2.06422 7.98759 2.10314 7.9608 2.13385L7.18386 3.00992C7.16557 3.03038 7.14383 3.04655 7.11991 3.0574C7.09598 3.06825 7.07029 3.07369 7.0445 3.07323H1.18021V12.687H9.7323V9.58315C9.73037 9.55595 9.73334 9.52862 9.74089 9.50268C9.74844 9.47675 9.76058 9.45252 9.77645 9.43187ZM13.5858 3.91094L7.19841 11.0939L4.9993 11.3686C4.84947 11.3872 4.69799 11.3677 4.55571 11.3117C4.41343 11.2557 4.28421 11.1645 4.1775 11.0448C4.07078 10.9251 3.98927 10.78 3.93912 10.6202C3.88897 10.4604 3.87129 10.29 3.88758 10.1215L4.13192 7.64941L10.5217 0.469152C10.6535 0.320408 10.8101 0.202576 10.9827 0.122049C11.1552 0.0415224 11.3404 0 11.5272 0C11.714 0 11.8989 0.0415224 12.0715 0.122049C12.244 0.202576 12.4006 0.320408 12.5325 0.469152L13.5834 1.65048C13.8502 1.95074 14 2.35754 14 2.78192C14 3.2063 13.8502 3.61337 13.5834 3.91363L13.5858 3.91094ZM11.1838 4.75697L9.76905 3.16658L5.24866 8.2508L5.07017 10.0392L6.66104 9.83852L11.1838 4.75697ZM12.7599 2.57591L11.709 1.39485C11.6861 1.36653 11.6583 1.34408 11.6272 1.32859C11.596 1.31311 11.5624 1.30499 11.5284 1.30499C11.4943 1.30499 11.4605 1.31311 11.4294 1.32859C11.3982 1.34408 11.3704 1.36653 11.3475 1.39485L10.5973 2.24088L12.0097 3.82859L12.7623 2.98525C12.8093 2.93005 12.8353 2.85644 12.8348 2.78004C12.8344 2.70364 12.8075 2.63039 12.7599 2.57591Z" fill="#888888"/>
</svg>
