<svg width="22" height="14" viewBox="0 0 22 14" fill="none" xmlns="http://www.w3.org/2000/svg">
<path d="M5.49892 1.61573e-06C4.04051 1.61573e-06 2.64184 0.55317 1.61059 1.53783C0.579343 2.52248 0 3.85806 0 5.25058V12.8337C0 13.143 0.128681 13.4396 0.357757 13.6583C0.586833 13.877 0.897574 14 1.22154 14H10.9978V5.25058C10.9978 3.85806 10.4185 2.52248 9.38725 1.53783C8.356 0.55317 6.95733 1.61573e-06 5.49892 1.61573e-06ZM8.55266 6.41693C8.55266 6.57159 8.48837 6.71989 8.37383 6.82925C8.25929 6.93862 8.10398 7.0001 7.94199 7.0001H3.05595C2.89397 7.0001 2.73865 6.93862 2.62411 6.82925C2.50958 6.71989 2.44518 6.57159 2.44518 6.41693V5.25058C2.4449 5.17382 2.46046 5.0978 2.49102 5.02681C2.52159 4.95582 2.56653 4.89121 2.62327 4.83684C2.68001 4.78247 2.74746 4.7393 2.8217 4.70987C2.89594 4.68043 2.97556 4.66539 3.05595 4.66539H7.94199C8.02238 4.66539 8.1019 4.68043 8.17614 4.70987C8.25038 4.7393 8.31783 4.78247 8.37457 4.83684C8.43131 4.89121 8.47625 4.95582 8.50682 5.02681C8.53738 5.0978 8.55294 5.17382 8.55266 5.25058V6.41693ZM16.4968 1.61573e-06H9.35553C10.2405 0.590494 10.9633 1.37622 11.4626 2.29024C11.9619 3.20425 12.223 4.2197 12.2237 5.25058V14H20.7764C20.9369 14.0003 21.096 13.9703 21.2444 13.9119C21.3929 13.8534 21.5279 13.7674 21.6415 13.6591C21.7552 13.5508 21.8453 13.422 21.9068 13.2804C21.9684 13.1388 22 12.987 22 12.8337V5.25058C22 4.56073 21.8576 3.87755 21.581 3.24026C21.3044 2.60297 20.899 2.02402 20.3879 1.53642C19.8769 1.04881 19.2701 0.662264 18.6024 0.398645C17.9348 0.135026 17.2193 -0.000539868 16.4968 1.61573e-06ZM19.5506 7.58327C19.5506 7.73794 19.4862 7.88624 19.3717 7.9956C19.2571 8.10496 19.1018 8.16645 18.9398 8.16645H17.7183C17.5563 8.16645 17.401 8.10496 17.2865 7.9956C17.1719 7.88624 17.1075 7.73794 17.1075 7.58327V5.83375H14.9667C14.8856 5.83321 14.808 5.80218 14.7507 5.74742C14.6933 5.69267 14.6608 5.6186 14.6602 5.54116V4.95799C14.6608 4.88055 14.6933 4.80648 14.7507 4.75172C14.808 4.69696 14.8856 4.66593 14.9667 4.66539H18.9376C19.018 4.66539 19.0976 4.68043 19.1719 4.70987C19.2461 4.7393 19.3136 4.78247 19.3703 4.83684C19.427 4.89121 19.472 4.95582 19.5026 5.02681C19.5331 5.0978 19.5487 5.17382 19.5484 5.25058L19.5506 7.58327Z" fill="#888888"/>
</svg>
