<svg width="14" height="14" viewBox="0 0 14 14" fill="none" xmlns="http://www.w3.org/2000/svg">
<path d="M5.68172 3.07075C5.16216 3.07036 4.65417 3.22392 4.22198 3.51203C3.78979 3.80014 3.45281 4.20986 3.25371 4.68933C3.05461 5.16881 3.00233 5.69652 3.10345 6.20571C3.20457 6.71489 3.45453 7.18266 3.82178 7.54986C4.18902 7.91707 4.65703 8.1672 5.16658 8.26862C5.67613 8.37004 6.20438 8.31818 6.68443 8.11962C7.16448 7.92106 7.57482 7.58471 7.86351 7.15311C8.15221 6.72152 8.30627 6.21408 8.30627 5.69497C8.30627 4.99933 8.02989 4.33215 7.53776 3.84007C7.04562 3.34799 6.37797 3.07128 5.68172 3.07075ZM5.68172 7.00608C5.42218 7.00608 5.16853 6.92918 4.95273 6.78511C4.73693 6.64105 4.5687 6.43629 4.46938 6.19671C4.37006 5.95714 4.3441 5.69352 4.39474 5.43919C4.44537 5.18486 4.57033 4.95123 4.75385 4.76787C4.93738 4.58451 5.17116 4.45964 5.42572 4.40906C5.68027 4.35847 5.94417 4.38442 6.18396 4.48365C6.42374 4.58289 6.62867 4.75095 6.77286 4.96656C6.91706 5.18217 6.99404 5.43566 6.99404 5.69497C6.99352 6.04254 6.85509 6.37571 6.6091 6.62148C6.36312 6.86724 6.02959 7.00555 5.68172 7.00608ZM12.6819 7.88082C12.4016 7.87993 12.1284 7.96888 11.9024 8.13459C11.6765 8.30029 11.5097 8.53403 11.4265 8.80147C11.3433 9.06891 11.3481 9.35594 11.4403 9.62041C11.5325 9.88489 11.7072 10.1129 11.9386 10.2708C11.8552 10.4679 11.7159 10.6362 11.5379 10.755C11.3599 10.8738 11.151 10.9379 10.9369 10.9394H9.62456V9.78443C10.4438 8.99948 11.0093 7.98756 11.2482 6.87887C11.4871 5.77018 11.3885 4.61544 10.9651 3.56319C10.5418 2.51093 9.81296 1.60932 8.87248 0.974323C7.932 0.339328 6.82288 0 5.68779 0C4.5527 0 3.44357 0.339328 2.5031 0.974323C1.56262 1.60932 0.833803 2.51093 0.410427 3.56319C-0.0129482 4.61544 -0.111482 5.77018 0.12742 6.87887C0.366321 7.98756 0.93176 8.99948 1.75102 9.78443V13.1253C1.75102 13.3569 1.84298 13.5791 2.00673 13.7431C2.17049 13.9071 2.39265 13.9995 2.6245 14H8.75108C8.98293 13.9995 9.20509 13.9071 9.36884 13.7431C9.5326 13.5791 9.62456 13.3569 9.62456 13.1253V12.2505H10.9369C11.4873 12.2508 12.0212 12.0623 12.4493 11.7165C12.8773 11.3708 13.1737 10.8887 13.2889 10.3509C13.5504 10.2169 13.759 9.99879 13.8813 9.7318C14.0036 9.4648 14.0324 9.16445 13.963 8.87914C13.8936 8.59383 13.7299 8.34018 13.4986 8.15907C13.2673 7.97796 12.9817 7.87995 12.6878 7.88082H12.6819ZM8.30627 12.6849H3.05728V10.7292C3.8664 11.1552 4.76714 11.3779 5.68172 11.3779C6.59631 11.3779 7.49715 11.1552 8.30627 10.7292V12.6849ZM5.68172 10.0607C4.81624 10.0607 3.97027 9.80422 3.25068 9.32376C2.53108 8.84331 1.97022 8.16042 1.63911 7.36148C1.30799 6.56254 1.22144 5.68343 1.39044 4.83534C1.55943 3.98726 1.97637 3.20831 2.5885 2.597C3.20063 1.98568 3.98047 1.56947 4.82937 1.40102C5.67828 1.23256 6.55807 1.31943 7.35756 1.65062C8.15705 1.98181 8.84036 2.54245 9.32091 3.26164C9.80146 3.98082 10.0577 4.82624 10.0573 5.69096C10.0568 6.85043 9.59564 7.96229 8.77524 8.78235C7.95484 9.60241 6.84221 10.0636 5.68172 10.0647V10.0607Z" fill="#888888"/>
</svg>
