<svg width="11" height="14" viewBox="0 0 11 14" fill="none" xmlns="http://www.w3.org/2000/svg">
<path d="M10.5962 2.68001L8.19345 0.385442C7.93595 0.139352 7.58669 0.000735565 7.22228 0H1.375C1.01017 0.00118949 0.660669 0.140235 0.402986 0.386724C0.145302 0.633212 0.000413401 0.96708 0 1.31527V12.6877C0 13.0358 0.144893 13.3696 0.402755 13.6157C0.660618 13.8618 1.01033 14 1.375 14H9.625C9.98967 14 10.3394 13.8618 10.5972 13.6157C10.8551 13.3696 11 13.0358 11 12.6877V3.60837C10.9993 3.26013 10.8541 2.92631 10.5962 2.68001ZM9.51344 3.50186H7.33385V1.42175L9.51344 3.50186ZM1.375 12.6877V1.31527H5.95885V4.16477C5.95864 4.25089 5.97628 4.33619 6.01071 4.4158C6.04515 4.4954 6.09569 4.56774 6.15949 4.62864C6.2233 4.68953 6.29914 4.7378 6.38255 4.77066C6.46596 4.80353 6.55534 4.82033 6.64558 4.82013H9.63129V12.6937L1.375 12.6877ZM8.54226 8.75994C8.19341 8.43149 7.19559 8.52149 6.69745 8.58148C6.20178 8.29012 5.82871 7.84227 5.64302 7.31571C5.7546 6.87629 5.93217 6.20591 5.80017 5.78449C5.67917 5.06911 4.71745 5.13959 4.57916 5.624C4.45345 6.06343 4.56813 6.67382 4.78027 7.45818C4.47926 8.15223 4.141 8.83102 3.76675 9.49183C3.19318 9.77378 2.41999 10.2087 2.30527 10.7546C2.21099 11.1865 3.05015 12.2648 4.48486 9.90275C5.12601 9.70029 5.82525 9.45281 6.44439 9.35232C6.98496 9.63127 7.61831 9.81726 8.0426 9.81726C8.77174 9.81726 8.84241 9.04639 8.54226 8.75994ZM2.86786 10.8865C3.014 10.5116 3.57029 10.0797 3.73843 9.92974C3.19472 10.7546 2.86786 10.9045 2.86786 10.8865ZM5.20459 5.67497C5.41673 5.67497 5.39789 6.55384 5.25646 6.7908C5.13074 6.40537 5.13388 5.67497 5.20459 5.67497ZM4.50689 9.40933C4.78214 8.92728 5.01854 8.42591 5.21403 7.9096C5.42491 8.28863 5.71917 8.61964 6.0767 8.87992C5.47956 9.0029 4.96103 9.24286 4.50689 9.40483V9.40933ZM8.27831 9.27287C8.27831 9.27287 8.13531 9.43782 7.21131 9.05988C8.21231 8.9894 8.37888 9.20838 8.27517 9.27287H8.27831Z" fill="#888888"/>
</svg>
