<svg width="19" height="14" viewBox="0 0 19 14" fill="none" xmlns="http://www.w3.org/2000/svg">
<path d="M18.8099 6.73155L10.6816 0.405839C10.3497 0.14362 9.93116 0 9.49898 0C9.0668 0 8.64831 0.14362 8.31637 0.405839L0.190298 6.73155C0.13682 6.77349 0.0926468 6.82502 0.0603384 6.88323C0.02803 6.94144 0.00822378 7.00522 0.0020683 7.07074C-0.00408717 7.13625 0.00352991 7.20217 0.0244768 7.26488C0.0454237 7.32758 0.0792846 7.38582 0.124103 7.43605L0.461678 7.82066C0.551754 7.92203 0.680496 7.98549 0.819803 7.99724C0.95911 8.00899 1.09767 7.96803 1.20522 7.88333L2.10984 7.17679V13.0007C2.11158 13.2656 2.22356 13.5191 2.42144 13.7062C2.61933 13.8933 2.88714 13.9989 3.16669 14H7.38749C7.66704 13.9989 7.93485 13.8933 8.13274 13.7062C8.33062 13.5191 8.44259 13.2656 8.44433 13.0007V9.75013H10.5536V13.0007C10.5554 13.2656 10.6674 13.5191 10.8652 13.7062C11.0631 13.8933 11.3309 13.9989 11.6105 14H15.8313C16.1099 13.9995 16.377 13.895 16.5749 13.7091C16.7727 13.5232 16.8852 13.271 16.8881 13.007V7.18516L17.795 7.8917C17.8481 7.9339 17.9095 7.96582 17.9756 7.98551C18.0418 8.0052 18.1114 8.01226 18.1805 8.00643C18.2495 8.00061 18.3167 7.98197 18.3781 7.95152C18.4396 7.92106 18.4941 7.87946 18.5385 7.82903L18.8761 7.44442C18.9208 7.39437 18.9546 7.33629 18.9756 7.27376C18.9965 7.21122 19.0041 7.14537 18.9979 7.08002C18.9918 7.01468 18.972 6.95117 18.9397 6.89313C18.9074 6.83509 18.8633 6.78371 18.8099 6.74196V6.73155ZM15.2995 12.499H12.1378V9.25049C12.1372 8.98545 12.026 8.73145 11.8284 8.54384C11.6308 8.35624 11.3629 8.25026 11.0832 8.24916H7.91481C7.63525 8.25081 7.36768 8.35697 7.17021 8.54445C6.97274 8.73194 6.86132 8.98562 6.86016 9.25049V12.499H3.69401V5.94549L9.49898 1.42605L15.304 5.94345L15.2995 12.499Z" fill="#888888"/>
</svg>
