<svg width="16" height="14" viewBox="0 0 16 14" fill="none" xmlns="http://www.w3.org/2000/svg">
<path d="M16 3.50218V12.5009C15.9996 12.8986 15.8413 13.2799 15.5599 13.561C15.2785 13.8421 14.8971 14 14.4994 14H1.50064C1.1029 14 0.721384 13.8421 0.440001 13.561C0.158618 13.2799 0.000389561 12.8986 0 12.5009V3.50218C0 3.10422 0.158073 2.72256 0.439499 2.44116C0.720924 2.15976 1.10264 2.00166 1.50064 2.00166H4.25059L4.63418 0.972898C4.7413 0.687146 4.93309 0.440875 5.18392 0.267022C5.43474 0.0931688 5.73268 3.30497e-05 6.03787 0H9.95919C10.2644 3.30497e-05 10.5623 0.0931688 10.8131 0.267022C11.064 0.440875 11.2558 0.687146 11.3629 0.972898L11.7494 2.00166H14.4994C14.8974 2.00166 15.2791 2.15976 15.5605 2.44116C15.8419 2.72256 16 3.10422 16 3.50218ZM11.7494 8.00083C11.7491 7.25939 11.529 6.53468 11.1168 5.91833C10.7046 5.30199 10.1189 4.82169 9.43379 4.53816C8.74865 4.25462 7.9948 4.18059 7.26759 4.32542C6.54037 4.47025 5.87248 4.8274 5.34826 5.35178C4.82404 5.87616 4.46705 6.5442 4.3225 7.27142C4.17795 7.99863 4.25232 8.75237 4.53615 9.43734C4.81998 10.1223 5.30053 10.7078 5.91708 11.1197C6.53364 11.5316 7.25846 11.7514 7.99996 11.7514C8.99438 11.7506 9.94785 11.3552 10.6509 10.6519C11.3539 9.94868 11.749 8.99517 11.7494 8.00083ZM10.7499 8.00083C10.7499 8.54468 10.5887 9.07632 10.2865 9.52851C9.98435 9.9807 9.55484 10.3331 9.05235 10.5412C8.54986 10.7494 7.99695 10.8038 7.46351 10.6977C6.93007 10.5916 6.44004 10.3297 6.05545 9.94519C5.67086 9.56063 5.40901 9.07068 5.3029 8.53728C5.1968 8.00388 5.25122 7.45098 5.45936 6.94853C5.66749 6.44608 6.01997 6.01664 6.4722 5.71449C6.92443 5.41235 7.45607 5.2511 7.99996 5.2511C8.72906 5.25188 9.42807 5.54182 9.94362 6.05733C10.4592 6.57284 10.7491 7.27179 10.7499 8.00083Z" fill="#888888"/>
</svg>
