<svg width="18" height="14" viewBox="0 0 18 14" fill="none" xmlns="http://www.w3.org/2000/svg">
<path d="M15.9623 10.0497C15.4503 10.0524 14.9586 10.2447 14.587 10.5876L12.3889 9.36457C12.524 9.02415 12.5947 8.66271 12.5975 8.29777C12.5978 7.89528 12.5166 7.49673 12.3585 7.12482C12.2005 6.75292 11.9687 6.41498 11.6764 6.13038C11.3841 5.84578 11.0371 5.62007 10.6551 5.46618C10.2731 5.31229 9.86375 5.23323 9.45039 5.23352C9.21879 5.23492 8.98811 5.2619 8.76275 5.31389L7.85738 3.42581C8.20923 3.12025 8.43989 2.70421 8.5092 2.25014C8.5785 1.79607 8.48206 1.33269 8.23667 0.940707C7.99129 0.548727 7.61248 0.25296 7.16622 0.104876C6.71995 -0.0432078 6.23452 -0.0342285 5.79436 0.130267C5.3542 0.294763 4.98721 0.604386 4.75731 1.00517C4.52741 1.40595 4.44911 1.87252 4.5361 2.3237C4.62308 2.77487 4.86983 3.18204 5.23336 3.47435C5.59689 3.76667 6.05418 3.92562 6.52564 3.92349C6.55081 3.92567 6.57614 3.92567 6.6013 3.92349L7.54333 5.88524C7.20615 6.14087 6.92615 6.4608 6.72038 6.82547C6.51462 7.19014 6.38745 7.59186 6.34668 8.00604C6.30592 8.42023 6.35239 8.83815 6.48328 9.23423C6.61417 9.63032 6.82673 9.99621 7.10791 10.3095C7.38908 10.6229 7.73298 10.877 8.11854 11.0564C8.5041 11.2359 8.92321 11.3368 9.35022 11.353C9.77722 11.3692 10.2031 11.3003 10.6019 11.1507C11.0006 11.0011 11.3638 10.7738 11.6691 10.4827L13.9796 11.7682C13.9646 11.8546 13.9553 11.9418 13.9521 12.0293C13.9521 12.4192 14.0709 12.8003 14.2934 13.1244C14.5159 13.4485 14.8321 13.7011 15.2021 13.8502C15.572 13.9993 15.9791 14.0382 16.3717 13.962C16.7644 13.8857 17.125 13.6978 17.408 13.422C17.691 13.1462 17.8836 12.7948 17.9614 12.4124C18.0392 12.03 17.9988 11.6337 17.8453 11.2736C17.6917 10.9136 17.432 10.606 17.0988 10.3897C16.7657 10.1734 16.3741 10.0582 15.9737 10.0587L15.9623 10.0497ZM6.52564 2.6067C6.39236 2.6067 6.26209 2.56825 6.15127 2.49615C6.04045 2.42405 5.95404 2.32154 5.90303 2.20165C5.85203 2.08175 5.8387 1.94986 5.8647 1.82258C5.8907 1.6953 5.9549 1.57838 6.04914 1.48661C6.14339 1.39485 6.26347 1.33234 6.39419 1.30702C6.52491 1.28171 6.66037 1.29474 6.78351 1.3444C6.90664 1.39406 7.01192 1.47815 7.08597 1.58605C7.16002 1.69395 7.19951 1.8208 7.19951 1.95057C7.19951 2.12459 7.12852 2.29148 7.00214 2.41453C6.87576 2.53758 6.70437 2.6067 6.52564 2.6067ZM9.44809 10.0497C9.09222 10.0497 8.74432 9.94698 8.44843 9.75448C8.15253 9.56197 7.92193 9.28836 7.78575 8.96823C7.64956 8.6481 7.61391 8.29587 7.68334 7.95602C7.75277 7.61618 7.92415 7.30396 8.17579 7.05895C8.42743 6.81393 8.74802 6.64712 9.09706 6.57952C9.44609 6.51192 9.8079 6.54657 10.1367 6.67917C10.4655 6.81178 10.7465 7.03636 10.9442 7.32446C11.1419 7.61257 11.2474 7.95126 11.2474 8.29777C11.2471 8.52813 11.2002 8.75622 11.1094 8.96894C11.0186 9.18165 10.8856 9.37483 10.7181 9.53751C10.5506 9.70019 10.3519 9.82918 10.1332 9.91707C9.91446 10.005 9.68009 10.05 9.44351 10.0497H9.44809ZM15.9669 12.6766C15.833 12.6766 15.7022 12.6379 15.591 12.5655C15.4797 12.493 15.3931 12.39 15.342 12.2696C15.2909 12.1492 15.2776 12.0167 15.3039 11.8889C15.3301 11.7611 15.3948 11.6438 15.4896 11.5518C15.5844 11.4599 15.7051 11.3973 15.8364 11.3722C15.9677 11.347 16.1037 11.3604 16.2272 11.4106C16.3508 11.4607 16.4562 11.5454 16.5302 11.654C16.6042 11.7626 16.6435 11.8901 16.643 12.0204C16.6377 12.1933 16.5639 12.3575 16.437 12.4786C16.3101 12.5997 16.1399 12.6682 15.9623 12.6699L15.9669 12.6766ZM14.438 5.53484L13.8994 4.83402L12.5516 5.81828L13.0902 6.51904L14.438 5.53484ZM16.1915 5.23799C16.5476 5.23843 16.8958 5.13599 17.192 4.94365C17.4882 4.75132 17.7192 4.47773 17.8557 4.15751C17.9922 3.83729 18.028 3.48487 17.9586 3.14482C17.8893 2.80476 17.7179 2.4924 17.4661 2.24725C17.2143 2.0021 16.8935 1.83519 16.5443 1.76766C16.195 1.70013 15.8331 1.73498 15.5042 1.86786C15.1753 2.00074 14.8943 2.22568 14.6967 2.51413C14.4992 2.80258 14.394 3.14161 14.3945 3.4883C14.3963 3.95063 14.5857 4.3935 14.9215 4.72042C15.2572 5.04734 15.7121 5.23176 16.1869 5.23352L16.1915 5.23799ZM4.27247 8.73966H5.62256V7.86481H4.27247V8.73966ZM1.79927 6.55255C1.4433 6.55255 1.09538 6.65531 0.799432 6.84792C0.503487 7.04053 0.272872 7.31429 0.136754 7.63455C0.000636025 7.95481 -0.0348737 8.30718 0.0347392 8.64708C0.104352 8.98699 0.275934 9.29918 0.527802 9.5441C0.77967 9.78903 1.1005 9.9557 1.44969 10.023C1.79887 10.0904 2.16074 10.0554 2.48948 9.92246C2.81822 9.78952 3.09904 9.56459 3.29648 9.27619C3.49391 8.98779 3.59906 8.64883 3.5986 8.30223C3.5989 8.07198 3.55257 7.84393 3.46228 7.63112C3.372 7.4183 3.23952 7.22492 3.07241 7.062C2.9053 6.89908 2.70687 6.76981 2.48841 6.68163C2.26996 6.59344 2.03575 6.54808 1.79927 6.54808V6.55255Z" fill="#888888"/>
</svg>
