<svg width="4" height="14" viewBox="0 0 4 14" fill="none" xmlns="http://www.w3.org/2000/svg">
<path d="M1.99986 9.03399C1.6043 9.03399 1.21761 8.91474 0.888717 8.69135C0.559821 8.46796 0.303648 8.15045 0.152273 7.77897C0.000898934 7.40748 -0.0387512 6.99871 0.0384188 6.60434C0.115589 6.20997 0.305957 5.8477 0.585661 5.56338C0.865364 5.27905 1.22184 5.08544 1.6098 5.007C1.99776 4.92855 2.39992 4.96881 2.76537 5.12269C3.13082 5.27656 3.44312 5.53716 3.66288 5.87149C3.88264 6.20582 4 6.59885 4 7.00095C4.00025 7.268 3.94861 7.53247 3.84819 7.77925C3.74777 8.02602 3.60039 8.25025 3.41462 8.43908C3.22885 8.62792 3.00832 8.77769 2.76556 8.87977C2.52279 8.98185 2.26258 9.03425 1.99986 9.03399ZM4 11.9689C4.00037 11.5667 3.88334 11.1734 3.6638 10.8389C3.44427 10.5043 3.13208 10.2434 2.76667 10.0893C2.40125 9.93509 1.99899 9.89454 1.61091 9.97277C1.22282 10.051 0.866294 10.2445 0.586401 10.5287C0.306508 10.813 0.115928 11.1752 0.038604 11.5696C-0.0387198 11.9641 0.000769669 12.3729 0.152088 12.7445C0.303407 13.1161 0.559595 13.4337 0.888532 13.6572C1.21747 13.8807 1.60422 14 1.99986 14C2.52996 14 3.03849 13.7861 3.41351 13.4052C3.78853 13.0244 3.9995 12.5077 4 11.9689ZM4 2.03494C4.00037 1.63276 3.88334 1.2395 3.6638 0.904918C3.44427 0.570333 3.13208 0.309488 2.76667 0.155317C2.40125 0.00114554 1.99899 -0.0393992 1.61091 0.0388282C1.22282 0.117056 0.866294 0.310535 0.586401 0.594783C0.306508 0.879032 0.115928 1.24128 0.038604 1.6357C-0.0387198 2.03012 0.000769669 2.43901 0.152088 2.81061C0.303407 3.18221 0.559595 3.49984 0.888532 3.72332C1.21747 3.9468 1.60422 4.06606 1.99986 4.06606C2.52996 4.06606 3.03849 3.85214 3.41351 3.47129C3.78853 3.09044 3.9995 2.5738 4 2.03494Z" fill="#888888"/>
</svg>
