<svg width="17" height="14" viewBox="0 0 17 14" fill="none" xmlns="http://www.w3.org/2000/svg">
<path d="M16.1425 9.1896H14.4389V2.4071C14.4384 1.76885 14.1921 1.15691 13.7542 0.705596C13.3162 0.254283 12.7224 0.000516595 12.1031 0H2.12386C1.56107 0.00051553 1.02145 0.231003 0.623321 0.640923C0.225191 1.05084 0.00100207 1.60673 0 2.1867V3.94231C0.000500013 4.17444 0.0901779 4.39689 0.249458 4.56104C0.408738 4.72518 0.624694 4.81769 0.849949 4.81821H2.98508V11.0388C2.98508 12.5545 4.09239 13.922 5.6048 14H13.8862C14.7117 13.999 15.5031 13.6605 16.0868 13.059C16.6706 12.4574 16.999 11.6418 17 10.7911V10.0616C16.9995 9.94625 16.9769 9.83208 16.9335 9.72575C16.89 9.61943 16.8267 9.52303 16.747 9.44201C16.6674 9.36099 16.5729 9.29702 16.4692 9.25371C16.3655 9.21039 16.2544 9.18858 16.1425 9.1896ZM1.28149 3.4995V2.1906C1.28149 1.9578 1.3712 1.73449 1.53094 1.56987C1.69069 1.40525 1.90737 1.3128 2.13328 1.3128C2.35919 1.3128 2.57588 1.40525 2.73562 1.56987C2.89537 1.73449 2.98508 1.9578 2.98508 2.1906V3.50341L1.28149 3.4995ZM4.25335 11.0349V2.1906C4.25392 1.88989 4.19395 1.59233 4.07728 1.31671H12.1107C12.3923 1.31671 12.6624 1.43199 12.8615 1.63721C13.0607 1.84244 13.1725 2.12077 13.1725 2.41101V9.19351H8.07692C7.85151 9.19351 7.63535 9.28585 7.47597 9.45011C7.31658 9.61436 7.22706 9.83712 7.22706 10.0694V11.1637C7.22517 13.128 4.25141 13.2938 4.25141 11.0349H4.25335ZM15.7204 10.795C15.7199 11.2977 15.5259 11.7797 15.181 12.1351C14.836 12.4906 14.3683 12.6906 13.8805 12.6911H8.05233C8.34143 12.2357 8.49719 11.704 8.50097 11.1598V10.5024H15.7204V10.795Z" fill="#888888"/>
</svg>
