<svg width="11" height="14" viewBox="0 0 11 14" fill="none" xmlns="http://www.w3.org/2000/svg">
<path d="M10.5955 2.68261L8.19284 0.38992C8.06613 0.266925 7.91508 0.169074 7.7485 0.102145C7.58192 0.0352149 7.40311 0.000535621 7.22237 0H1.375C1.0103 0.00103075 0.66092 0.139851 0.403232 0.386112C0.145544 0.632374 0.000538692 0.965974 0 1.31398V12.6879C0 13.0359 0.14487 13.3696 0.402733 13.6157C0.660597 13.8618 1.01033 14 1.375 14H9.625C9.98967 14 10.3394 13.8618 10.5973 13.6157C10.8551 13.3696 11 13.0359 11 12.6879V3.60867C10.9988 3.26107 10.8534 2.92809 10.5955 2.68261ZM9.51267 3.50538H7.3327V1.42507L9.51267 3.50538ZM1.375 12.6918V1.31788H5.9577V4.16232C5.9577 4.24851 5.97555 4.33384 6.01018 4.41345C6.0448 4.49305 6.09546 4.56535 6.15942 4.62621C6.22338 4.68706 6.29936 4.73534 6.38288 4.76815C6.4664 4.80095 6.55593 4.81771 6.64625 4.81746H9.625V12.6918H1.375ZM6.04759 6.40636L7.38787 7.68531C7.41482 7.71124 7.42987 7.74627 7.42987 7.78279C7.42987 7.81931 7.41482 7.85435 7.38787 7.88027L4.10664 11.0113L2.72755 11.1576C2.68425 11.1622 2.6404 11.1575 2.59926 11.1438C2.55813 11.13 2.52074 11.1076 2.48992 11.0782C2.45911 11.0488 2.43558 11.0131 2.42119 10.9738C2.40679 10.9346 2.40195 10.8927 2.40682 10.8514L2.56006 9.53353L5.84118 6.41417C5.86835 6.38845 5.90507 6.374 5.94334 6.374C5.9816 6.374 6.01832 6.38845 6.04549 6.41417L6.04759 6.40636ZM8.42578 6.89176L7.86592 7.426C7.83875 7.45172 7.80203 7.46617 7.76377 7.46617C7.7255 7.46617 7.68878 7.45172 7.66161 7.426L6.32133 6.14705C6.29438 6.12112 6.27923 6.08609 6.27923 6.04957C6.27923 6.01305 6.29438 5.97802 6.32133 5.95209L6.87909 5.41785C6.98803 5.31546 7.1348 5.25812 7.28771 5.25812C7.44062 5.25812 7.58739 5.31546 7.69633 5.41785L8.42578 6.11192C8.53308 6.21587 8.59318 6.35593 8.59318 6.50184C8.59318 6.64776 8.53308 6.78781 8.42578 6.89176Z" fill="#888888"/>
</svg>
