<svg width="13" height="14" viewBox="0 0 13 14" fill="none" xmlns="http://www.w3.org/2000/svg">
<path d="M12.785 11.9627L8.11205 7.00256L12.785 2.04008C12.921 1.89609 12.9974 1.70091 12.9974 1.49739C12.9974 1.29388 12.921 1.09864 12.785 0.954646L12.0981 0.226409C11.9612 0.0830125 11.7763 0.00256442 11.5835 0.00256442C11.3908 0.00256442 11.2061 0.0830125 11.0692 0.226409L6.50215 5.05817L1.9308 0.224073C1.79354 0.0805315 1.60825 0 1.41516 0C1.22207 0 1.03678 0.0805315 0.899518 0.224073L0.212856 0.95231C0.0767884 1.0963 0.00021566 1.29154 0.00021566 1.49505C0.00021566 1.69857 0.0767884 1.89375 0.212856 2.03774L4.88578 7.00023L0.212856 11.9604C0.0766535 12.1048 0 12.3003 0 12.5042C0 12.7081 0.0766535 12.9037 0.212856 13.0481L0.899518 13.774C0.967202 13.8457 1.04762 13.9025 1.1361 13.9412C1.22458 13.98 1.31938 14 1.41516 14C1.51094 14 1.60596 13.98 1.69444 13.9412C1.78292 13.9025 1.86312 13.8457 1.9308 13.774L6.50215 8.94223L11.0757 13.774C11.1431 13.8456 11.2233 13.9024 11.3116 13.9411C11.3999 13.9799 11.4946 13.9998 11.5902 13.9998C11.6858 13.9998 11.7806 13.9799 11.8688 13.9411C11.9571 13.9024 12.0373 13.8456 12.1048 13.774L12.7917 13.0481C12.9263 12.9029 13.0012 12.7073 13 12.504C12.9987 12.3006 12.9214 12.1061 12.785 11.9627Z" fill="#888888"/>
</svg>
