<svg width="18" height="14" viewBox="0 0 18 14" fill="none" xmlns="http://www.w3.org/2000/svg">
<path d="M17.0937 1.44087e-05H13.4994C13.2604 1.44087e-05 13.031 0.0923219 12.862 0.256621C12.693 0.42092 12.5982 0.643755 12.5982 0.876108V1.7497H5.39404V0.876108C5.39404 0.643755 5.29915 0.42092 5.13015 0.256621C4.96115 0.0923219 4.73194 1.44087e-05 4.49294 1.44087e-05H0.898588C0.660032 0.000675155 0.431452 0.0932618 0.263007 0.257489C0.0945629 0.421717 -9.68157e-07 0.644186 0 0.876108V4.37049C0 4.60218 0.0946149 4.82438 0.263133 4.98821C0.431651 5.15204 0.660268 5.24409 0.898588 5.24409H3.59435L6.3029 9.84419V13.1239C6.3029 13.3563 6.39791 13.5791 6.56691 13.7434C6.73591 13.9077 6.96512 14 7.20412 14H10.7985C10.9168 14 11.0339 13.9773 11.1432 13.9333C11.2526 13.8893 11.352 13.8248 11.4357 13.7434C11.5194 13.6621 11.5857 13.5655 11.631 13.4592C11.6763 13.3529 11.6996 13.239 11.6996 13.1239V9.62954C11.6996 9.51449 11.6763 9.40055 11.631 9.29426C11.5857 9.18797 11.5194 9.09139 11.4357 9.01004C11.352 8.92868 11.2526 8.86415 11.1432 8.82012C11.0339 8.7761 10.9168 8.75344 10.7985 8.75344H7.7176L5.3889 4.79979V3.50188H12.6033V4.37797C12.604 4.60989 12.6993 4.8321 12.8682 4.99586C13.0371 5.15962 13.2658 5.25157 13.5044 5.25157H17.0987C17.3373 5.25157 17.5662 5.15962 17.7351 4.99586C17.904 4.8321 17.9993 4.60989 18 4.37797V0.883588C18.001 0.767489 17.9783 0.652356 17.9331 0.544869C17.888 0.437383 17.8213 0.339688 17.737 0.257474C17.6526 0.17526 17.5523 0.110163 17.4419 0.0659637C17.3314 0.0217644 17.2132 -0.00065141 17.0937 1.44087e-05ZM4.03587 3.93867H1.33497V1.31291H4.03587V3.93867ZM7.63023 10.0688H10.3311V12.6946H7.63023V10.0688ZM16.6367 3.93867H13.9358V1.31291H16.6367V3.93867Z" fill="#888888"/>
</svg>
