<svg width="15" height="14" viewBox="0 0 15 14" fill="none" xmlns="http://www.w3.org/2000/svg">
<path d="M14.7121 9.89963C14.065 9.33136 12.8543 8.47794 12.8543 5.68277C12.8549 4.68009 12.4277 3.70852 11.6459 2.93497C10.8642 2.16143 9.77673 1.63422 8.5704 1.44386V0.873511C8.5704 0.758802 8.54267 0.645242 8.48888 0.539265C8.43508 0.433288 8.35626 0.337017 8.25687 0.255906C8.15748 0.174794 8.03945 0.110472 7.90958 0.0665747C7.77972 0.0226776 7.64056 0 7.5 0C7.35944 0 7.22022 0.0226776 7.09036 0.0665747C6.96049 0.110472 6.84252 0.174794 6.74313 0.255906C6.64374 0.337017 6.56492 0.433288 6.51112 0.539265C6.45733 0.645242 6.4296 0.758802 6.4296 0.873511V1.44386C5.22327 1.63422 4.13582 2.16143 3.35406 2.93497C2.5723 3.70852 2.14506 4.68009 2.14568 5.68277C2.14568 8.47794 0.935037 9.33136 0.287893 9.89963C0.101581 10.0592 -0.00160062 10.2715 1.87773e-05 10.4919C0.000670401 10.7243 0.114241 10.9471 0.315827 11.1112C0.517413 11.2753 0.790521 11.3675 1.07528 11.3675H13.9247C14.0658 11.3678 14.2055 11.3453 14.336 11.3014C14.4664 11.2575 14.585 11.1931 14.6849 11.1118C14.7848 11.0305 14.864 10.9338 14.9181 10.8275C14.9722 10.7211 15 10.6071 15 10.4919C15.0016 10.2715 14.8984 10.0592 14.7121 9.89963ZM2.26132 10.0542C2.97244 9.2912 3.73771 8.02415 3.75247 5.69885C3.75247 5.69885 3.75247 5.6888 3.75247 5.68277C3.75247 4.87115 4.14754 4.09275 4.8508 3.51885C5.55406 2.94495 6.5079 2.62249 7.50246 2.62249C8.49702 2.62249 9.45086 2.94495 10.1541 3.51885C10.8574 4.09275 11.2525 4.87115 11.2525 5.68277C11.2525 5.68277 11.2525 5.69283 11.2525 5.69885C11.2525 8.02415 12.0325 9.2912 12.7436 10.0542H2.26132ZM7.5 13.99C7.78133 13.99 8.05988 13.9447 8.31977 13.8568C8.57966 13.7688 8.81576 13.64 9.01458 13.4776C9.2134 13.3152 9.37103 13.1223 9.47847 12.9101C9.58591 12.6979 9.64106 12.4706 9.64073 12.241H5.35927C5.35732 12.4714 5.41121 12.6999 5.51792 12.9132C5.62463 13.1266 5.78205 13.3206 5.98103 13.4841C6.18001 13.6476 6.41665 13.7773 6.67735 13.8659C6.93804 13.9544 7.21763 14 7.5 14V13.99Z" fill="#888888"/>
</svg>
