<svg xmlns="http://www.w3.org/2000/svg" xmlns:xlink="http://www.w3.org/1999/xlink" viewBox="0 0 612 612"><defs><style>.a{opacity:0.16;fill:url(#a);}.b,.c{fill:none;}.c{stroke:#888;stroke-miterlimit:10;stroke-width:3px;}.d{mask:url(#b);}.e{fill:url(#c);}</style><radialGradient id="a" cx="612.74" cy="0.3" r="605.61" gradientUnits="userSpaceOnUse"><stop offset="0" stop-color="#fff"/><stop offset="0.12" stop-color="#fbfbfb"/><stop offset="0.24" stop-color="#eee"/><stop offset="0.37" stop-color="#d9d9d9"/><stop offset="0.5" stop-color="#bbb"/><stop offset="0.63" stop-color="#959595"/><stop offset="0.77" stop-color="#666"/><stop offset="0.9" stop-color="#303030"/><stop offset="1"/></radialGradient><mask id="b" x="-20.33" y="0" width="632.33" height="612" maskUnits="userSpaceOnUse"><rect class="a" width="612" height="612"/></mask><pattern id="c" width="74.48" height="43" patternUnits="userSpaceOnUse" viewBox="0 0 74.48 43"><rect class="b" width="74.48" height="43"/><polygon class="c" points="83.78 26.9 65.18 26.9 55.88 43 65.18 59.1 83.78 59.1 93.07 43 83.78 26.9"/><polygon class="c" points="9.3 26.9 -9.3 26.9 -18.59 43 -9.3 59.1 9.3 59.1 18.59 43 9.3 26.9"/><polygon class="c" points="83.78 -16.1 65.18 -16.1 55.88 0 65.18 16.11 83.78 16.11 93.07 0 83.78 -16.1"/><polygon class="c" points="46.54 5.4 27.94 5.4 18.64 21.5 27.94 37.6 46.54 37.6 55.83 21.5 46.54 5.4"/><polygon class="c" points="9.3 -16.1 -9.3 -16.1 -18.59 0 -9.3 16.11 9.3 16.11 18.59 0 9.3 -16.1"/></pattern></defs><g class="d"><rect class="e" width="612" height="612"/></g></svg>