<?xml version="1.0" encoding="UTF-8"?>
<svg id="Layer_1" xmlns="http://www.w3.org/2000/svg" xmlns:xlink="http://www.w3.org/1999/xlink" version="1.1" viewBox="0 0 512 512">
  <!-- Generator: Adobe Illustrator 29.1.0, SVG Export Plug-In . SVG Version: 2.1.0 Build 142)  -->
  <defs>
    <style>
      .st0 {
        fill: url(#linear-gradient);
      }

      .st1 {
        fill: #fff;
      }

      .st2 {
        fill: #0cc;
      }
    </style>
    <linearGradient id="linear-gradient" x1="128.7" y1="165.6" x2="393.3" y2="353.5" gradientUnits="userSpaceOnUse">
      <stop offset="0" stop-color="#00b487"/>
      <stop offset=".5" stop-color="#00b4c0"/>
      <stop offset="1" stop-color="#0984b8"/>
    </linearGradient>
  </defs>
  <circle class="st0" cx="256" cy="256" r="191.1"/>
  <path class="st1" d="M433.7,82.1v42l-37.3,7.2v298.6h-69.5l-140.5-234.1-1.4.2v184.9l37.3,7.2v41.8H78.3v-41.8l37-7.2v-249.6l-37-7.2v-42h106.8l140.5,234.1,1.4-.2v-184.6l-37.3-7.2v-42h144Z"/>
  <polygon class="st2" points="512 255.9 485.4 255.9 485.4 26.5 256 26.5 256 -.1 512 -.1 512 255.9"/>
  <polygon class="st2" points="-.1 256 26.5 256 26.5 485.4 255.9 485.4 255.9 512 -.1 512 -.1 256"/>
</svg>