<?xml version="1.0" encoding="UTF-8"?>
<svg id="Layer_2" data-name="Layer 2" xmlns="http://www.w3.org/2000/svg" xmlns:xlink="http://www.w3.org/1999/xlink" viewBox="0 0 504.82 275.91">
  <defs>
    <style>
      .cls-1, .cls-2 {
        fill: none;
      }

      .cls-3 {
        fill: url(#linear-gradient-2);
      }

      .cls-4 {
        fill: #2870b2;
      }

      .cls-5 {
        fill: #d11242;
      }

      .cls-6 {
        fill: url(#linear-gradient);
      }

      .cls-7 {
        fill: #0a263f;
      }

      .cls-8 {
        clip-path: url(#clippath-1);
      }

      .cls-9 {
        fill: #fff;
      }

      .cls-10 {
        opacity: .5;
      }

      .cls-2 {
        stroke: #000;
        stroke-width: .1px;
      }

      .cls-11 {
        clip-path: url(#clippath);
      }

      .cls-12 {
        fill: #003e7e;
      }
    </style>
    <clipPath id="clippath">
      <path class="cls-1" d="M55.47,83.87l42,72.28h84l42-72.28L181.47,11.6h-84l-42,72.27Z"/>
    </clipPath>
    <linearGradient id="linear-gradient" x1="243.47" y1="1276" x2="439.47" y2="1276" gradientTransform="translate(0 1359.87) scale(1 -1)" gradientUnits="userSpaceOnUse">
      <stop offset="0" stop-color="#d11242"/>
      <stop offset="1" stop-color="#d11242" stop-opacity="0"/>
    </linearGradient>
    <linearGradient id="linear-gradient-2" x1="98.82" y1="1088.5" x2="494.82" y2="1088.5" gradientTransform="translate(0 1360.91) scale(1 -1)" xlink:href="#linear-gradient"/>
    <clipPath id="clippath-1">
      <path class="cls-1" d="M9.45,225.75l24.8,42.69h49.61l24.8-42.69-24.8-42.68h-49.61l-24.8,42.68Z"/>
    </clipPath>
  </defs>
  <g id="Layer_1-2" data-name="Layer 1">
    <g>
      <path class="cls-9" d="M258.85,140.54h-2.6c-.27.02-.53-.07-.73-.25-.17-.17-.29-.39-.33-.63l-2.43-14h-21.43l-7.84,14c-.13.26-.33.47-.58.63-.25.16-.53.25-.83.25h-2.61l27.21-47.82h3.34l8.83,47.82ZM252.32,123.2l-4.21-24.33c-.06-.41-.12-.85-.18-1.34s-.11-1-.16-1.57c-.26.57-.52,1.09-.77,1.57l-.68,1.37-13.6,24.3h19.6Z"/>
      <path class="cls-9" d="M285.09,137.67c-1.02.78-2.12,1.45-3.28,2-1.02.48-2.09.81-3.2,1-1.12.18-2.26.27-3.4.27-1.72.05-3.43-.29-5-1-1.35-.62-2.51-1.59-3.37-2.79-.9-1.27-1.53-2.72-1.83-4.25-.37-1.77-.48-3.58-.34-5.38.27-3.58,1.25-7.07,2.88-10.27.79-1.55,1.74-3.01,2.84-4.36,1.05-1.29,2.26-2.45,3.59-3.45,1.28-.96,2.7-1.72,4.2-2.28,1.5-.55,3.1-.84,4.7-.83,1.01-.01,2.02.09,3,.32.83.2,1.63.51,2.39.91.71.39,1.35.87,1.93,1.44.58.58,1.1,1.21,1.55,1.89l-1,1.12c-.18.22-.45.36-.74.37-.22,0-.49-.18-.79-.54-.37-.43-.78-.82-1.23-1.17-.64-.48-1.33-.87-2.07-1.16-1.04-.39-2.16-.58-3.27-.54-1.91,0-3.77.53-5.4,1.52-1.76,1.06-3.3,2.45-4.54,4.09-1.38,1.8-2.48,3.8-3.26,5.93-.84,2.25-1.35,4.61-1.52,7-.11,1.45-.04,2.9.22,4.33.22,1.23.69,2.4,1.39,3.44.66.96,1.55,1.75,2.59,2.27,1.21.57,2.53.85,3.87.81,1.09.01,2.18-.12,3.23-.39.89-.24,1.76-.58,2.59-1,.71-.35,1.38-.78,2-1.27.59-.46,1.11-.88,1.56-1.27l1.17-1c.23-.22.53-.36.85-.39.27.02.51.14.69.34l.65.88c-1.13,1.23-2.35,2.37-3.65,3.41Z"/>
      <path class="cls-9" d="M315.31,137.67c-1.02.78-2.13,1.45-3.29,2-1.02.48-2.09.81-3.2,1-1.11.2-2.23.31-3.35.33-1.72.05-3.43-.29-5-1-1.34-.63-2.5-1.59-3.37-2.79-.9-1.28-1.52-2.72-1.83-4.25-.37-1.77-.48-3.58-.33-5.38.12-1.79.43-3.56.92-5.29.5-1.73,1.17-3.4,2-5,.79-1.55,1.74-3.01,2.84-4.36,1.05-1.29,2.25-2.45,3.58-3.45,1.28-.96,2.7-1.72,4.2-2.28,1.51-.55,3.1-.84,4.71-.83,1.01-.01,2.02.1,3,.32.83.2,1.63.51,2.38.91.71.39,1.35.87,1.93,1.44.58.58,1.1,1.21,1.56,1.89l-1,1.12c-.18.22-.45.36-.73.37-.23,0-.49-.18-.79-.54-.38-.43-.79-.82-1.24-1.17-.63-.48-1.33-.87-2.06-1.16-1.05-.39-2.16-.58-3.28-.54-1.9,0-3.77.53-5.39,1.52-1.76,1.06-3.31,2.45-4.55,4.09-1.37,1.8-2.47,3.8-3.25,5.93-.85,2.25-1.36,4.6-1.52,7-.12,1.45-.04,2.9.22,4.33.21,1.23.68,2.4,1.38,3.44.66.96,1.55,1.75,2.59,2.27,1.21.57,2.53.85,3.87.81,1.07,0,2.13-.13,3.16-.4.89-.25,1.76-.58,2.58-1,.71-.36,1.38-.78,2-1.27.58-.46,1.1-.88,1.56-1.27l1.16-1c.23-.22.54-.36.86-.39.26.01.51.13.68.34l.65.88c-1.13,1.21-2.35,2.34-3.65,3.38Z"/>
      <path class="cls-9" d="M349.73,134.29c-1.08,1.07-2.23,2.07-3.44,3-1.04.8-2.15,1.5-3.32,2.08-1.09.53-2.24.94-3.42,1.2-1.22.27-2.46.4-3.71.39-1.69.04-3.36-.28-4.92-.93-1.36-.58-2.55-1.49-3.48-2.64-.96-1.22-1.65-2.64-2-4.15-.42-1.8-.56-3.66-.4-5.5.13-1.72.42-3.43.87-5.1.45-1.7,1.07-3.35,1.85-4.93.77-1.57,1.69-3.05,2.77-4.43,1.05-1.34,2.26-2.55,3.62-3.58,1.32-1.01,2.79-1.82,4.35-2.4,1.6-.59,3.29-.89,5-.88,1.41-.04,2.81.19,4.13.69.99.39,1.9.98,2.65,1.73.63.63,1.1,1.39,1.38,2.23.25.72.36,1.48.32,2.24-.04.92-.21,1.82-.51,2.69-.33.88-.83,1.68-1.48,2.36-.79.84-1.71,1.55-2.72,2.1-1.35.75-2.78,1.36-4.26,1.81-2.01.62-4.07,1.12-6.14,1.5-2.38.45-5.15.85-8.33,1.19-.08.45-.15.91-.22,1.38s-.11.94-.14,1.39c-.24,3.35.34,6,1.73,7.87,1.39,1.87,3.61,2.84,6.68,2.84,1.1.01,2.19-.12,3.25-.39.91-.24,1.8-.57,2.64-1,.73-.37,1.42-.81,2.08-1.29.61-.45,1.15-.88,1.63-1.28s.89-.74,1.24-1c.26-.23.58-.36.92-.39.27,0,.53.12.69.34l.69.86ZM343.23,108.8c-1.73-.03-3.45.37-5,1.14-1.52.75-2.9,1.77-4.07,3-1.24,1.33-2.29,2.83-3.12,4.45-.85,1.67-1.52,3.43-2,5.25,2.89-.31,5.38-.68,7.48-1.09,1.81-.35,3.6-.79,5.37-1.32,1.26-.37,2.47-.87,3.62-1.51.81-.44,1.55-1,2.19-1.67.49-.51.86-1.11,1.11-1.77.21-.61.34-1.25.38-1.9.03-.52-.04-1.04-.21-1.53-.2-.58-.55-1.1-1-1.51-.54-.49-1.18-.88-1.87-1.13-.93-.31-1.9-.45-2.88-.41Z"/>
      <path class="cls-9" d="M378.93,111c-.15.29-.44.47-.77.48-.31-.04-.59-.19-.8-.42-.39-.37-.81-.7-1.26-1-.62-.42-1.29-.76-2-1-2.09-.61-4.32-.56-6.38.15-1,.36-1.94.88-2.78,1.54-.77.62-1.43,1.38-1.94,2.23-.49.82-.78,1.74-.85,2.69-.09.81.08,1.62.48,2.33.4.66.95,1.22,1.59,1.64.73.48,1.5.89,2.32,1.2.86.34,1.76.68,2.68,1,.91.33,1.81.71,2.68,1.13.83.39,1.6.9,2.29,1.5.67.59,1.21,1.33,1.56,2.15.39.97.53,2.02.42,3.06-.1,1.46-.5,2.88-1.15,4.19-.68,1.36-1.6,2.58-2.72,3.6-1.18,1.06-2.53,1.91-4,2.51-1.61.67-3.34,1.01-5.08,1-3.49.19-6.85-1.33-9-4.09l.89-1.15c.21-.32.56-.52.95-.54.23,0,.5.18.81.54.4.44.83.84,1.3,1.2.67.5,1.4.91,2.18,1.2,1.11.39,2.28.58,3.45.54,1.27.02,2.53-.21,3.71-.66,1.08-.41,2.07-1.02,2.93-1.8.82-.76,1.5-1.66,2-2.66.49-1,.78-2.08.86-3.19.09-.86-.07-1.73-.47-2.5-.39-.69-.93-1.28-1.58-1.74-.72-.51-1.49-.92-2.31-1.24-.87-.34-1.77-.67-2.69-1s-1.82-.69-2.68-1.09c-.83-.37-1.6-.85-2.3-1.43-.67-.56-1.2-1.27-1.56-2.06-.4-.95-.55-1.98-.43-3,.1-1.32.47-2.6,1.1-3.77.67-1.22,1.55-2.31,2.6-3.21,1.12-.96,2.4-1.71,3.78-2.23,1.5-.56,3.08-.84,4.68-.83,1.66-.04,3.31.26,4.85.88,1.36.6,2.56,1.5,3.52,2.64l-.88,1.21Z"/>
      <path class="cls-9" d="M405.47,111c-.15.29-.45.47-.78.48-.31-.04-.59-.19-.8-.42-.39-.37-.81-.7-1.25-1-.62-.42-1.29-.75-2-1-2.09-.61-4.32-.56-6.38.15-1,.36-1.94.88-2.78,1.54-.78.62-1.44,1.38-1.95,2.23-.49.82-.78,1.74-.85,2.69-.08.81.08,1.62.48,2.33.41.65.95,1.21,1.59,1.64.73.48,1.51.89,2.32,1.2.87.34,1.76.68,2.68,1,.91.33,1.81.7,2.68,1.13.83.39,1.6.9,2.29,1.5.67.59,1.21,1.33,1.56,2.15.39.97.54,2.02.43,3.06-.08,1.5-.47,2.97-1.14,4.32-.67,1.36-1.59,2.58-2.71,3.6-1.18,1.06-2.53,1.91-4,2.51-1.61.67-3.34,1.01-5.09,1-1.86.06-3.7-.32-5.38-1.13-1.39-.74-2.61-1.76-3.59-3l.89-1.15c.21-.32.56-.53.95-.54.22,0,.49.18.81.54.39.44.83.84,1.3,1.2.66.5,1.4.91,2.18,1.2,1.1.39,2.27.58,3.44.54,1.27.02,2.53-.21,3.71-.66,2.15-.8,3.92-2.4,4.93-4.46.5-.99.79-2.08.87-3.19.09-.86-.07-1.73-.47-2.5-.39-.69-.94-1.29-1.59-1.74-.73-.51-1.52-.92-2.35-1.22-.87-.34-1.76-.67-2.68-1s-1.82-.69-2.68-1.09c-.83-.37-1.6-.85-2.3-1.43-.67-.56-1.2-1.27-1.57-2.06-.39-.95-.54-1.98-.43-3,.1-1.32.47-2.61,1.11-3.77.66-1.22,1.54-2.31,2.59-3.21,1.12-.96,2.41-1.71,3.79-2.23,1.49-.56,3.08-.84,4.67-.83,1.66-.04,3.32.26,4.86.88,1.36.6,2.56,1.5,3.51,2.64l-.87,1.1Z"/>
      <path class="cls-9" d="M276.7,43.77c-.23,3.95-1.12,7.84-2.64,11.49-1.36,3.27-3.31,6.27-5.74,8.85-2.31,2.42-5.08,4.36-8.14,5.71-3.09,1.35-6.44,2.03-9.81,2-2.57.05-5.12-.47-7.47-1.5-2.11-.96-3.97-2.4-5.43-4.21-1.52-1.94-2.61-4.17-3.21-6.56-.7-2.76-.93-5.61-.69-8.45.23-3.95,1.13-7.82,2.66-11.47,1.36-3.28,3.31-6.3,5.74-8.89,2.28-2.43,5.03-4.38,8.08-5.74,3.07-1.34,6.4-2.03,9.75-2,2.59-.05,5.15.47,7.52,1.51,2.14.96,4.02,2.41,5.48,4.24,1.52,1.94,2.61,4.18,3.21,6.57.7,2.76.93,5.61.69,8.45ZM273.22,43.83c.21-2.51.03-5.03-.55-7.48-.48-2.06-1.38-4-2.66-5.68-1.2-1.55-2.76-2.79-4.54-3.62-1.96-.87-4.08-1.31-6.22-1.27-2.85-.01-5.67.59-8.26,1.76-2.61,1.18-4.94,2.88-6.86,5-2.08,2.34-3.73,5.02-4.87,7.94-1.31,3.36-2.09,6.91-2.3,10.52-.22,2.51-.03,5.04.55,7.49.49,2.05,1.4,3.98,2.68,5.66,1.21,1.54,2.77,2.77,4.55,3.59,1.95.88,4.06,1.31,6.2,1.27,5.8.05,11.33-2.41,15.17-6.76,2.07-2.33,3.71-5.01,4.83-7.92,1.3-3.36,2.07-6.9,2.28-10.5Z"/>
      <path class="cls-9" d="M287.29,48.53c.96-1.7,2.09-3.3,3.35-4.78,1.14-1.33,2.43-2.53,3.83-3.57,1.23-.92,2.57-1.66,4-2.21,1.28-.5,2.63-.75,4-.76,1.27-.04,2.52.25,3.64.84.99.58,1.79,1.44,2.29,2.47.59,1.25.91,2.62.94,4,.06,1.8-.09,3.6-.46,5.36l-4,21.49h-3.18l4-21.49c.6-3.2.56-5.66-.13-7.37s-2.15-2.57-4.38-2.57c-1.35.03-2.68.37-3.87,1-1.43.72-2.75,1.64-3.91,2.73-1.38,1.3-2.62,2.74-3.7,4.3-1.24,1.78-2.31,3.68-3.2,5.66l-3.3,17.77h-3.18l6.38-33.73h1.45c.79,0,1.16.41,1.1,1.22l-1.67,9.64Z"/>
      <path class="cls-9" d="M315.13,71.34l9.34-49.17h3.15l-9.42,49.17h-3.07Z"/>
      <path class="cls-9" d="M338.91,37.72l-6.44,33.62h-3.15l6.44-33.62h3.15ZM342.18,26.12c-.02.4-.13.79-.33,1.14-.19.35-.43.66-.72.93-.29.27-.63.48-1,.64-.34.15-.71.23-1.08.23-.37,0-.73-.07-1.06-.23-.32-.15-.61-.37-.84-.64-.23-.28-.41-.59-.54-.93-.14-.36-.19-.75-.16-1.14.03-.4.14-.79.32-1.15.17-.37.41-.71.69-1,.27-.27.59-.5.94-.66.35-.16.72-.23,1.1-.23.36,0,.72.08,1.05.23.35.16.66.4.92.69.26.29.46.63.58,1,.12.36.16.74.13,1.12Z"/>
      <path class="cls-9" d="M350.59,48.53c.96-1.7,2.09-3.3,3.35-4.78,1.13-1.33,2.4-2.52,3.79-3.57,1.23-.92,2.57-1.66,4-2.21,1.28-.5,2.63-.75,4-.76,1.27-.04,2.52.25,3.64.84.99.57,1.79,1.44,2.29,2.47.59,1.25.91,2.62.94,4,.07,1.8-.09,3.6-.46,5.36l-4,21.49h-3.18l4-21.49c.6-3.2.56-5.66-.13-7.37-.69-1.71-2.14-2.58-4.36-2.6-1.35.03-2.67.37-3.87,1-1.43.72-2.75,1.64-3.91,2.73-1.38,1.3-2.62,2.74-3.7,4.3-1.24,1.78-2.31,3.68-3.2,5.66l-3.32,17.74h-3.18l6.38-33.73h1.45c.79,0,1.16.41,1.1,1.22l-1.63,9.7Z"/>
      <path class="cls-9" d="M403.47,65.09c-1.08,1.07-2.23,2.07-3.44,3-1.04.8-2.15,1.49-3.32,2.07-1.08.54-2.23.94-3.41,1.21-1.22.26-2.47.38-3.72.38-1.69.03-3.36-.28-4.92-.92-1.36-.58-2.55-1.49-3.48-2.64-.96-1.22-1.65-2.64-2-4.16-.42-1.8-.56-3.65-.4-5.49.13-1.72.42-3.43.87-5.1.45-1.7,1.07-3.36,1.85-4.94.77-1.57,1.7-3.05,2.77-4.43,1.05-1.34,2.26-2.55,3.62-3.58,1.33-1.01,2.8-1.82,4.36-2.4,1.6-.59,3.29-.88,5-.88,1.41-.04,2.81.19,4.12.7.99.38,1.9.97,2.65,1.72.65.63,1.15,1.4,1.45,2.26.25.72.36,1.49.32,2.25-.06.9-.25,1.79-.56,2.63-.33.88-.83,1.69-1.48,2.37-.8.83-1.71,1.54-2.72,2.1-1.35.75-2.78,1.35-4.26,1.8-2.01.63-4.06,1.14-6.14,1.51-2.37.45-5.15.85-8.33,1.18-.08.45-.15.91-.21,1.39-.06.48-.12.93-.15,1.38-.24,3.36.34,6,1.73,7.88,1.39,1.88,3.61,2.84,6.68,2.84,2.05.02,4.07-.45,5.89-1.39.73-.37,1.43-.8,2.09-1.28.6-.46,1.14-.88,1.62-1.29s.89-.74,1.24-1c.26-.22.58-.35.92-.38.27,0,.52.12.69.33l.67.88ZM396.97,39.61c-1.73-.02-3.45.36-5,1.13-1.53.77-2.9,1.81-4.07,3.06-1.23,1.33-2.28,2.83-3.11,4.44-.86,1.67-1.53,3.44-2,5.26,2.88-.32,5.37-.68,7.47-1.1,1.81-.34,3.61-.78,5.37-1.32,1.26-.37,2.47-.87,3.62-1.5.82-.44,1.57-1,2.22-1.67.49-.51.87-1.12,1.11-1.78.21-.61.34-1.25.38-1.89.03-.52-.04-1.05-.21-1.54-.2-.58-.54-1.1-1-1.5-.54-.5-1.17-.88-1.86-1.13-.94-.33-1.93-.49-2.92-.46Z"/>
      <g class="cls-11">
        <rect class="cls-9" x="-47" y="-25.69" width="419.61" height="272"/>
        <g class="cls-10">
          <rect class="cls-9" x="17.1" y="6.25" width="248.91" height="154.29"/>
          <rect class="cls-5" x="17.1" y="6.25" width="248.91" height="11.86"/>
          <rect class="cls-5" x="17.1" y="30.02" width="248.91" height="11.86"/>
          <rect class="cls-5" x="17.1" y="53.64" width="248.91" height="11.86"/>
          <rect class="cls-5" x="17.1" y="77.41" width="248.91" height="11.86"/>
          <rect class="cls-5" x="17.1" y="101.35" width="248.91" height="11.86"/>
          <rect class="cls-5" x="17.1" y="124.96" width="248.91" height="11.86"/>
          <rect class="cls-5" x="17.1" y="148.9" width="248.91" height="11.86"/>
          <rect class="cls-12" x="17.1" y="6.25" width="103.35" height="82.97"/>
          <polygon class="cls-9" points="28.03 13.51 30.54 13.51 28.52 15.03 29.3 17.44 27.29 15.96 25.27 17.44 26.06 15.03 24.02 13.51 26.53 13.51 27.29 11.16 28.03 13.51"/>
          <polygon class="cls-9" points="44.72 13.51 47.24 13.51 45.21 15.03 46 17.44 43.98 15.96 41.96 17.44 42.75 15.03 40.71 13.51 43.22 13.51 43.98 11.16 44.72 13.51"/>
          <polygon class="cls-9" points="61.41 13.51 63.93 13.51 61.9 15.03 62.69 17.44 60.67 15.96 58.65 17.44 59.45 15.03 57.4 13.51 59.91 13.51 60.67 11.16 61.41 13.51"/>
          <polygon class="cls-9" points="78.1 13.51 80.62 13.51 78.59 15.03 79.38 17.44 77.36 15.96 75.34 17.44 76.14 15.03 74.09 13.51 76.6 13.51 77.36 11.16 78.1 13.51"/>
          <polygon class="cls-9" points="94.79 13.51 97.31 13.51 95.28 15.03 96.07 17.44 94.05 15.96 92.03 17.44 92.83 15.03 90.78 13.51 93.29 13.51 94.05 11.16 94.79 13.51"/>
          <polygon class="cls-9" points="111.48 13.51 114 13.51 111.97 15.03 112.76 17.44 110.74 15.96 108.72 17.44 109.52 15.03 107.47 13.51 109.98 13.51 110.74 11.16 111.48 13.51"/>
          <polygon class="cls-9" points="103.14 22 105.65 22 103.63 23.52 104.41 25.93 102.4 24.45 100.38 25.93 101.17 23.52 99.13 22 101.64 22 102.4 19.65 103.14 22"/>
          <polygon class="cls-9" points="94.79 30.49 97.31 30.49 95.28 32.01 96.07 34.42 94.05 32.94 92.03 34.42 92.83 32.01 90.78 30.49 93.29 30.49 94.05 28.14 94.79 30.49"/>
          <polygon class="cls-9" points="86.45 38.98 88.96 38.98 86.94 40.5 87.72 42.91 85.7 41.43 83.69 42.91 84.48 40.5 82.44 38.98 84.94 38.98 85.7 36.63 86.45 38.98"/>
          <polygon class="cls-9" points="78.1 47.47 80.62 47.47 78.59 48.99 79.38 51.4 77.36 49.92 75.34 51.4 76.14 48.99 74.09 47.47 76.6 47.47 77.36 45.12 78.1 47.47"/>
          <polygon class="cls-9" points="69.76 55.97 72.27 55.97 70.25 57.49 71.03 59.9 69.01 58.41 67 59.9 67.79 57.49 65.75 55.97 68.25 55.97 69.01 53.62 69.76 55.97"/>
          <polygon class="cls-9" points="61.41 64.46 63.93 64.46 61.9 65.98 62.69 68.39 60.67 66.9 58.65 68.39 59.45 65.98 57.4 64.46 59.91 64.46 60.67 62.11 61.41 64.46"/>
          <polygon class="cls-9" points="53.07 72.95 55.58 72.95 53.55 74.47 54.34 76.88 52.32 75.39 50.31 76.88 51.1 74.47 49.06 72.95 51.56 72.95 52.32 70.6 53.07 72.95"/>
          <polygon class="cls-9" points="44.72 81.44 47.24 81.44 45.21 82.96 46 85.37 43.98 83.88 41.96 85.37 42.75 82.96 40.71 81.44 43.22 81.44 43.98 79.09 44.72 81.44"/>
          <polygon class="cls-9" points="61.41 81.44 63.93 81.44 61.9 82.96 62.69 85.37 60.67 83.88 58.65 85.37 59.45 82.96 57.4 81.44 59.91 81.44 60.67 79.09 61.41 81.44"/>
          <polygon class="cls-9" points="78.1 81.44 80.62 81.44 78.59 82.96 79.38 85.37 77.36 83.88 75.34 85.37 76.14 82.96 74.09 81.44 76.6 81.44 77.36 79.09 78.1 81.44"/>
          <polygon class="cls-9" points="94.79 81.44 97.31 81.44 95.28 82.96 96.07 85.37 94.05 83.88 92.03 85.37 92.83 82.96 90.78 81.44 93.29 81.44 94.05 79.09 94.79 81.44"/>
          <polygon class="cls-9" points="111.48 81.44 114 81.44 111.97 82.96 112.76 85.37 110.74 83.88 108.72 85.37 109.52 82.96 107.47 81.44 109.98 81.44 110.74 79.09 111.48 81.44"/>
          <polygon class="cls-9" points="69.76 22 72.27 22 70.25 23.52 71.03 25.93 69.01 24.45 67 25.93 67.79 23.52 65.75 22 68.25 22 69.01 19.65 69.76 22"/>
          <polygon class="cls-9" points="61.41 30.49 63.93 30.49 61.9 32.01 62.69 34.42 60.67 32.94 58.65 34.42 59.45 32.01 57.4 30.49 59.91 30.49 60.67 28.14 61.41 30.49"/>
          <polygon class="cls-9" points="53.07 38.98 55.58 38.98 53.56 40.5 54.34 42.91 52.32 41.43 50.31 42.91 51.1 40.5 49.06 38.98 51.56 38.98 52.32 36.63 53.07 38.98"/>
          <polygon class="cls-9" points="44.72 47.47 47.24 47.47 45.21 48.99 46 51.41 43.98 49.92 41.96 51.41 42.75 48.99 40.71 47.47 43.22 47.47 43.98 45.13 44.72 47.47"/>
          <polygon class="cls-9" points="36.37 55.97 38.89 55.97 36.86 57.48 37.65 59.9 35.63 58.41 33.62 59.9 34.41 57.48 32.37 55.97 34.87 55.97 35.63 53.62 36.37 55.97"/>
          <polygon class="cls-9" points="36.37 22 38.89 22 36.86 23.52 37.65 25.93 35.63 24.45 33.61 25.93 34.41 23.52 32.37 22 34.87 22 35.63 19.65 36.37 22"/>
          <polygon class="cls-9" points="53.07 22 55.58 22 53.55 23.52 54.34 25.93 52.32 24.45 50.31 25.93 51.1 23.52 49.06 22 51.56 22 52.32 19.65 53.07 22"/>
          <polygon class="cls-9" points="44.72 30.49 47.24 30.49 45.21 32.01 46 34.42 43.98 32.94 41.96 34.42 42.75 32.01 40.71 30.49 43.22 30.49 43.98 28.14 44.72 30.49"/>
          <polygon class="cls-9" points="36.37 38.98 38.89 38.98 36.86 40.5 37.65 42.91 35.63 41.43 33.61 42.91 34.41 40.5 32.37 38.98 34.87 38.98 35.63 36.63 36.37 38.98"/>
          <polygon class="cls-9" points="28.03 30.49 30.54 30.49 28.52 32.01 29.3 34.42 27.29 32.94 25.27 34.42 26.06 32.01 24.02 30.49 26.53 30.49 27.29 28.14 28.03 30.49"/>
          <polygon class="cls-9" points="28.03 47.47 30.54 47.47 28.52 48.99 29.3 51.4 27.29 49.92 25.27 51.4 26.06 48.99 24.02 47.47 26.53 47.47 27.29 45.12 28.03 47.47"/>
          <polygon class="cls-9" points="28.03 64.46 30.54 64.46 28.52 65.98 29.3 68.39 27.29 66.9 25.27 68.39 26.06 65.98 24.02 64.46 26.53 64.46 27.29 62.11 28.03 64.46"/>
          <polygon class="cls-9" points="86.45 22 88.96 22 86.94 23.52 87.72 25.93 85.7 24.45 83.69 25.93 84.48 23.52 82.44 22 84.95 22 85.7 19.65 86.45 22"/>
          <polygon class="cls-9" points="78.1 30.49 80.62 30.49 78.59 32.01 79.38 34.42 77.36 32.94 75.34 34.42 76.14 32.01 74.09 30.49 76.6 30.49 77.36 28.14 78.1 30.49"/>
          <polygon class="cls-9" points="69.76 38.98 72.27 38.98 70.25 40.5 71.03 42.91 69.01 41.43 67 42.91 67.79 40.5 65.75 38.98 68.25 38.98 69.01 36.63 69.76 38.98"/>
          <polygon class="cls-9" points="61.41 47.47 63.93 47.47 61.9 48.99 62.69 51.4 60.67 49.92 58.65 51.4 59.45 48.99 57.4 47.47 59.91 47.47 60.67 45.12 61.41 47.47"/>
          <polygon class="cls-9" points="53.07 55.97 55.58 55.97 53.56 57.49 54.34 59.9 52.32 58.41 50.31 59.9 51.1 57.49 49.06 55.97 51.56 55.97 52.32 53.62 53.07 55.97"/>
          <polygon class="cls-9" points="44.72 64.46 47.24 64.46 45.21 65.98 46 68.39 43.98 66.9 41.96 68.39 42.76 65.98 40.71 64.46 43.22 64.46 43.98 62.11 44.72 64.46"/>
          <polygon class="cls-9" points="36.37 72.95 38.89 72.95 36.86 74.47 37.65 76.88 35.63 75.39 33.61 76.88 34.41 74.47 32.37 72.95 34.87 72.95 35.63 70.6 36.37 72.95"/>
          <polygon class="cls-9" points="28.03 81.44 30.54 81.44 28.52 82.96 29.3 85.37 27.29 83.88 25.27 85.37 26.06 82.96 24.02 81.44 26.53 81.44 27.29 79.09 28.03 81.44"/>
          <polygon class="cls-9" points="69.76 72.95 72.27 72.95 70.25 74.47 71.03 76.88 69.01 75.39 67 76.88 67.79 74.47 65.75 72.95 68.25 72.95 69.01 70.6 69.76 72.95"/>
          <polygon class="cls-9" points="78.1 64.46 80.62 64.46 78.59 65.98 79.38 68.39 77.36 66.9 75.34 68.39 76.14 65.98 74.09 64.46 76.6 64.46 77.36 62.11 78.1 64.46"/>
          <polygon class="cls-9" points="86.45 55.97 88.96 55.97 86.94 57.49 87.72 59.9 85.7 58.41 83.69 59.9 84.48 57.49 82.44 55.97 84.94 55.97 85.7 53.62 86.45 55.97"/>
          <polygon class="cls-9" points="94.79 47.47 97.31 47.47 95.28 48.99 96.07 51.4 94.05 49.92 92.03 51.4 92.83 48.99 90.78 47.47 93.29 47.47 94.05 45.12 94.79 47.47"/>
          <polygon class="cls-9" points="103.14 38.98 105.65 38.98 103.63 40.5 104.41 42.91 102.4 41.43 100.38 42.91 101.17 40.5 99.13 38.98 101.64 38.98 102.4 36.63 103.14 38.98"/>
          <polygon class="cls-9" points="86.45 72.95 88.96 72.95 86.94 74.47 87.72 76.88 85.71 75.39 83.69 76.88 84.48 74.47 82.44 72.95 84.95 72.95 85.71 70.6 86.45 72.95"/>
          <polygon class="cls-9" points="94.79 64.46 97.31 64.46 95.28 65.98 96.07 68.39 94.05 66.9 92.03 68.39 92.83 65.98 90.78 64.46 93.29 64.46 94.05 62.11 94.79 64.46"/>
          <polygon class="cls-9" points="103.14 55.97 105.65 55.97 103.63 57.49 104.41 59.9 102.4 58.41 100.38 59.9 101.17 57.49 99.13 55.97 101.64 55.97 102.4 53.62 103.14 55.97"/>
          <polygon class="cls-9" points="103.14 72.95 105.65 72.95 103.63 74.47 104.41 76.88 102.4 75.39 100.38 76.88 101.17 74.47 99.13 72.95 101.64 72.95 102.4 70.6 103.14 72.95"/>
          <polygon class="cls-9" points="111.48 30.49 114 30.49 111.97 32.01 112.76 34.42 110.74 32.94 108.72 34.42 109.52 32.01 107.47 30.49 109.98 30.49 110.74 28.14 111.48 30.49"/>
          <polygon class="cls-9" points="111.48 47.47 114 47.47 111.97 48.99 112.76 51.4 110.74 49.92 108.72 51.4 109.52 48.99 107.47 47.47 109.98 47.47 110.74 45.12 111.48 47.47"/>
          <polygon class="cls-9" points="111.48 64.46 114 64.46 111.97 65.98 112.76 68.39 110.74 66.9 108.72 68.39 109.52 65.98 107.47 64.46 109.98 64.46 110.74 62.11 111.48 64.46"/>
          <rect class="cls-2" x="17.1" y="6.25" width="248.91" height="154.29"/>
        </g>
      </g>
      <path class="cls-4" d="M39.47,83.87L89.47,0h100l50,83.87-50,83.87h-100l-50-83.87ZM93.06,6.25l-46.32,77.62,46.32,77.63h92.82l46.32-77.63L185.88,6.25h-92.82Z"/>
      <polygon class="cls-6" points="439.47 87.37 243.47 87.37 245.47 83.87 243.47 80.37 439.47 80.37 439.47 87.37"/>
      <path class="cls-7" d="M148.82,100c-3.02.96-6.18,1.43-9.35,1.4-3.81.07-7.59-.61-11.13-2-3.25-1.31-6.16-3.33-8.52-5.91-2.44-2.72-4.29-5.91-5.44-9.38-1.33-4.05-1.97-8.29-1.91-12.55-.06-4.25.58-8.47,1.9-12.51,1.15-3.48,3-6.69,5.44-9.42,2.37-2.58,5.28-4.6,8.52-5.93,7.16-2.76,15.1-2.76,22.26,0,3.23,1.32,6.14,3.35,8.49,5.93,2.42,2.74,4.26,5.94,5.39,9.42,1.32,4.04,1.97,8.26,1.91,12.51.06,4.26-.58,8.5-1.91,12.55-.39,1.12-.84,2.22-1.36,3.29l4.91,12.32c3.24-3.51,5.77-7.61,7.45-12.08,1.92-5.14,2.86-10.59,2.8-16.08.06-5.48-.89-10.92-2.8-16.05-1.75-4.71-4.45-9.02-7.92-12.65-3.46-3.58-7.63-6.4-12.24-8.28-5.03-2.04-10.41-3.06-15.84-3-5.42-.05-10.79.97-15.81,3-4.6,1.88-8.75,4.7-12.19,8.28-3.5,3.63-6.22,7.94-8,12.65-1.92,5.13-2.87,10.57-2.8,16.05-.07,5.49.87,10.94,2.8,16.08,1.79,4.71,4.51,9,8,12.63,3.45,3.58,7.62,6.39,12.24,8.24,5.01,2,10.36,3,15.76,2.94,4.41.04,8.79-.6,13-1.91l-3.65-9.54Z"/>
      <path class="cls-7" d="M133.3,52l-13.78,34.57c.83,1.6,1.86,3.09,3.07,4.43,1.41,1.53,3.06,2.83,4.88,3.83l9.17-24c.4-1,.81-2.25,1.23-3.59s.82-2.8,1.22-4.36c.68,2.66,1.51,5.28,2.51,7.84l11.62,30.28,3.15,8.27,6.91,18.13c.27.79.76,1.49,1.42,2,.72.53,1.6.81,2.5.77h8.93l-31.13-78.17h-11.7Z"/>
      <path class="cls-7" d="M111.86,105.79l-9.69,24.34h8.93c.91.03,1.8-.28,2.5-.85.63-.48,1.12-1.13,1.41-1.87l6.08-15.93c-3.32-1.47-6.43-3.38-9.23-5.69Z"/>
    </g>
    <g>
      <g>
        <path class="cls-9" d="M174.05,223.5c-.23,3.95-1.12,7.84-2.64,11.49-1.36,3.28-3.31,6.28-5.74,8.86-2.31,2.42-5.08,4.36-8.14,5.71-3.09,1.35-6.44,2.03-9.81,2-2.57.05-5.12-.47-7.47-1.5-2.12-.96-3.98-2.41-5.43-4.22-1.52-1.94-2.61-4.17-3.21-6.56-.7-2.76-.93-5.61-.69-8.45.23-3.95,1.13-7.82,2.66-11.47,1.36-3.28,3.31-6.29,5.74-8.89,2.29-2.43,5.05-4.38,8.11-5.73,3.07-1.34,6.4-2.03,9.75-2,2.59-.04,5.15.47,7.52,1.51,2.14.96,4.02,2.41,5.48,4.24,1.52,1.94,2.61,4.18,3.21,6.57.68,2.76.91,5.61.66,8.44ZM170.57,223.57c.21-2.51.03-5.04-.55-7.49-.48-2.06-1.38-4-2.66-5.68-1.2-1.55-2.76-2.79-4.54-3.61-1.95-.88-4.08-1.31-6.22-1.27-2.85-.02-5.67.58-8.26,1.76-2.61,1.18-4.94,2.88-6.86,5-2.09,2.35-3.74,5.06-4.87,8-1.3,3.35-2.07,6.88-2.28,10.47-.22,2.51-.03,5.04.55,7.49.48,2.05,1.39,3.99,2.66,5.67,1.21,1.54,2.77,2.78,4.55,3.6,1.95.87,4.07,1.31,6.2,1.27,2.87.02,5.71-.57,8.33-1.74,2.6-1.17,4.93-2.88,6.84-5,2.07-2.33,3.71-5.02,4.83-7.93,1.31-3.37,2.08-6.93,2.28-10.54Z"/>
        <path class="cls-9" d="M184.64,228.26c.96-1.7,2.09-3.3,3.35-4.78,1.14-1.33,2.42-2.53,3.83-3.57,1.22-.92,2.57-1.67,4-2.22,1.28-.49,2.63-.75,4-.76,1.27-.04,2.52.25,3.64.85,1,.57,1.8,1.43,2.29,2.47.59,1.25.91,2.62.94,4,.06,1.8-.09,3.59-.46,5.35l-4,21.5h-3.18l4-21.5c.6-3.2.56-5.65-.13-7.36-.69-1.72-2.15-2.57-4.38-2.57-1.35.03-2.67.37-3.87,1-1.43.72-2.75,1.64-3.91,2.74-1.39,1.29-2.63,2.73-3.7,4.29-1.24,1.78-2.31,3.68-3.2,5.66l-3.3,17.78h-3.18l6.38-33.73h1.45c.79,0,1.16.4,1.1,1.21l-1.67,9.64Z"/>
        <path class="cls-9" d="M212.48,251.08l9.34-49.17h3.15l-9.42,49.18h-3.07Z"/>
        <path class="cls-9" d="M236.26,217.45l-6.44,33.63h-3.15l6.44-33.63h3.15ZM239.53,205.91c-.02.4-.14.78-.33,1.13-.19.35-.43.66-.72.93-.29.27-.63.48-1,.64-.34.16-.71.24-1.08.24-.37,0-.73-.08-1.06-.24-.32-.15-.61-.37-.84-.64-.23-.28-.42-.59-.54-.93-.13-.36-.18-.75-.14-1.13.03-.4.14-.79.32-1.15.18-.37.41-.7.69-1,.27-.27.59-.5.94-.65.35-.16.72-.24,1.1-.24.35,0,.69.09,1,.24.33.15.63.37.88.64.27.29.46.63.58,1,.15.37.21.76.2,1.16Z"/>
        <path class="cls-9" d="M247.94,228.26c.96-1.7,2.09-3.3,3.36-4.78,1.12-1.33,2.39-2.53,3.78-3.57,1.22-.92,2.57-1.67,4-2.22,1.28-.49,2.63-.75,4-.76,1.27-.04,2.52.25,3.64.85,1,.57,1.8,1.43,2.29,2.47.59,1.25.91,2.62.94,4,.06,1.8-.09,3.59-.46,5.35l-4,21.5h-3.18l4-21.5c.6-3.2.56-5.65-.13-7.36-.69-1.72-2.15-2.57-4.38-2.57-1.35.03-2.67.37-3.87,1-1.43.72-2.75,1.64-3.91,2.74-1.39,1.29-2.63,2.73-3.7,4.29-1.23,1.79-2.31,3.68-3.2,5.66l-3.3,17.72h-3.18l6.38-33.73h1.45c.79,0,1.16.4,1.1,1.21l-1.63,9.7Z"/>
        <path class="cls-9" d="M300.82,244.83c-1.08,1.07-2.23,2.07-3.44,3-1.04.8-2.15,1.5-3.32,2.08-1.09.53-2.23.93-3.41,1.2-1.22.27-2.47.4-3.72.39-1.69.04-3.36-.28-4.92-.93-1.36-.59-2.56-1.5-3.48-2.66-.96-1.22-1.65-2.64-2-4.15-.42-1.8-.55-3.66-.39-5.5.12-1.72.41-3.43.86-5.1.45-1.7,1.07-3.36,1.85-4.94.77-1.57,1.7-3.05,2.77-4.42,1.04-1.35,2.26-2.55,3.62-3.58,1.32-1.02,2.79-1.83,4.36-2.41,1.6-.58,3.29-.88,5-.87,1.41-.04,2.8.19,4.12.69.99.39,1.89.97,2.65,1.72.65.63,1.15,1.41,1.45,2.27.25.72.36,1.49.32,2.25-.06.9-.25,1.79-.56,2.64-.33.89-.84,1.71-1.49,2.4-.79.83-1.71,1.54-2.71,2.1-1.36.75-2.79,1.35-4.27,1.81-2.01.62-4.06,1.12-6.14,1.5-2.37.45-5.15.85-8.33,1.18-.08.45-.15.92-.21,1.39s-.12.93-.15,1.39c-.24,3.35.34,6,1.73,7.87,1.39,1.87,3.61,2.76,6.68,2.76,2.05.02,4.07-.45,5.89-1.39.73-.37,1.43-.8,2.09-1.28.6-.45,1.14-.88,1.62-1.29.48-.4.89-.73,1.24-1,.26-.23.58-.36.92-.39.27,0,.53.12.69.34l.68.93ZM294.32,219.34c-1.73-.02-3.45.36-5,1.13-1.53.77-2.9,1.81-4.07,3.06-1.23,1.34-2.28,2.83-3.11,4.45-.86,1.67-1.53,3.43-2,5.25,2.88-.31,5.37-.68,7.47-1.1,1.81-.34,3.6-.78,5.37-1.31,1.26-.38,2.47-.88,3.62-1.51.82-.44,1.57-1,2.22-1.67.47-.5.84-1.09,1.08-1.73.21-.61.34-1.25.38-1.89.03-.52-.04-1.05-.21-1.54-.2-.57-.55-1.09-1-1.5-.54-.5-1.17-.88-1.86-1.13-.92-.35-1.9-.52-2.89-.51Z"/>
        <path class="cls-9" d="M357.3,251.08h-2.61c-.26.01-.52-.08-.72-.26-.17-.17-.29-.38-.33-.62l-2.43-14h-21.39l-7.84,14c-.14.25-.34.47-.59.62-.24.17-.53.26-.83.26h-2.56l27.2-47.83h3.35l8.75,47.83ZM350.82,233.74l-4.26-24.33c-.06-.41-.13-.86-.18-1.34s-.11-1-.16-1.57c-.27.56-.52,1.09-.77,1.57s-.48.94-.69,1.37l-13.59,24.3h19.65Z"/>
        <path class="cls-9" d="M383.54,248.21c-1.02.78-2.13,1.45-3.29,2-1.02.48-2.09.82-3.2,1-1.12.18-2.25.27-3.39.27-1.72.04-3.43-.3-5-1-1.34-.63-2.5-1.59-3.37-2.79-.9-1.28-1.52-2.73-1.83-4.26-.37-1.76-.48-3.57-.33-5.37.12-1.79.43-3.56.93-5.29.48-1.73,1.13-3.4,1.95-5,.78-1.53,1.72-2.97,2.81-4.3,1.05-1.3,2.25-2.46,3.59-3.45,1.28-.96,2.69-1.73,4.19-2.28,1.51-.56,3.1-.84,4.71-.83,1.01-.01,2.02.1,3,.32.83.2,1.64.5,2.39.91.7.39,1.35.88,1.92,1.44.58.58,1.11,1.21,1.56,1.89l-1,1.12c-.18.22-.45.36-.74.37-.23,0-.49-.18-.79-.54-.37-.43-.79-.82-1.24-1.17-.63-.48-1.32-.87-2.06-1.16-1.05-.4-2.16-.59-3.28-.55-1.9,0-3.77.53-5.39,1.53-1.76,1.06-3.31,2.44-4.55,4.08-1.37,1.81-2.47,3.81-3.25,5.94-.84,2.25-1.35,4.61-1.52,7-.12,1.45-.04,2.9.22,4.33.21,1.25.68,2.43,1.37,3.49.66.97,1.55,1.75,2.6,2.27,1.2.57,2.53.85,3.86.81,1.09.01,2.18-.12,3.24-.39.89-.25,1.76-.58,2.58-1,.7-.36,1.37-.79,2-1.27.58-.46,1.1-.89,1.56-1.27l1.16-1c.24-.22.54-.36.86-.39.27,0,.52.13.69.34l.64.88c-1.11,1.2-2.32,2.31-3.6,3.32Z"/>
        <path class="cls-9" d="M413.75,248.21c-1.02.78-2.12,1.45-3.28,2-1.02.48-2.09.81-3.2,1-1.12.18-2.26.27-3.4.27-1.72.05-3.43-.3-5-1-1.35-.62-2.51-1.59-3.37-2.79-.9-1.28-1.52-2.73-1.83-4.26-.37-1.76-.48-3.57-.34-5.37.27-3.58,1.25-7.07,2.88-10.27.79-1.55,1.74-3.01,2.84-4.36,1.05-1.29,2.26-2.45,3.59-3.45,1.28-.96,2.7-1.72,4.2-2.28,1.5-.56,3.1-.84,4.7-.83,1.01-.01,2.02.09,3,.32.83.2,1.64.5,2.39.91.69.41,1.33.9,1.89,1.48.58.58,1.11,1.21,1.56,1.89l-1,1.12c-.18.22-.45.36-.74.37-.22,0-.48-.18-.79-.54-.89-1.04-2.02-1.84-3.3-2.33-1.04-.4-2.15-.59-3.27-.55-1.91,0-3.77.53-5.4,1.53-1.76,1.06-3.3,2.44-4.54,4.08-1.38,1.81-2.47,3.81-3.25,5.94-.85,2.25-1.37,4.6-1.53,7-.11,1.45-.04,2.9.23,4.33.2,1.25.68,2.44,1.38,3.49.66.96,1.55,1.75,2.59,2.27,1.21.57,2.53.85,3.87.81,1.09.01,2.18-.12,3.23-.39.89-.24,1.76-.58,2.59-1,.71-.36,1.38-.78,2-1.27.59-.46,1.11-.89,1.56-1.27l1.17-1c.23-.22.53-.36.85-.39.27,0,.52.13.69.34l.65.88c-1.12,1.2-2.33,2.3-3.62,3.32Z"/>
        <path class="cls-9" d="M448.17,244.83c-1.08,1.07-2.22,2.07-3.43,3-1.04.8-2.16,1.5-3.33,2.08-1.09.53-2.23.94-3.41,1.2-1.22.27-2.46.4-3.71.39-1.69.04-3.36-.28-4.92-.93-1.36-.59-2.56-1.5-3.48-2.66-.96-1.22-1.65-2.64-2-4.15-.41-1.8-.54-3.66-.39-5.5.26-3.48,1.18-6.87,2.71-10,.77-1.57,1.7-3.05,2.78-4.42,1.04-1.34,2.26-2.55,3.61-3.58,1.33-1.01,2.8-1.83,4.36-2.41,1.6-.58,3.29-.88,5-.87,1.41-.04,2.81.19,4.13.69,1.02.38,1.95.96,2.73,1.72.62.63,1.1,1.39,1.38,2.23.25.72.35,1.49.31,2.25-.06.9-.24,1.79-.55,2.64-.34.89-.85,1.71-1.51,2.4-.8.83-1.71,1.54-2.72,2.1-1.36.75-2.79,1.35-4.27,1.81-2.01.62-4.06,1.13-6.14,1.5-2.37.45-5.15.85-8.32,1.18-.08.45-.15.92-.22,1.39s-.12.93-.15,1.39c-.23,3.35.34,6,1.73,7.87s3.62,2.76,6.68,2.76c1.1.01,2.19-.12,3.26-.39.91-.24,1.8-.57,2.64-1,.73-.37,1.42-.8,2.08-1.28.61-.45,1.15-.88,1.63-1.29s.89-.73,1.23-1c.26-.22.59-.36.93-.39.27,0,.52.12.68.34l.68.93ZM441.68,219.34c-1.73-.02-3.45.36-5,1.13-1.52.77-2.9,1.81-4.06,3.06-1.24,1.33-2.29,2.83-3.12,4.45-.85,1.67-1.52,3.43-2,5.25,2.88-.31,5.38-.68,7.48-1.1,1.81-.34,3.6-.78,5.36-1.31,1.26-.38,2.47-.88,3.62-1.51.81-.44,1.55-1.01,2.2-1.67.48-.51.86-1.12,1.1-1.78.21-.61.34-1.25.39-1.89.02-.52-.05-1.04-.21-1.54-.2-.57-.55-1.09-1-1.5-.54-.5-1.18-.88-1.87-1.13-.93-.33-1.91-.49-2.89-.46h0Z"/>
        <path class="cls-9" d="M477.38,221.57c-.15.29-.45.48-.78.48-.31-.05-.59-.2-.8-.43-.39-.35-.81-.66-1.25-.94-.62-.42-1.29-.75-2-1-2.09-.61-4.32-.56-6.38.15-1,.36-1.94.88-2.78,1.54-.78.62-1.44,1.38-1.95,2.23-.49.82-.78,1.74-.84,2.69-.09.81.07,1.62.47,2.33.41.65.96,1.21,1.6,1.64.72.48,1.5.88,2.31,1.2.87.34,1.76.67,2.69,1,.91.34,1.8.72,2.67,1.14.83.39,1.61.9,2.3,1.5.67.59,1.2,1.32,1.55,2.14.39.97.53,2.02.43,3.06-.1,1.46-.49,2.88-1.15,4.19-.67,1.36-1.59,2.58-2.72,3.6-1.17,1.07-2.53,1.92-4,2.52-1.62.65-3.35.97-5.09.95-1.86.06-3.7-.32-5.38-1.13-1.39-.74-2.61-1.76-3.59-3l.89-1.15c.21-.32.56-.53.95-.54.23,0,.5.18.81.54.39.44.83.84,1.3,1.2.66.5,1.4.91,2.18,1.2,1.1.39,2.27.58,3.44.54,1.27.02,2.53-.21,3.72-.66,1.08-.41,2.08-1.03,2.93-1.81.83-.75,1.5-1.65,2-2.65.5-1,.79-2.08.87-3.19.1-.86-.07-1.73-.47-2.5-.39-.69-.93-1.29-1.58-1.75-.72-.5-1.5-.92-2.32-1.23-.86-.34-1.76-.67-2.68-1-.91-.31-1.81-.67-2.68-1.08-.83-.37-1.6-.85-2.3-1.43-.68-.54-1.23-1.23-1.61-2.01-.4-.95-.55-1.98-.44-3,.11-1.3.49-2.56,1.12-3.7.66-1.22,1.54-2.31,2.59-3.21,1.12-.96,2.41-1.71,3.79-2.23,1.47-.56,3.04-.86,4.62-.86,1.66-.04,3.32.26,4.86.88,1.36.6,2.56,1.5,3.51,2.64l-.81,1.14Z"/>
        <path class="cls-9" d="M503.94,221.57c-.15.29-.44.47-.77.48-.31-.04-.59-.2-.8-.43-.39-.34-.81-.66-1.25-.94-.62-.42-1.29-.75-2-1-2.09-.61-4.32-.56-6.38.15-1,.36-1.94.88-2.78,1.54-.78.62-1.43,1.38-1.94,2.23-.49.82-.78,1.74-.85,2.69-.08.81.08,1.62.48,2.33.4.66.95,1.22,1.59,1.64.73.48,1.5.89,2.32,1.2.86.34,1.76.67,2.68,1s1.82.72,2.68,1.14c.83.39,1.6.9,2.29,1.5.67.59,1.2,1.32,1.56,2.14.39.97.53,2.02.43,3.06-.11,1.46-.5,2.88-1.16,4.19-.67,1.36-1.59,2.58-2.72,3.6-2.49,2.26-5.74,3.5-9.11,3.47-3.49.19-6.85-1.33-9-4.09l.89-1.15c.22-.34.6-.54,1-.54.22,0,.49.18.8.54.4.44.83.84,1.3,1.2.67.5,1.41.91,2.19,1.2,1.1.4,2.27.58,3.44.54,1.27.02,2.53-.21,3.71-.66,1.08-.41,2.08-1.03,2.93-1.81.82-.75,1.5-1.65,2-2.65.49-1,.78-2.08.86-3.19.1-.86-.07-1.73-.47-2.5-.39-.69-.93-1.29-1.58-1.75-.72-.5-1.49-.91-2.31-1.23-.87-.34-1.76-.67-2.69-1-.91-.31-1.81-.68-2.68-1.08-.83-.37-1.6-.85-2.3-1.43-.68-.56-1.23-1.26-1.6-2.05-.4-.95-.55-1.98-.43-3,.09-1.32.47-2.61,1.11-3.77.66-1.22,1.54-2.31,2.59-3.21,1.12-.96,2.41-1.71,3.79-2.23,1.49-.56,3.08-.84,4.67-.83,1.66-.04,3.31.26,4.85.88,1.37.62,2.59,1.54,3.54,2.71l-.88,1.11Z"/>
        <polygon class="cls-3" points="494.82 275.91 98.82 275.91 102.82 268.91 494.82 268.91 494.82 275.91"/>
      </g>
      <g class="cls-8">
        <rect class="cls-9" x="-51.07" y="161.05" width="247.81" height="160.64"/>
        <g class="cls-10">
          <rect class="cls-9" x="-13.21" y="179.91" width="147" height="91.12"/>
          <rect class="cls-5" x="-13.21" y="179.91" width="147" height="7"/>
          <rect class="cls-5" x="-13.21" y="193.95" width="147" height="7"/>
          <rect class="cls-5" x="-13.21" y="207.9" width="147" height="7"/>
          <rect class="cls-5" x="-13.21" y="221.94" width="147" height="7"/>
          <rect class="cls-5" x="-13.21" y="236.08" width="147" height="7"/>
          <rect class="cls-5" x="-13.21" y="250.02" width="147" height="7"/>
          <rect class="cls-5" x="-13.21" y="264.16" width="147" height="7"/>
          <rect class="cls-12" x="-13.21" y="179.91" width="61.03" height="49"/>
          <polygon class="cls-9" points="3.1 184.2 4.59 184.2 3.39 185.1 3.86 186.52 2.66 185.64 1.47 186.52 1.94 185.1 .73 184.2 2.21 184.2 2.66 182.81 3.1 184.2"/>
          <polygon class="cls-9" points="12.96 184.2 14.44 184.2 13.25 185.1 13.71 186.52 12.52 185.64 11.33 186.52 11.8 185.1 10.59 184.2 12.07 184.2 12.52 182.81 12.96 184.2"/>
          <polygon class="cls-9" points="22.82 184.2 24.3 184.2 23.11 185.1 23.57 186.52 22.38 185.64 21.19 186.52 21.66 185.1 20.45 184.2 21.93 184.2 22.38 182.81 22.82 184.2"/>
          <polygon class="cls-9" points="32.67 184.2 34.16 184.2 32.96 185.1 33.43 186.52 32.24 185.64 31.04 186.52 31.51 185.1 30.31 184.2 31.79 184.2 32.24 182.81 32.67 184.2"/>
          <polygon class="cls-9" points="42.53 184.2 44.02 184.2 42.82 185.1 43.28 186.52 42.09 185.64 40.9 186.52 41.37 185.1 40.16 184.2 41.64 184.2 42.09 182.81 42.53 184.2"/>
          <polygon class="cls-9" points="37.6 189.21 39.09 189.21 37.89 190.11 38.36 191.54 37.16 190.66 35.97 191.54 36.44 190.11 35.23 189.21 36.71 189.21 37.16 187.83 37.6 189.21"/>
          <polygon class="cls-9" points="32.67 194.23 34.16 194.23 32.96 195.13 33.43 196.55 32.24 195.67 31.04 196.55 31.51 195.13 30.31 194.23 31.79 194.23 32.24 192.84 32.67 194.23"/>
          <polygon class="cls-9" points="27.74 199.24 29.23 199.24 28.03 200.14 28.5 201.57 27.31 200.69 26.12 201.57 26.58 200.14 25.38 199.24 26.86 199.24 27.31 197.86 27.74 199.24"/>
          <polygon class="cls-9" points="22.82 204.26 24.3 204.26 23.11 205.16 23.57 206.58 22.38 205.7 21.19 206.58 21.66 205.16 20.45 204.26 21.93 204.26 22.38 202.87 22.82 204.26"/>
          <polygon class="cls-9" points="17.89 209.27 19.37 209.27 18.18 210.17 18.64 211.59 17.45 210.72 16.26 211.59 16.73 210.17 15.52 209.27 17 209.27 17.45 207.89 17.89 209.27"/>
          <polygon class="cls-9" points="12.96 214.29 14.44 214.29 13.25 215.19 13.71 216.61 12.52 215.73 11.33 216.61 11.8 215.19 10.59 214.29 12.07 214.29 12.52 212.9 12.96 214.29"/>
          <polygon class="cls-9" points="8.03 219.3 9.52 219.3 8.32 220.2 8.78 221.62 7.59 220.75 6.4 221.62 6.87 220.2 5.66 219.3 7.14 219.3 7.59 217.91 8.03 219.3"/>
          <polygon class="cls-9" points="3.1 224.32 4.59 224.32 3.39 225.21 3.86 226.64 2.66 225.76 1.47 226.64 1.94 225.21 .73 224.32 2.21 224.32 2.66 222.93 3.1 224.32"/>
          <polygon class="cls-9" points="12.96 224.32 14.44 224.32 13.25 225.21 13.71 226.64 12.52 225.76 11.33 226.64 11.8 225.21 10.59 224.32 12.07 224.32 12.52 222.93 12.96 224.32"/>
          <polygon class="cls-9" points="22.82 224.32 24.3 224.32 23.11 225.21 23.57 226.64 22.38 225.76 21.19 226.64 21.66 225.21 20.45 224.32 21.93 224.32 22.38 222.93 22.82 224.32"/>
          <polygon class="cls-9" points="32.67 224.32 34.16 224.32 32.96 225.21 33.43 226.64 32.24 225.76 31.04 226.64 31.51 225.21 30.31 224.32 31.79 224.32 32.24 222.93 32.67 224.32"/>
          <polygon class="cls-9" points="42.53 224.32 44.02 224.32 42.82 225.21 43.28 226.64 42.09 225.76 40.9 226.64 41.37 225.21 40.16 224.32 41.64 224.32 42.09 222.93 42.53 224.32"/>
          <polygon class="cls-9" points="17.89 189.22 19.37 189.22 18.18 190.11 18.64 191.54 17.45 190.66 16.26 191.54 16.73 190.11 15.52 189.22 17 189.22 17.45 187.83 17.89 189.22"/>
          <polygon class="cls-9" points="12.96 194.23 14.44 194.23 13.25 195.13 13.71 196.55 12.52 195.67 11.33 196.55 11.8 195.13 10.59 194.23 12.07 194.23 12.52 192.84 12.96 194.23"/>
          <polygon class="cls-9" points="8.03 199.24 9.52 199.24 8.32 200.14 8.78 201.57 7.59 200.69 6.4 201.57 6.87 200.14 5.66 199.24 7.14 199.24 7.59 197.86 8.03 199.24"/>
          <polygon class="cls-9" points="3.1 204.26 4.59 204.26 3.39 205.16 3.86 206.58 2.66 205.7 1.47 206.58 1.94 205.16 .73 204.26 2.21 204.26 2.66 202.87 3.1 204.26"/>
          <polygon class="cls-9" points="8.03 189.21 9.52 189.21 8.32 190.11 8.78 191.54 7.59 190.66 6.4 191.54 6.87 190.11 5.66 189.21 7.14 189.21 7.59 187.83 8.03 189.21"/>
          <polygon class="cls-9" points="3.1 194.23 4.59 194.23 3.39 195.13 3.86 196.55 2.66 195.67 1.47 196.55 1.94 195.13 .73 194.23 2.21 194.23 2.66 192.84 3.1 194.23"/>
          <polygon class="cls-9" points="27.75 189.21 29.23 189.21 28.03 190.11 28.5 191.54 27.31 190.66 26.12 191.54 26.58 190.11 25.38 189.21 26.86 189.21 27.31 187.83 27.75 189.21"/>
          <polygon class="cls-9" points="22.82 194.23 24.3 194.23 23.11 195.13 23.57 196.55 22.38 195.67 21.19 196.55 21.66 195.13 20.45 194.23 21.93 194.23 22.38 192.84 22.82 194.23"/>
          <polygon class="cls-9" points="17.89 199.24 19.37 199.24 18.18 200.14 18.64 201.57 17.45 200.69 16.26 201.57 16.73 200.14 15.52 199.24 17 199.24 17.45 197.86 17.89 199.24"/>
          <polygon class="cls-9" points="12.96 204.26 14.44 204.26 13.25 205.16 13.71 206.58 12.52 205.7 11.33 206.58 11.8 205.16 10.59 204.26 12.07 204.26 12.52 202.87 12.96 204.26"/>
          <polygon class="cls-9" points="8.03 209.27 9.52 209.27 8.32 210.17 8.78 211.59 7.59 210.72 6.4 211.59 6.87 210.17 5.66 209.27 7.14 209.27 7.59 207.89 8.03 209.27"/>
          <polygon class="cls-9" points="3.1 214.29 4.59 214.29 3.39 215.19 3.86 216.61 2.66 215.73 1.47 216.61 1.94 215.19 .73 214.29 2.22 214.29 2.66 212.9 3.1 214.29"/>
          <polygon class="cls-9" points="17.89 219.3 19.37 219.3 18.18 220.2 18.64 221.62 17.45 220.75 16.26 221.62 16.73 220.2 15.52 219.3 17 219.3 17.45 217.91 17.89 219.3"/>
          <polygon class="cls-9" points="22.82 214.29 24.3 214.29 23.11 215.18 23.57 216.61 22.38 215.73 21.19 216.61 21.66 215.18 20.45 214.29 21.93 214.29 22.38 212.9 22.82 214.29"/>
          <polygon class="cls-9" points="27.74 209.27 29.23 209.27 28.03 210.17 28.5 211.59 27.31 210.72 26.11 211.59 26.58 210.17 25.38 209.27 26.86 209.27 27.31 207.89 27.74 209.27"/>
          <polygon class="cls-9" points="32.67 204.26 34.16 204.26 32.96 205.16 33.43 206.58 32.24 205.7 31.04 206.58 31.51 205.16 30.31 204.26 31.79 204.26 32.24 202.87 32.67 204.26"/>
          <polygon class="cls-9" points="37.6 199.24 39.09 199.24 37.89 200.14 38.36 201.57 37.16 200.69 35.97 201.57 36.44 200.14 35.23 199.24 36.71 199.24 37.16 197.86 37.6 199.24"/>
          <polygon class="cls-9" points="27.75 219.3 29.23 219.3 28.03 220.2 28.5 221.62 27.31 220.75 26.12 221.62 26.58 220.2 25.38 219.3 26.86 219.3 27.31 217.91 27.75 219.3"/>
          <polygon class="cls-9" points="32.67 214.29 34.16 214.29 32.96 215.19 33.43 216.61 32.24 215.73 31.04 216.61 31.51 215.19 30.31 214.29 31.79 214.29 32.24 212.9 32.67 214.29"/>
          <polygon class="cls-9" points="37.6 209.27 39.09 209.27 37.89 210.17 38.36 211.59 37.16 210.72 35.97 211.59 36.44 210.17 35.23 209.27 36.71 209.27 37.16 207.89 37.6 209.27"/>
          <polygon class="cls-9" points="37.6 219.3 39.09 219.3 37.89 220.2 38.36 221.62 37.16 220.75 35.97 221.62 36.44 220.2 35.23 219.3 36.71 219.3 37.16 217.91 37.6 219.3"/>
          <polygon class="cls-9" points="42.53 194.23 44.02 194.23 42.82 195.13 43.28 196.55 42.09 195.67 40.9 196.55 41.37 195.13 40.16 194.23 41.64 194.23 42.09 192.84 42.53 194.23"/>
          <polygon class="cls-9" points="42.53 204.26 44.02 204.26 42.82 205.16 43.28 206.58 42.09 205.7 40.9 206.58 41.37 205.16 40.16 204.26 41.64 204.26 42.09 202.87 42.53 204.26"/>
          <polygon class="cls-9" points="42.53 214.29 44.02 214.29 42.82 215.19 43.28 216.61 42.09 215.73 40.9 216.61 41.37 215.19 40.16 214.29 41.64 214.29 42.09 212.9 42.53 214.29"/>
          <rect class="cls-2" x="-13.21" y="179.91" width="147" height="91.12"/>
        </g>
      </g>
      <path class="cls-4" d="M0,225.75l29.53-49.53h59.06l29.53,49.53-29.53,49.53H29.53L0,225.75ZM31.65,179.91l-27.36,45.84,27.36,45.85h54.82l27.36-45.85-27.36-45.84H31.65Z"/>
      <path class="cls-7" d="M64.58,235.28c-1.79.57-3.65.84-5.52.83-2.25.04-4.48-.36-6.57-1.18-1.92-.77-3.64-1.97-5.03-3.49-1.44-1.61-2.53-3.49-3.21-5.54-.78-2.39-1.17-4.9-1.13-7.41-.04-2.51.34-5,1.12-7.39.68-2.06,1.77-3.95,3.21-5.56,1.4-1.52,3.12-2.72,5.03-3.5,4.23-1.63,8.92-1.63,13.15,0,1.91.78,3.62,1.98,5.01,3.5,1.43,1.62,2.51,3.51,3.18,5.56.78,2.38,1.16,4.88,1.13,7.39.04,2.52-.34,5.02-1.13,7.41-.23.66-.5,1.31-.8,1.94l2.9,7.28c1.91-2.07,3.41-4.49,4.4-7.13,1.13-3.04,1.69-6.26,1.65-9.5.03-3.23-.53-6.45-1.65-9.48-1.03-2.78-2.63-5.32-4.68-7.47-2.05-2.11-4.51-3.78-7.23-4.89-2.97-1.2-6.15-1.81-9.35-1.77-3.2-.03-6.37.57-9.34,1.77-2.71,1.11-5.17,2.78-7.2,4.89-2.06,2.14-3.67,4.69-4.72,7.47-1.13,3.03-1.69,6.24-1.65,9.48-.04,3.24.52,6.46,1.65,9.5,1.06,2.78,2.66,5.32,4.72,7.46,2.04,2.12,4.5,3.77,7.23,4.87,2.96,1.18,6.12,1.77,9.31,1.74,2.6.02,5.19-.36,7.68-1.13l-2.16-5.63Z"/>
      <path class="cls-7" d="M55.41,206.93l-8.14,20.42c.49.95,1.1,1.83,1.81,2.62.83.9,1.81,1.67,2.88,2.26l5.42-14.17c.24-.59.48-1.33.73-2.12s.48-1.65.72-2.57c.4,1.57.89,3.12,1.48,4.63l6.86,17.88,1.86,4.88,4.08,10.71c.16.47.45.88.84,1.18.43.32.95.48,1.48.45h5.27l-18.38-46.17h-6.91Z"/>
      <path class="cls-7" d="M42.75,238.7l-5.72,14.37h5.27c.54.02,1.06-.16,1.48-.5.37-.29.66-.67.83-1.1l3.59-9.41c-1.96-.87-3.8-2-5.45-3.36Z"/>
    </g>
  </g>
</svg>