<?xml version="1.0" encoding="UTF-8"?>
<svg id="Layer_2" data-name="Layer 2" xmlns="http://www.w3.org/2000/svg" xmlns:xlink="http://www.w3.org/1999/xlink" viewBox="0 0 505 291.84">
  <defs>
    <style>
      .cls-1 {
        fill: none;
      }

      .cls-2 {
        fill: url(#linear-gradient-4);
      }

      .cls-3 {
        fill: url(#linear-gradient-3);
      }

      .cls-4 {
        fill: url(#linear-gradient-2);
      }

      .cls-5 {
        fill: url(#linear-gradient);
      }

      .cls-6 {
        clip-path: url(#clippath-1);
      }

      .cls-7 {
        fill: #fff;
      }

      .cls-8 {
        opacity: .2;
      }

      .cls-9 {
        fill: #cc379e;
      }

      .cls-10 {
        clip-path: url(#clippath);
      }
    </style>
    <linearGradient id="linear-gradient" x1="352.59" y1="3570.85" x2="394.3" y2="3646.19" gradientTransform="translate(-3548.87 -131.9) rotate(90) scale(1 -1)" gradientUnits="userSpaceOnUse">
      <stop offset="0" stop-color="#ffabc7"/>
      <stop offset="1" stop-color="#d65fb4"/>
    </linearGradient>
    <clipPath id="clippath">
      <polygon class="cls-1" points="84.63 198.43 34.57 198.43 9.54 241.52 34.57 284.55 84.63 284.55 109.66 241.52 84.63 198.43"/>
    </clipPath>
    <linearGradient id="linear-gradient-2" x1="99" y1="867.55" x2="495" y2="867.55" gradientTransform="translate(0 1155.88) scale(1 -1)" gradientUnits="userSpaceOnUse">
      <stop offset="0" stop-color="#cc379e"/>
      <stop offset="1" stop-color="#cc379e" stop-opacity="0"/>
    </linearGradient>
    <linearGradient id="linear-gradient-3" x1="180.85" y1="3658.25" x2="250.84" y2="3784.65" xlink:href="#linear-gradient"/>
    <clipPath id="clippath-1">
      <polygon class="cls-1" points="214.5 11.6 130.5 11.6 88.5 83.9 130.5 156.1 214.5 156.1 256.5 83.9 214.5 11.6"/>
    </clipPath>
    <linearGradient id="linear-gradient-4" x1="276.5" y1="2388.67" x2="472.5" y2="2388.67" gradientTransform="translate(0 -2304.77)" xlink:href="#linear-gradient-2"/>
  </defs>
  <g id="Layer_1-2" data-name="Layer 1">
    <g>
      <g>
        <path class="cls-5" d="M9.54,241.52l25.03,43.09h50.06l25.03-43.09-25.03-43.09h-50.06l-25.03,43.09Z"/>
        <path class="cls-9" d="M0,241.52l29.8-50h59.6l29.8,50-29.8,50H29.8L0,241.52ZM31.95,195.27l-27.59,46.25,27.59,46.25h55.31l27.59-46.25-27.59-46.25H31.95Z"/>
        <g class="cls-8">
          <g class="cls-10">
            <g>
              <path class="cls-7" d="M57.1,289.8c.36-2.03,2.38-1.43,3.58-2.15-.12-1.61-1.55-2.15-2.26-3.1-2.09-2.8-1.79-3.93,1.19-5.72.6-.36,1.97.12,1.85-1.73-.66-1.01-3.34,0-3.52-2.21,1.91-.6,3.7,1.37,5.19.72,1.97-.83,4.23-1.37,5.66-.6,1.91,1.07,3.64.24,5.96.95l2.03,2.38h2.74c.42,2.03,1.61,2.86,3.64,2.62.6-.06,1.19,0,1.13.89-1.13,1.19-2.44,2.09-3.93,2.8-3.1,1.25-5.96,2.98-9.36,3.46-.77.12-2.15.36-2.5,1.67h-11.38Z"/>
              <path class="cls-7" d="M57.99,274.84h-2.21c-.66-1.19-.89-2.62-2.74-2.74-1.73-.12-1.97-2.5-4.11-2.68-1.43-.12-2.74-1.73-4.17-2.44-1.13-.54-1.61-1.61-2.56-2.21-.24-1.67.72-3.58-1.25-4.77-.6.18-.89,1.13-1.79.77-1.67-2.8-2.74-5.9-3.16-9.18-.06-.3.12-.77,0-.83-2.86-2.03-1.43-5.01-1.73-7.57-.06-.72-.06-1.43,0-2.15.95-.83,1.73-1.91,2.26-3.04.36-.83.66-1.79.12-2.38-1.25-1.31-.54-2.74-.6-4.11-.06-1.07-.72-1.85-.24-3.28.72-1.91.18-4.29.18-6.38l-4.23-4.23c-1.43,1.19-3.22,1.13-5.07.89-.48-.3-.3-.77-.36-1.19.89-1.01,2.21-.06,3.52-.77v-4.95h3.52c.6,0,.89-.3.89-.89v-1.61c2.5.66,3.75-2.98,6.91-1.61,1.67,1.91,2.56,4.83,3.99,7.51h2.92l4.23,4.89q.24-2.68-1.49-5.07c1.73-1.19,3.4-2.21,5.42-.6,0,.6.24.89.89.89,0,.95-.18,2.03,1.37,1.79.42-.06.83-.06,1.25,0-.54,2.26-.54,3.34-.12,4.95-.6.83-1.73-.18-2.38.6.48,1.49,1.79,1.91,2.92,1.31,1.07-.48,1.91-1.43,2.26-2.56-.18-1.25-2.32-1.43-1.73-3.1,1.43-.77,2.44-.24,3.46,1.07-.6,2.62.3,5.42,2.32,7.21,1.25-1.07,1.85-2.26.36-3.58-1.07-.95-1.55-1.97-.6-3.16,1.67-.54.89,1.49,1.91,1.61.6-.48.18-1.07.3-1.61h3.22c.83,2.03,2.98,3.04,4.41,4.59s1.97,4.17,4.65,4.53c0,1.85-2.44,2.5-2.03,4.59.12.6-1.25,1.55-3.28.95-.72-.06-.42.24-.42.24.42-.24,1.37.54,1.19-.36-.12-.72-1.01-.66-.77.12.66,1.01.89,2.21.83,3.46,1.43.95,1.85-.83,3.16-.48,1.79,1.31,1.73,4.71,4.77,5.19-.12.89,1.49,1.13.83,2.26-2.15,1.01-3.87,2.8-6.08,3.4-.12,2.44,2.62.3,2.62,2.5-2.09,2.21-5.07,1.13-7.69,1.55-.48,3.22-5.72,2.74-4.71,6.68-2.32,1.01-4.65,1.61-6.02,3.22-.42,1.31,1.49,1.79.6,2.92-.66.42-1.37.18-2.09.18-.77-3.1-2.03-4.11-5.07-4.35-1.25-.06-2.38.24-3.7-.72s-2.5.66-3.93,1.07c.06.54.06,1.13,0,1.67-.12.66-1.13.95-.83,1.85,1.01.77.83,2.38,2.15,3.1,1.01-.06,2.21.48,3.16-.42.89-.77,1.97-.24,2.92-.36.12,0,.36.36.3.3.72,1.31-1.01,1.55-.6,2.56q3.34,1.97,1.91,4.95ZM64.13,249.51c.18.48-.36,1.31.77,1.73.77-.12,1.31-.72,1.97-1.73-.95,0-1.85,0-2.8-.12.6-2.26-.77-3.52-2.5-4.35-1.01-.48-1.91.24-2.5,1.13-.18.3-.12.77-.12,1.07.72.95,1.79-.12,2.5.77.18.42-.06,1.07.6,1.43.66-.06,1.37-.06,2.09.06ZM67.35,231.51c-1.91-2.68-3.87-1.43-5.42-.48-1.73,1.07-3.1,2.68-1.91,5.01,2.62,2.26,6.38,3.4,7.33,7.27.12.3.3.48.6.6.48.06.95.06,1.43,0,0-.66-.06-1.19,0-1.73s-.24-1.19.36-1.61c.48-.06,1.25.06,1.31-.66.18-.72.06-1.43-.36-2.03-.42-.54.48-4.05,1.01-4.47,1.31.66,2.03-.36,2.8-1.13-.6-1.61-2.26-1.19-3.52-1.73.77-1.07,1.85-.12,2.38-.66l1.07-2.21c-.66-.77-1.73.24-2.38-.6-.06-1.61-.12-3.22-3.1-3.1,2.09,3.1-2.21,4.11-1.61,7.51ZM56.08,222.63c-.24-1.67-1.85-1.67-3.28-1.91.24,1.73,1.85,1.73,3.28,1.91ZM61.03,252.01c.48-.3.66-.95.3-1.49-.06-.12-.18-.24-.3-.3-.48.3-.66.95-.3,1.49.06.12.18.24.3.3Z"/>
              <path class="cls-7" d="M66.75,211.6c.54-2.03,1.91-3.46,3.87-3.46,1.49,0,3.1-.66,4.47.72.3.3,1.07.06,1.79.06.89-.54.36-2.26,2.32-2.44,1.43,1.55,4.71.42,6.2,3.7,1.13,2.44,3.93,4.11,5.96,6.14-.42,1.31.42,2.21.83,3.22q0,2.5,1.73,2.62c-.77,2.32-1.25,4.77-2.8,6.73-.89,1.07-.95,1.97-.18,3.04s.36,2.15.18,3.34h-3.16c-1.61-2.98-4.83-5.24-3.52-9.36-1.91-.12-1.85-1.07-2.03-2.32-.12-1.13-1.19-2.15-1.67-3.28s-1.61-1.61-2.15-2.56h-2.74c-1.13-.89-1.55-2.26-2.21-3.52,2.38-.89,1.91-2.56,1.19-4.41.48,2.09-2.74,2.26-2.09,4.41-1.31.06-.72,1.07-.89,1.79h-3.22q-.3-2.32-1.91-4.41Z"/>
              <path class="cls-7" d="M98.4,268.7c.6-3.1,2.38-5.72,3.7-8.46,1.97-4.17,3.64-8.28,3.34-12.99-.06-1.49-.18-2.92.66-4.53,1.13-2.09-.3-4.71-2.32-5.9v-7.15c1.01,1.79,1.73,3.28,3.34,3.87v12.64c0,4.89-1.31,9.42-3.1,13.95-1.25,2.98-2.74,5.84-4.41,8.58h-1.19Z"/>
              <path class="cls-7" d="M33.38,204.57c-.54-.12-1.13.24-1.61-.24-.36-.54-.24-1.31.3-1.67.06-.06.18-.12.24-.12,2.56-1.37,4.65-3.93,8.05-3.28.12.83-.24,1.73-.89,2.26-1.37,1.43-3.22,2.44-3.75,4.59-.83.06-1.97.89-2.32-.72.24-.12.66-.12.72-.3.12-.48-.3-.54-.72-.54Z"/>
              <path class="cls-7" d="M105.43,227.4l-2.62-1.73c-.42-2.8-1.73-5.3-2.98-7.75-.36-.6-.54-1.25-.54-1.91h1.25c2.15,2.86,2.44,6.62,4.83,9.3.36.42.06,1.37.06,2.09Z"/>
              <path class="cls-7" d="M99.11,224.89v3.16c-1.73.6-2.8.06-3.46-1.55.6-1.55,1.73-1.97,3.46-1.61Z"/>
              <path class="cls-7" d="M97.51,213.39q1.73.18,1.73,2.62c-1.37-.36-1.85-1.25-1.73-2.62Z"/>
              <path class="cls-7" d="M65.02,211.6c.06.83-.54.95-1.07.83-1.07-.18-.54-1.13-.66-1.73l1.73.89Z"/>
              <path class="cls-7" d="M97.51,270.49c.12-.66-.42-1.67.89-1.73-.12.6.42,1.61-.89,1.73Z"/>
              <path class="cls-7" d="M40.41,199.32c-.12-.3.06-.66.36-.77h.12c.06,0,.3.18.24.24,0,.36-.3.6-.66.54t-.06,0Z"/>
              <path class="cls-7" d="M67.41,270.9c1.25-.6,2.74-.6,3.99,0-1.25.6-2.74.6-3.99,0Z"/>
              <path class="cls-7" d="M59.9,267.63c.72-1.01,1.49-.36,2.32-.48-.66,1.01-1.55.48-2.32.48Z"/>
              <path class="cls-7" d="M64.13,268.7c1.19-.06,2.21,0,1.49,1.67-.77-.42-1.37-.83-1.49-1.67Z"/>
              <path class="cls-7" d="M64.13,268.7c-.3.12-.66-.06-.77-.36v-.12c0-.06.18-.3.24-.24.36,0,.6.3.54.66t0,.06Z"/>
            </g>
          </g>
        </g>
        <path class="cls-7" d="M54.47,230.2c-3.52-5.65-6.68-9.35-7.57-11.63-.66,1.2-.89,3.91-.95,4.08-3.16,14.62,6.44,20.48,15.26,32.27,10.37,13.91,8.78,19,8.78,19h11.25c2.26-13.64-17.88-29.54-26.76-43.72h0Z"/>
        <g>
          <path class="cls-7" d="M66.99,243.62c.06.05.12.11.18.22,4.89-6.03,8.11-11.79,6.08-21.19-.06-.16-.3-2.88-.95-4.08-.95,2.28-4.05,5.98-7.57,11.63-1.19,1.96-2.62,3.91-4.17,5.87,2.03,2.5,4.29,5.05,6.44,7.55Z"/>
          <path class="cls-7" d="M58.71,254.06c-1.55-1.96-3.1-3.75-4.59-5.54-.72-.82-1.43-1.68-2.15-2.5-7.87,8.97-15.44,18.96-14.01,27.55h10.73s-1.07-4.78,9.3-18.64c.24-.27.48-.6.72-.87Z"/>
        </g>
      </g>
      <path class="cls-7" d="M174.23,239.43c-.23,3.95-1.12,7.84-2.64,11.49-1.36,3.28-3.31,6.28-5.74,8.86-2.31,2.42-5.08,4.36-8.14,5.71-3.09,1.35-6.44,2.03-9.81,2-2.57.05-5.12-.47-7.47-1.5-2.12-.96-3.98-2.41-5.43-4.22-1.52-1.94-2.61-4.17-3.21-6.56-.7-2.76-.93-5.61-.69-8.45.23-3.95,1.13-7.82,2.66-11.47,1.36-3.28,3.31-6.29,5.74-8.89,2.29-2.43,5.05-4.38,8.11-5.73,3.07-1.34,6.4-2.03,9.75-2,2.59-.04,5.15.47,7.52,1.51,2.14.96,4.02,2.41,5.48,4.24,1.52,1.94,2.61,4.18,3.21,6.57.68,2.76.91,5.61.66,8.44ZM170.75,239.5c.21-2.51.03-5.04-.55-7.49-.48-2.06-1.38-4-2.66-5.68-1.2-1.55-2.76-2.79-4.54-3.61-1.95-.88-4.08-1.31-6.22-1.27-2.85-.02-5.67.58-8.26,1.76-2.61,1.18-4.94,2.88-6.86,5-2.09,2.35-3.74,5.06-4.87,8-1.3,3.35-2.07,6.88-2.28,10.47-.22,2.51-.03,5.04.55,7.49.48,2.05,1.39,3.99,2.66,5.67,1.21,1.54,2.77,2.78,4.55,3.6,1.95.87,4.07,1.31,6.2,1.27,2.87.02,5.71-.57,8.33-1.74,2.6-1.17,4.93-2.88,6.84-5,2.07-2.33,3.71-5.02,4.83-7.93,1.31-3.37,2.08-6.93,2.28-10.54Z"/>
      <path class="cls-7" d="M184.82,244.19c.96-1.7,2.09-3.3,3.35-4.78,1.14-1.33,2.42-2.53,3.83-3.57,1.22-.92,2.57-1.67,4-2.22,1.28-.49,2.63-.75,4-.76,1.27-.04,2.52.25,3.64.85,1,.57,1.8,1.43,2.29,2.47.59,1.25.91,2.62.94,4,.06,1.8-.09,3.59-.46,5.35l-4,21.5h-3.18l4-21.5c.6-3.2.56-5.65-.13-7.36-.69-1.72-2.15-2.57-4.38-2.57-1.35.03-2.67.37-3.87,1-1.43.72-2.75,1.64-3.91,2.74-1.39,1.29-2.63,2.73-3.7,4.29-1.24,1.78-2.31,3.68-3.2,5.66l-3.3,17.78h-3.18l6.38-33.73h1.45c.79,0,1.16.4,1.1,1.21l-1.67,9.64Z"/>
      <path class="cls-7" d="M212.66,267.01l9.34-49.17h3.15l-9.42,49.18h-3.07Z"/>
      <path class="cls-7" d="M236.44,233.38l-6.44,33.63h-3.15l6.44-33.63h3.15ZM239.71,221.84c-.02.4-.14.78-.33,1.13-.19.35-.43.66-.72.93-.29.27-.63.48-1,.64-.34.16-.71.24-1.08.24-.37,0-.73-.08-1.06-.24-.32-.15-.61-.37-.84-.64-.23-.28-.42-.59-.54-.93-.13-.36-.18-.75-.14-1.13.03-.4.14-.79.32-1.15.18-.37.41-.7.69-1,.27-.27.59-.5.94-.65.35-.16.72-.24,1.1-.24.35,0,.69.09,1,.24.33.15.63.37.88.64.27.29.46.63.58,1,.15.37.21.76.2,1.16Z"/>
      <path class="cls-7" d="M248.12,244.19c.96-1.7,2.09-3.3,3.36-4.78,1.12-1.33,2.39-2.53,3.78-3.57,1.22-.92,2.57-1.67,4-2.22,1.28-.49,2.63-.75,4-.76,1.27-.04,2.52.25,3.64.85,1,.57,1.8,1.43,2.29,2.47.59,1.25.91,2.62.94,4,.06,1.8-.09,3.59-.46,5.35l-4,21.5h-3.18l4-21.5c.6-3.2.56-5.65-.13-7.36-.69-1.72-2.15-2.57-4.38-2.57-1.35.03-2.67.37-3.87,1-1.43.72-2.75,1.64-3.91,2.74-1.39,1.29-2.63,2.73-3.7,4.29-1.23,1.79-2.31,3.68-3.2,5.66l-3.3,17.72h-3.18l6.38-33.73h1.45c.79,0,1.16.4,1.1,1.21l-1.63,9.7Z"/>
      <path class="cls-7" d="M301,260.76c-1.08,1.07-2.23,2.07-3.44,3-1.04.8-2.15,1.5-3.32,2.08-1.09.53-2.23.93-3.41,1.2-1.22.27-2.47.4-3.72.39-1.69.04-3.36-.28-4.92-.93-1.36-.59-2.56-1.5-3.48-2.66-.96-1.22-1.65-2.64-2-4.15-.42-1.8-.55-3.66-.39-5.5.12-1.72.41-3.43.86-5.1.45-1.7,1.07-3.36,1.85-4.94.77-1.57,1.7-3.05,2.77-4.42,1.04-1.35,2.26-2.55,3.62-3.58,1.32-1.02,2.79-1.83,4.36-2.41,1.6-.58,3.29-.88,5-.87,1.41-.04,2.8.19,4.12.69.99.39,1.89.97,2.65,1.72.65.63,1.15,1.41,1.45,2.27.25.72.36,1.49.32,2.25-.06.9-.25,1.79-.56,2.64-.33.89-.84,1.71-1.49,2.4-.79.83-1.71,1.54-2.71,2.1-1.36.75-2.79,1.35-4.27,1.81-2.01.62-4.06,1.12-6.14,1.5-2.37.45-5.15.85-8.33,1.18-.08.45-.15.92-.21,1.39s-.12.93-.15,1.39c-.24,3.35.34,6,1.73,7.87,1.39,1.87,3.61,2.76,6.68,2.76,2.05.02,4.07-.45,5.89-1.39.73-.37,1.43-.8,2.09-1.28.6-.45,1.14-.88,1.62-1.29.48-.4.89-.73,1.24-1,.26-.23.58-.36.92-.39.27,0,.53.12.69.34l.68.93ZM294.5,235.27c-1.73-.02-3.45.36-5,1.13-1.53.77-2.9,1.81-4.07,3.06-1.23,1.34-2.28,2.83-3.11,4.45-.86,1.67-1.53,3.43-2,5.25,2.88-.31,5.37-.68,7.47-1.1,1.81-.34,3.6-.78,5.37-1.31,1.26-.38,2.47-.88,3.62-1.51.82-.44,1.57-1,2.22-1.67.47-.5.84-1.09,1.08-1.73.21-.61.34-1.25.38-1.89.03-.52-.04-1.05-.21-1.54-.2-.57-.55-1.09-1-1.5-.54-.5-1.17-.88-1.86-1.13-.92-.35-1.9-.52-2.89-.51Z"/>
      <path class="cls-7" d="M357.48,267.01h-2.61c-.26.01-.52-.08-.72-.26-.17-.17-.29-.38-.33-.62l-2.43-14h-21.39l-7.84,14c-.14.25-.34.47-.59.62-.24.17-.53.26-.83.26h-2.56l27.2-47.83h3.35l8.75,47.83ZM351,249.67l-4.26-24.33c-.06-.41-.13-.86-.18-1.34s-.11-1-.16-1.57c-.27.56-.52,1.09-.77,1.57s-.48.94-.69,1.37l-13.59,24.3h19.65Z"/>
      <path class="cls-7" d="M383.72,264.14c-1.02.78-2.13,1.45-3.29,2-1.02.48-2.09.82-3.2,1-1.12.18-2.25.27-3.39.27-1.72.04-3.43-.3-5-1-1.34-.63-2.5-1.59-3.37-2.79-.9-1.28-1.52-2.73-1.83-4.26-.37-1.76-.48-3.57-.33-5.37.12-1.79.43-3.56.93-5.29.48-1.73,1.13-3.4,1.95-5,.78-1.53,1.72-2.97,2.81-4.3,1.05-1.3,2.25-2.46,3.59-3.45,1.28-.96,2.69-1.73,4.19-2.28,1.51-.56,3.1-.84,4.71-.83,1.01-.01,2.02.1,3,.32.83.2,1.64.5,2.39.91.7.39,1.35.88,1.92,1.44.58.58,1.11,1.21,1.56,1.89l-1,1.12c-.18.22-.45.36-.74.37-.23,0-.49-.18-.79-.54-.37-.43-.79-.82-1.24-1.17-.63-.48-1.32-.87-2.06-1.16-1.05-.4-2.16-.59-3.28-.55-1.9,0-3.77.53-5.39,1.53-1.76,1.06-3.31,2.44-4.55,4.08-1.37,1.81-2.47,3.81-3.25,5.94-.84,2.25-1.35,4.61-1.52,7-.12,1.45-.04,2.9.22,4.33.21,1.25.68,2.43,1.37,3.49.66.97,1.55,1.75,2.6,2.27,1.2.57,2.53.85,3.86.81,1.09.01,2.18-.12,3.24-.39.89-.25,1.76-.58,2.58-1,.7-.36,1.37-.79,2-1.27.58-.46,1.1-.89,1.56-1.27l1.16-1c.24-.22.54-.36.86-.39.27,0,.52.13.69.34l.64.88c-1.11,1.2-2.32,2.31-3.6,3.32Z"/>
      <path class="cls-7" d="M413.93,264.14c-1.02.78-2.12,1.45-3.28,2-1.02.48-2.09.81-3.2,1-1.12.18-2.26.27-3.4.27-1.72.05-3.43-.3-5-1-1.35-.62-2.51-1.59-3.37-2.79-.9-1.28-1.52-2.73-1.83-4.26-.37-1.76-.48-3.57-.34-5.37.27-3.58,1.25-7.07,2.88-10.27.79-1.55,1.74-3.01,2.84-4.36,1.05-1.29,2.26-2.45,3.59-3.45,1.28-.96,2.7-1.72,4.2-2.28,1.5-.56,3.1-.84,4.7-.83,1.01-.01,2.02.09,3,.32.83.2,1.64.5,2.39.91.69.41,1.33.9,1.89,1.48.58.58,1.11,1.21,1.56,1.89l-1,1.12c-.18.22-.45.36-.74.37-.22,0-.48-.18-.79-.54-.89-1.04-2.02-1.84-3.3-2.33-1.04-.4-2.15-.59-3.27-.55-1.91,0-3.77.53-5.4,1.53-1.76,1.06-3.3,2.44-4.54,4.08-1.38,1.81-2.47,3.81-3.25,5.94-.85,2.25-1.37,4.6-1.53,7-.11,1.45-.04,2.9.23,4.33.2,1.25.68,2.44,1.38,3.49.66.96,1.55,1.75,2.59,2.27,1.21.57,2.53.85,3.87.81,1.09.01,2.18-.12,3.23-.39.89-.24,1.76-.58,2.59-1,.71-.36,1.38-.78,2-1.27.59-.46,1.11-.89,1.56-1.27l1.17-1c.23-.22.53-.36.85-.39.27,0,.52.13.69.34l.65.88c-1.12,1.2-2.33,2.3-3.62,3.32Z"/>
      <path class="cls-7" d="M448.35,260.76c-1.08,1.07-2.22,2.07-3.43,3-1.04.8-2.16,1.5-3.33,2.08-1.09.53-2.23.94-3.41,1.2-1.22.27-2.46.4-3.71.39-1.69.04-3.36-.28-4.92-.93-1.36-.59-2.56-1.5-3.48-2.66-.96-1.22-1.65-2.64-2-4.15-.41-1.8-.54-3.66-.39-5.5.26-3.48,1.18-6.87,2.71-10,.77-1.57,1.7-3.05,2.78-4.42,1.04-1.34,2.26-2.55,3.61-3.58,1.33-1.01,2.8-1.83,4.36-2.41,1.6-.58,3.29-.88,5-.87,1.41-.04,2.81.19,4.13.69,1.02.38,1.95.96,2.73,1.72.62.63,1.1,1.39,1.38,2.23.25.72.35,1.49.31,2.25-.06.9-.24,1.79-.55,2.64-.34.89-.85,1.71-1.51,2.4-.8.83-1.71,1.54-2.72,2.1-1.36.75-2.79,1.35-4.27,1.81-2.01.62-4.06,1.13-6.14,1.5-2.37.45-5.15.85-8.32,1.18-.08.45-.15.92-.22,1.39s-.12.93-.15,1.39c-.23,3.35.34,6,1.73,7.87,1.39,1.87,3.62,2.76,6.68,2.76,1.1.01,2.19-.12,3.26-.39.91-.24,1.8-.57,2.64-1,.73-.37,1.42-.8,2.08-1.28.61-.45,1.15-.88,1.63-1.29s.89-.73,1.23-1c.26-.22.59-.36.93-.39.27,0,.52.12.68.34l.68.93ZM441.86,235.27c-1.73-.02-3.45.36-5,1.13-1.52.77-2.9,1.81-4.06,3.06-1.24,1.33-2.29,2.83-3.12,4.45-.85,1.67-1.52,3.43-2,5.25,2.88-.31,5.38-.68,7.48-1.1,1.81-.34,3.6-.78,5.36-1.31,1.26-.38,2.47-.88,3.62-1.51.81-.44,1.55-1.01,2.2-1.67.48-.51.86-1.12,1.1-1.78.21-.61.34-1.25.39-1.89.02-.52-.05-1.04-.21-1.54-.2-.57-.55-1.09-1-1.5-.54-.5-1.18-.88-1.87-1.13-.93-.33-1.91-.49-2.89-.46h0Z"/>
      <path class="cls-7" d="M477.56,237.5c-.15.29-.45.48-.78.48-.31-.05-.59-.2-.8-.43-.39-.35-.81-.66-1.25-.94-.62-.42-1.29-.75-2-1-2.09-.61-4.32-.56-6.38.15-1,.36-1.94.88-2.78,1.54-.78.62-1.44,1.38-1.95,2.23-.49.82-.78,1.74-.84,2.69-.09.81.07,1.62.47,2.33.41.65.96,1.21,1.6,1.64.72.48,1.5.88,2.31,1.2.87.34,1.76.67,2.69,1,.91.34,1.8.72,2.67,1.14.83.39,1.61.9,2.3,1.5.67.59,1.2,1.32,1.55,2.14.39.97.53,2.02.43,3.06-.1,1.46-.49,2.88-1.15,4.19-.67,1.36-1.59,2.58-2.72,3.6-1.17,1.07-2.53,1.92-4,2.52-1.62.65-3.35.97-5.09.95-1.86.06-3.7-.32-5.38-1.13-1.39-.74-2.61-1.76-3.59-3l.89-1.15c.21-.32.56-.53.95-.54.23,0,.5.18.81.54.39.44.83.84,1.3,1.2.66.5,1.4.91,2.18,1.2,1.1.39,2.27.58,3.44.54,1.27.02,2.53-.21,3.72-.66,1.08-.41,2.08-1.03,2.93-1.81.83-.75,1.5-1.65,2-2.65.5-1,.79-2.08.87-3.19.1-.86-.07-1.73-.47-2.5-.39-.69-.93-1.29-1.58-1.75-.72-.5-1.5-.92-2.32-1.23-.86-.34-1.76-.67-2.68-1-.91-.31-1.81-.67-2.68-1.08-.83-.37-1.6-.85-2.3-1.43-.68-.54-1.23-1.23-1.61-2.01-.4-.95-.55-1.98-.44-3,.11-1.3.49-2.56,1.12-3.7.66-1.22,1.54-2.31,2.59-3.21,1.12-.96,2.41-1.71,3.79-2.23,1.47-.56,3.04-.86,4.62-.86,1.66-.04,3.32.26,4.86.88,1.36.6,2.56,1.5,3.51,2.64l-.81,1.14Z"/>
      <path class="cls-7" d="M504.12,237.5c-.15.29-.44.47-.77.48-.31-.04-.59-.2-.8-.43-.39-.34-.81-.66-1.25-.94-.62-.42-1.29-.75-2-1-2.09-.61-4.32-.56-6.38.15-1,.36-1.94.88-2.78,1.54-.78.62-1.43,1.38-1.94,2.23-.49.82-.78,1.74-.85,2.69-.08.81.08,1.62.48,2.33.4.66.95,1.22,1.59,1.64.73.48,1.5.89,2.32,1.2.86.34,1.76.67,2.68,1s1.82.72,2.68,1.14c.83.39,1.6.9,2.29,1.5.67.59,1.2,1.32,1.56,2.14.39.97.53,2.02.43,3.06-.11,1.46-.5,2.88-1.16,4.19-.67,1.36-1.59,2.58-2.72,3.6-2.49,2.26-5.74,3.5-9.11,3.47-3.49.19-6.85-1.33-9-4.09l.89-1.15c.22-.34.6-.54,1-.54.22,0,.49.18.8.54.4.44.83.84,1.3,1.2.67.5,1.41.91,2.19,1.2,1.1.4,2.27.58,3.44.54,1.27.02,2.53-.21,3.71-.66,1.08-.41,2.08-1.03,2.93-1.81.82-.75,1.5-1.65,2-2.65.49-1,.78-2.08.86-3.19.1-.86-.07-1.73-.47-2.5-.39-.69-.93-1.29-1.58-1.75-.72-.5-1.49-.91-2.31-1.23-.87-.34-1.76-.67-2.69-1-.91-.31-1.81-.68-2.68-1.08-.83-.37-1.6-.85-2.3-1.43-.68-.56-1.23-1.26-1.6-2.05-.4-.95-.55-1.98-.43-3,.09-1.32.47-2.61,1.11-3.77.66-1.22,1.54-2.31,2.59-3.21,1.12-.96,2.41-1.71,3.79-2.23,1.49-.56,3.08-.84,4.67-.83,1.66-.04,3.31.26,4.85.88,1.37.62,2.59,1.54,3.54,2.71l-.88,1.11Z"/>
      <polygon class="cls-4" points="495 291.84 99 291.84 103 284.84 495 284.84 495 291.84"/>
      <path class="cls-7" d="M69.2,220.48c.66-1.03,1.19-1.85,1.43-2.5l.77-1.85c-1.73-3.8-5.13-7.39-11.8-7.39s-10.25,3.86-11.98,7.77l.66,1.58c.24.65.72,1.41,1.37,2.39,7.81-6.9,15.2-3.48,19.55,0Z"/>
    </g>
  </g>
  <g id="Layer_4" data-name="Layer 4">
    <g>
      <path class="cls-7" d="M291.9,140.5h-2.6c-.3,0-.5-.1-.7-.2-.2-.2-.3-.4-.3-.6l-2.4-14h-21.4l-7.8,14c-.1.3-.3.5-.6.6-.2.2-.5.3-.8.2h-2.8l27.2-47.8h3.3l8.9,47.8ZM285.4,123.2l-4.2-24.3c-.1-.4-.1-.8-.2-1.3s-.1-1-.2-1.6c-.3.6-.5,1.1-.8,1.6l-.7,1.4-13.6,24.3h19.7v-.1Z"/>
      <path class="cls-7" d="M318.1,137.7c-1,.8-2.1,1.4-3.3,2-1,.5-2.1.8-3.2,1-1.1.2-2.3.3-3.4.3-1.7.1-3.4-.3-5-1-1.3-.6-2.5-1.6-3.4-2.8-.9-1.3-1.5-2.7-1.8-4.3-.4-1.8-.5-3.6-.3-5.4.3-3.6,1.2-7.1,2.9-10.3.8-1.5,1.7-3,2.8-4.4,1-1.3,2.3-2.5,3.6-3.4,1.3-1,2.7-1.7,4.2-2.3,1.5-.6,3.1-.8,4.7-.8,1,0,2,.1,3,.3.8.2,1.6.5,2.4.9.7.4,1.4.9,1.9,1.4.6.6,1.1,1.2,1.6,1.9l-1,1.1c-.2.2-.5.4-.7.4s-.5-.2-.8-.5c-.4-.4-.8-.8-1.2-1.2-.6-.5-1.3-.9-2.1-1.2-1-.4-2.2-.6-3.3-.5-1.9,0-3.8.5-5.4,1.5-1.8,1.1-3.3,2.5-4.5,4.1-1.4,1.8-2.5,3.8-3.3,5.9-.8,2.2-1.4,4.6-1.5,7-.1,1.4,0,2.9.2,4.3.2,1.2.7,2.4,1.4,3.4s1.5,1.7,2.6,2.3c1.2.6,2.5.8,3.9.8,1.1,0,2.2-.1,3.2-.4.9-.2,1.8-.6,2.6-1,.7-.4,1.4-.8,2-1.3s1.1-.9,1.6-1.3l1.2-1c.2-.2.5-.4.9-.4.3,0,.5.1.7.3l.6.9c-1.3,1.5-2.5,2.6-3.8,3.7Z"/>
      <path class="cls-7" d="M348.3,137.7c-1,.8-2.1,1.5-3.3,2-1,.5-2.1.8-3.2,1s-2.2.3-3.3.3c-1.7,0-3.4-.3-5-1-1.3-.6-2.5-1.6-3.4-2.8-.9-1.3-1.5-2.7-1.8-4.3-.4-1.8-.5-3.6-.3-5.4.1-1.8.4-3.6.9-5.3.5-1.7,1.2-3.4,2-5,.8-1.6,1.7-3,2.8-4.4,1-1.3,2.2-2.5,3.6-3.4,1.3-1,2.7-1.7,4.2-2.3,1.5-.6,3.1-.8,4.7-.8,1,0,2,.1,3,.3.8.2,1.6.5,2.4.9.7.4,1.4.9,1.9,1.4.6.6,1.1,1.2,1.6,1.9l-1,1.1c-.2.2-.4.4-.7.4-.2,0-.5-.2-.8-.5-.9-1-2-1.8-3.3-2.3-1-.4-2.2-.6-3.3-.5-1.9,0-3.8.5-5.4,1.5-1.8,1.1-3.3,2.5-4.5,4.1-1.4,1.8-2.5,3.8-3.2,5.9-.8,2.2-1.4,4.6-1.5,7-.1,1.4,0,2.9.2,4.3.2,1.2.7,2.4,1.4,3.4.7,1,1.5,1.7,2.6,2.3,1.2.6,2.5.8,3.9.8,1.1,0,2.1-.1,3.2-.4.9-.2,1.8-.6,2.6-1,.7-.4,1.4-.8,2-1.3s1.1-.9,1.6-1.3l1.2-1c.2-.2.5-.4.9-.4.3,0,.5.1.7.3l.6.9c-1.4,1.4-2.7,2.5-4,3.6Z"/>
      <path class="cls-7" d="M382.8,134.3c-1.1,1.1-2.2,2.1-3.4,3-1,.8-2.1,1.5-3.3,2.1-1.1.5-2.2.9-3.4,1.2-1.2.3-2.5.4-3.7.4-1.7,0-3.4-.3-4.9-.9-1.4-.6-2.6-1.5-3.5-2.6-1-1.2-1.6-2.6-2-4.1-.4-1.8-.6-3.7-.4-5.5.1-1.7.4-3.4.9-5.1.4-1.7,1.1-3.4,1.9-4.9.8-1.6,1.7-3.1,2.8-4.4,1-1.3,2.3-2.5,3.6-3.6,1.3-1,2.8-1.8,4.4-2.4s3.3-.9,5-.9c1.4,0,2.8.2,4.1.7,1,.4,1.9,1,2.6,1.7,1.2,1.2,1.8,2.8,1.7,4.5,0,.9-.2,1.8-.5,2.7-.3.9-.8,1.7-1.5,2.4-.8.8-1.7,1.5-2.7,2.1-1.4.8-2.8,1.4-4.3,1.8-2,.6-4.1,1.1-6.1,1.5-2.4.4-5.1.8-8.3,1.2-.1.4-.1.9-.2,1.4s-.1.9-.1,1.4c-.2,3.3.3,6,1.7,7.9,1.4,1.9,3.6,2.8,6.7,2.8,2,0,4.1-.5,5.9-1.4.7-.4,1.4-.8,2.1-1.3.6-.4,1.1-.9,1.6-1.3s.9-.7,1.2-1c.3-.2.6-.4.9-.4s.5.1.7.3l.5.7ZM376.3,108.8c-1.7,0-3.4.4-5,1.1-1.5.8-2.9,1.8-4.1,3-1.2,1.3-2.3,2.8-3.1,4.4-.9,1.7-1.5,3.4-2,5.2,2.9-.3,5.4-.7,7.5-1.1,1.8-.3,3.6-.8,5.4-1.3,1.3-.4,2.5-.9,3.6-1.5.8-.4,1.6-1,2.2-1.7.5-.5.9-1.1,1.1-1.8.2-.6.3-1.3.4-1.9,0-.5,0-1-.2-1.5-.2-.6-.5-1.1-1-1.5-.5-.5-1.2-.9-1.9-1.1-1-.2-2-.3-2.9-.3Z"/>
      <path class="cls-7" d="M412,111c-.1.3-.4.5-.8.5-.3,0-.6-.2-.8-.4-.4-.4-.8-.7-1.2-1-.6-.4-1.3-.8-2-1-2.1-.6-4.3-.6-6.4.2-1,.4-1.9.9-2.8,1.5-.8.6-1.4,1.4-1.9,2.2-.5.8-.8,1.7-.9,2.7-.1.8.1,1.6.5,2.3.4.7.9,1.2,1.6,1.6.7.5,1.5.9,2.3,1.2.9.3,1.8.7,2.7,1s1.8.7,2.7,1.1c.8.4,1.6.9,2.3,1.5.7.6,1.2,1.3,1.6,2.2.4,1,.5,2,.4,3.1-.1,1.5-.5,2.9-1.1,4.2-.7,1.4-1.6,2.6-2.7,3.6-1.2,1.1-2.5,1.9-4,2.5-1.6.7-3.3,1-5.1,1-3.5.2-6.9-1.3-9-4.1l.9-1.1c.2-.3.6-.5,1-.5.2,0,.5.2.8.5.4.4.8.8,1.3,1.2.7.5,1.4.9,2.2,1.2,1.1.4,2.3.6,3.5.5,1.3,0,2.5-.2,3.7-.7,1.1-.4,2.1-1,2.9-1.8s1.5-1.7,2-2.6c.5-1,.8-2.1.9-3.2.1-.9-.1-1.7-.5-2.5-.4-.7-.9-1.3-1.6-1.7-.7-.5-1.5-.9-2.3-1.2-.9-.3-1.8-.7-2.7-1s-1.8-.7-2.7-1.1c-.8-.4-1.6-.9-2.3-1.4-.7-.6-1.2-1.3-1.6-2.1-.4-.9-.5-2-.4-3,.1-1.3.5-2.6,1.1-3.8.7-1.2,1.5-2.3,2.6-3.2,1.1-1,2.4-1.7,3.8-2.2,1.5-.6,3.1-.8,4.7-.8,1.7,0,3.3.3,4.9.9,1.4.6,2.6,1.5,3.5,2.6l-1.1,1.1Z"/>
      <path class="cls-7" d="M438.5,111c-.2.3-.5.5-.8.5s-.6-.2-.8-.4c-.4-.4-.8-.7-1.2-1-.6-.4-1.3-.8-2-1-2.1-.6-4.3-.6-6.4.2-1,.4-1.9.9-2.8,1.5-.8.6-1.4,1.4-2,2.2-.5.8-.8,1.7-.9,2.7-.1.8.1,1.6.5,2.3.4.7,1,1.2,1.6,1.6.7.5,1.5.9,2.3,1.2.9.3,1.8.7,2.7,1,.9.3,1.8.7,2.7,1.1.8.4,1.6.9,2.3,1.5.7.6,1.2,1.3,1.6,2.2.4,1,.5,2,.4,3.1-.1,1.5-.5,3-1.1,4.3-.7,1.4-1.6,2.6-2.7,3.6-1.2,1.1-2.5,1.9-4,2.5-1.6.7-3.3,1-5.1,1-1.9.1-3.7-.3-5.4-1.1-1.4-.7-2.6-1.8-3.6-3l.9-1.1c.2-.3.6-.5,1-.5.2,0,.5.2.8.5.4.4.8.8,1.3,1.2.7.5,1.4.9,2.2,1.2,1.1.4,2.3.6,3.4.5,1.3,0,2.5-.2,3.7-.7,1.1-.4,2.1-1,2.9-1.8s1.5-1.7,2-2.6c.5-1,.8-2.1.9-3.2.1-.9-.1-1.7-.5-2.5-.4-.7-.9-1.3-1.6-1.7-.7-.5-1.5-.9-2.4-1.2-.9-.3-1.8-.7-2.7-1s-1.8-.7-2.7-1.1c-.8-.4-1.6-.8-2.3-1.4-.7-.6-1.2-1.3-1.6-2.1-.4-.9-.5-2-.4-3,.1-1.3.5-2.6,1.1-3.8.7-1.2,1.5-2.3,2.6-3.2,1.1-1,2.4-1.7,3.8-2.2,1.5-.6,3.1-.8,4.7-.8,1.7,0,3.3.3,4.9.9,1.4.6,2.6,1.5,3.5,2.6l-.8,1Z"/>
      <path class="cls-7" d="M309.7,43.8c-.2,4-1.1,7.8-2.6,11.5-1.4,3.3-3.3,6.3-5.7,8.8-2.3,2.4-5.1,4.4-8.1,5.7-3.1,1.4-6.4,2-9.8,2-2.6,0-5.1-.5-7.5-1.5-2.1-1-4-2.4-5.4-4.2-1.5-1.9-2.6-4.2-3.2-6.6-.7-2.8-.9-5.6-.7-8.5.2-3.9,1.1-7.8,2.7-11.5,1.4-3.3,3.3-6.3,5.7-8.9,2.3-2.4,5-4.4,8.1-5.7,3.1-1.3,6.4-2,9.8-2,2.6,0,5.2.5,7.5,1.5,2.1,1,4,2.4,5.5,4.2,1.5,1.9,2.6,4.2,3.2,6.6.5,2.9.8,5.7.5,8.6ZM306.3,43.8c.2-2.5,0-5-.6-7.5-.5-2.1-1.4-4-2.7-5.7-1.2-1.6-2.8-2.8-4.5-3.6-2-.9-4.1-1.3-6.2-1.3-2.8,0-5.7.6-8.3,1.8-2.6,1.2-4.9,2.9-6.9,5-2.1,2.3-3.7,5-4.9,7.9-1.3,3.4-2.1,6.9-2.3,10.5-.2,2.5,0,5,.6,7.5.5,2.1,1.4,4,2.7,5.7,1.2,1.5,2.8,2.8,4.6,3.6,1.9.9,4.1,1.3,6.2,1.3,5.8.1,11.3-2.4,15.2-6.8,2.1-2.3,3.7-5,4.8-7.9,1.3-3.3,2-6.9,2.3-10.5Z"/>
      <path class="cls-7" d="M320.3,48.5c1-1.7,2.1-3.3,3.4-4.8,1.1-1.3,2.4-2.5,3.8-3.6,1.2-.9,2.6-1.7,4-2.2,1.3-.5,2.6-.8,4-.8,1.3,0,2.5.2,3.6.8,1,.6,1.8,1.4,2.3,2.5.6,1.3.9,2.6.9,4,.1,1.8-.1,3.6-.5,5.4l-4,21.5h-3.2l4-21.5c.6-3.2.6-5.7-.1-7.4s-2.1-2.6-4.4-2.6c-1.4,0-2.7.4-3.9,1-1.4.7-2.7,1.6-3.9,2.7-1.4,1.3-2.6,2.7-3.7,4.3-1.2,1.8-2.3,3.7-3.2,5.7l-3.3,17.8h-3.2l6.4-33.7h1.4c.8,0,1.2.4,1.1,1.2l-1.5,9.7Z"/>
      <path class="cls-7" d="M348.2,71.3l9.3-49.2h3.1l-9.4,49.2h-3Z"/>
      <path class="cls-7" d="M371.9,37.7l-6.4,33.6h-3.1l6.4-33.6h3.1ZM375.2,26.1c0,.4-.1.8-.3,1.1-.2.3-.4.7-.7.9-.3.3-.6.5-1,.6-.3.2-.7.2-1.1.2s-.7-.1-1.1-.2c-.3-.2-.6-.4-.8-.6-.2-.3-.4-.6-.5-.9-.1-.4-.2-.8-.2-1.1,0-.4.1-.8.3-1.1.2-.4.4-.7.7-1,.3-.3.6-.5.9-.7s.7-.2,1.1-.2.7.1,1,.2c.4.2.7.4.9.7.3.3.5.6.6,1,.2.4.2.7.2,1.1Z"/>
      <path class="cls-7" d="M383.6,48.5c1-1.7,2.1-3.3,3.4-4.8,1.1-1.3,2.4-2.5,3.8-3.6,1.2-.9,2.6-1.7,4-2.2,1.3-.5,2.6-.8,4-.8,1.3,0,2.5.2,3.6.8,1,.6,1.8,1.4,2.3,2.5.6,1.3.9,2.6.9,4,.1,1.8-.1,3.6-.5,5.4l-4,21.5h-3.2l4-21.5c.6-3.2.6-5.7-.1-7.4-.7-1.7-2.1-2.6-4.4-2.6-1.4,0-2.7.4-3.9,1-1.4.7-2.7,1.6-3.9,2.7-1.4,1.3-2.6,2.7-3.7,4.3-1.2,1.8-2.3,3.7-3.2,5.7l-3.2,17.8h-3.2l6.4-33.7h1.5c.8,0,1.2.4,1.1,1.2l-1.7,9.7Z"/>
      <path class="cls-7" d="M436.5,65.1c-1.1,1.1-2.2,2.1-3.4,3-1,.8-2.1,1.5-3.3,2.1-1.1.5-2.2.9-3.4,1.2s-2.5.4-3.7.4c-1.7,0-3.4-.3-4.9-.9-1.4-.6-2.6-1.5-3.5-2.6-1-1.2-1.6-2.6-2-4.2-.4-1.8-.6-3.7-.4-5.5.1-1.7.4-3.4.9-5.1.5-1.7,1.1-3.4,1.9-4.9.8-1.6,1.7-3.1,2.8-4.4,1-1.3,2.3-2.5,3.6-3.6,1.3-1,2.8-1.8,4.4-2.4,1.6-.6,3.3-.9,5-.9,1.4,0,2.8.2,4.1.7,1,.4,1.9,1,2.6,1.7.7.6,1.1,1.4,1.5,2.3.3.7.4,1.5.3,2.2-.1.9-.2,1.8-.6,2.6-.3.9-.8,1.7-1.5,2.4-.8.8-1.7,1.5-2.7,2.1-1.4.7-2.8,1.4-4.3,1.8-2,.6-4.1,1.1-6.1,1.5-2.4.5-5.1.8-8.3,1.2-.1.5-.1.9-.2,1.4s-.1.9-.1,1.4c-.2,3.4.3,6,1.7,7.9s3.6,2.8,6.7,2.8c2,0,4.1-.5,5.9-1.4.7-.4,1.4-.8,2.1-1.3.6-.5,1.1-.9,1.6-1.3s.9-.7,1.2-1c.3-.2.6-.4.9-.4s.5.1.7.3l.5.9ZM430,39.6c-1.7,0-3.4.4-5,1.1-1.5.8-2.9,1.8-4.1,3.1s-2.3,2.8-3.1,4.4c-.9,1.7-1.5,3.4-2,5.3,2.9-.3,5.4-.7,7.5-1.1,1.8-.3,3.6-.8,5.4-1.3,1.3-.4,2.5-.9,3.6-1.5.8-.4,1.6-1,2.2-1.7.5-.5.9-1.1,1.1-1.8.2-.6.3-1.2.4-1.9,0-.5,0-1-.2-1.5-.2-.6-.5-1.1-1-1.5-.5-.5-1.2-.9-1.9-1.1-.9-.4-1.9-.5-2.9-.5Z"/>
      <path class="cls-3" d="M88.5,83.9l42,72.3h84l42-72.3L214.5,11.6h-84l-42,72.3Z"/>
      <path class="cls-9" d="M72.5,83.9L122.5,0h100l50,83.9-50,83.9h-100l-50-83.9ZM126.1,6.3l-46.3,77.6,46.3,77.6h92.8l46.3-77.6L218.9,6.3h-92.8Z"/>
      <g class="cls-8">
        <g class="cls-6">
          <g>
            <path class="cls-7" d="M168.3,164.9c.6-3.4,4-2.4,6-3.6-.2-2.7-2.6-3.6-3.8-5.2-3.5-4.7-3-6.6,2-9.6,1-.6,3.3.2,3.1-2.9-1.1-1.7-5.6,0-5.9-3.7,3.2-1,6.2,2.3,8.7,1.2,3.3-1.4,7.1-2.3,9.5-1,3.2,1.8,6.1.4,10,1.6l3.4,4h4.6c.7,3.4,2.7,4.8,6.1,4.4,1-.1,2,0,1.9,1.5-1.9,2-4.1,3.5-6.6,4.7-5.2,2.1-10,5-15.7,5.8-1.3.2-3.6.6-4.2,2.8h-19.1Z"/>
            <path class="cls-7" d="M169.8,139.8h-3.7c-1.1-2-1.5-4.4-4.6-4.6-2.9-.2-3.3-4.2-6.9-4.5-2.4-.2-4.6-2.9-7-4.1-1.9-.9-2.7-2.7-4.3-3.7-.4-2.8,1.2-6-2.1-8-1,.3-1.5,1.9-3,1.3-2.8-4.7-4.6-9.9-5.3-15.4-.1-.5.2-1.3,0-1.4-4.8-3.4-2.4-8.4-2.9-12.7-.1-1.2-.1-2.4,0-3.6,1.6-1.4,2.9-3.2,3.8-5.1.6-1.4,1.1-3,.2-4-2.1-2.2-.9-4.6-1-6.9-.1-1.8-1.2-3.1-.4-5.5,1.2-3.2.3-7.2.3-10.7l-7.1-7.1c-2.4,2-5.4,1.9-8.5,1.5-.8-.5-.5-1.3-.6-2,1.5-1.7,3.7-.1,5.9-1.3v-8.3h5.9c1,0,1.5-.5,1.5-1.5v-2.7c4.2,1.1,6.3-5,11.6-2.7,2.8,3.2,4.3,8.1,6.7,12.6h4.9l7.1,8.2q.4-4.5-2.5-8.5c2.9-2,5.7-3.7,9.1-1,0,1,.4,1.5,1.5,1.5,0,1.6-.3,3.4,2.3,3,.7-.1,1.4-.1,2.1,0-.9,3.8-.9,5.6-.2,8.3-1,1.4-2.9-.3-4,1,.8,2.5,3,3.2,4.9,2.2,1.8-.8,3.2-2.4,3.8-4.3-.3-2.1-3.9-2.4-2.9-5.2,2.4-1.3,4.1-.4,5.8,1.8-1,4.4.5,9.1,3.9,12.1,2.1-1.8,3.1-3.8.6-6-1.8-1.6-2.6-3.3-1-5.3,2.8-.9,1.5,2.5,3.2,2.7,1-.8.3-1.8.5-2.7h5.4c1.4,3.4,5,5.1,7.4,7.7,2.4,2.6,3.3,7,7.8,7.6,0,3.1-4.1,4.2-3.4,7.7.2,1-2.1,2.6-5.5,1.6-1.2-.1-.7.4-.7.4.7-.4,2.3.9,2-.6-.2-1.2-1.7-1.1-1.3.2,1.1,1.7,1.5,3.7,1.4,5.8,2.4,1.6,3.1-1.4,5.3-.8,3,2.2,2.9,7.9,8,8.7-.2,1.5,2.5,1.9,1.4,3.8-3.6,1.7-6.5,4.7-10.2,5.7-.2,4.1,4.4.5,4.4,4.2-3.5,3.7-8.5,1.9-12.9,2.6-.8,5.4-9.6,4.6-7.9,11.2-3.9,1.7-7.8,2.7-10.1,5.4-.7,2.2,2.5,3,1,4.9-1.1.7-2.3.3-3.5.3-1.3-5.2-3.4-6.9-8.5-7.3-2.1-.1-4,.4-6.2-1.2s-4.2,1.1-6.6,1.8c.1.9.1,1.9,0,2.8-.2,1.1-1.9,1.6-1.4,3.1,1.7,1.3,1.4,4,3.6,5.2,1.7-.1,3.7.8,5.3-.7,1.5-1.3,3.3-.4,4.9-.6.2,0,.6.6.5.5,1.2,2.2-1.7,2.6-1,4.3q5.6,3.3,3.2,8.3ZM180.1,97.3c.3.8-.6,2.2,1.3,2.9,1.3-.2,2.2-1.2,3.3-2.9-1.6,0-3.1,0-4.7-.2,1-3.8-1.3-5.9-4.2-7.3-1.7-.8-3.2.4-4.2,1.9-.3.5-.2,1.3-.2,1.8,1.2,1.6,3-.2,4.2,1.3.3.7-.1,1.8,1,2.4,1.1-.1,2.3-.1,3.5.1ZM185.5,67.1c-3.2-4.5-6.5-2.4-9.1-.8-2.9,1.8-5.2,4.5-3.2,8.4,4.4,3.8,10.7,5.7,12.3,12.2.2.5.5.8,1,1,.8.1,1.6.1,2.4,0,0-1.1-.1-2,0-2.9s-.4-2,.6-2.7c.8-.1,2.1.1,2.2-1.1.3-1.2.1-2.4-.6-3.4-.7-.9.8-6.8,1.7-7.5,2.2,1.1,3.4-.6,4.7-1.9-1-2.7-3.8-2-5.9-2.9,1.3-1.8,3.1-.2,4-1.1l1.8-3.7c-1.1-1.3-2.9.4-4-1-.1-2.7-.2-5.4-5.2-5.2,3.5,5.2-3.7,6.9-2.7,12.6ZM166.6,52.2c-.4-2.8-3.1-2.8-5.5-3.2.4,2.9,3.1,2.9,5.5,3.2ZM174.9,101.5c.8-.5,1.1-1.6.5-2.5-.1-.2-.3-.4-.5-.5-.8.5-1.1,1.6-.5,2.5.1.2.3.4.5.5Z"/>
            <path class="cls-7" d="M184.5,33.7c.9-3.4,3.2-5.8,6.5-5.8,2.5,0,5.2-1.1,7.5,1.2.5.5,1.8.1,3,.1,1.5-.9.6-3.8,3.9-4.1,2.4,2.6,7.9.7,10.4,6.2,1.9,4.1,6.6,6.9,10,10.3-.7,2.2.7,3.7,1.4,5.4q0,4.2,2.9,4.4c-1.3,3.9-2.1,8-4.7,11.3-1.5,1.8-1.6,3.3-.3,5.1s.6,3.6.3,5.6h-5.3c-2.7-5-8.1-8.8-5.9-15.7-3.2-.2-3.1-1.8-3.4-3.9-.2-1.9-2-3.6-2.8-5.5s-2.7-2.7-3.6-4.3h-4.6c-1.9-1.5-2.6-3.8-3.7-5.9,4-1.5,3.2-4.3,2-7.4.8,3.5-4.6,3.8-3.5,7.4-2.2.1-1.2,1.8-1.5,3h-5.4q-.5-3.9-3.2-7.4Z"/>
            <path class="cls-7" d="M237.6,129.5c1-5.2,4-9.6,6.2-14.2,3.3-7,6.1-13.9,5.6-21.8-.1-2.5-.3-4.9,1.1-7.6,1.9-3.5-.5-7.9-3.9-9.9v-12c1.7,3,2.9,5.5,5.6,6.5v21.2c0,8.2-2.2,15.8-5.2,23.4-2.1,5-4.6,9.8-7.4,14.4h-2Z"/>
            <path class="cls-7" d="M128.5,21.9c-.9-.2-1.9.4-2.7-.4-.6-.9-.4-2.2.5-2.8.1-.1.3-.2.4-.2,4.3-2.3,7.8-6.6,13.5-5.5.2,1.4-.4,2.9-1.5,3.8-2.3,2.4-5.4,4.1-6.3,7.7-1.4.1-3.3,1.5-3.9-1.2.4-.2,1.1-.2,1.2-.5.2-.8-.5-.9-1.2-.9Z"/>
            <path class="cls-7" d="M249.4,60.2l-4.4-2.9c-.7-4.7-2.9-8.9-5-13-.6-1-.9-2.1-.9-3.2h2.1c3.6,4.8,4.1,11.1,8.1,15.6.6.7.1,2.3.1,3.5Z"/>
            <path class="cls-7" d="M238.8,56v5.3c-2.9,1-4.7.1-5.8-2.6,1-2.6,2.9-3.3,5.8-2.7Z"/>
            <path class="cls-7" d="M236.1,36.7q2.9.3,2.9,4.4c-2.3-.6-3.1-2.1-2.9-4.4Z"/>
            <path class="cls-7" d="M181.6,33.7c.1,1.4-.9,1.6-1.8,1.4-1.8-.3-.9-1.9-1.1-2.9l2.9,1.5Z"/>
            <path class="cls-7" d="M236.1,132.5c.2-1.1-.7-2.8,1.5-2.9-.2,1,.7,2.7-1.5,2.9Z"/>
            <path class="cls-7" d="M140.3,13.1c-.2-.5.1-1.1.6-1.3h.2c.1,0,.5.3.4.4,0,.6-.5,1-1.1.9t-.1,0Z"/>
            <path class="cls-7" d="M185.6,133.2c2.1-1,4.6-1,6.7,0-2.1,1-4.6,1-6.7,0Z"/>
            <path class="cls-7" d="M173,127.7c1.2-1.7,2.5-.6,3.9-.8-1.1,1.7-2.6.8-3.9.8Z"/>
            <path class="cls-7" d="M180.1,129.5c2-.1,3.7,0,2.5,2.8-1.3-.7-2.3-1.4-2.5-2.8Z"/>
            <path class="cls-7" d="M180.1,129.5c-.5.2-1.1-.1-1.3-.6v-.2c0-.1.3-.5.4-.4.6,0,1,.5.9,1.1t0,.1Z"/>
          </g>
        </g>
      </g>
      <polygon class="cls-2" points="472.5 87.4 276.5 87.4 278.5 83.9 276.5 80.4 472.5 80.4 472.5 87.4"/>
      <path class="cls-7" d="M163.9,64.91c-5.9-9.48-11.2-15.68-12.7-19.51-1.1,2.01-1.5,6.56-1.6,6.84-5.3,24.52,10.8,34.37,25.6,54.15,17.4,23.34,14.73,31.88,14.73,31.88h18.87c3.8-22.88-30-49.57-44.9-73.36h0Z"/>
      <g>
        <path class="cls-7" d="M184.9,87.43c.1.09.2.18.3.36,8.2-10.12,13.6-19.78,10.2-35.55-.1-.27-.5-4.83-1.6-6.84-1.6,3.83-6.8,10.03-12.7,19.51-2,3.28-4.4,6.56-7,9.85,3.4,4.19,7.2,8.48,10.8,12.67Z"/>
        <path class="cls-7" d="M171,104.93c-2.6-3.28-5.2-6.29-7.7-9.3-1.2-1.37-2.4-2.83-3.6-4.19-13.2,15.04-25.9,31.82-23.5,46.22h18s-1.8-8.02,15.6-31.27c.4-.46.8-1,1.2-1.46Z"/>
      </g>
      <path class="cls-7" d="M188.6,48.59c1.1-1.73,2-3.1,2.4-4.19l1.3-3.1c-2.9-6.38-8.6-12.4-19.8-12.4s-17.2,6.47-20.1,13.04l1.1,2.64c.4,1.09,1.2,2.37,2.3,4.01,13.1-11.58,25.5-5.83,32.8,0Z"/>
    </g>
  </g>
</svg>