<?xml version="1.0" encoding="UTF-8"?>
<svg id="Layer_2" data-name="Layer 2" xmlns="http://www.w3.org/2000/svg" xmlns:xlink="http://www.w3.org/1999/xlink" viewBox="0 0 516.19 345.93">
  <defs>
    <style>
      .cls-1 {
        fill: none;
      }

      .cls-2 {
        fill: #9770b2;
      }

      .cls-3 {
        fill: #ac7fbf;
      }

      .cls-4 {
        fill: url(#linear-gradient-4);
      }

      .cls-5 {
        fill: url(#linear-gradient-3);
      }

      .cls-6 {
        fill: url(#linear-gradient-2);
      }

      .cls-7 {
        fill: #5a1f7d;
      }

      .cls-8 {
        fill: url(#linear-gradient);
      }

      .cls-9 {
        opacity: .46;
      }

      .cls-9, .cls-10 {
        fill: #fff;
      }

      .cls-11 {
        fill: #59a055;
      }

      .cls-12 {
        fill: #41935f;
      }

      .cls-13 {
        clip-path: url(#clippath-1);
      }

      .cls-14 {
        clip-path: url(#clippath-3);
      }

      .cls-15 {
        clip-path: url(#clippath-2);
      }

      .cls-16 {
        fill: #b37ac1;
      }

      .cls-17 {
        fill: #abedd7;
      }

      .cls-18 {
        fill: #4f8bb7;
      }

      .cls-19 {
        fill: #db95d8;
      }

      .cls-20 {
        fill: #5195ce;
      }

      .cls-21 {
        fill: #4b93c4;
      }

      .cls-22 {
        fill: #acc9f9;
      }

      .cls-23 {
        opacity: .75;
      }

      .cls-24 {
        opacity: .2;
      }

      .cls-25 {
        fill: #0e81a3;
      }

      .cls-26 {
        fill: #7abdc4;
      }

      .cls-27 {
        fill: #74abce;
      }

      .cls-28 {
        fill: #60a07a;
      }

      .cls-29 {
        fill: #64ad82;
      }

      .cls-30 {
        fill: #edaec6;
      }

      .cls-31 {
        fill: #d37da0;
      }

      .cls-32 {
        clip-path: url(#clippath);
      }
    </style>
    <linearGradient id="linear-gradient" x1="118.35" y1="63.37" x2="232.72" y2="148.71" gradientUnits="userSpaceOnUse">
      <stop offset="0" stop-color="#0e81a3"/>
      <stop offset="1" stop-color="#5a1f7d"/>
    </linearGradient>
    <clipPath id="clippath">
      <polygon class="cls-1" points="217.67 33.87 133.67 33.87 91.67 106.14 133.67 178.42 217.67 178.42 259.67 106.14 217.67 33.87"/>
    </clipPath>
    <linearGradient id="linear-gradient-2" x1="279.67" y1="1225.57" x2="475.67" y2="1225.57" gradientTransform="translate(0 1331.71) scale(1 -1)" gradientUnits="userSpaceOnUse">
      <stop offset="0" stop-color="#abedd7"/>
      <stop offset="1" stop-color="#9cc" stop-opacity="0"/>
    </linearGradient>
    <clipPath id="clippath-1">
      <path class="cls-1" d="M205.97,104.91c.1-1.29.13-2.62.1-3.97-.52-22.63-10.54-45.55-27.16-46.56-.01,0-.02,0-.04,0s-.02,0-.04,0c-16.63-1.01-29.57,20.51-33.05,42.9-.21,1.34-.35,2.65-.42,3.95-1.45,19.57,12.45,34.31,28.05,35.26.02,0,.04,0,.05,0,.02,0,.04,0,.05,0,15.6.95,31.32-11.99,32.45-31.58Z"/>
    </clipPath>
    <linearGradient id="linear-gradient-3" x1="115.32" y1="996.34" x2="506.19" y2="996.34" gradientTransform="translate(0 1332.75) scale(1 -1)" xlink:href="#linear-gradient-2"/>
    <linearGradient id="linear-gradient-4" x1="36.46" y1="264.19" x2="104.14" y2="314.69" xlink:href="#linear-gradient"/>
    <clipPath id="clippath-2">
      <polygon class="cls-1" points="95.24 246.73 45.52 246.73 20.67 289.5 45.52 332.28 95.24 332.28 120.09 289.5 95.24 246.73"/>
    </clipPath>
    <clipPath id="clippath-3">
      <path class="cls-1" d="M88.31,288.77c.06-.77.08-1.55.06-2.35-.31-13.39-6.24-26.96-16.08-27.55,0,0-.01,0-.02,0s-.01,0-.02,0c-9.84-.6-17.5,12.14-19.56,25.39-.12.79-.21,1.57-.25,2.34-.86,11.58,7.37,20.31,16.6,20.87.01,0,.02,0,.03,0,.01,0,.02,0,.03,0,9.23.56,18.54-7.09,19.2-18.69Z"/>
    </clipPath>
  </defs>
  <g id="Layer_1-2" data-name="Layer 1">
    <g>
      <path class="cls-20" d="M84.41,171.08c-2.87-8.73-14.86-4.52-16.81-3.77-.15.06-.21.23-.15.38.91,1.98,6.77,13.83,14.56,9.68,2.16-1.15,3.2-3.87,2.4-6.29h0Z"/>
      <path class="cls-18" d="M85.73,171.15c-1.1-9.21-13.61-7.78-15.66-7.48-.15.02-.25.18-.22.34.5,2.14,3.9,15.09,12.31,12.77,2.34-.65,3.87-3.07,3.57-5.62h0Z"/>
      <path class="cls-28" d="M123.63,179.27c-12.56-4.81-32.26-13.79-44.15-26.37-19.01-20.1-20.28-17.46-2.21,1.42,1,1.04,18.74,20.62,48.54,28.62l-2.18-3.66Z"/>
      <path class="cls-29" d="M124.99,181.56c-11.24-1.32-27.73-3.56-36.68-6.27-14.45-4.37-.12.97-.12.97,0,0,16.96,5.55,37.99,7.31l-1.2-2.01Z"/>
      <path class="cls-21" d="M84.22,171.17c-4.71-7.74-15.48-.63-17.22.59-.13.09-.16.28-.06.41,1.32,1.69,9.63,11.7,16.31,5.71,1.86-1.66,2.27-4.55.96-6.7Z"/>
      <g>
        <path class="cls-3" d="M77.17,146.13c3.45-11.61-13.23-17.17-15.99-18.01-.21-.06-.42.07-.46.28-.49,2.84-2.98,20.25,8.94,22.36,3.31.59,6.54-1.41,7.5-4.63Z"/>
        <path class="cls-2" d="M78.61,147.3c5.81-10.63-9.33-19.57-11.86-20.96-.19-.1-.42-.02-.5.18-1.08,2.68-7.16,19.17,4.05,23.74,3.11,1.27,6.69,0,8.3-2.96h0Z"/>
        <path class="cls-16" d="M76.9,146.07c.62-12.09-16.89-13.59-19.77-13.75-.21-.01-.39.16-.38.38.19,2.88,1.86,20.38,13.95,19.64,3.36-.21,6.03-2.91,6.2-6.26h0Z"/>
      </g>
      <path class="cls-11" d="M127.89,186.44l-2.03-3.41c-12.54.83-18.29,8.15-18.29,8.15,4.54-3.59,29.83-3.44,35.06-4.74h-14.75Z"/>
      <path class="cls-12" d="M118.02,169.86c-11.86-6.66-24.06-13.44-27.31-16.21,0,0,14.11,16.25,33.09,25.93l-5.78-9.72Z"/>
      <path class="cls-8" d="M91.67,106.14l42,72.28h84l42-72.28-42-72.27h-84l-42,72.27Z"/>
      <g class="cls-24">
        <g class="cls-32">
          <g>
            <path class="cls-10" d="M171.46,187.16c.57-3.43,4-2.37,6-3.6-.21-2.71-2.56-3.56-3.8-5.21-3.52-4.7-3-6.57,2-9.63,1-.62,3.26.22,3.12-2.95-1.11-1.72-5.56,0-5.86-3.66,3.2-1,6.18,2.33,8.74,1.25,3.3-1.39,7.12-2.29,9.5-1,3.2,1.79,6.1.43,10,1.64l3.4,4h4.63c.73,3.35,2.74,4.77,6.09,4.36,1-.12,2,0,1.86,1.46-1.9,1.95-4.14,3.53-6.62,4.66-5.2,2.08-10,5-15.74,5.83-1.28.18-3.64.59-4.17,2.77l-19.15.08Z"/>
            <path class="cls-10" d="M172.94,162.11h-3.69c-1.09-2-1.52-4.39-4.57-4.64-2.89-.23-3.33-4.22-6.9-4.46-2.42-.16-4.56-2.94-7-4.09-1.89-.88-2.74-2.67-4.3-3.72-.4-2.76,1.17-6-2.1-8-1,.31-1.53,1.89-3,1.31-2.81-4.7-4.61-9.93-5.27-15.37-.07-.48.19-1.26,0-1.42-4.81-3.45-2.44-8.45-2.95-12.77-.07-1.2-.07-2.39,0-3.59,1.59-1.42,2.88-3.15,3.78-5.09.58-1.44,1.13-3,.25-4-2.09-2.19-.93-4.64-1-6.93-.07-1.78-1.25-3.14-.39-5.5,1.18-3.24.3-7.23.3-10.69l-7.14-7.06c-2.39,2-5.42,1.93-8.48,1.5-.84-.48-.51-1.28-.62-2,1.55-1.74,3.73-.12,5.92-1.3v-8.31h5.89c1.02.04,1.51-.45,1.47-1.47v-2.7c4.25,1.06,6.27-4.95,11.6-2.66,2.8,3.22,4.31,8.07,6.67,12.61h4.88l7.14,8.2q.4-4.49-2.53-8.53c2.9-2,5.66-3.68,9.09-1,0,1,.45,1.52,1.47,1.48,0,1.63-.28,3.4,2.35,3,.69-.06,1.38-.06,2.07,0-.89,3.77-.93,5.56-.15,8.28-1,1.42-2.9-.26-4,1,.83,2.54,3,3.25,4.91,2.25,1.82-.84,3.19-2.42,3.77-4.34-.29-2.06-3.94-2.42-2.86-5.22,2.39-1.3,4.12-.36,5.76,1.84-.97,4.44.54,9.05,3.95,12.06,2.07-1.82,3.13-3.8.64-6-1.82-1.63-2.59-3.31-1-5.34,2.8-.92,1.47,2.52,3.16,2.67,1-.77.33-1.84.52-2.74h5.43c1.43,3.44,5,5.06,7.45,7.71,2.45,2.65,3.34,7,7.84,7.6,0,3.09-4.06,4.18-3.37,7.7.21,1-2.06,2.57-5.5,1.6-1.15-.13-.72.44-.67.4.65-.4,2.27.89,2-.62-.24-1.18-1.69-1.13-1.29.22,1.05,1.73,1.55,3.73,1.42,5.75,2.4,1.64,3.13-1.37,5.29-.75,3,2.16,2.91,7.91,8,8.71-.22,1.51,2.47,1.94,1.36,3.81-3.64,1.67-6.52,4.65-10.18,5.72-.2,4.06,4.41.54,4.43,4.25-3.51,3.69-8.54,1.92-12.87,2.61-.75,5.37-9.59,4.61-7.86,11.16-3.9,1.74-7.78,2.67-10.08,5.44-.68,2.25,2.54,3,1,4.95-1.1.71-2.29.31-3.46.26-1.31-5.24-3.36-6.92-8.5-7.28-2.06-.14-4,.43-6.16-1.21s-4.21,1.12-6.58,1.83c.09.93.09,1.86,0,2.79-.23,1.1-1.9,1.59-1.39,3.11,1.67,1.31,1.37,4,3.58,5.18,1.72-.09,3.66.83,5.34-.72,1.46-1.35,3.26-.38,4.89-.58.25,0,.59.62.46.48,1.24,2.25-1.68,2.58-1,4.29q5.16,3.27,2.78,8.33ZM183.23,119.54c.28.83-.58,2.2,1.33,2.88,1.3-.25,2.23-1.23,3.3-2.88-1.57.04-3.15-.02-4.71-.18,1-3.78-1.29-5.89-4.19-7.29-1.7-.82-3.24.4-4.23,1.87-.32.49-.19,1.28-.25,1.78,1.2,1.57,3-.17,4.19,1.27.32.7-.08,1.84,1,2.37,1.19-.03,2.38.03,3.56.18ZM188.67,89.41c-3.24-4.51-6.47-2.44-9.1-.82-2.89,1.76-5.24,4.46-3.2,8.44,4.4,3.8,10.73,5.65,12.3,12.24.17.47.53.83,1,1,.79.09,1.59.09,2.38,0,0-1.07-.05-2,0-2.92s-.38-2,.63-2.7c.85-.14,2.13.13,2.25-1.1.3-1.17.1-2.42-.57-3.43-.71-.91.77-6.82,1.74-7.53,2.16,1.11,3.39-.58,4.65-1.91-1-2.67-3.85-2-5.87-2.9,1.26-1.75,3.09-.17,4-1.12l1.79-3.7c-1.08-1.27-2.93.42-4-1-.12-2.68-.22-5.38-5.16-5.24,3.33,5.22-3.84,6.98-2.84,12.69ZM169.81,74.51c-.42-2.81-3.1-2.83-5.53-3.16.39,2.81,3.09,2.84,5.53,3.16ZM178.1,123.8c.83-.53,1.07-1.63.54-2.46-.14-.22-.32-.4-.54-.54-.83.53-1.07,1.63-.54,2.46.14.22.32.4.54.54Z"/>
            <path class="cls-10" d="M187.67,55.98c.91-3.37,3.24-5.76,6.47-5.81,2.48,0,5.25-1.1,7.51,1.23.47.48,1.85.07,3,.07,1.53-.92.58-3.82,3.86-4.1,2.41,2.61,7.88.67,10.45,6.21,1.91,4.12,6.63,6.93,10,10.28-.68,2.24.69,3.72,1.44,5.39q0,4.15,2.95,4.42c-1.3,3.88-2.12,8-4.74,11.27-1.47,1.82-1.57,3.26-.3,5.08s.56,3.62.34,5.61h-5.29c-2.69-5-8.07-8.84-5.92-15.7-3.19-.18-3.13-1.84-3.41-3.9-.25-1.9-2-3.56-2.75-5.45s-2.7-2.69-3.61-4.31h-4.57c-1.92-1.55-2.63-3.82-3.67-5.88,4-1.45,3.15-4.33,2-7.36.78,3.45-4.57,3.82-3.49,7.36-2.2.13-1.25,1.83-1.47,2.95h-5.42q-.73-3.89-3.38-7.36Z"/>
            <path class="cls-10" d="M240.74,151.79c1-5.2,4-9.56,6.24-14.21,3.34-7,6.1-13.88,5.63-21.82-.14-2.46-.3-4.86,1.14-7.55,1.87-3.51-.46-7.93-3.91-9.88v-12c1.7,3,2.88,5.5,5.64,6.48v21.15c0,8.19-2.16,15.76-5.17,23.38-2.11,4.98-4.57,9.81-7.38,14.43l-2.19.02Z"/>
            <path class="cls-10" d="M131.67,44.19c-.89-.17-1.91.42-2.66-.43-.62-.91-.39-2.16.52-2.78.13-.09.28-.16.43-.22,4.3-2.3,7.82-6.57,13.5-5.45.19,1.45-.38,2.89-1.51,3.82-2.28,2.41-5.39,4.14-6.34,7.73-1.43.07-3.31,1.55-3.94-1.2.4-.16,1.11-.25,1.17-.49.2-.9-.46-1.03-1.17-.98Z"/>
            <path class="cls-10" d="M252.53,82.51l-4.42-2.94c-.71-4.7-2.85-8.88-5-13-.56-.99-.86-2.1-.87-3.24h2.12c3.57,4.76,4.07,11.07,8.12,15.6.57.7.05,2.34.05,3.58Z"/>
            <path class="cls-10" d="M242,78.27v5.3c-2.88,1-4.71.14-5.77-2.58.96-2.61,2.84-3.37,5.77-2.72Z"/>
            <path class="cls-10" d="M239.26,58.93q2.95.27,2.95,4.42c-2.33-.58-3.18-2.08-2.95-4.42Z"/>
            <path class="cls-10" d="M184.73,55.98c.11,1.4-.88,1.63-1.84,1.44-1.78-.34-.91-1.87-1.11-2.91l2.95,1.47Z"/>
            <path class="cls-10" d="M239.26,154.74c.23-1.12-.73-2.83,1.48-2.95-.22,1.12.73,2.82-1.48,2.95Z"/>
            <path class="cls-10" d="M143.46,35.34c-.17-.52.11-1.09.64-1.26.08-.03.16-.04.24-.05.11,0,.46.32.43.44-.04.55-.53.96-1.08.92-.08,0-.16-.02-.23-.05Z"/>
            <path class="cls-10" d="M188.73,155.47c2.13-1.03,4.61-1.03,6.74,0-2.13,1.04-4.61,1.04-6.74,0Z"/>
            <path class="cls-10" d="M176.19,149.93c1.21-1.71,2.53-.59,3.87-.75-1.12,1.67-2.57.74-3.87.75Z"/>
            <path class="cls-10" d="M183.25,151.79c2-.09,3.73,0,2.54,2.84-1.27-.71-2.32-1.42-2.54-2.84Z"/>
            <path class="cls-10" d="M183.25,151.78c-.52.17-1.09-.11-1.26-.64-.02-.08-.04-.15-.05-.23,0-.11.32-.46.44-.43.55.05.96.53.91,1.08,0,.07-.02.15-.04.22Z"/>
          </g>
        </g>
      </g>
      <path class="cls-10" d="M295.05,162.81h-2.6c-.27.02-.53-.07-.73-.25-.17-.17-.29-.39-.33-.63l-2.43-14h-21.43l-7.84,14c-.13.26-.33.47-.58.63-.25.16-.53.25-.83.25h-2.61l27.21-47.82h3.34l8.83,47.82ZM288.52,145.47l-4.21-24.33c-.06-.41-.12-.85-.18-1.34s-.11-1-.16-1.57c-.26.57-.52,1.09-.77,1.57l-.68,1.37-13.6,24.3h19.6Z"/>
      <path class="cls-10" d="M321.29,159.94c-1.02.78-2.12,1.45-3.28,2-1.02.48-2.09.81-3.2,1-1.12.18-2.26.27-3.4.27-1.72.05-3.43-.29-5-1-1.35-.62-2.51-1.59-3.37-2.79-.9-1.27-1.53-2.72-1.83-4.25-.37-1.77-.48-3.58-.34-5.38.27-3.58,1.25-7.07,2.88-10.27.79-1.55,1.74-3.01,2.84-4.36,1.05-1.29,2.26-2.45,3.59-3.45,1.28-.96,2.7-1.72,4.2-2.28,1.5-.55,3.1-.84,4.7-.83,1.01-.01,2.02.09,3,.32.83.2,1.63.51,2.39.91.71.39,1.35.87,1.93,1.44.58.58,1.1,1.21,1.55,1.89l-1,1.12c-.18.22-.45.36-.74.37-.22,0-.49-.18-.79-.54-.37-.43-.78-.82-1.23-1.17-.64-.48-1.33-.87-2.07-1.16-1.04-.39-2.16-.58-3.27-.54-1.91,0-3.77.53-5.4,1.52-1.76,1.06-3.3,2.45-4.54,4.09-1.38,1.8-2.48,3.8-3.26,5.93-.84,2.25-1.35,4.61-1.52,7-.11,1.45-.04,2.9.22,4.33.22,1.23.69,2.4,1.39,3.44.66.96,1.55,1.75,2.59,2.27,1.21.57,2.53.85,3.87.81,1.09.01,2.18-.12,3.23-.39.89-.24,1.76-.58,2.59-1,.71-.35,1.38-.78,2-1.27.59-.46,1.11-.88,1.56-1.27l1.17-1c.23-.22.53-.36.85-.39.27.02.51.14.69.34l.65.88c-1.13,1.23-2.35,2.37-3.65,3.41Z"/>
      <path class="cls-10" d="M351.51,159.94c-1.02.78-2.13,1.45-3.29,2-1.02.48-2.09.81-3.2,1-1.11.2-2.23.31-3.35.33-1.72.05-3.43-.29-5-1-1.34-.63-2.5-1.59-3.37-2.79-.9-1.28-1.52-2.72-1.83-4.25-.37-1.77-.48-3.58-.33-5.38.12-1.79.43-3.56.92-5.29.5-1.73,1.17-3.4,2-5,.79-1.55,1.74-3.01,2.84-4.36,1.05-1.29,2.25-2.45,3.58-3.45,1.28-.96,2.7-1.72,4.2-2.28,1.51-.55,3.1-.84,4.71-.83,1.01-.01,2.02.1,3,.32.83.2,1.63.51,2.38.91.71.39,1.35.87,1.93,1.44.58.58,1.1,1.21,1.56,1.89l-1,1.12c-.18.22-.45.36-.73.37-.23,0-.49-.18-.79-.54-.38-.43-.79-.82-1.24-1.17-.63-.48-1.33-.87-2.06-1.16-1.05-.39-2.16-.58-3.28-.54-1.9,0-3.77.53-5.39,1.52-1.76,1.06-3.31,2.45-4.55,4.09-1.37,1.8-2.47,3.8-3.25,5.93-.85,2.25-1.36,4.6-1.52,7-.12,1.45-.04,2.9.22,4.33.21,1.23.68,2.4,1.38,3.44.66.96,1.55,1.75,2.59,2.27,1.21.57,2.53.85,3.87.81,1.07,0,2.13-.13,3.16-.4.89-.25,1.76-.58,2.58-1,.71-.36,1.38-.78,2-1.27.58-.46,1.1-.88,1.56-1.27l1.16-1c.23-.22.54-.36.86-.39.26.01.51.13.68.34l.65.88c-1.13,1.21-2.35,2.34-3.65,3.38Z"/>
      <path class="cls-10" d="M385.93,156.56c-1.08,1.07-2.23,2.07-3.44,3-1.04.8-2.15,1.5-3.32,2.08-1.09.53-2.24.94-3.42,1.2-1.22.27-2.46.4-3.71.39-1.69.04-3.36-.28-4.92-.93-1.36-.58-2.55-1.49-3.48-2.64-.96-1.22-1.65-2.64-2-4.15-.42-1.8-.56-3.66-.4-5.5.13-1.72.42-3.43.87-5.1.45-1.7,1.07-3.35,1.85-4.93.77-1.57,1.69-3.05,2.77-4.43,1.05-1.34,2.26-2.55,3.62-3.58,1.32-1.01,2.79-1.82,4.35-2.4,1.6-.59,3.29-.89,5-.88,1.41-.04,2.81.19,4.13.69.99.39,1.9.98,2.65,1.73.63.63,1.1,1.39,1.38,2.23.25.72.36,1.48.32,2.24-.04.92-.21,1.82-.51,2.69-.33.88-.83,1.68-1.48,2.36-.79.84-1.71,1.55-2.72,2.1-1.35.75-2.78,1.36-4.26,1.81-2.01.62-4.07,1.12-6.14,1.5-2.38.45-5.15.85-8.33,1.19-.08.45-.15.91-.22,1.38s-.11.94-.14,1.39c-.24,3.35.34,6,1.73,7.87s3.61,2.84,6.68,2.84c1.1.01,2.19-.12,3.25-.39.91-.24,1.8-.57,2.64-1,.73-.37,1.42-.81,2.08-1.29.61-.45,1.15-.88,1.63-1.28s.89-.74,1.24-1c.26-.23.58-.36.92-.39.27,0,.53.12.69.34l.69.86ZM379.43,131.07c-1.73-.03-3.45.37-5,1.14-1.52.75-2.9,1.77-4.07,3-1.24,1.33-2.29,2.83-3.12,4.45-.85,1.67-1.52,3.43-2,5.25,2.89-.31,5.38-.68,7.48-1.09,1.81-.35,3.6-.79,5.37-1.32,1.26-.37,2.47-.87,3.62-1.51.81-.44,1.55-1,2.19-1.67.49-.51.86-1.11,1.11-1.77.21-.61.34-1.25.38-1.9.03-.52-.04-1.04-.21-1.53-.2-.58-.55-1.1-1-1.51-.54-.49-1.18-.88-1.87-1.13-.93-.31-1.9-.45-2.88-.41Z"/>
      <path class="cls-10" d="M415.13,133.27c-.15.29-.44.47-.77.48-.31-.04-.59-.19-.8-.42-.39-.37-.81-.7-1.26-1-.62-.42-1.29-.76-2-1-2.09-.61-4.32-.56-6.38.15-1,.36-1.94.88-2.78,1.54-.77.62-1.43,1.38-1.94,2.23-.49.82-.78,1.74-.85,2.69-.09.81.08,1.62.48,2.33.4.66.95,1.22,1.59,1.64.73.48,1.5.89,2.32,1.2.86.34,1.76.68,2.68,1,.91.33,1.81.71,2.68,1.13.83.39,1.6.9,2.29,1.5.67.59,1.21,1.33,1.56,2.15.39.97.53,2.02.42,3.06-.1,1.46-.5,2.88-1.15,4.19-.68,1.36-1.6,2.58-2.72,3.6-1.18,1.06-2.53,1.91-4,2.51-1.61.67-3.34,1.01-5.08,1-3.49.19-6.85-1.33-9-4.09l.89-1.15c.21-.32.56-.52.95-.54.23,0,.5.18.81.54.4.44.83.84,1.3,1.2.67.5,1.4.91,2.18,1.2,1.11.39,2.28.58,3.45.54,1.27.02,2.53-.21,3.71-.66,1.08-.41,2.07-1.02,2.93-1.8.82-.76,1.5-1.66,2-2.66.49-1,.78-2.08.86-3.19.09-.86-.07-1.73-.47-2.5-.39-.69-.93-1.28-1.58-1.74-.72-.51-1.49-.92-2.31-1.24-.87-.34-1.77-.67-2.69-1s-1.82-.69-2.68-1.09c-.83-.37-1.6-.85-2.3-1.43-.67-.56-1.2-1.27-1.56-2.06-.4-.95-.55-1.98-.43-3,.1-1.32.47-2.6,1.1-3.77.67-1.22,1.55-2.31,2.6-3.21,1.12-.96,2.4-1.71,3.78-2.23,1.5-.56,3.08-.84,4.68-.83,1.66-.04,3.31.26,4.85.88,1.36.6,2.56,1.5,3.52,2.64l-.88,1.21Z"/>
      <path class="cls-10" d="M441.67,133.27c-.15.29-.45.47-.78.48-.31-.04-.59-.19-.8-.42-.39-.37-.81-.7-1.25-1-.62-.42-1.29-.75-2-1-2.09-.61-4.32-.56-6.38.15-1,.36-1.94.88-2.78,1.54-.78.62-1.44,1.38-1.95,2.23-.49.82-.78,1.74-.85,2.69-.08.81.08,1.62.48,2.33.41.65.95,1.21,1.59,1.64.73.48,1.51.89,2.32,1.2.87.34,1.76.68,2.68,1,.91.33,1.81.7,2.68,1.13.83.39,1.6.9,2.29,1.5.67.59,1.21,1.33,1.56,2.15.39.97.54,2.02.43,3.06-.08,1.5-.47,2.97-1.14,4.32-.67,1.36-1.59,2.58-2.71,3.6-1.18,1.06-2.53,1.91-4,2.51-1.61.67-3.34,1.01-5.09,1-1.86.06-3.7-.32-5.38-1.13-1.39-.74-2.61-1.76-3.59-3l.89-1.15c.21-.32.56-.53.95-.54.22,0,.49.18.81.54.39.44.83.84,1.3,1.2.66.5,1.4.91,2.18,1.2,1.1.39,2.27.58,3.44.54,1.27.02,2.53-.21,3.71-.66,2.15-.8,3.92-2.4,4.93-4.46.5-.99.79-2.08.87-3.19.09-.86-.07-1.73-.47-2.5-.39-.69-.94-1.29-1.59-1.74-.73-.51-1.52-.92-2.35-1.22-.87-.34-1.76-.67-2.68-1s-1.82-.69-2.68-1.09c-.83-.37-1.6-.85-2.3-1.43-.67-.56-1.2-1.27-1.57-2.06-.39-.95-.54-1.98-.43-3,.1-1.32.47-2.61,1.11-3.77.66-1.22,1.54-2.31,2.59-3.21,1.12-.96,2.41-1.71,3.79-2.23,1.49-.56,3.08-.84,4.67-.83,1.66-.04,3.32.26,4.86.88,1.36.6,2.56,1.5,3.51,2.64l-.87,1.1Z"/>
      <path class="cls-10" d="M312.9,66.04c-.23,3.95-1.12,7.84-2.64,11.49-1.36,3.27-3.31,6.27-5.74,8.85-2.31,2.42-5.08,4.36-8.14,5.71-3.09,1.35-6.44,2.03-9.81,2-2.57.05-5.12-.47-7.47-1.5-2.11-.96-3.97-2.4-5.43-4.21-1.52-1.94-2.61-4.17-3.21-6.56-.7-2.76-.93-5.61-.69-8.45.23-3.95,1.13-7.82,2.66-11.47,1.36-3.28,3.31-6.3,5.74-8.89,2.28-2.43,5.03-4.38,8.08-5.74,3.07-1.34,6.4-2.03,9.75-2,2.59-.05,5.15.47,7.52,1.51,2.14.96,4.02,2.41,5.48,4.24,1.52,1.94,2.61,4.18,3.21,6.57.7,2.76.93,5.61.69,8.45ZM309.42,66.1c.21-2.51.03-5.03-.55-7.48-.48-2.06-1.38-4-2.66-5.68-1.2-1.55-2.76-2.79-4.54-3.62-1.96-.87-4.08-1.31-6.22-1.27-2.85-.01-5.67.59-8.26,1.76-2.61,1.18-4.94,2.88-6.86,5-2.08,2.34-3.73,5.02-4.87,7.94-1.31,3.36-2.09,6.91-2.3,10.52-.22,2.51-.03,5.04.55,7.49.49,2.05,1.4,3.98,2.68,5.66,1.21,1.54,2.77,2.77,4.55,3.59,1.95.88,4.06,1.31,6.2,1.27,5.8.05,11.33-2.41,15.17-6.76,2.07-2.33,3.71-5.01,4.83-7.92,1.3-3.36,2.07-6.9,2.28-10.5Z"/>
      <path class="cls-10" d="M323.49,70.8c.96-1.7,2.09-3.3,3.35-4.78,1.14-1.33,2.43-2.53,3.83-3.57,1.23-.92,2.57-1.66,4-2.21,1.28-.5,2.63-.75,4-.76,1.27-.04,2.52.25,3.64.84.99.58,1.79,1.44,2.29,2.47.59,1.25.91,2.62.94,4,.06,1.8-.09,3.6-.46,5.36l-4,21.49h-3.18l4-21.49c.6-3.2.56-5.66-.13-7.37s-2.15-2.57-4.38-2.57c-1.35.03-2.68.37-3.87,1-1.43.72-2.75,1.64-3.91,2.73-1.38,1.3-2.62,2.74-3.7,4.3-1.24,1.78-2.31,3.68-3.2,5.66l-3.3,17.77h-3.18l6.38-33.73h1.45c.79,0,1.16.41,1.1,1.22l-1.67,9.64Z"/>
      <path class="cls-10" d="M351.33,93.61l9.34-49.17h3.15l-9.42,49.17h-3.07Z"/>
      <path class="cls-10" d="M375.11,59.99l-6.44,33.62h-3.15l6.44-33.62h3.15ZM378.38,48.39c-.02.4-.13.79-.33,1.14-.19.35-.43.66-.72.93-.29.27-.63.48-1,.64-.34.15-.71.23-1.08.23-.37,0-.73-.07-1.06-.23-.32-.15-.61-.37-.84-.64-.23-.28-.41-.59-.54-.93-.14-.36-.19-.75-.16-1.14.03-.4.14-.79.32-1.15.17-.37.41-.71.69-1,.27-.27.59-.5.94-.66.35-.16.72-.23,1.1-.23.36,0,.72.08,1.05.23.35.16.66.4.92.69.26.29.46.63.58,1,.12.36.16.74.13,1.12Z"/>
      <path class="cls-10" d="M386.79,70.8c.96-1.7,2.09-3.3,3.35-4.78,1.13-1.33,2.4-2.52,3.79-3.57,1.23-.92,2.57-1.66,4-2.21,1.28-.5,2.63-.75,4-.76,1.27-.04,2.52.25,3.64.84.99.57,1.79,1.44,2.29,2.47.59,1.25.91,2.62.94,4,.07,1.8-.09,3.6-.46,5.36l-4,21.49h-3.18l4-21.49c.6-3.2.56-5.66-.13-7.37s-2.14-2.58-4.36-2.6c-1.35.03-2.67.37-3.87,1-1.43.72-2.75,1.64-3.91,2.73-1.38,1.3-2.62,2.74-3.7,4.3-1.24,1.78-2.31,3.68-3.2,5.66l-3.32,17.74h-3.18l6.38-33.73h1.45c.79,0,1.16.41,1.1,1.22l-1.63,9.7Z"/>
      <path class="cls-10" d="M439.67,87.36c-1.08,1.07-2.23,2.07-3.44,3-1.04.8-2.15,1.49-3.32,2.07-1.08.54-2.23.94-3.41,1.21-1.22.26-2.47.38-3.72.38-1.69.03-3.36-.28-4.92-.92-1.36-.58-2.55-1.49-3.48-2.64-.96-1.22-1.65-2.64-2-4.16-.42-1.8-.56-3.65-.4-5.49.13-1.72.42-3.43.87-5.1.45-1.7,1.07-3.36,1.85-4.94.77-1.57,1.7-3.05,2.77-4.43,1.05-1.34,2.26-2.55,3.62-3.58,1.33-1.01,2.8-1.82,4.36-2.4,1.6-.59,3.29-.88,5-.88,1.41-.04,2.81.19,4.12.7.99.38,1.9.97,2.65,1.72.65.63,1.15,1.4,1.45,2.26.25.72.36,1.49.32,2.25-.06.9-.25,1.79-.56,2.63-.33.88-.83,1.69-1.48,2.37-.8.83-1.71,1.54-2.72,2.1-1.35.75-2.78,1.35-4.26,1.8-2.01.63-4.06,1.14-6.14,1.51-2.37.45-5.15.85-8.33,1.18-.08.45-.15.91-.21,1.39s-.12.93-.15,1.38c-.24,3.36.34,6,1.73,7.88s3.61,2.84,6.68,2.84c2.05.02,4.07-.45,5.89-1.39.73-.37,1.43-.8,2.09-1.28.6-.46,1.14-.88,1.62-1.29s.89-.74,1.24-1c.26-.22.58-.35.92-.38.27,0,.52.12.69.33l.67.88ZM433.17,61.88c-1.73-.02-3.45.36-5,1.13-1.53.77-2.9,1.81-4.07,3.06-1.23,1.33-2.28,2.83-3.11,4.44-.86,1.67-1.53,3.44-2,5.26,2.88-.32,5.37-.68,7.47-1.1,1.81-.34,3.61-.78,5.37-1.32,1.26-.37,2.47-.87,3.62-1.5.82-.44,1.57-1,2.22-1.67.49-.51.87-1.12,1.11-1.78.21-.61.34-1.25.38-1.89.03-.52-.04-1.05-.21-1.54-.2-.58-.54-1.1-1-1.5-.54-.5-1.17-.88-1.86-1.13-.94-.33-1.93-.49-2.92-.46Z"/>
      <g>
        <path class="cls-19" d="M231.82,89.37c-11.95-5.02-29.31,5.2-36.08,21.3-14.09,34.99,30.65,54.15,45.73,19.22,6.11-14.54.81-36.13-9.66-40.52Z"/>
        <g class="cls-23">
          <path class="cls-10" d="M235.45,107.58c-1.31,3.11.23,6.72,3.44,8.06,1.74.73,3.62.64,5.17-.09-.04-3.97-.63-7.92-1.68-11.54-2.86-.58-5.79.85-6.93,3.56Z"/>
          <path class="cls-10" d="M205.08,142.01c-1.52-.64-3.14-.65-4.57-.15,2.38,2.35,5.27,4.19,8.44,5.3-.23-2.19-1.65-4.21-3.87-5.15Z"/>
          <path class="cls-10" d="M231.17,143.46c-3.79-5.96-13.28-2.2-11.31,4.74,3.93-.58,7.81-2.16,11.31-4.74Z"/>
          <path class="cls-10" d="M212.76,123.72c-7.73-3.03-12.3,7.84-4.73,11.25,7.73,3.03,12.3-7.84,4.73-11.25Z"/>
          <path class="cls-10" d="M231.2,133.94c7.73,3.03,12.3-7.84,4.73-11.25-7.73-3.03-12.3,7.84-4.73,11.25Z"/>
          <path class="cls-10" d="M220.45,105.42c-7.73-3.03-12.3,7.84-4.73,11.25,7.73,3.03,12.3-7.84,4.73-11.25Z"/>
          <path class="cls-10" d="M200.73,114.51c1.25-2.96-.1-6.38-3.01-7.86-1.97,3.45-3.52,7.6-4.17,11.36,2.94.72,6.01-.71,7.18-3.5Z"/>
          <path class="cls-10" d="M223.42,98.38c5.98,2.56,11.35-4.6,7.15-9.47-2.92-.94-6.11-1.04-9.35-.44-.51.52-.93,1.14-1.23,1.85-1.31,3.11.23,6.72,3.44,8.06Z"/>
          <path class="cls-10" d="M208.42,96.22c2.25-5.26-4.63,2.38-5.91,3.68,2.51.1,4.91-1.29,5.91-3.68Z"/>
        </g>
      </g>
      <g>
        <path class="cls-26" d="M156.93,108.98c3.37,7.8,4.16,16.85.67,24.64-4.6,10.68-16.95,15.85-27.88,11.88-16.48-5.8-23.59-26.23-19.88-42.33,2.28-10.13,9.69-19.44,21.08-16.36,11.05,2.85,21.34,11.69,26.01,22.17Z"/>
        <g class="cls-23">
          <path class="cls-10" d="M155,105.22h0s0,.39,0,.39l-5.89-1.15-.42,6-5.8-1.58-.93,5.97-5.65-2.15-1.62,5.84-5.37-2.86-2.37,5.57-4.97-3.44-2.89,5.3-4.65-3.83-3.25,5.05-.56-.53c-.31-1.02-.57-2.04-.79-3.07l1.03.97,3.18-4.94,4.54,3.74,2.8-5.15,4.82,3.33,2.28-5.37,5.13,2.74,1.54-5.6,5.44,2.06.9-5.77,5.64,1.54.41-5.85,5.76,1.12v-.9c.6.84,1.16,1.69,1.69,2.56Z"/>
        </g>
        <g class="cls-23">
          <path class="cls-10" d="M148.64,97.21l-2.87-.55-.42,6-5.8-1.58-.93,5.96-5.65-2.15-1.61,5.85-5.37-2.87-2.37,5.58-4.97-3.44-2.89,5.3-4.65-3.83-2.12,3.29c-.07-.99-.11-1.97-.1-2.95l1.84-2.85,4.54,3.73,2.8-5.14,4.81,3.33,2.28-5.36,5.13,2.74,1.54-5.6,5.44,2.06.9-5.76,5.64,1.53.41-5.84,2.05.39c.82.7,1.61,1.42,2.38,2.18Z"/>
        </g>
        <g class="cls-23">
          <path class="cls-10" d="M142.2,91.96l-.2,2.87-5.81-1.58-.93,5.97-5.65-2.15-1.61,5.85-5.37-2.87-2.37,5.57-4.97-3.44-2.89,5.29-2.95-2.43c.11-.64.24-1.26.38-1.87l2.06,1.69,2.8-5.14,4.81,3.33,2.28-5.36,5.13,2.74,1.54-5.6,5.44,2.06.9-5.77,5.64,1.54.12-1.74c.55.33,1.09.67,1.62,1.04Z"/>
        </g>
        <g class="cls-23">
          <path class="cls-10" d="M132.56,87.26l-.65,4.14-5.65-2.15-1.62,5.84-5.37-2.86-2.37,5.57-3.96-2.74c.28-.5.58-.97.9-1.43l2.31,1.6,2.28-5.37,5.13,2.74,1.54-5.6,5.44,2.06.35-2.26c.55.13,1.09.27,1.65.45Z"/>
        </g>
        <g class="cls-23">
          <path class="cls-10" d="M156.93,108.98c.56,1.3,1.03,2.59,1.42,3.87h0s0,.58,0,.58l-5.89-1.14-.42,6-5.81-1.58-.93,5.97-5.65-2.15-1.61,5.85-5.37-2.87-2.37,5.57-4.97-3.44-2.89,5.29-4.65-3.83-3.25,5.05-.72-.67h0c-.59-1.07-1.13-2.19-1.63-3.37-.11-.26-.22-.54-.33-.8l2.36,2.21,3.18-4.94,4.54,3.73,2.8-5.14,4.81,3.33,2.28-5.36,5.13,2.74,1.54-5.6,5.44,2.06.9-5.77,5.64,1.54.41-5.85,5.77,1.12.02-2.94c.09.18.17.36.24.54Z"/>
        </g>
        <g class="cls-23">
          <path class="cls-10" d="M159.67,119.14c.07.59.12,1.17.15,1.75l-4.02-.78-.42,6-5.8-1.58-.93,5.96-5.65-2.15-1.61,5.85-5.37-2.87-2.37,5.58-4.97-3.44-2.89,5.3-4.65-3.83-2.26,3.51c-.4-.42-.79-.85-1.18-1.3l3.04-4.73,4.54,3.73,2.8-5.14,4.81,3.33,2.28-5.36,5.13,2.74,1.54-5.6,5.44,2.06.9-5.76,5.64,1.53.41-5.84,5.42,1.05Z"/>
        </g>
        <g class="cls-23">
          <path class="cls-10" d="M125.6,143.67l-1.12-.92-.12.19c-.48-.29-.94-.61-1.4-.94l1.14-1.76,4.54,3.74,2.8-5.15,4.82,3.33,2.28-5.37,5.13,2.74,1.54-5.6,5.44,2.06.9-5.77,5.64,1.54.41-5.85,2.04.4c-.07.56-.17,1.12-.27,1.67l-.22-.04-.1,1.48v.03s-1.45,4.18-1.45,4.18l-4.67-1.27-.93,5.97-5.65-2.15-1.62,5.84-5.37-2.86-2.37,5.57-4.97-3.44-2.3,4.22-4.12-1.83Z"/>
        </g>
      </g>
      <path class="cls-17" d="M75.67,106.14L125.67,22.27h100l50,83.87-50,83.87h-100l-50-83.87ZM129.26,28.52l-46.32,77.62,46.32,77.63h92.82l46.32-77.63-46.32-77.62h-92.82Z"/>
      <polygon class="cls-6" points="475.67 109.64 279.67 109.64 281.67 106.14 279.67 102.64 475.67 102.64 475.67 109.64"/>
      <g class="cls-13">
        <path class="cls-7" d="M205.97,104.91c.1-1.29.13-2.62.1-3.97-.52-22.63-10.54-45.55-27.16-46.56-.01,0-.02,0-.04,0s-.02,0-.04,0c-16.63-1.01-29.57,20.51-33.05,42.9-.21,1.34-.35,2.65-.42,3.95-1.45,19.57,12.45,34.31,28.05,35.26.02,0,.04,0,.05,0,.02,0,.04,0,.05,0,15.6.95,31.32-11.99,32.45-31.58Z"/>
        <polygon class="cls-25" points="142.61 78.72 207.06 54.34 210.17 66.53 142.61 90.93 142.61 78.72"/>
        <polygon class="cls-25" points="142.83 102.89 207.29 78.5 210.4 90.7 142.83 115.1 142.83 102.89"/>
        <polygon class="cls-25" points="146.61 127.37 211.06 102.99 214.17 115.18 146.61 139.58 146.61 127.37"/>
        <path class="cls-9" d="M207.99,105.54c.1-1.38.14-2.79.11-4.23-.55-24.13-11.24-48.58-28.97-49.66-.01,0-.03,0-.04,0s-.03,0-.04,0c-17.73-1.08-31.54,21.88-35.25,45.75-.22,1.43-.37,2.83-.45,4.21-1.55,20.88,13.28,36.6,29.92,37.61.02,0,.04,0,.06,0,.02,0,.04,0,.06,0,16.63,1.01,33.41-12.79,34.61-33.69Z"/>
      </g>
      <path class="cls-10" d="M190.13,138.57l-3.15-8.27-1.01-2.62c-3.76,2.04-7.92,3.05-11.98,2.83l-.3-.02c-5.85-.38-11.59-3.33-15.77-8.12-4.82-5.52-7.16-12.88-6.57-20.8.06-1.12.19-2.25.36-3.38,3.8-24.47,16.6-38.46,26.66-37.83h.17c10.14.63,20.96,16.02,21.53,40.72.03,1.14,0,2.28-.08,3.39v.1c-.19,3.16-.84,6.19-1.9,9l5.68,14.27c4.83-6.34,7.7-14.11,8.19-22.53.11-1.48.15-2.99.11-4.5-.29-12.57-3.22-24.68-8.25-34.08-6.01-11.22-14.72-17.74-24.45-18.33h-.17c-20.72-1.25-35.49,23.16-39.34,47.95-.23,1.5-.4,3.02-.48,4.43-.82,11.06,2.56,21.53,9.51,29.49,6.28,7.19,15.05,11.63,24.13,12.21h.14c.65.05,1.29.07,1.94.07,5.18,0,10.38-1.25,15.17-3.59l-.14-.38Z"/>
      <path class="cls-10" d="M148.06,134.35l-9.69,24.34h8.93c.91.03,1.8-.28,2.5-.85.63-.48,1.12-1.13,1.41-1.87l6.08-15.93c-3.32-1.47-6.43-3.38-9.23-5.69Z"/>
      <path class="cls-10" d="M169.5,80.56l-13.78,34.57c.83,1.6,1.86,3.09,3.07,4.43,1.41,1.53,3.06,2.83,4.88,3.83l9.17-24c.4-1,.81-2.25,1.23-3.59s.82-2.8,1.22-4.36c.68,2.66,1.51,5.28,2.51,7.84l11.62,30.28,3.15,8.27,6.91,18.13c.27.79.76,1.49,1.42,2,.72.53,1.6.81,2.5.77h8.93l-31.13-78.17h-11.7Z"/>
      <g>
        <path class="cls-22" d="M207.62,189.27c2.13.97,7.87,2.38,11.58,1.33.76-.19,1.51-.45,2.23-.82.26,5.01,4.52,9.48,7.35,11.71,2.55-1.85,7.27-7.05,7.35-11.71,4.07,2.22,10.64.87,13.82-.51-.09-.98-.71-3.59-1.31-5.1-.95-2.53-2.54-5.41-5.16-7.12,3.97-2.63,5.82-7.91,6.47-12.22-3.19-1.38-9.76-2.72-13.82-.51-.08-4.67-4.82-9.88-7.35-11.71-2.83,2.25-7.09,6.69-7.35,11.71-.72-.36-1.47-.63-2.23-.82-3.73-1.06-9.48.36-11.58,1.33.43,3.01,1.53,6.53,3.46,9.25.81,1.14,1.8,2.18,3.01,2.97-4.04,2.65-5.85,8.12-6.47,12.22Z"/>
        <path class="cls-27" d="M234.94,177.05c2.3-1.49,2.73-5.12,2.73-5.12,0,0-3.36-1.45-5.8-.2-.14-2.74-3.08-4.92-3.08-4.92,0,0-2.93,2.19-3.08,4.92-2.44-1.24-5.8.2-5.8.2,0,0,.43,3.63,2.73,5.12-2.3,1.49-2.73,5.12-2.73,5.12,0,0,3.36,1.45,5.8.2.14,2.74,3.08,4.92,3.08,4.92,0,0,2.93-2.19,3.08-4.92,2.44,1.24,5.8-.2,5.8-.2,0,0-.43-3.63-2.73-5.12Z"/>
        <path class="cls-22" d="M231.86,177.05c1.15-.75,1.36-2.56,1.36-2.56,0,0-1.68-.72-2.9-.1-.07-1.37-1.54-2.46-1.54-2.46,0,0-1.47,1.09-1.54,2.46-1.22-.62-2.9.1-2.9.1,0,0,.21,1.82,1.36,2.56-1.15.75-1.36,2.56-1.36,2.56,0,0,1.68.72,2.9.1.07,1.37,1.54,2.46,1.54,2.46,0,0,1.47-1.09,1.54-2.46,1.22.62,2.9-.1,2.9-.1,0,0-.21-1.82-1.36-2.56Z"/>
      </g>
      <g>
        <path class="cls-30" d="M109.27,36.66c2.13.97,7.87,2.38,11.58,1.33.76-.19,1.51-.45,2.23-.82.26,5.01,4.52,9.48,7.35,11.71,2.55-1.85,7.27-7.05,7.35-11.71,4.07,2.22,10.64.87,13.82-.51-.09-.98-.71-3.59-1.31-5.1-.95-2.53-2.54-5.41-5.16-7.12,3.97-2.63,5.82-7.91,6.47-12.22-3.19-1.38-9.76-2.72-13.82-.51-.08-4.67-4.82-9.88-7.35-11.71-2.83,2.25-7.09,6.69-7.35,11.71-.72-.36-1.47-.63-2.23-.82-3.73-1.06-9.48.36-11.58,1.33.43,3.01,1.53,6.53,3.46,9.25.81,1.14,1.8,2.18,3.01,2.97-4.04,2.65-5.85,8.12-6.47,12.22Z"/>
        <path class="cls-31" d="M136.59,24.44c2.3-1.49,2.73-5.12,2.73-5.12,0,0-3.36-1.45-5.8-.2-.14-2.74-3.08-4.92-3.08-4.92,0,0-2.93,2.19-3.08,4.92-2.44-1.24-5.8.2-5.8.2,0,0,.43,3.63,2.73,5.12-2.3,1.49-2.73,5.12-2.73,5.12,0,0,3.36,1.45,5.8.2.14,2.74,3.08,4.92,3.08,4.92,0,0,2.93-2.19,3.08-4.92,2.44,1.24,5.8-.2,5.8-.2,0,0-.43-3.63-2.73-5.12Z"/>
        <path class="cls-30" d="M133.51,24.44c1.15-.75,1.36-2.56,1.36-2.56,0,0-1.68-.72-2.9-.1-.07-1.37-1.54-2.46-1.54-2.46,0,0-1.47,1.09-1.54,2.46-1.22-.62-2.9.1-2.9.1,0,0,.21,1.82,1.36,2.56-1.15.75-1.36,2.56-1.36,2.56,0,0,1.68.72,2.9.1.07,1.37,1.54,2.46,1.54,2.46,0,0,1.47-1.09,1.54-2.46,1.22.62,2.9-.1,2.9-.1,0,0-.21-1.82-1.36-2.56Z"/>
      </g>
      <g>
        <path class="cls-10" d="M305.79,50c-.53-.33-1.06-.65-1.61-.95,3.55-12.36,12.87-27.63,15.01-24.09,2.71,4.46-9.9,18.11-13.4,25.04Z"/>
        <g>
          <path class="cls-10" d="M282.51,29.52c-3.81-7.06-7.61-10.72-11.3-10.86-3.2-.08-7.09,2.82-9.14,4.58-3.19,2.74-6.02,6.14-7.57,9.08-1.48,2.81-1.7,5.06-.63,6.51.78,1.05,1.99,1.62,3.6,1.7,3.25.16,7.43-1.82,9.63-3,.16-.09.32-.18.48-.27,1.91,5.03,7.73,11.63,10.99,15.32.21.24.51.37.83.37.27,0,.53-.1.73-.28.22-.2.35-.47.37-.76.02-.29-.08-.58-.28-.8-3.26-3.69-9.18-10.39-10.71-14.99.71-.44,1.38-.9,2.01-1.36.86,2.79,6.4,11.2,10.56,15.54,1.21-.76,2.47-1.45,3.77-2.05-3.77-5.79-10.75-17.58-11.11-17.89-.46-.41-1.16-.37-1.56.09-2.77,3.1-11.39,8.03-15.62,7.88-.91-.04-1.55-.31-1.92-.8-.51-.69-.21-2.24.81-4.16,2.8-5.29,10.58-12.49,14.54-12.49.04,0,.08,0,.12,0,2.81.11,6.07,3.46,9.44,9.7,3.23,5.98,5.7,13.03,6.88,16.69.15.46.57.77,1.05.77.11,0,.23-.02.34-.05.28-.09.51-.29.65-.55s.16-.56.07-.84c-1.21-3.74-3.73-10.92-7.04-17.07Z"/>
          <path class="cls-10" d="M327.93,13.43c-1.09-1.16-3.07-2.37-6.37-1.58-5.22,1.25-10,6.59-14.18,15.87-3.27,7.26-5.3,14.94-6.18,18.25-.17.64-.33,1.25-.38,1.38-.1.28-.09.58.03.85.12.27.34.47.62.58.28.1.58.09.85-.03.27-.12.48-.34.58-.62.08-.23.2-.64.46-1.66.85-3.22,2.85-10.78,6.04-17.85,3.89-8.62,8.16-13.54,12.68-14.63,1.81-.43,3.24-.12,4.24.94,1.8,1.92,2.18,6.14.92,10.27-.73,2.38-3.23,4.91-6.13,7.85-4.58,4.63-10.28,10.39-12.86,19.15-.17.59.16,1.2.75,1.38.1.03.21.04.31.04.49,0,.92-.33,1.06-.79,2.42-8.22,7.91-13.77,12.32-18.22,3.11-3.14,5.79-5.85,6.68-8.76,1.51-4.93.94-9.93-1.42-12.44Z"/>
        </g>
      </g>
    </g>
    <g>
      <g>
        <path class="cls-10" d="M185.42,287.5c-.23,3.95-1.12,7.84-2.64,11.49-1.36,3.28-3.31,6.28-5.74,8.86-2.31,2.42-5.08,4.36-8.14,5.71-3.09,1.35-6.44,2.03-9.81,2-2.57.05-5.12-.47-7.47-1.5-2.12-.96-3.98-2.41-5.43-4.22-1.52-1.94-2.61-4.17-3.21-6.56-.7-2.76-.93-5.61-.69-8.45.23-3.95,1.13-7.82,2.66-11.47,1.36-3.28,3.31-6.29,5.74-8.89,2.29-2.43,5.05-4.38,8.11-5.73,3.07-1.34,6.4-2.03,9.75-2,2.59-.04,5.15.47,7.52,1.51,2.14.96,4.02,2.41,5.48,4.24,1.52,1.94,2.61,4.18,3.21,6.57.68,2.76.91,5.61.66,8.44ZM181.94,287.57c.21-2.51.03-5.04-.55-7.49-.48-2.06-1.38-4-2.66-5.68-1.2-1.55-2.76-2.79-4.54-3.61-1.95-.88-4.08-1.31-6.22-1.27-2.85-.02-5.67.58-8.26,1.76-2.61,1.18-4.94,2.88-6.86,5-2.09,2.35-3.74,5.06-4.87,8-1.3,3.35-2.07,6.88-2.28,10.47-.22,2.51-.03,5.04.55,7.49.48,2.05,1.39,3.99,2.66,5.67,1.21,1.54,2.77,2.78,4.55,3.6,1.95.87,4.07,1.31,6.2,1.27,2.87.02,5.71-.57,8.33-1.74,2.6-1.17,4.93-2.88,6.84-5,2.07-2.33,3.71-5.02,4.83-7.93,1.31-3.37,2.08-6.93,2.28-10.54Z"/>
        <path class="cls-10" d="M196.01,292.26c.96-1.7,2.09-3.3,3.35-4.78,1.14-1.33,2.42-2.53,3.83-3.57,1.22-.92,2.57-1.67,4-2.22,1.28-.49,2.63-.75,4-.76,1.27-.04,2.52.25,3.64.85,1,.57,1.8,1.43,2.29,2.47.59,1.25.91,2.62.94,4,.06,1.8-.09,3.59-.46,5.35l-4,21.5h-3.18l4-21.5c.6-3.2.56-5.65-.13-7.36-.69-1.72-2.15-2.57-4.38-2.57-1.35.03-2.67.37-3.87,1-1.43.72-2.75,1.64-3.91,2.74-1.39,1.29-2.63,2.73-3.7,4.29-1.24,1.78-2.31,3.68-3.2,5.66l-3.3,17.78h-3.18l6.38-33.73h1.45c.79,0,1.16.4,1.1,1.21l-1.67,9.64Z"/>
        <path class="cls-10" d="M223.85,315.08l9.34-49.17h3.15l-9.42,49.18h-3.07Z"/>
        <path class="cls-10" d="M247.63,281.45l-6.44,33.63h-3.15l6.44-33.63h3.15ZM250.9,269.91c-.02.4-.14.78-.33,1.13-.19.35-.43.66-.72.93-.29.27-.63.48-1,.64-.34.16-.71.24-1.08.24-.37,0-.73-.08-1.06-.24-.32-.15-.61-.37-.84-.64-.23-.28-.42-.59-.54-.93-.13-.36-.18-.75-.14-1.13.03-.4.14-.79.32-1.15.18-.37.41-.7.69-1,.27-.27.59-.5.94-.65.35-.16.72-.24,1.1-.24.35,0,.69.09,1,.24.33.15.63.37.88.64.27.29.46.63.58,1,.15.37.21.76.2,1.16Z"/>
        <path class="cls-10" d="M259.31,292.26c.96-1.7,2.09-3.3,3.36-4.78,1.12-1.33,2.39-2.53,3.78-3.57,1.22-.92,2.57-1.67,4-2.22,1.28-.49,2.63-.75,4-.76,1.27-.04,2.52.25,3.64.85,1,.57,1.8,1.43,2.29,2.47.59,1.25.91,2.62.94,4,.06,1.8-.09,3.59-.46,5.35l-4,21.5h-3.18l4-21.5c.6-3.2.56-5.65-.13-7.36-.69-1.72-2.15-2.57-4.38-2.57-1.35.03-2.67.37-3.87,1-1.43.72-2.75,1.64-3.91,2.74-1.39,1.29-2.63,2.73-3.7,4.29-1.23,1.79-2.31,3.68-3.2,5.66l-3.3,17.72h-3.18l6.38-33.73h1.45c.79,0,1.16.4,1.1,1.21l-1.63,9.7Z"/>
        <path class="cls-10" d="M312.19,308.83c-1.08,1.07-2.23,2.07-3.44,3-1.04.8-2.15,1.5-3.32,2.08-1.09.53-2.23.93-3.41,1.2-1.22.27-2.47.4-3.72.39-1.69.04-3.36-.28-4.92-.93-1.36-.59-2.56-1.5-3.48-2.66-.96-1.22-1.65-2.64-2-4.15-.42-1.8-.55-3.66-.39-5.5.12-1.72.41-3.43.86-5.1.45-1.7,1.07-3.36,1.85-4.94.77-1.57,1.7-3.05,2.77-4.42,1.04-1.35,2.26-2.55,3.62-3.58,1.32-1.02,2.79-1.83,4.36-2.41,1.6-.58,3.29-.88,5-.87,1.41-.04,2.8.19,4.12.69.99.39,1.89.97,2.65,1.72.65.63,1.15,1.41,1.45,2.27.25.72.36,1.49.32,2.25-.06.9-.25,1.79-.56,2.64-.33.89-.84,1.71-1.49,2.4-.79.83-1.71,1.54-2.71,2.1-1.36.75-2.79,1.35-4.27,1.81-2.01.62-4.06,1.12-6.14,1.5-2.37.45-5.15.85-8.33,1.18-.08.45-.15.92-.21,1.39s-.12.93-.15,1.39c-.24,3.35.34,6,1.73,7.87,1.39,1.87,3.61,2.76,6.68,2.76,2.05.02,4.07-.45,5.89-1.39.73-.37,1.43-.8,2.09-1.28.6-.45,1.14-.88,1.62-1.29.48-.4.89-.73,1.24-1,.26-.23.58-.36.92-.39.27,0,.53.12.69.34l.68.93ZM305.69,283.34c-1.73-.02-3.45.36-5,1.13-1.53.77-2.9,1.81-4.07,3.06-1.23,1.34-2.28,2.83-3.11,4.45-.86,1.67-1.53,3.43-2,5.25,2.88-.31,5.37-.68,7.47-1.1,1.81-.34,3.6-.78,5.37-1.31,1.26-.38,2.47-.88,3.62-1.51.82-.44,1.57-1,2.22-1.67.47-.5.84-1.09,1.08-1.73.21-.61.34-1.25.38-1.89.03-.52-.04-1.05-.21-1.54-.2-.57-.55-1.09-1-1.5-.54-.5-1.17-.88-1.86-1.13-.92-.35-1.9-.52-2.89-.51Z"/>
        <path class="cls-10" d="M368.67,315.08h-2.61c-.26.01-.52-.08-.72-.26-.17-.17-.29-.38-.33-.62l-2.43-14h-21.39l-7.84,14c-.14.25-.34.47-.59.62-.24.17-.53.26-.83.26h-2.56l27.2-47.83h3.35l8.75,47.83ZM362.19,297.74l-4.26-24.33c-.06-.41-.13-.86-.18-1.34s-.11-1-.16-1.57c-.27.56-.52,1.09-.77,1.57s-.48.94-.69,1.37l-13.59,24.3h19.65Z"/>
        <path class="cls-10" d="M394.91,312.21c-1.02.78-2.13,1.45-3.29,2-1.02.48-2.09.82-3.2,1-1.12.18-2.25.27-3.39.27-1.72.04-3.43-.3-5-1-1.34-.63-2.5-1.59-3.37-2.79-.9-1.28-1.52-2.73-1.83-4.26-.37-1.76-.48-3.57-.33-5.37.12-1.79.43-3.56.93-5.29.48-1.73,1.13-3.4,1.95-5,.78-1.53,1.72-2.97,2.81-4.3,1.05-1.3,2.25-2.46,3.59-3.45,1.28-.96,2.69-1.73,4.19-2.28,1.51-.56,3.1-.84,4.71-.83,1.01-.01,2.02.1,3,.32.83.2,1.64.5,2.39.91.7.39,1.35.88,1.92,1.44.58.58,1.11,1.21,1.56,1.89l-1,1.12c-.18.22-.45.36-.74.37-.23,0-.49-.18-.79-.54-.37-.43-.79-.82-1.24-1.17-.63-.48-1.32-.87-2.06-1.16-1.05-.4-2.16-.59-3.28-.55-1.9,0-3.77.53-5.39,1.53-1.76,1.06-3.31,2.44-4.55,4.08-1.37,1.81-2.47,3.81-3.25,5.94-.84,2.25-1.35,4.61-1.52,7-.12,1.45-.04,2.9.22,4.33.21,1.25.68,2.43,1.37,3.49.66.97,1.55,1.75,2.6,2.27,1.2.57,2.53.85,3.86.81,1.09.01,2.18-.12,3.24-.39.89-.25,1.76-.58,2.58-1,.7-.36,1.37-.79,2-1.27.58-.46,1.1-.89,1.56-1.27l1.16-1c.24-.22.54-.36.86-.39.27,0,.52.13.69.34l.64.88c-1.11,1.2-2.32,2.31-3.6,3.32Z"/>
        <path class="cls-10" d="M425.12,312.21c-1.02.78-2.12,1.45-3.28,2-1.02.48-2.09.81-3.2,1-1.12.18-2.26.27-3.4.27-1.72.05-3.43-.3-5-1-1.35-.62-2.51-1.59-3.37-2.79-.9-1.28-1.52-2.73-1.83-4.26-.37-1.76-.48-3.57-.34-5.37.27-3.58,1.25-7.07,2.88-10.27.79-1.55,1.74-3.01,2.84-4.36,1.05-1.29,2.26-2.45,3.59-3.45,1.28-.96,2.7-1.72,4.2-2.28,1.5-.56,3.1-.84,4.7-.83,1.01-.01,2.02.09,3,.32.83.2,1.64.5,2.39.91.69.41,1.33.9,1.89,1.48.58.58,1.11,1.21,1.56,1.89l-1,1.12c-.18.22-.45.36-.74.37-.22,0-.48-.18-.79-.54-.89-1.04-2.02-1.84-3.3-2.33-1.04-.4-2.15-.59-3.27-.55-1.91,0-3.77.53-5.4,1.53-1.76,1.06-3.3,2.44-4.54,4.08-1.38,1.81-2.47,3.81-3.25,5.94-.85,2.25-1.37,4.6-1.53,7-.11,1.45-.04,2.9.23,4.33.2,1.25.68,2.44,1.38,3.49.66.96,1.55,1.75,2.59,2.27,1.21.57,2.53.85,3.87.81,1.09.01,2.18-.12,3.23-.39.89-.24,1.76-.58,2.59-1,.71-.36,1.38-.78,2-1.27.59-.46,1.11-.89,1.56-1.27l1.17-1c.23-.22.53-.36.85-.39.27,0,.52.13.69.34l.65.88c-1.12,1.2-2.33,2.3-3.62,3.32Z"/>
        <path class="cls-10" d="M459.54,308.83c-1.08,1.07-2.22,2.07-3.43,3-1.04.8-2.16,1.5-3.33,2.08-1.09.53-2.23.94-3.41,1.2-1.22.27-2.46.4-3.71.39-1.69.04-3.36-.28-4.92-.93-1.36-.59-2.56-1.5-3.48-2.66-.96-1.22-1.65-2.64-2-4.15-.41-1.8-.54-3.66-.39-5.5.26-3.48,1.18-6.87,2.71-10,.77-1.57,1.7-3.05,2.78-4.42,1.04-1.34,2.26-2.55,3.61-3.58,1.33-1.01,2.8-1.83,4.36-2.41,1.6-.58,3.29-.88,5-.87,1.41-.04,2.81.19,4.13.69,1.02.38,1.95.96,2.73,1.72.62.63,1.1,1.39,1.38,2.23.25.72.35,1.49.31,2.25-.06.9-.24,1.79-.55,2.64-.34.89-.85,1.71-1.51,2.4-.8.83-1.71,1.54-2.72,2.1-1.36.75-2.79,1.35-4.27,1.81-2.01.62-4.06,1.13-6.14,1.5-2.37.45-5.15.85-8.32,1.18-.08.45-.15.92-.22,1.39s-.12.93-.15,1.39c-.23,3.35.34,6,1.73,7.87s3.62,2.76,6.68,2.76c1.1.01,2.19-.12,3.26-.39.91-.24,1.8-.57,2.64-1,.73-.37,1.42-.8,2.08-1.28.61-.45,1.15-.88,1.63-1.29s.89-.73,1.23-1c.26-.22.59-.36.93-.39.27,0,.52.12.68.34l.68.93ZM453.05,283.34c-1.73-.02-3.45.36-5,1.13-1.52.77-2.9,1.81-4.06,3.06-1.24,1.33-2.29,2.83-3.12,4.45-.85,1.67-1.52,3.43-2,5.25,2.88-.31,5.38-.68,7.48-1.1,1.81-.34,3.6-.78,5.36-1.31,1.26-.38,2.47-.88,3.62-1.51.81-.44,1.55-1.01,2.2-1.67.48-.51.86-1.12,1.1-1.78.21-.61.34-1.25.39-1.89.02-.52-.05-1.04-.21-1.54-.2-.57-.55-1.09-1-1.5-.54-.5-1.18-.88-1.87-1.13-.93-.33-1.91-.49-2.89-.46h0Z"/>
        <path class="cls-10" d="M488.75,285.57c-.15.29-.45.48-.78.48-.31-.05-.59-.2-.8-.43-.39-.35-.81-.66-1.25-.94-.62-.42-1.29-.75-2-1-2.09-.61-4.32-.56-6.38.15-1,.36-1.94.88-2.78,1.54-.78.62-1.44,1.38-1.95,2.23-.49.82-.78,1.74-.84,2.69-.09.81.07,1.62.47,2.33.41.65.96,1.21,1.6,1.64.72.48,1.5.88,2.31,1.2.87.34,1.76.67,2.69,1,.91.34,1.8.72,2.67,1.14.83.39,1.61.9,2.3,1.5.67.59,1.2,1.32,1.55,2.14.39.97.53,2.02.43,3.06-.1,1.46-.49,2.88-1.15,4.19-.67,1.36-1.59,2.58-2.72,3.6-1.17,1.07-2.53,1.92-4,2.52-1.62.65-3.35.97-5.09.95-1.86.06-3.7-.32-5.38-1.13-1.39-.74-2.61-1.76-3.59-3l.89-1.15c.21-.32.56-.53.95-.54.23,0,.5.18.81.54.39.44.83.84,1.3,1.2.66.5,1.4.91,2.18,1.2,1.1.39,2.27.58,3.44.54,1.27.02,2.53-.21,3.72-.66,1.08-.41,2.08-1.03,2.93-1.81.83-.75,1.5-1.65,2-2.65.5-1,.79-2.08.87-3.19.1-.86-.07-1.73-.47-2.5-.39-.69-.93-1.29-1.58-1.75-.72-.5-1.5-.92-2.32-1.23-.86-.34-1.76-.67-2.68-1-.91-.31-1.81-.67-2.68-1.08-.83-.37-1.6-.85-2.3-1.43-.68-.54-1.23-1.23-1.61-2.01-.4-.95-.55-1.98-.44-3,.11-1.3.49-2.56,1.12-3.7.66-1.22,1.54-2.31,2.59-3.21,1.12-.96,2.41-1.71,3.79-2.23,1.47-.56,3.04-.86,4.62-.86,1.66-.04,3.32.26,4.86.88,1.36.6,2.56,1.5,3.51,2.64l-.81,1.14Z"/>
        <path class="cls-10" d="M515.31,285.57c-.15.29-.44.47-.77.48-.31-.04-.59-.2-.8-.43-.39-.34-.81-.66-1.25-.94-.62-.42-1.29-.75-2-1-2.09-.61-4.32-.56-6.38.15-1,.36-1.94.88-2.78,1.54-.78.62-1.43,1.38-1.94,2.23-.49.82-.78,1.74-.85,2.69-.08.81.08,1.62.48,2.33.4.66.95,1.22,1.59,1.64.73.48,1.5.89,2.32,1.2.86.34,1.76.67,2.68,1s1.82.72,2.68,1.14c.83.39,1.6.9,2.29,1.5.67.59,1.2,1.32,1.56,2.14.39.97.53,2.02.43,3.06-.11,1.46-.5,2.88-1.16,4.19-.67,1.36-1.59,2.58-2.72,3.6-2.49,2.26-5.74,3.5-9.11,3.47-3.49.19-6.85-1.33-9-4.09l.89-1.15c.22-.34.6-.54,1-.54.22,0,.49.18.8.54.4.44.83.84,1.3,1.2.67.5,1.41.91,2.19,1.2,1.1.4,2.27.58,3.44.54,1.27.02,2.53-.21,3.71-.66,1.08-.41,2.08-1.03,2.93-1.81.82-.75,1.5-1.65,2-2.65.49-1,.78-2.08.86-3.19.1-.86-.07-1.73-.47-2.5-.39-.69-.93-1.29-1.58-1.75-.72-.5-1.49-.91-2.31-1.23-.87-.34-1.76-.67-2.69-1-.91-.31-1.81-.68-2.68-1.08-.83-.37-1.6-.85-2.3-1.43-.68-.56-1.23-1.26-1.6-2.05-.4-.95-.55-1.98-.43-3,.09-1.32.47-2.61,1.11-3.77.66-1.22,1.54-2.31,2.59-3.21,1.12-.96,2.41-1.71,3.79-2.23,1.49-.56,3.08-.84,4.67-.83,1.66-.04,3.31.26,4.85.88,1.37.62,2.59,1.54,3.54,2.71l-.88,1.11Z"/>
        <polygon class="cls-5" points="506.19 339.91 117.99 339.91 115.32 332.91 506.19 332.91 506.19 339.91"/>
      </g>
      <path class="cls-20" d="M16.37,327.93c-1.7-5.17-8.8-2.68-9.95-2.23-.09.03-.13.14-.09.22.54,1.17,4.01,8.19,8.62,5.73,1.28-.68,1.89-2.29,1.42-3.72h0Z"/>
      <path class="cls-18" d="M17.16,327.97c-.65-5.45-8.06-4.6-9.27-4.43-.09.01-.15.11-.13.2.3,1.27,2.31,8.93,7.29,7.55,1.38-.38,2.29-1.82,2.11-3.33h0Z"/>
      <path class="cls-28" d="M39.58,332.78c-7.43-2.85-19.09-8.16-26.13-15.61-11.25-11.89-12-10.33-1.31.84.59.62,11.09,12.2,28.73,16.94l-1.29-2.17Z"/>
      <path class="cls-29" d="M40.39,334.14c-6.65-.78-16.41-2.11-21.71-3.71-8.55-2.59-.07.58-.07.58,0,0,10.04,3.29,22.48,4.33l-.71-1.19Z"/>
      <path class="cls-21" d="M16.26,327.99c-2.79-4.58-9.16-.38-10.19.35-.08.05-.09.17-.03.24.78,1,5.7,6.92,9.65,3.38,1.1-.98,1.34-2.69.57-3.97Z"/>
      <g>
        <path class="cls-3" d="M12.09,313.16c2.04-6.87-7.83-10.16-9.46-10.66-.12-.04-.25.04-.27.17-.29,1.68-1.76,11.98,5.29,13.23,1.96.35,3.87-.83,4.44-2.74Z"/>
        <path class="cls-2" d="M12.94,313.86c3.44-6.29-5.52-11.58-7.02-12.41-.11-.06-.25-.01-.3.11-.64,1.59-4.24,11.35,2.4,14.05,1.84.75,3.96,0,4.91-1.75h0Z"/>
        <path class="cls-16" d="M11.93,313.13c.37-7.16-10-8.04-11.7-8.14-.13,0-.23.1-.22.22.11,1.7,1.1,12.06,8.25,11.62,1.99-.12,3.57-1.72,3.67-3.71h0Z"/>
      </g>
      <path class="cls-11" d="M42.1,337.02l-1.2-2.02c-7.42.49-10.82,4.82-10.82,4.82,2.69-2.12,17.65-2.03,20.75-2.8h-8.73Z"/>
      <path class="cls-12" d="M36.27,327.21c-7.02-3.94-14.24-7.95-16.16-9.59,0,0,8.35,9.61,19.58,15.34l-3.42-5.75Z"/>
      <path class="cls-4" d="M20.67,289.5l24.86,42.77h49.71l24.86-42.77-24.86-42.77h-49.71l-24.86,42.77Z"/>
      <g class="cls-24">
        <g class="cls-15">
          <g>
            <path class="cls-10" d="M67.89,337.45c.34-2.03,2.37-1.4,3.55-2.13-.12-1.6-1.51-2.11-2.25-3.08-2.08-2.78-1.78-3.89,1.18-5.7.59-.37,1.93.13,1.85-1.75-.66-1.02-3.29,0-3.47-2.17,1.89-.59,3.66,1.38,5.17.74,1.95-.82,4.21-1.36,5.62-.59,1.89,1.06,3.61.25,5.92.97l2.01,2.37h2.74c.43,1.98,1.62,2.82,3.6,2.58.59-.07,1.18,0,1.1.86-1.12,1.16-2.45,2.09-3.92,2.76-3.08,1.23-5.92,2.96-9.31,3.45-.76.11-2.15.35-2.47,1.64l-11.33.05Z"/>
            <path class="cls-10" d="M68.76,322.62h-2.18c-.65-1.18-.9-2.6-2.7-2.75-1.71-.14-1.97-2.5-4.08-2.64-1.43-.09-2.7-1.74-4.14-2.42-1.12-.52-1.62-1.58-2.54-2.2-.24-1.63.69-3.55-1.24-4.73-.59.18-.91,1.12-1.78.78-1.66-2.78-2.73-5.88-3.12-9.1-.04-.28.11-.75,0-.84-2.85-2.04-1.44-5-1.75-7.56-.04-.71-.04-1.42,0-2.12.94-.84,1.7-1.87,2.24-3.01.34-.85.67-1.78.15-2.37-1.24-1.3-.55-2.75-.59-4.1-.04-1.05-.74-1.86-.23-3.25.7-1.92.18-4.28.18-6.33l-4.23-4.18c-1.41,1.18-3.21,1.14-5.02.89-.5-.28-.3-.76-.37-1.18.92-1.03,2.21-.07,3.5-.77v-4.92h3.49c.6.02.89-.27.87-.87v-1.6c2.52.63,3.71-2.93,6.86-1.57,1.66,1.91,2.55,4.78,3.95,7.46h2.89l4.23,4.85q.24-2.66-1.5-5.05c1.72-1.18,3.35-2.18,5.38-.59,0,.59.27.9.87.88,0,.96-.17,2.01,1.39,1.78.41-.03.82-.03,1.23,0-.53,2.23-.55,3.29-.09,4.9-.59.84-1.72-.15-2.37.59.49,1.5,1.78,1.92,2.91,1.33,1.08-.5,1.89-1.43,2.23-2.57-.17-1.22-2.33-1.43-1.69-3.09,1.41-.77,2.44-.21,3.41,1.09-.57,2.63.32,5.36,2.34,7.14,1.23-1.08,1.85-2.25.38-3.55-1.08-.96-1.53-1.96-.59-3.16,1.66-.54.87,1.49,1.87,1.58.59-.46.2-1.09.31-1.62h3.21c.85,2.04,2.96,2.99,4.41,4.56,1.45,1.57,1.98,4.14,4.64,4.5,0,1.83-2.4,2.47-1.99,4.56.12.59-1.22,1.52-3.25.95-.68-.08-.43.26-.4.24.38-.24,1.34.53,1.18-.37-.14-.7-1-.67-.76.13.62,1.02.92,2.21.84,3.4,1.42.97,1.85-.81,3.13-.44,1.78,1.28,1.72,4.68,4.73,5.15-.13.89,1.46,1.15.8,2.25-2.15.99-3.86,2.75-6.02,3.39-.12,2.4,2.61.32,2.62,2.52-2.08,2.18-5.05,1.14-7.62,1.54-.44,3.18-5.68,2.73-4.65,6.6-2.31,1.03-4.6,1.58-5.97,3.22-.4,1.33,1.5,1.78.59,2.93-.65.42-1.36.18-2.05.15-.78-3.1-1.99-4.1-5.03-4.31-1.22-.08-2.37.25-3.65-.72s-2.49.66-3.89,1.08c.06.55.06,1.1,0,1.65-.14.65-1.12.94-.82,1.84.99.78.81,2.37,2.12,3.07,1.02-.05,2.17.49,3.16-.43.86-.8,1.93-.22,2.89-.34.15,0,.35.37.27.28.73,1.33-.99,1.53-.59,2.54q3.05,1.94,1.65,4.93ZM74.85,297.43c.17.49-.34,1.3.79,1.7.77-.15,1.32-.73,1.95-1.7-.93.02-1.86-.01-2.79-.11.59-2.24-.76-3.49-2.48-4.31-1.01-.49-1.92.24-2.5,1.11-.19.29-.11.76-.15,1.05.71.93,1.78-.1,2.48.75.19.41-.05,1.09.59,1.4.7-.02,1.41.02,2.11.11ZM78.07,279.6c-1.92-2.67-3.83-1.44-5.39-.49-1.71,1.04-3.1,2.64-1.89,4.99,2.6,2.25,6.35,3.34,7.28,7.24.1.28.32.49.59.59.47.05.94.05,1.41,0,0-.63-.03-1.18,0-1.73s-.22-1.18.37-1.6c.5-.08,1.26.08,1.33-.65.18-.69.06-1.43-.34-2.03-.42-.54.46-4.04,1.03-4.46,1.28.66,2.01-.34,2.75-1.13-.59-1.58-2.28-1.18-3.47-1.72.75-1.04,1.83-.1,2.37-.66l1.06-2.19c-.64-.75-1.73.25-2.37-.59-.07-1.59-.13-3.18-3.05-3.1,1.97,3.09-2.27,4.13-1.68,7.51ZM66.91,270.78c-.25-1.66-1.83-1.67-3.27-1.87.23,1.66,1.83,1.68,3.27,1.87ZM71.82,299.95c.49-.31.63-.96.32-1.45-.08-.13-.19-.24-.32-.32-.49.31-.63.96-.32,1.45.08.13.19.24.32.32Z"/>
            <path class="cls-10" d="M77.48,259.82c.54-1.99,1.92-3.41,3.83-3.44,1.47,0,3.11-.65,4.44.73.28.28,1.09.04,1.78.04.91-.54.34-2.26,2.28-2.43,1.43,1.54,4.66.4,6.18,3.68,1.13,2.44,3.92,4.1,5.92,6.08-.4,1.33.41,2.2.85,3.19q0,2.46,1.75,2.62c-.77,2.3-1.25,4.73-2.81,6.67-.87,1.08-.93,1.93-.18,3.01.75,1.08.33,2.14.2,3.32h-3.13c-1.59-2.96-4.78-5.23-3.5-9.29-1.89-.11-1.85-1.09-2.02-2.31-.15-1.12-1.18-2.11-1.63-3.23s-1.6-1.59-2.14-2.55h-2.7c-1.14-.92-1.56-2.26-2.17-3.48,2.37-.86,1.86-2.56,1.18-4.36.46,2.04-2.7,2.26-2.07,4.36-1.3.08-.74,1.08-.87,1.75h-3.21q-.43-2.3-2-4.36Z"/>
            <path class="cls-10" d="M108.89,316.52c.59-3.08,2.37-5.66,3.69-8.41,1.98-4.14,3.61-8.21,3.33-12.91-.08-1.46-.18-2.88.67-4.47,1.11-2.08-.27-4.69-2.31-5.85v-7.1c1.01,1.78,1.7,3.25,3.34,3.83v12.52c0,4.85-1.28,9.33-3.06,13.84-1.25,2.95-2.71,5.8-4.37,8.54h-1.3Z"/>
            <path class="cls-10" d="M44.34,252.84c-.53-.1-1.13.25-1.57-.25-.37-.54-.23-1.28.31-1.64.08-.05.16-.1.25-.13,2.54-1.36,4.63-3.89,7.99-3.23.11.86-.23,1.71-.89,2.26-1.35,1.43-3.19,2.45-3.75,4.57-.85.04-1.96.92-2.33-.71.24-.09.66-.15.69-.29.12-.53-.27-.61-.69-.58Z"/>
            <path class="cls-10" d="M115.87,275.52l-2.62-1.74c-.42-2.78-1.69-5.26-2.96-7.69-.33-.58-.51-1.24-.51-1.92h1.25c2.11,2.82,2.41,6.55,4.81,9.23.34.41.03,1.38.03,2.12Z"/>
            <path class="cls-10" d="M109.63,273.01v3.14c-1.7.59-2.79.08-3.41-1.53.57-1.54,1.68-1.99,3.41-1.61Z"/>
            <path class="cls-10" d="M108.01,261.56q1.75.16,1.75,2.62c-1.38-.34-1.88-1.23-1.75-2.62Z"/>
            <path class="cls-10" d="M75.74,259.82c.07.83-.52.96-1.09.85-1.05-.2-.54-1.11-.66-1.72l1.75.87Z"/>
            <path class="cls-10" d="M108.01,318.26c.14-.66-.43-1.67.88-1.75-.13.66.43,1.67-.88,1.75Z"/>
            <path class="cls-10" d="M51.32,247.6c-.1-.31.07-.64.38-.75.05-.02.09-.02.14-.03.07,0,.27.19.25.26-.03.33-.31.57-.64.54-.05,0-.09-.01-.14-.03Z"/>
            <path class="cls-10" d="M78.11,318.69c1.26-.61,2.73-.61,3.99,0-1.26.62-2.73.62-3.99,0Z"/>
            <path class="cls-10" d="M70.69,315.42c.72-1.01,1.5-.35,2.29-.44-.66.99-1.52.44-2.29.44Z"/>
            <path class="cls-10" d="M74.87,316.52c1.18-.05,2.21,0,1.5,1.68-.75-.42-1.37-.84-1.5-1.68Z"/>
            <path class="cls-10" d="M74.87,316.51c-.31.1-.65-.07-.75-.38-.01-.04-.02-.09-.03-.14,0-.07.19-.27.26-.25.33.03.57.31.54.64,0,.04-.01.09-.03.13Z"/>
          </g>
        </g>
      </g>
      <g>
        <path class="cls-19" d="M103.61,279.57c-7.07-2.97-17.35,3.08-21.35,12.61-8.34,20.71,18.14,32.05,27.07,11.38,3.62-8.6.48-21.38-5.72-23.98Z"/>
        <g class="cls-23">
          <path class="cls-10" d="M105.76,290.35c-.77,1.84.14,3.97,2.04,4.77,1.03.43,2.14.38,3.06-.05-.03-2.35-.37-4.69-.99-6.83-1.69-.34-3.43.5-4.1,2.11Z"/>
          <path class="cls-10" d="M87.78,310.73c-.9-.38-1.86-.38-2.7-.09,1.41,1.39,3.12,2.48,4.99,3.14-.13-1.3-.97-2.49-2.29-3.05Z"/>
          <path class="cls-10" d="M103.22,311.59c-2.24-3.52-7.86-1.3-6.69,2.81,2.33-.34,4.62-1.28,6.69-2.81Z"/>
          <path class="cls-10" d="M92.33,299.9c-4.58-1.79-7.28,4.64-2.8,6.66,4.58,1.79,7.28-4.64,2.8-6.66Z"/>
          <path class="cls-10" d="M103.24,305.95c4.58,1.79,7.28-4.64,2.8-6.66-4.58-1.79-7.28,4.64-2.8,6.66Z"/>
          <path class="cls-10" d="M96.88,289.08c-4.58-1.79-7.28,4.64-2.8,6.66,4.58,1.79,7.28-4.64,2.8-6.66Z"/>
          <path class="cls-10" d="M85.21,294.46c.74-1.75-.06-3.78-1.78-4.65-1.17,2.04-2.08,4.5-2.47,6.72,1.74.42,3.56-.42,4.25-2.07Z"/>
          <path class="cls-10" d="M98.63,284.91c3.54,1.52,6.72-2.72,4.23-5.61-1.73-.56-3.61-.62-5.54-.26-.3.31-.55.67-.73,1.09-.77,1.84.14,3.97,2.04,4.77Z"/>
          <path class="cls-10" d="M89.76,283.63c1.33-3.11-2.74,1.41-3.5,2.18,1.49.06,2.91-.76,3.5-2.18Z"/>
        </g>
      </g>
      <g>
        <path class="cls-26" d="M59.29,291.18c2,4.61,2.46,9.97.39,14.58-2.72,6.32-10.03,9.38-16.5,7.03-9.75-3.43-13.96-15.52-11.76-25.05,1.35-5.99,5.74-11.5,12.48-9.68,6.54,1.69,12.63,6.92,15.39,13.12Z"/>
        <g class="cls-23">
          <path class="cls-10" d="M58.15,288.96h0s0,.23,0,.23l-3.49-.68-.25,3.55-3.43-.93-.55,3.53-3.34-1.27-.96,3.46-3.18-1.69-1.4,3.3-2.94-2.04-1.71,3.13-2.75-2.26-1.93,2.99-.33-.31c-.18-.6-.34-1.21-.47-1.81l.61.57,1.88-2.93,2.69,2.21,1.66-3.05,2.85,1.97,1.35-3.18,3.04,1.62.91-3.31,3.22,1.22.53-3.41,3.34.91.24-3.46,3.41.66v-.54c.36.49.69,1,1,1.52Z"/>
        </g>
        <g class="cls-23">
          <path class="cls-10" d="M54.38,284.21l-1.7-.33-.25,3.55-3.43-.93-.55,3.53-3.34-1.27-.95,3.46-3.18-1.7-1.4,3.3-2.94-2.04-1.71,3.13-2.75-2.27-1.26,1.95c-.04-.59-.06-1.17-.06-1.75l1.09-1.69,2.68,2.21,1.66-3.04,2.85,1.97,1.35-3.17,3.03,1.62.91-3.31,3.22,1.22.53-3.41,3.34.91.24-3.46,1.21.23c.49.41.95.84,1.41,1.29Z"/>
        </g>
        <g class="cls-23">
          <path class="cls-10" d="M50.57,281.11l-.12,1.7-3.44-.94-.55,3.53-3.34-1.27-.95,3.46-3.18-1.7-1.4,3.3-2.94-2.03-1.71,3.13-1.74-1.44c.06-.38.14-.75.23-1.11l1.22,1,1.66-3.04,2.85,1.97,1.35-3.17,3.03,1.62.91-3.31,3.22,1.22.53-3.41,3.34.91.07-1.03c.32.2.65.4.96.62Z"/>
        </g>
        <g class="cls-23">
          <path class="cls-10" d="M44.87,278.33l-.38,2.45-3.34-1.27-.96,3.46-3.18-1.69-1.4,3.3-2.34-1.62c.17-.29.35-.58.53-.85l1.37.95,1.35-3.18,3.04,1.62.91-3.31,3.22,1.22.21-1.34c.32.08.65.16.97.27Z"/>
        </g>
        <g class="cls-23">
          <path class="cls-10" d="M59.29,291.18c.33.77.61,1.53.84,2.29h0s0,.35,0,.35l-3.49-.68-.25,3.55-3.44-.94-.55,3.53-3.34-1.27-.95,3.46-3.18-1.7-1.4,3.3-2.94-2.03-1.71,3.13-2.75-2.26-1.93,2.99-.42-.4h0c-.35-.64-.67-1.3-.97-1.99-.07-.16-.13-.32-.2-.48l1.4,1.31,1.88-2.93,2.68,2.21,1.66-3.04,2.85,1.97,1.35-3.17,3.03,1.62.91-3.31,3.22,1.22.53-3.41,3.34.91.24-3.46,3.41.66v-1.74c.06.1.11.21.15.32Z"/>
        </g>
        <g class="cls-23">
          <path class="cls-10" d="M60.91,297.19c.04.35.07.7.09,1.04l-2.38-.46-.25,3.55-3.43-.93-.55,3.53-3.34-1.27-.95,3.46-3.18-1.7-1.4,3.3-2.94-2.04-1.71,3.13-2.75-2.27-1.34,2.08c-.24-.25-.47-.5-.7-.77l1.8-2.8,2.68,2.21,1.66-3.04,2.85,1.97,1.35-3.17,3.03,1.62.91-3.31,3.22,1.22.53-3.41,3.34.91.24-3.46,3.21.62Z"/>
        </g>
        <g class="cls-23">
          <path class="cls-10" d="M40.75,311.71l-.66-.54-.07.11c-.28-.17-.56-.36-.83-.56l.67-1.04,2.69,2.21,1.66-3.05,2.85,1.97,1.35-3.18,3.04,1.62.91-3.31,3.22,1.22.53-3.41,3.34.91.24-3.46,1.21.23c-.04.33-.1.66-.16.99l-.13-.02-.06.88v.02s-.86,2.47-.86,2.47l-2.76-.75-.55,3.53-3.34-1.27-.96,3.46-3.18-1.69-1.4,3.3-2.94-2.04-1.36,2.5-2.44-1.09Z"/>
        </g>
      </g>
      <path class="cls-17" d="M11.2,289.5l29.59-49.63h59.18l29.59,49.63-29.59,49.63h-59.18l-29.59-49.63ZM42.92,243.57l-27.41,45.94,27.41,45.94h54.93l27.41-45.94-27.41-45.94h-54.93Z"/>
      <g class="cls-14">
        <path class="cls-7" d="M88.31,288.77c.06-.77.08-1.55.06-2.35-.31-13.39-6.24-26.96-16.08-27.55,0,0-.01,0-.02,0s-.01,0-.02,0c-9.84-.6-17.5,12.14-19.56,25.39-.12.79-.21,1.57-.25,2.34-.86,11.58,7.37,20.31,16.6,20.87.01,0,.02,0,.03,0,.01,0,.02,0,.03,0,9.23.56,18.54-7.09,19.2-18.69Z"/>
        <polygon class="cls-25" points="50.81 273.28 88.96 258.85 90.8 266.06 50.81 280.5 50.81 273.28"/>
        <polygon class="cls-25" points="50.94 287.58 89.09 273.15 90.93 280.36 50.94 294.8 50.94 287.58"/>
        <polygon class="cls-25" points="53.18 302.07 91.32 287.64 93.17 294.85 53.18 309.29 53.18 302.07"/>
        <path class="cls-9" d="M89.51,289.15c.06-.82.08-1.65.06-2.51-.33-14.28-6.65-28.75-17.15-29.39,0,0-.02,0-.02,0s-.02,0-.02,0c-10.5-.64-18.66,12.95-20.86,27.08-.13.84-.22,1.68-.27,2.49-.92,12.36,7.86,21.66,17.7,22.26.01,0,.02,0,.03,0,.01,0,.02,0,.03,0,9.84.6,19.77-7.57,20.48-19.93Z"/>
      </g>
      <path class="cls-10" d="M78.94,308.7l-1.86-4.89-.6-1.55c-2.23,1.21-4.69,1.8-7.09,1.67h-.17c-3.46-.24-6.86-1.98-9.33-4.82-2.85-3.27-4.24-7.62-3.89-12.31.04-.66.11-1.33.21-2,2.25-14.48,9.83-22.76,15.78-22.39h.1c6,.37,12.4,9.48,12.74,24.1.02.67,0,1.35-.05,2v.06c-.11,1.87-.5,3.66-1.12,5.32l3.36,8.44c2.86-3.75,4.55-8.35,4.85-13.33.06-.87.09-1.77.07-2.66-.17-7.44-1.91-14.6-4.88-20.17-3.55-6.64-8.71-10.5-14.47-10.85h-.1c-12.26-.74-21,13.71-23.28,28.38-.14.89-.23,1.79-.28,2.62-.49,6.54,1.51,12.74,5.63,17.45,3.71,4.25,8.91,6.88,14.28,7.22h.08c.38.03.76.04,1.15.04,3.06,0,6.14-.74,8.98-2.12l-.09-.22Z"/>
      <path class="cls-10" d="M54.04,306.2l-5.73,14.4h5.28c.54.02,1.06-.16,1.48-.5.37-.29.66-.67.83-1.11l3.6-9.43c-1.97-.87-3.8-2-5.46-3.37Z"/>
      <path class="cls-10" d="M66.73,274.36l-8.15,20.46c.49.95,1.1,1.83,1.82,2.62.83.91,1.81,1.67,2.89,2.27l5.43-14.2c.24-.59.48-1.33.73-2.12s.49-1.66.72-2.58c.4,1.58.9,3.12,1.49,4.64l6.88,17.92,1.86,4.89,4.09,10.73c.16.47.45.88.84,1.18.43.32.95.48,1.48.46h5.28l-18.42-46.26h-6.92Z"/>
      <g>
        <path class="cls-22" d="M89.29,338.7c1.26.57,4.66,1.41,6.86.78.45-.11.9-.27,1.32-.48.15,2.97,2.67,5.61,4.35,6.93,1.51-1.1,4.3-4.17,4.35-6.93,2.41,1.31,6.29.51,8.18-.3-.05-.58-.42-2.13-.77-3.02-.56-1.5-1.51-3.2-3.06-4.21,2.35-1.55,3.44-4.68,3.83-7.23-1.89-.82-5.77-1.61-8.18-.3-.05-2.76-2.85-5.85-4.35-6.93-1.68,1.33-4.19,3.96-4.35,6.93-.42-.22-.87-.37-1.32-.48-2.21-.63-5.61.22-6.86.78.26,1.78.91,3.86,2.04,5.47.48.67,1.07,1.29,1.78,1.76-2.39,1.57-3.46,4.8-3.83,7.23Z"/>
        <path class="cls-27" d="M105.45,331.47c1.36-.88,1.61-3.03,1.61-3.03,0,0-1.99-.86-3.43-.12-.08-1.62-1.82-2.91-1.82-2.91,0,0-1.74,1.29-1.82,2.91-1.44-.74-3.43.12-3.43.12,0,0,.25,2.15,1.61,3.03-1.36.88-1.61,3.03-1.61,3.03,0,0,1.99.86,3.43.12.08,1.62,1.82,2.91,1.82,2.91,0,0,1.74-1.29,1.82-2.91,1.44.74,3.43-.12,3.43-.12,0,0-.25-2.15-1.61-3.03Z"/>
        <path class="cls-22" d="M103.63,331.47c.68-.44.81-1.52.81-1.52,0,0-.99-.43-1.72-.06-.04-.81-.91-1.46-.91-1.46,0,0-.87.65-.91,1.46-.72-.37-1.72.06-1.72.06,0,0,.13,1.08.81,1.52-.68.44-.81,1.52-.81,1.52,0,0,.99.43,1.72.06.04.81.91,1.46.91,1.46,0,0,.87-.65.91-1.46.72.37,1.72-.06,1.72-.06,0,0-.13-1.08-.81-1.52Z"/>
      </g>
      <g>
        <path class="cls-30" d="M31.08,248.38c1.26.57,4.66,1.41,6.86.78.45-.11.9-.27,1.32-.48.15,2.97,2.67,5.61,4.35,6.93,1.51-1.1,4.3-4.17,4.35-6.93,2.41,1.31,6.29.51,8.18-.3-.05-.58-.42-2.13-.77-3.02-.56-1.5-1.51-3.2-3.06-4.21,2.35-1.55,3.44-4.68,3.83-7.23-1.89-.82-5.77-1.61-8.18-.3-.05-2.76-2.85-5.85-4.35-6.93-1.68,1.33-4.19,3.96-4.35,6.93-.42-.22-.87-.37-1.32-.48-2.21-.63-5.61.22-6.86.78.26,1.78.91,3.86,2.04,5.47.48.67,1.07,1.29,1.78,1.76-2.39,1.57-3.46,4.8-3.83,7.23Z"/>
        <path class="cls-31" d="M47.25,241.15c1.36-.88,1.61-3.03,1.61-3.03,0,0-1.99-.86-3.43-.12-.08-1.62-1.82-2.91-1.82-2.91,0,0-1.74,1.29-1.82,2.91-1.44-.74-3.43.12-3.43.12,0,0,.25,2.15,1.61,3.03-1.36.88-1.61,3.03-1.61,3.03,0,0,1.99.86,3.43.12.08,1.62,1.82,2.91,1.82,2.91,0,0,1.74-1.29,1.82-2.91,1.44.74,3.43-.12,3.43-.12,0,0-.25-2.15-1.61-3.03Z"/>
        <path class="cls-30" d="M45.43,241.15c.68-.44.81-1.52.81-1.52,0,0-.99-.43-1.72-.06-.04-.81-.91-1.46-.91-1.46,0,0-.87.65-.91,1.46-.72-.37-1.72.06-1.72.06,0,0,.13,1.08.81,1.52-.68.44-.81,1.52-.81,1.52,0,0,.99.43,1.72.06.04.81.91,1.46.91,1.46,0,0,.87-.65.91-1.46.72.37,1.72-.06,1.72-.06,0,0-.13-1.08-.81-1.52Z"/>
      </g>
      <g>
        <path class="cls-10" d="M177.34,271.51c-.5-.32-1.02-.62-1.54-.91,3.39-11.82,12.3-26.42,14.36-23.04,2.59,4.26-9.47,17.32-12.82,23.95Z"/>
        <g>
          <path class="cls-10" d="M155.07,251.91c-3.65-6.76-7.28-10.25-10.81-10.39-3.06-.08-6.78,2.7-8.74,4.38-3.05,2.62-5.75,5.87-7.24,8.68-1.42,2.69-1.63,4.84-.6,6.23.74,1.01,1.9,1.55,3.44,1.62,3.11.15,7.11-1.74,9.21-2.87.15-.08.3-.17.46-.26,1.82,4.81,7.39,11.12,10.51,14.65.2.23.49.36.79.36.26,0,.51-.09.7-.27.21-.19.34-.45.36-.73.02-.28-.08-.55-.26-.77-3.12-3.53-8.78-9.94-10.25-14.34.67-.42,1.32-.86,1.92-1.3.83,2.67,6.12,10.72,10.1,14.86,1.15-.73,2.36-1.39,3.6-1.97-3.6-5.54-10.29-16.81-10.62-17.11-.44-.39-1.11-.35-1.5.08-2.65,2.97-10.89,7.68-14.93,7.53-.87-.04-1.49-.3-1.83-.76-.49-.66-.2-2.15.77-3.98,2.68-5.06,10.12-11.94,13.91-11.94.04,0,.08,0,.11,0,2.69.1,5.81,3.31,9.03,9.28,3.09,5.72,5.45,12.46,6.58,15.97.14.44.55.73,1.01.73.11,0,.22-.02.33-.05.27-.09.49-.27.62-.53s.15-.54.06-.81c-1.16-3.58-3.57-10.45-6.73-16.32Z"/>
          <path class="cls-10" d="M198.51,236.53c-1.04-1.11-2.94-2.27-6.09-1.51-5,1.2-9.56,6.31-13.57,15.18-3.13,6.94-5.07,14.29-5.91,17.46-.16.62-.32,1.2-.36,1.32-.1.27-.09.55.03.81.12.26.33.45.59.55.27.1.55.09.81-.03.26-.12.45-.33.55-.59.08-.22.19-.61.44-1.59.81-3.08,2.72-10.31,5.77-17.07,3.72-8.25,7.8-12.95,12.13-13.99,1.73-.41,3.1-.11,4.05.9,1.72,1.83,2.08,5.87.88,9.82-.69,2.28-3.09,4.7-5.87,7.51-4.38,4.43-9.83,9.94-12.3,18.32-.17.56.16,1.15.72,1.32.1.03.2.04.3.04.47,0,.88-.31,1.02-.76,2.32-7.86,7.56-13.17,11.78-17.43,2.97-3,5.54-5.6,6.39-8.37,1.44-4.72.89-9.5-1.36-11.9Z"/>
        </g>
      </g>
    </g>
  </g>
</svg>