<?xml version="1.0" encoding="UTF-8"?>
<svg id="Layer_2" data-name="Layer 2" xmlns="http://www.w3.org/2000/svg" xmlns:xlink="http://www.w3.org/1999/xlink" viewBox="0 0 504.98 290.72">
  <defs>
    <style>
      .cls-1 {
        fill: none;
      }

      .cls-2 {
        fill: url(#linear-gradient-4);
      }

      .cls-3 {
        fill: url(#linear-gradient-3);
      }

      .cls-4 {
        fill: url(#linear-gradient-2);
      }

      .cls-5 {
        fill: url(#linear-gradient);
      }

      .cls-6 {
        clip-path: url(#clippath-1);
      }

      .cls-7 {
        fill: #fff;
      }

      .cls-8 {
        fill: #66bcb4;
      }

      .cls-9 {
        opacity: .2;
      }

      .cls-10 {
        clip-path: url(#clippath);
      }
    </style>
    <linearGradient id="linear-gradient" x1="98.98" y1="906.1" x2="494.98" y2="906.1" gradientTransform="translate(0 1193.32) scale(1 -1)" gradientUnits="userSpaceOnUse">
      <stop offset="0" stop-color="#66bcb4"/>
      <stop offset="1" stop-color="#66bcb4" stop-opacity="0"/>
    </linearGradient>
    <linearGradient id="linear-gradient-2" x1="2650.56" y1="2341.4" x2="2720.55" y2="2215" gradientTransform="translate(2417.91 -2601.63) rotate(90)" gradientUnits="userSpaceOnUse">
      <stop offset="0" stop-color="#4696ca"/>
      <stop offset="1" stop-color="#10585e"/>
    </linearGradient>
    <clipPath id="clippath">
      <polygon class="cls-1" points="181.63 11.6 97.63 11.6 55.63 83.87 97.63 156.15 181.63 156.15 223.63 83.87 181.63 11.6"/>
    </clipPath>
    <linearGradient id="linear-gradient-3" x1="243.63" y1="1108.41" x2="439.63" y2="1108.41" gradientTransform="translate(0 1192.28) scale(1 -1)" xlink:href="#linear-gradient"/>
    <linearGradient id="linear-gradient-4" x1="2821.28" y1="2396.07" x2="2862.73" y2="2321.22" xlink:href="#linear-gradient-2"/>
    <clipPath id="clippath-1">
      <polygon class="cls-1" points="84.09 197.55 34.35 197.55 9.47 240.34 34.35 283.15 84.09 283.15 108.96 240.34 84.09 197.55"/>
    </clipPath>
  </defs>
  <g id="Layer_1-2" data-name="Layer 1">
    <g>
      <path class="cls-7" d="M174.21,238.31c-.23,3.95-1.12,7.84-2.64,11.49-1.36,3.28-3.31,6.28-5.74,8.86-2.31,2.42-5.08,4.36-8.14,5.71-3.09,1.35-6.44,2.03-9.81,2-2.57.05-5.12-.47-7.47-1.5-2.12-.96-3.98-2.41-5.43-4.22-1.52-1.94-2.61-4.17-3.21-6.56-.7-2.76-.93-5.61-.69-8.45.23-3.95,1.13-7.82,2.66-11.47,1.36-3.28,3.31-6.29,5.74-8.89,2.29-2.43,5.05-4.38,8.11-5.73,3.07-1.34,6.4-2.03,9.75-2,2.59-.04,5.15.47,7.52,1.51,2.14.96,4.02,2.41,5.48,4.24,1.52,1.94,2.61,4.18,3.21,6.57.68,2.76.91,5.61.66,8.44ZM170.73,238.38c.21-2.51.03-5.04-.55-7.49-.48-2.06-1.38-4-2.66-5.68-1.2-1.55-2.76-2.79-4.54-3.61-1.95-.88-4.08-1.31-6.22-1.27-2.85-.02-5.67.58-8.26,1.76-2.61,1.18-4.94,2.88-6.86,5-2.09,2.35-3.74,5.06-4.87,8-1.3,3.35-2.07,6.88-2.28,10.47-.22,2.51-.03,5.04.55,7.49.48,2.05,1.39,3.99,2.66,5.67,1.21,1.54,2.77,2.78,4.55,3.6,1.95.87,4.07,1.31,6.2,1.27,2.87.02,5.71-.57,8.33-1.74,2.6-1.17,4.93-2.88,6.84-5,2.07-2.33,3.71-5.02,4.83-7.93,1.31-3.37,2.08-6.93,2.28-10.54Z"/>
      <path class="cls-7" d="M184.8,243.07c.96-1.7,2.09-3.3,3.35-4.78,1.14-1.33,2.42-2.53,3.83-3.57,1.22-.92,2.57-1.67,4-2.22,1.28-.49,2.63-.75,4-.76,1.27-.04,2.52.25,3.64.85,1,.57,1.8,1.43,2.29,2.47.59,1.25.91,2.62.94,4,.06,1.8-.09,3.59-.46,5.35l-4,21.5h-3.18l4-21.5c.6-3.2.56-5.65-.13-7.36-.69-1.72-2.15-2.57-4.38-2.57-1.35.03-2.67.37-3.87,1-1.43.72-2.75,1.64-3.91,2.74-1.39,1.29-2.63,2.73-3.7,4.29-1.24,1.78-2.31,3.68-3.2,5.66l-3.3,17.78h-3.18l6.38-33.73h1.45c.79,0,1.16.4,1.1,1.21l-1.67,9.64Z"/>
      <path class="cls-7" d="M212.64,265.89l9.34-49.17h3.15l-9.42,49.18h-3.07Z"/>
      <path class="cls-7" d="M236.42,232.26l-6.44,33.63h-3.15l6.44-33.63h3.15ZM239.69,220.72c-.02.4-.14.78-.33,1.13-.19.35-.43.66-.72.93-.29.27-.63.48-1,.64-.34.16-.71.24-1.08.24-.37,0-.73-.08-1.06-.24-.32-.15-.61-.37-.84-.64-.23-.28-.42-.59-.54-.93-.13-.36-.18-.75-.14-1.13.03-.4.14-.79.32-1.15.18-.37.41-.7.69-1,.27-.27.59-.5.94-.65.35-.16.72-.24,1.1-.24.35,0,.69.09,1,.24.33.15.63.37.88.64.27.29.46.63.58,1,.15.37.21.76.2,1.16Z"/>
      <path class="cls-7" d="M248.1,243.07c.96-1.7,2.09-3.3,3.36-4.78,1.12-1.33,2.39-2.53,3.78-3.57,1.22-.92,2.57-1.67,4-2.22,1.28-.49,2.63-.75,4-.76,1.27-.04,2.52.25,3.64.85,1,.57,1.8,1.43,2.29,2.47.59,1.25.91,2.62.94,4,.06,1.8-.09,3.59-.46,5.35l-4,21.5h-3.18l4-21.5c.6-3.2.56-5.65-.13-7.36-.69-1.72-2.15-2.57-4.38-2.57-1.35.03-2.67.37-3.87,1-1.43.72-2.75,1.64-3.91,2.74-1.39,1.29-2.63,2.73-3.7,4.29-1.23,1.79-2.31,3.68-3.2,5.66l-3.3,17.72h-3.18l6.38-33.73h1.45c.79,0,1.16.4,1.1,1.21l-1.63,9.7Z"/>
      <path class="cls-7" d="M300.98,259.64c-1.08,1.07-2.23,2.07-3.44,3-1.04.8-2.15,1.5-3.32,2.08-1.09.53-2.23.93-3.41,1.2-1.22.27-2.47.4-3.72.39-1.69.04-3.36-.28-4.92-.93-1.36-.59-2.56-1.5-3.48-2.66-.96-1.22-1.65-2.64-2-4.15-.42-1.8-.55-3.66-.39-5.5.12-1.72.41-3.43.86-5.1.45-1.7,1.07-3.36,1.85-4.94.77-1.57,1.7-3.05,2.77-4.42,1.04-1.35,2.26-2.55,3.62-3.58,1.32-1.02,2.79-1.83,4.36-2.41,1.6-.58,3.29-.88,5-.87,1.41-.04,2.8.19,4.12.69.99.39,1.89.97,2.65,1.72.65.63,1.15,1.41,1.45,2.27.25.72.36,1.49.32,2.25-.06.9-.25,1.79-.56,2.64-.33.89-.84,1.71-1.49,2.4-.79.83-1.71,1.54-2.71,2.1-1.36.75-2.79,1.35-4.27,1.81-2.01.62-4.06,1.12-6.14,1.5-2.37.45-5.15.85-8.33,1.18-.08.45-.15.92-.21,1.39s-.12.93-.15,1.39c-.24,3.35.34,6,1.73,7.87,1.39,1.87,3.61,2.76,6.68,2.76,2.05.02,4.07-.45,5.89-1.39.73-.37,1.43-.8,2.09-1.28.6-.45,1.14-.88,1.62-1.29.48-.4.89-.73,1.24-1,.26-.23.58-.36.92-.39.27,0,.53.12.69.34l.68.93ZM294.48,234.15c-1.73-.02-3.45.36-5,1.13-1.53.77-2.9,1.81-4.07,3.06-1.23,1.34-2.28,2.83-3.11,4.45-.86,1.67-1.53,3.43-2,5.25,2.88-.31,5.37-.68,7.47-1.1,1.81-.34,3.6-.78,5.37-1.31,1.26-.38,2.47-.88,3.62-1.51.82-.44,1.57-1,2.22-1.67.47-.5.84-1.09,1.08-1.73.21-.61.34-1.25.38-1.89.03-.52-.04-1.05-.21-1.54-.2-.57-.55-1.09-1-1.5-.54-.5-1.17-.88-1.86-1.13-.92-.35-1.9-.52-2.89-.51Z"/>
      <path class="cls-7" d="M357.46,265.89h-2.61c-.26.01-.52-.08-.72-.26-.17-.17-.29-.38-.33-.62l-2.43-14h-21.39l-7.84,14c-.14.25-.34.47-.59.62-.24.17-.53.26-.83.26h-2.56l27.2-47.83h3.35l8.75,47.83ZM350.98,248.55l-4.26-24.33c-.06-.41-.13-.86-.18-1.34s-.11-1-.16-1.57c-.27.56-.52,1.09-.77,1.57s-.48.94-.69,1.37l-13.59,24.3h19.65Z"/>
      <path class="cls-7" d="M383.7,263.02c-1.02.78-2.13,1.45-3.29,2-1.02.48-2.09.82-3.2,1-1.12.18-2.25.27-3.39.27-1.72.04-3.43-.3-5-1-1.34-.63-2.5-1.59-3.37-2.79-.9-1.28-1.52-2.73-1.83-4.26-.37-1.76-.48-3.57-.33-5.37.12-1.79.43-3.56.93-5.29.48-1.73,1.13-3.4,1.95-5,.78-1.53,1.72-2.97,2.81-4.3,1.05-1.3,2.25-2.46,3.59-3.45,1.28-.96,2.69-1.73,4.19-2.28,1.51-.56,3.1-.84,4.71-.83,1.01-.01,2.02.1,3,.32.83.2,1.64.5,2.39.91.7.39,1.35.88,1.92,1.44.58.58,1.11,1.21,1.56,1.89l-1,1.12c-.18.22-.45.36-.74.37-.23,0-.49-.18-.79-.54-.37-.43-.79-.82-1.24-1.17-.63-.48-1.32-.87-2.06-1.16-1.05-.4-2.16-.59-3.28-.55-1.9,0-3.77.53-5.39,1.53-1.76,1.06-3.31,2.44-4.55,4.08-1.37,1.81-2.47,3.81-3.25,5.94-.84,2.25-1.35,4.61-1.52,7-.12,1.45-.04,2.9.22,4.33.21,1.25.68,2.43,1.37,3.49.66.97,1.55,1.75,2.6,2.27,1.2.57,2.53.85,3.86.81,1.09.01,2.18-.12,3.24-.39.89-.25,1.76-.58,2.58-1,.7-.36,1.37-.79,2-1.27.58-.46,1.1-.89,1.56-1.27l1.16-1c.24-.22.54-.36.86-.39.27,0,.52.13.69.34l.64.88c-1.11,1.2-2.32,2.31-3.6,3.32Z"/>
      <path class="cls-7" d="M413.91,263.02c-1.02.78-2.12,1.45-3.28,2-1.02.48-2.09.81-3.2,1-1.12.18-2.26.27-3.4.27-1.72.05-3.43-.3-5-1-1.35-.62-2.51-1.59-3.37-2.79-.9-1.28-1.52-2.73-1.83-4.26-.37-1.76-.48-3.57-.34-5.37.27-3.58,1.25-7.07,2.88-10.27.79-1.55,1.74-3.01,2.84-4.36,1.05-1.29,2.26-2.45,3.59-3.45,1.28-.96,2.7-1.72,4.2-2.28,1.5-.56,3.1-.84,4.7-.83,1.01-.01,2.02.09,3,.32.83.2,1.64.5,2.39.91.69.41,1.33.9,1.89,1.48.58.58,1.11,1.21,1.56,1.89l-1,1.12c-.18.22-.45.36-.74.37-.22,0-.48-.18-.79-.54-.89-1.04-2.02-1.84-3.3-2.33-1.04-.4-2.15-.59-3.27-.55-1.91,0-3.77.53-5.4,1.53-1.76,1.06-3.3,2.44-4.54,4.08-1.38,1.81-2.47,3.81-3.25,5.94-.85,2.25-1.37,4.6-1.53,7-.11,1.45-.04,2.9.23,4.33.2,1.25.68,2.44,1.38,3.49.66.96,1.55,1.75,2.59,2.27,1.21.57,2.53.85,3.87.81,1.09.01,2.18-.12,3.23-.39.89-.24,1.76-.58,2.59-1,.71-.36,1.38-.78,2-1.27.59-.46,1.11-.89,1.56-1.27l1.17-1c.23-.22.53-.36.85-.39.27,0,.52.13.69.34l.65.88c-1.12,1.2-2.33,2.3-3.62,3.32Z"/>
      <path class="cls-7" d="M448.33,259.64c-1.08,1.07-2.22,2.07-3.43,3-1.04.8-2.16,1.5-3.33,2.08-1.09.53-2.23.94-3.41,1.2-1.22.27-2.46.4-3.71.39-1.69.04-3.36-.28-4.92-.93-1.36-.59-2.56-1.5-3.48-2.66-.96-1.22-1.65-2.64-2-4.15-.41-1.8-.54-3.66-.39-5.5.26-3.48,1.18-6.87,2.71-10,.77-1.57,1.7-3.05,2.78-4.42,1.04-1.34,2.26-2.55,3.61-3.58,1.33-1.01,2.8-1.83,4.36-2.41,1.6-.58,3.29-.88,5-.87,1.41-.04,2.81.19,4.13.69,1.02.38,1.95.96,2.73,1.72.62.63,1.1,1.39,1.38,2.23.25.72.35,1.49.31,2.25-.06.9-.24,1.79-.55,2.64-.34.89-.85,1.71-1.51,2.4-.8.83-1.71,1.54-2.72,2.1-1.36.75-2.79,1.35-4.27,1.81-2.01.62-4.06,1.13-6.14,1.5-2.37.45-5.15.85-8.32,1.18-.08.45-.15.92-.22,1.39s-.12.93-.15,1.39c-.23,3.35.34,6,1.73,7.87,1.39,1.87,3.62,2.76,6.68,2.76,1.1.01,2.19-.12,3.26-.39.91-.24,1.8-.57,2.64-1,.73-.37,1.42-.8,2.08-1.28.61-.45,1.15-.88,1.63-1.29s.89-.73,1.23-1c.26-.22.59-.36.93-.39.27,0,.52.12.68.34l.68.93ZM441.84,234.15c-1.73-.02-3.45.36-5,1.13-1.52.77-2.9,1.81-4.06,3.06-1.24,1.33-2.29,2.83-3.12,4.45-.85,1.67-1.52,3.43-2,5.25,2.88-.31,5.38-.68,7.48-1.1,1.81-.34,3.6-.78,5.36-1.31,1.26-.38,2.47-.88,3.62-1.51.81-.44,1.55-1.01,2.2-1.67.48-.51.86-1.12,1.1-1.78.21-.61.34-1.25.39-1.89.02-.52-.05-1.04-.21-1.54-.2-.57-.55-1.09-1-1.5-.54-.5-1.18-.88-1.87-1.13-.93-.33-1.91-.49-2.89-.46h0Z"/>
      <path class="cls-7" d="M477.54,236.38c-.15.29-.45.48-.78.48-.31-.05-.59-.2-.8-.43-.39-.35-.81-.66-1.25-.94-.62-.42-1.29-.75-2-1-2.09-.61-4.32-.56-6.38.15-1,.36-1.94.88-2.78,1.54-.78.62-1.44,1.38-1.95,2.23-.49.82-.78,1.74-.84,2.69-.09.81.07,1.62.47,2.33.41.65.96,1.21,1.6,1.64.72.48,1.5.88,2.31,1.2.87.34,1.76.67,2.69,1,.91.34,1.8.72,2.67,1.14.83.39,1.61.9,2.3,1.5.67.59,1.2,1.32,1.55,2.14.39.97.53,2.02.43,3.06-.1,1.46-.49,2.88-1.15,4.19-.67,1.36-1.59,2.58-2.72,3.6-1.17,1.07-2.53,1.92-4,2.52-1.62.65-3.35.97-5.09.95-1.86.06-3.7-.32-5.38-1.13-1.39-.74-2.61-1.76-3.59-3l.89-1.15c.21-.32.56-.53.95-.54.23,0,.5.18.81.54.39.44.83.84,1.3,1.2.66.5,1.4.91,2.18,1.2,1.1.39,2.27.58,3.44.54,1.27.02,2.53-.21,3.72-.66,1.08-.41,2.08-1.03,2.93-1.81.83-.75,1.5-1.65,2-2.65.5-1,.79-2.08.87-3.19.1-.86-.07-1.73-.47-2.5-.39-.69-.93-1.29-1.58-1.75-.72-.5-1.5-.92-2.32-1.23-.86-.34-1.76-.67-2.68-1-.91-.31-1.81-.67-2.68-1.08-.83-.37-1.6-.85-2.3-1.43-.68-.54-1.23-1.23-1.61-2.01-.4-.95-.55-1.98-.44-3,.11-1.3.49-2.56,1.12-3.7.66-1.22,1.54-2.31,2.59-3.21,1.12-.96,2.41-1.71,3.79-2.23,1.47-.56,3.04-.86,4.62-.86,1.66-.04,3.32.26,4.86.88,1.36.6,2.56,1.5,3.51,2.64l-.81,1.14Z"/>
      <path class="cls-7" d="M504.1,236.38c-.15.29-.44.47-.77.48-.31-.04-.59-.2-.8-.43-.39-.34-.81-.66-1.25-.94-.62-.42-1.29-.75-2-1-2.09-.61-4.32-.56-6.38.15-1,.36-1.94.88-2.78,1.54-.78.62-1.43,1.38-1.94,2.23-.49.82-.78,1.74-.85,2.69-.08.81.08,1.62.48,2.33.4.66.95,1.22,1.59,1.64.73.48,1.5.89,2.32,1.2.86.34,1.76.67,2.68,1s1.82.72,2.68,1.14c.83.39,1.6.9,2.29,1.5.67.59,1.2,1.32,1.56,2.14.39.97.53,2.02.43,3.06-.11,1.46-.5,2.88-1.16,4.19-.67,1.36-1.59,2.58-2.72,3.6-2.49,2.26-5.74,3.5-9.11,3.47-3.49.19-6.85-1.33-9-4.09l.89-1.15c.22-.34.6-.54,1-.54.22,0,.49.18.8.54.4.44.83.84,1.3,1.2.67.5,1.41.91,2.19,1.2,1.1.4,2.27.58,3.44.54,1.27.02,2.53-.21,3.71-.66,1.08-.41,2.08-1.03,2.93-1.81.82-.75,1.5-1.65,2-2.65.49-1,.78-2.08.86-3.19.1-.86-.07-1.73-.47-2.5-.39-.69-.93-1.29-1.58-1.75-.72-.5-1.49-.91-2.31-1.23-.87-.34-1.76-.67-2.69-1-.91-.31-1.81-.68-2.68-1.08-.83-.37-1.6-.85-2.3-1.43-.68-.56-1.23-1.26-1.6-2.05-.4-.95-.55-1.98-.43-3,.09-1.32.47-2.61,1.11-3.77.66-1.22,1.54-2.31,2.59-3.21,1.12-.96,2.41-1.71,3.79-2.23,1.49-.56,3.08-.84,4.67-.83,1.66-.04,3.31.26,4.85.88,1.37.62,2.59,1.54,3.54,2.71l-.88,1.11Z"/>
      <polygon class="cls-5" points="494.98 290.72 98.98 290.72 102.98 283.72 494.98 283.72 494.98 290.72"/>
    </g>
    <path class="cls-7" d="M259.01,140.54h-2.6c-.27.02-.53-.07-.73-.25-.17-.17-.29-.39-.33-.63l-2.43-14h-21.43l-7.84,14c-.13.26-.33.47-.58.63-.25.16-.53.25-.83.25h-2.61l27.21-47.82h3.34l8.83,47.82ZM252.48,123.2l-4.21-24.33c-.06-.41-.12-.85-.18-1.34s-.11-1-.16-1.57c-.26.57-.52,1.09-.77,1.57l-.68,1.37-13.6,24.3h19.6Z"/>
    <path class="cls-7" d="M285.25,137.67c-1.02.78-2.12,1.45-3.28,2-1.02.48-2.09.81-3.2,1-1.12.18-2.26.27-3.4.27-1.72.05-3.43-.29-5-1-1.35-.62-2.51-1.59-3.37-2.79-.9-1.27-1.53-2.72-1.83-4.25-.37-1.77-.48-3.58-.34-5.38.27-3.58,1.25-7.07,2.88-10.27.79-1.55,1.74-3.01,2.84-4.36,1.05-1.29,2.26-2.45,3.59-3.45,1.28-.96,2.7-1.72,4.2-2.28,1.5-.55,3.1-.84,4.7-.83,1.01-.01,2.02.09,3,.32.83.2,1.63.51,2.39.91.71.39,1.35.87,1.93,1.44.58.58,1.1,1.21,1.55,1.89l-1,1.12c-.18.22-.45.36-.74.37-.22,0-.49-.18-.79-.54-.37-.43-.78-.82-1.23-1.17-.64-.48-1.33-.87-2.07-1.16-1.04-.39-2.16-.58-3.27-.54-1.91,0-3.77.53-5.4,1.52-1.76,1.06-3.3,2.45-4.54,4.09-1.38,1.8-2.48,3.8-3.26,5.93-.84,2.25-1.35,4.61-1.52,7-.11,1.45-.04,2.9.22,4.33.22,1.23.69,2.4,1.39,3.44.66.96,1.55,1.75,2.59,2.27,1.21.57,2.53.85,3.87.81,1.09.01,2.18-.12,3.23-.39.89-.24,1.76-.58,2.59-1,.71-.35,1.38-.78,2-1.27.59-.46,1.11-.88,1.56-1.27l1.17-1c.23-.22.53-.36.85-.39.27.02.51.14.69.34l.65.88c-1.13,1.23-2.35,2.37-3.65,3.41Z"/>
    <path class="cls-7" d="M315.47,137.67c-1.02.78-2.13,1.45-3.29,2-1.02.48-2.09.81-3.2,1-1.11.2-2.23.31-3.35.33-1.72.05-3.43-.29-5-1-1.34-.63-2.5-1.59-3.37-2.79-.9-1.28-1.52-2.72-1.83-4.25-.37-1.77-.48-3.58-.33-5.38.12-1.79.43-3.56.92-5.29.5-1.73,1.17-3.4,2-5,.79-1.55,1.74-3.01,2.84-4.36,1.05-1.29,2.25-2.45,3.58-3.45,1.28-.96,2.7-1.72,4.2-2.28,1.51-.55,3.1-.84,4.71-.83,1.01-.01,2.02.1,3,.32.83.2,1.63.51,2.38.91.71.39,1.35.87,1.93,1.44.58.58,1.1,1.21,1.56,1.89l-1,1.12c-.18.22-.45.36-.73.37-.23,0-.49-.18-.79-.54-.38-.43-.79-.82-1.24-1.17-.63-.48-1.33-.87-2.06-1.16-1.05-.39-2.16-.58-3.28-.54-1.9,0-3.77.53-5.39,1.52-1.76,1.06-3.31,2.45-4.55,4.09-1.37,1.8-2.47,3.8-3.25,5.93-.85,2.25-1.36,4.6-1.52,7-.12,1.45-.04,2.9.22,4.33.21,1.23.68,2.4,1.38,3.44.66.96,1.55,1.75,2.59,2.27,1.21.57,2.53.85,3.87.81,1.07,0,2.13-.13,3.16-.4.89-.25,1.76-.58,2.58-1,.71-.36,1.38-.78,2-1.27.58-.46,1.1-.88,1.56-1.27l1.16-1c.23-.22.54-.36.86-.39.26.01.51.13.68.34l.65.88c-1.13,1.21-2.35,2.34-3.65,3.38Z"/>
    <path class="cls-7" d="M349.89,134.29c-1.08,1.07-2.23,2.07-3.44,3-1.04.8-2.15,1.5-3.32,2.08-1.09.53-2.24.94-3.42,1.2-1.22.27-2.46.4-3.71.39-1.69.04-3.36-.28-4.92-.93-1.36-.58-2.55-1.49-3.48-2.64-.96-1.22-1.65-2.64-2-4.15-.42-1.8-.56-3.66-.4-5.5.13-1.72.42-3.43.87-5.1.45-1.7,1.07-3.35,1.85-4.93.77-1.57,1.69-3.05,2.77-4.43,1.05-1.34,2.26-2.55,3.62-3.58,1.32-1.01,2.79-1.82,4.35-2.4,1.6-.59,3.29-.89,5-.88,1.41-.04,2.81.19,4.13.69.99.39,1.9.98,2.65,1.73.63.63,1.1,1.39,1.38,2.23.25.72.36,1.48.32,2.24-.04.92-.21,1.82-.51,2.69-.33.88-.83,1.68-1.48,2.36-.79.84-1.71,1.55-2.72,2.1-1.35.75-2.78,1.36-4.26,1.81-2.01.62-4.07,1.12-6.14,1.5-2.38.45-5.15.85-8.33,1.19-.08.45-.15.91-.22,1.38s-.11.94-.14,1.39c-.24,3.35.34,6,1.73,7.87,1.39,1.87,3.61,2.84,6.68,2.84,1.1.01,2.19-.12,3.25-.39.91-.24,1.8-.57,2.64-1,.73-.37,1.42-.81,2.08-1.29.61-.45,1.15-.88,1.63-1.28s.89-.74,1.24-1c.26-.23.58-.36.92-.39.27,0,.53.12.69.34l.69.86ZM343.39,108.8c-1.73-.03-3.45.37-5,1.14-1.52.75-2.9,1.77-4.07,3-1.24,1.33-2.29,2.83-3.12,4.45-.85,1.67-1.52,3.43-2,5.25,2.89-.31,5.38-.68,7.48-1.09,1.81-.35,3.6-.79,5.37-1.32,1.26-.37,2.47-.87,3.62-1.51.81-.44,1.55-1,2.19-1.67.49-.51.86-1.11,1.11-1.77.21-.61.34-1.25.38-1.9.03-.52-.04-1.04-.21-1.53-.2-.58-.55-1.1-1-1.51-.54-.49-1.18-.88-1.87-1.13-.93-.31-1.9-.45-2.88-.41Z"/>
    <path class="cls-7" d="M379.09,111c-.15.29-.44.47-.77.48-.31-.04-.59-.19-.8-.42-.39-.37-.81-.7-1.26-1-.62-.42-1.29-.76-2-1-2.09-.61-4.32-.56-6.38.15-1,.36-1.94.88-2.78,1.54-.77.62-1.43,1.38-1.94,2.23-.49.82-.78,1.74-.85,2.69-.09.81.08,1.62.48,2.33.4.66.95,1.22,1.59,1.64.73.48,1.5.89,2.32,1.2.86.34,1.76.68,2.68,1,.91.33,1.81.71,2.68,1.13.83.39,1.6.9,2.29,1.5.67.59,1.21,1.33,1.56,2.15.39.97.53,2.02.42,3.06-.1,1.46-.5,2.88-1.15,4.19-.68,1.36-1.6,2.58-2.72,3.6-1.18,1.06-2.53,1.91-4,2.51-1.61.67-3.34,1.01-5.08,1-3.49.19-6.85-1.33-9-4.09l.89-1.15c.21-.32.56-.52.95-.54.23,0,.5.18.81.54.4.44.83.84,1.3,1.2.67.5,1.4.91,2.18,1.2,1.11.39,2.28.58,3.45.54,1.27.02,2.53-.21,3.71-.66,1.08-.41,2.07-1.02,2.93-1.8.82-.76,1.5-1.66,2-2.66.49-1,.78-2.08.86-3.19.09-.86-.07-1.73-.47-2.5-.39-.69-.93-1.28-1.58-1.74-.72-.51-1.49-.92-2.31-1.24-.87-.34-1.77-.67-2.69-1s-1.82-.69-2.68-1.09c-.83-.37-1.6-.85-2.3-1.43-.67-.56-1.2-1.27-1.56-2.06-.4-.95-.55-1.98-.43-3,.1-1.32.47-2.6,1.1-3.77.67-1.22,1.55-2.31,2.6-3.21,1.12-.96,2.4-1.71,3.78-2.23,1.5-.56,3.08-.84,4.68-.83,1.66-.04,3.31.26,4.85.88,1.36.6,2.56,1.5,3.52,2.64l-.88,1.21Z"/>
    <path class="cls-7" d="M405.63,111c-.15.29-.45.47-.78.48-.31-.04-.59-.19-.8-.42-.39-.37-.81-.7-1.25-1-.62-.42-1.29-.75-2-1-2.09-.61-4.32-.56-6.38.15-1,.36-1.94.88-2.78,1.54-.78.62-1.44,1.38-1.95,2.23-.49.82-.78,1.74-.85,2.69-.08.81.08,1.62.48,2.33.41.65.95,1.21,1.59,1.64.73.48,1.51.89,2.32,1.2.87.34,1.76.68,2.68,1,.91.33,1.81.7,2.68,1.13.83.39,1.6.9,2.29,1.5.67.59,1.21,1.33,1.56,2.15.39.97.54,2.02.43,3.06-.08,1.5-.47,2.97-1.14,4.32-.67,1.36-1.59,2.58-2.71,3.6-1.18,1.06-2.53,1.91-4,2.51-1.61.67-3.34,1.01-5.09,1-1.86.06-3.7-.32-5.38-1.13-1.39-.74-2.61-1.76-3.59-3l.89-1.15c.21-.32.56-.53.95-.54.22,0,.49.18.81.54.39.44.83.84,1.3,1.2.66.5,1.4.91,2.18,1.2,1.1.39,2.27.58,3.44.54,1.27.02,2.53-.21,3.71-.66,2.15-.8,3.92-2.4,4.93-4.46.5-.99.79-2.08.87-3.19.09-.86-.07-1.73-.47-2.5-.39-.69-.94-1.29-1.59-1.74-.73-.51-1.52-.92-2.35-1.22-.87-.34-1.76-.67-2.68-1s-1.82-.69-2.68-1.09c-.83-.37-1.6-.85-2.3-1.43-.67-.56-1.2-1.27-1.57-2.06-.39-.95-.54-1.98-.43-3,.1-1.32.47-2.61,1.11-3.77.66-1.22,1.54-2.31,2.59-3.21,1.12-.96,2.41-1.71,3.79-2.23,1.49-.56,3.08-.84,4.67-.83,1.66-.04,3.32.26,4.86.88,1.36.6,2.56,1.5,3.51,2.64l-.87,1.1Z"/>
    <path class="cls-7" d="M276.86,43.77c-.23,3.95-1.12,7.84-2.64,11.49-1.36,3.27-3.31,6.27-5.74,8.85-2.31,2.42-5.08,4.36-8.14,5.71-3.09,1.35-6.44,2.03-9.81,2-2.57.05-5.12-.47-7.47-1.5-2.11-.96-3.97-2.4-5.43-4.21-1.52-1.94-2.61-4.17-3.21-6.56-.7-2.76-.93-5.61-.69-8.45.23-3.95,1.13-7.82,2.66-11.47,1.36-3.28,3.31-6.3,5.74-8.89,2.28-2.43,5.03-4.38,8.08-5.74,3.07-1.34,6.4-2.03,9.75-2,2.59-.05,5.15.47,7.52,1.51,2.14.96,4.02,2.41,5.48,4.24,1.52,1.94,2.61,4.18,3.21,6.57.7,2.76.93,5.61.69,8.45ZM273.38,43.83c.21-2.51.03-5.03-.55-7.48-.48-2.06-1.38-4-2.66-5.68-1.2-1.55-2.76-2.79-4.54-3.62-1.96-.87-4.08-1.31-6.22-1.27-2.85-.01-5.67.59-8.26,1.76-2.61,1.18-4.94,2.88-6.86,5-2.08,2.34-3.73,5.02-4.87,7.94-1.31,3.36-2.09,6.91-2.3,10.52-.22,2.51-.03,5.04.55,7.49.49,2.05,1.4,3.98,2.68,5.66,1.21,1.54,2.77,2.77,4.55,3.59,1.95.88,4.06,1.31,6.2,1.27,5.8.05,11.33-2.41,15.17-6.76,2.07-2.33,3.71-5.01,4.83-7.92,1.3-3.36,2.07-6.9,2.28-10.5Z"/>
    <path class="cls-7" d="M287.45,48.53c.96-1.7,2.09-3.3,3.35-4.78,1.14-1.33,2.43-2.53,3.83-3.57,1.23-.92,2.57-1.66,4-2.21,1.28-.5,2.63-.75,4-.76,1.27-.04,2.52.25,3.64.84.99.58,1.79,1.44,2.29,2.47.59,1.25.91,2.62.94,4,.06,1.8-.09,3.6-.46,5.36l-4,21.49h-3.18l4-21.49c.6-3.2.56-5.66-.13-7.37s-2.15-2.57-4.38-2.57c-1.35.03-2.68.37-3.87,1-1.43.72-2.75,1.64-3.91,2.73-1.38,1.3-2.62,2.74-3.7,4.3-1.24,1.78-2.31,3.68-3.2,5.66l-3.3,17.77h-3.18l6.38-33.73h1.45c.79,0,1.16.41,1.1,1.22l-1.67,9.64Z"/>
    <path class="cls-7" d="M315.29,71.34l9.34-49.17h3.15l-9.42,49.17h-3.07Z"/>
    <path class="cls-7" d="M339.07,37.72l-6.44,33.62h-3.15l6.44-33.62h3.15ZM342.34,26.12c-.02.4-.13.79-.33,1.14-.19.35-.43.66-.72.93-.29.27-.63.48-1,.64-.34.15-.71.23-1.08.23-.37,0-.73-.07-1.06-.23-.32-.15-.61-.37-.84-.64-.23-.28-.41-.59-.54-.93-.14-.36-.19-.75-.16-1.14.03-.4.14-.79.32-1.15.17-.37.41-.71.69-1,.27-.27.59-.5.94-.66.35-.16.72-.23,1.1-.23.36,0,.72.08,1.05.23.35.16.66.4.92.69.26.29.46.63.58,1,.12.36.16.74.13,1.12Z"/>
    <path class="cls-7" d="M350.75,48.53c.96-1.7,2.09-3.3,3.35-4.78,1.13-1.33,2.4-2.52,3.79-3.57,1.23-.92,2.57-1.66,4-2.21,1.28-.5,2.63-.75,4-.76,1.27-.04,2.52.25,3.64.84.99.57,1.79,1.44,2.29,2.47.59,1.25.91,2.62.94,4,.07,1.8-.09,3.6-.46,5.36l-4,21.49h-3.18l4-21.49c.6-3.2.56-5.66-.13-7.37s-2.14-2.58-4.36-2.6c-1.35.03-2.67.37-3.87,1-1.43.72-2.75,1.64-3.91,2.73-1.38,1.3-2.62,2.74-3.7,4.3-1.24,1.78-2.31,3.68-3.2,5.66l-3.32,17.74h-3.18l6.38-33.73h1.45c.79,0,1.16.41,1.1,1.22l-1.63,9.7Z"/>
    <path class="cls-7" d="M403.63,65.09c-1.08,1.07-2.23,2.07-3.44,3-1.04.8-2.15,1.49-3.32,2.07-1.08.54-2.23.94-3.41,1.21-1.22.26-2.47.38-3.72.38-1.69.03-3.36-.28-4.92-.92-1.36-.58-2.55-1.49-3.48-2.64-.96-1.22-1.65-2.64-2-4.16-.42-1.8-.56-3.65-.4-5.49.13-1.72.42-3.43.87-5.1.45-1.7,1.07-3.36,1.85-4.94.77-1.57,1.7-3.05,2.77-4.43,1.05-1.34,2.26-2.55,3.62-3.58,1.33-1.01,2.8-1.82,4.36-2.4,1.6-.59,3.29-.88,5-.88,1.41-.04,2.81.19,4.12.7.99.38,1.9.97,2.65,1.72.65.63,1.15,1.4,1.45,2.26.25.72.36,1.49.32,2.25-.06.9-.25,1.79-.56,2.63-.33.88-.83,1.69-1.48,2.37-.8.83-1.71,1.54-2.72,2.1-1.35.75-2.78,1.35-4.26,1.8-2.01.63-4.06,1.14-6.14,1.51-2.37.45-5.15.85-8.33,1.18-.08.45-.15.91-.21,1.39s-.12.93-.15,1.38c-.24,3.36.34,6,1.73,7.88s3.61,2.84,6.68,2.84c2.05.02,4.07-.45,5.89-1.39.73-.37,1.43-.8,2.09-1.28.6-.46,1.14-.88,1.62-1.29s.89-.74,1.24-1c.26-.22.58-.35.92-.38.27,0,.52.12.69.33l.67.88ZM397.13,39.61c-1.73-.02-3.45.36-5,1.13-1.53.77-2.9,1.81-4.07,3.06-1.23,1.33-2.28,2.83-3.11,4.44-.86,1.67-1.53,3.44-2,5.26,2.88-.32,5.37-.68,7.47-1.1,1.81-.34,3.61-.78,5.37-1.32,1.26-.37,2.47-.87,3.62-1.5.82-.44,1.57-1,2.22-1.67.49-.51.87-1.12,1.11-1.78.21-.61.34-1.25.38-1.89.03-.52-.04-1.05-.21-1.54-.2-.58-.54-1.1-1-1.5-.54-.5-1.17-.88-1.86-1.13-.94-.33-1.93-.49-2.92-.46Z"/>
    <path class="cls-4" d="M55.63,83.87l42,72.28h84l42-72.28L181.63,11.6h-84l-42,72.27Z"/>
    <path class="cls-8" d="M39.63,83.87L89.63,0h100l50,83.87-50,83.87h-100l-50-83.87ZM93.22,6.25l-46.32,77.62,46.32,77.63h92.82l46.32-77.63L186.04,6.25h-92.82Z"/>
    <g class="cls-9">
      <g class="cls-10">
        <g>
          <path class="cls-7" d="M135.42,164.89c.57-3.43,4-2.37,6-3.6-.21-2.71-2.56-3.56-3.8-5.21-3.52-4.7-3-6.57,2-9.63,1-.62,3.26.22,3.12-2.95-1.11-1.72-5.56,0-5.86-3.66,3.2-1,6.18,2.33,8.74,1.25,3.3-1.39,7.12-2.29,9.5-1,3.2,1.79,6.1.43,10,1.64l3.4,4h4.63c.73,3.35,2.74,4.77,6.09,4.36,1-.12,2,0,1.86,1.46-1.9,1.95-4.14,3.53-6.62,4.66-5.2,2.08-10,5-15.74,5.83-1.28.18-3.64.59-4.17,2.77l-19.15.08Z"/>
          <path class="cls-7" d="M136.9,139.84h-3.69c-1.09-2-1.52-4.39-4.57-4.64-2.89-.23-3.33-4.22-6.9-4.46-2.42-.16-4.56-2.94-7-4.09-1.89-.88-2.74-2.67-4.3-3.72-.4-2.76,1.17-6-2.1-8-1,.31-1.53,1.89-3,1.31-2.81-4.7-4.61-9.93-5.27-15.37-.07-.48.19-1.26,0-1.42-4.81-3.45-2.44-8.45-2.95-12.77-.07-1.2-.07-2.39,0-3.59,1.59-1.42,2.88-3.15,3.78-5.09.58-1.44,1.13-3,.25-4-2.09-2.19-.93-4.64-1-6.93-.07-1.78-1.25-3.14-.39-5.5,1.18-3.24.3-7.23.3-10.69l-7.14-7.06c-2.39,2-5.42,1.93-8.48,1.5-.84-.48-.51-1.28-.62-2,1.55-1.74,3.73-.12,5.92-1.3v-8.31h5.89c1.02.04,1.51-.45,1.47-1.47v-2.7c4.25,1.06,6.27-4.95,11.6-2.66,2.8,3.22,4.31,8.07,6.67,12.61h4.88l7.14,8.2q.4-4.49-2.53-8.53c2.9-2,5.66-3.68,9.09-1,0,1,.45,1.52,1.47,1.48,0,1.63-.28,3.4,2.35,3,.69-.06,1.38-.06,2.07,0-.89,3.77-.93,5.56-.15,8.28-1,1.42-2.9-.26-4,1,.83,2.54,3,3.25,4.91,2.25,1.82-.84,3.19-2.42,3.77-4.34-.29-2.06-3.94-2.42-2.86-5.22,2.39-1.3,4.12-.36,5.76,1.84-.97,4.44.54,9.05,3.95,12.06,2.07-1.82,3.13-3.8.64-6-1.82-1.63-2.59-3.31-1-5.34,2.8-.92,1.47,2.52,3.16,2.67,1-.77.33-1.84.52-2.74h5.43c1.43,3.44,5,5.06,7.45,7.71s3.34,7,7.84,7.6c0,3.09-4.06,4.18-3.37,7.7.21,1-2.06,2.57-5.5,1.6-1.15-.13-.72.44-.67.4.65-.4,2.27.89,2-.62-.24-1.18-1.69-1.13-1.29.22,1.05,1.73,1.55,3.73,1.42,5.75,2.4,1.64,3.13-1.37,5.29-.75,3,2.16,2.91,7.91,8,8.71-.22,1.51,2.47,1.94,1.36,3.81-3.64,1.67-6.52,4.65-10.18,5.72-.2,4.06,4.41.54,4.43,4.25-3.51,3.69-8.54,1.92-12.87,2.61-.75,5.37-9.59,4.61-7.86,11.16-3.9,1.74-7.78,2.67-10.08,5.44-.68,2.25,2.54,3,1,4.95-1.1.71-2.29.31-3.46.26-1.31-5.24-3.36-6.92-8.5-7.28-2.06-.14-4,.43-6.16-1.21-2.16-1.64-4.21,1.12-6.58,1.83.09.93.09,1.86,0,2.79-.23,1.1-1.9,1.59-1.39,3.11,1.67,1.31,1.37,4,3.58,5.18,1.72-.09,3.66.83,5.34-.72,1.46-1.35,3.26-.38,4.89-.58.25,0,.59.62.46.48,1.24,2.25-1.68,2.58-1,4.29q5.16,3.27,2.78,8.33ZM147.19,97.27c.28.83-.58,2.2,1.33,2.88,1.3-.25,2.23-1.23,3.3-2.88-1.57.04-3.15-.02-4.71-.18,1-3.78-1.29-5.89-4.19-7.29-1.7-.82-3.24.4-4.23,1.87-.32.49-.19,1.28-.25,1.78,1.2,1.57,3-.17,4.19,1.27.32.7-.08,1.84,1,2.37,1.19-.03,2.38.03,3.56.18ZM152.63,67.14c-3.24-4.51-6.47-2.44-9.1-.82-2.89,1.76-5.24,4.46-3.2,8.44,4.4,3.8,10.73,5.65,12.3,12.24.17.47.53.83,1,1,.79.09,1.59.09,2.38,0,0-1.07-.05-2,0-2.92s-.38-2,.63-2.7c.85-.14,2.13.13,2.25-1.1.3-1.17.1-2.42-.57-3.43-.71-.91.77-6.82,1.74-7.53,2.16,1.11,3.39-.58,4.65-1.91-1-2.67-3.85-2-5.87-2.9,1.26-1.75,3.09-.17,4-1.12l1.79-3.7c-1.08-1.27-2.93.42-4-1-.12-2.68-.22-5.38-5.16-5.24,3.33,5.22-3.84,6.98-2.84,12.69ZM133.77,52.24c-.42-2.81-3.1-2.83-5.53-3.16.39,2.81,3.09,2.84,5.53,3.16ZM142.06,101.53c.83-.53,1.07-1.63.54-2.46-.14-.22-.32-.4-.54-.54-.83.53-1.07,1.63-.54,2.46.14.22.32.4.54.54Z"/>
          <path class="cls-7" d="M151.63,33.71c.91-3.37,3.24-5.76,6.47-5.81,2.48,0,5.25-1.1,7.51,1.23.47.48,1.85.07,3,.07,1.53-.92.58-3.82,3.86-4.1,2.41,2.61,7.88.67,10.45,6.21,1.91,4.12,6.63,6.93,10,10.28-.68,2.24.69,3.72,1.44,5.39q0,4.15,2.95,4.42c-1.3,3.88-2.12,8-4.74,11.27-1.47,1.82-1.57,3.26-.3,5.08s.56,3.62.34,5.61h-5.29c-2.69-5-8.07-8.84-5.92-15.7-3.19-.18-3.13-1.84-3.41-3.9-.25-1.9-2-3.56-2.75-5.45s-2.7-2.69-3.61-4.31h-4.57c-1.92-1.55-2.63-3.82-3.67-5.88,4-1.45,3.15-4.33,2-7.36.78,3.45-4.57,3.82-3.49,7.36-2.2.13-1.25,1.83-1.47,2.95h-5.42q-.73-3.89-3.38-7.36Z"/>
          <path class="cls-7" d="M204.7,129.52c1-5.2,4-9.56,6.24-14.21,3.34-7,6.1-13.88,5.63-21.82-.14-2.46-.3-4.86,1.14-7.55,1.87-3.51-.46-7.93-3.91-9.88v-12c1.7,3,2.88,5.5,5.64,6.48v21.15c0,8.19-2.16,15.76-5.17,23.38-2.11,4.98-4.57,9.81-7.38,14.43l-2.19.02Z"/>
          <path class="cls-7" d="M95.63,21.92c-.89-.17-1.91.42-2.66-.43-.62-.91-.39-2.16.52-2.78.13-.09.28-.16.43-.22,4.3-2.3,7.82-6.57,13.5-5.45.19,1.45-.38,2.89-1.51,3.82-2.28,2.41-5.39,4.14-6.34,7.73-1.43.07-3.31,1.55-3.94-1.2.4-.16,1.11-.25,1.17-.49.2-.9-.46-1.03-1.17-.98Z"/>
          <path class="cls-7" d="M216.49,60.24l-4.42-2.94c-.71-4.7-2.85-8.88-5-13-.56-.99-.86-2.1-.87-3.24h2.12c3.57,4.76,4.07,11.07,8.12,15.6.57.7.05,2.34.05,3.58Z"/>
          <path class="cls-7" d="M205.96,56v5.3c-2.88,1-4.71.14-5.77-2.58.96-2.61,2.84-3.37,5.77-2.72Z"/>
          <path class="cls-7" d="M203.22,36.66q2.95.27,2.95,4.42c-2.33-.58-3.18-2.08-2.95-4.42Z"/>
          <path class="cls-7" d="M148.69,33.71c.11,1.4-.88,1.63-1.84,1.44-1.78-.34-.91-1.87-1.11-2.91l2.95,1.47Z"/>
          <path class="cls-7" d="M203.22,132.47c.23-1.12-.73-2.83,1.48-2.95-.22,1.12.73,2.82-1.48,2.95Z"/>
          <path class="cls-7" d="M107.42,13.07c-.17-.52.11-1.09.64-1.26.08-.03.16-.04.24-.05.11,0,.46.32.43.44-.04.55-.53.96-1.08.92-.08,0-.16-.02-.23-.05Z"/>
          <path class="cls-7" d="M152.69,133.2c2.13-1.03,4.61-1.03,6.74,0-2.13,1.04-4.61,1.04-6.74,0Z"/>
          <path class="cls-7" d="M140.15,127.66c1.21-1.71,2.53-.59,3.87-.75-1.12,1.67-2.57.74-3.87.75Z"/>
          <path class="cls-7" d="M147.21,129.52c2-.09,3.73,0,2.54,2.84-1.27-.71-2.32-1.42-2.54-2.84Z"/>
          <path class="cls-7" d="M147.21,129.51c-.52.17-1.09-.11-1.26-.64-.02-.08-.04-.15-.05-.23,0-.11.32-.46.44-.43.55.05.96.53.91,1.08,0,.07-.02.15-.04.22Z"/>
        </g>
      </g>
    </g>
    <polygon class="cls-3" points="439.63 87.37 243.63 87.37 245.63 83.87 243.63 80.37 439.63 80.37 439.63 87.37"/>
    <path class="cls-7" d="M181.78,72.54c0-2.91-.32-5.8-.96-8.61l-.38-1.66c-.25-1.08-1.2-1.84-2.31-1.84h-1.7c-5.08,0-17.87.06-31.41.13-14.32.07-29.13.14-35.33.14h-1.72c-1.11,0-2.08.77-2.31,1.86l-.37,1.68c-.59,2.71-.89,5.51-.89,8.3,0,13.1,6.55,24.68,16.53,31.69l-6.18,15.49c-.41-.04-.83-.07-1.26-.07-6.42,0-11.63,5.21-11.63,11.63s5.21,11.63,11.63,11.63,11.63-5.21,11.63-11.63c0-.71-.07-1.4-.2-2.07h37.99l3.97,10.42c.27.79.76,1.49,1.42,2,.72.53,1.6.81,2.5.77h8.93l-15.04-37.76c10.3-6.96,17.09-18.74,17.09-32.08ZM113.39,72.54c0-.95.05-1.9.14-2.85,7.37-.02,19.62-.08,31.53-.14,10.88-.05,21.27-.1,27.55-.12.11,1.03.16,2.07.16,3.1,0,16.37-13.32,29.69-29.69,29.69s-29.69-13.32-29.69-29.69ZM113.48,136.36c-2.8,0-5.07-2.27-5.07-5.07s2.27-5.07,5.07-5.07,5.07,2.27,5.07,5.07-2.27,5.07-5.07,5.07ZM156.82,113.22l3.15,8.27.44,1.15h-35.29l5.19-13.58c4.01,1.41,8.31,2.18,12.79,2.18s8.37-.7,12.21-1.98l1.52,3.97Z"/>
    <path class="cls-7" d="M127.78,57c-1.78,0-3.3-1.35-3.48-3.16-.26-2.59-1.12-7.48-2.34-9.58-.78-1.34-1.67-1.98-3.03-2.96-1.26-.91-2.82-2.03-4.45-3.9-3.89-4.46-3.71-10.79-3.67-11.49.09-1.93,1.73-3.44,3.66-3.33,1.93.09,3.41,1.72,3.33,3.65-.04,1.16.23,4.59,1.96,6.58,1.1,1.26,2.15,2.02,3.26,2.82,1.62,1.17,3.45,2.49,4.98,5.11,2.39,4.1,3.18,11.58,3.26,12.42.19,1.92-1.22,3.63-3.14,3.82-.12.01-.23.02-.35.02Z"/>
    <path class="cls-7" d="M146.97,57c-1.78,0-3.3-1.35-3.48-3.16-.26-2.59-1.12-7.48-2.34-9.58-.78-1.34-1.67-1.98-3.03-2.96-1.26-.91-2.82-2.03-4.45-3.9-3.89-4.46-3.71-10.79-3.67-11.49.09-1.93,1.73-3.44,3.66-3.33,1.93.09,3.41,1.72,3.33,3.65-.04,1.16.23,4.59,1.96,6.58,1.1,1.26,2.15,2.02,3.26,2.82,1.62,1.17,3.45,2.49,4.98,5.11,2.39,4.1,3.18,11.58,3.26,12.42.19,1.92-1.22,3.63-3.14,3.82-.12.01-.23.02-.35.02Z"/>
    <path class="cls-7" d="M166.11,57c-1.78,0-3.3-1.35-3.48-3.16-.26-2.59-1.12-7.48-2.34-9.58-.78-1.34-1.67-1.98-3.03-2.96-1.26-.91-2.82-2.03-4.45-3.9-3.89-4.46-3.71-10.79-3.67-11.49.09-1.93,1.72-3.44,3.66-3.33,1.93.09,3.41,1.72,3.33,3.65-.04,1.16.23,4.59,1.96,6.58,1.1,1.26,2.15,2.02,3.26,2.82,1.62,1.17,3.45,2.49,4.98,5.11,2.39,4.1,3.18,11.58,3.26,12.42.19,1.92-1.22,3.63-3.14,3.82-.12.01-.23.02-.35.02Z"/>
    <g>
      <path class="cls-2" d="M9.47,240.34l24.87,42.8h49.74l24.87-42.8-24.87-42.8h-49.74l-24.87,42.8Z"/>
      <path class="cls-8" d="M0,240.34l29.61-49.67h59.22l29.61,49.67-29.61,49.67H29.61L0,240.34ZM31.73,194.38l-27.43,45.96,27.43,45.97h54.96l27.43-45.97-27.43-45.96H31.73Z"/>
      <g class="cls-9">
        <g class="cls-6">
          <g>
            <path class="cls-7" d="M56.72,288.32c.34-2.03,2.37-1.4,3.55-2.13-.12-1.6-1.52-2.11-2.25-3.09-2.08-2.78-1.78-3.89,1.18-5.7.59-.37,1.93.13,1.85-1.75-.66-1.02-3.29,0-3.47-2.17,1.89-.59,3.66,1.38,5.18.74,1.95-.82,4.22-1.36,5.63-.59,1.89,1.06,3.61.25,5.92.97l2.01,2.37h2.74c.43,1.98,1.62,2.82,3.61,2.58.59-.07,1.18,0,1.1.86-1.12,1.16-2.45,2.09-3.92,2.76-3.08,1.23-5.92,2.96-9.32,3.45-.76.11-2.16.35-2.47,1.64l-11.34.05Z"/>
            <path class="cls-7" d="M57.6,273.49h-2.19c-.65-1.18-.9-2.6-2.71-2.75-1.71-.14-1.97-2.5-4.09-2.64-1.43-.09-2.7-1.74-4.15-2.42-1.12-.52-1.62-1.58-2.55-2.2-.24-1.63.69-3.55-1.24-4.74-.59.18-.91,1.12-1.78.78-1.67-2.78-2.73-5.88-3.12-9.1-.04-.28.11-.75,0-.84-2.85-2.04-1.44-5-1.75-7.56-.04-.71-.04-1.42,0-2.13.94-.84,1.7-1.87,2.24-3.01.34-.85.67-1.78.15-2.37-1.24-1.3-.55-2.75-.59-4.1-.04-1.05-.74-1.86-.23-3.26.7-1.92.18-4.28.18-6.33l-4.23-4.18c-1.42,1.18-3.21,1.14-5.02.89-.5-.28-.3-.76-.37-1.18.92-1.03,2.21-.07,3.51-.77v-4.92h3.49c.6.02.89-.27.87-.87v-1.6c2.52.63,3.71-2.93,6.87-1.58,1.66,1.91,2.55,4.78,3.95,7.47h2.89l4.23,4.86q.24-2.66-1.5-5.05c1.72-1.18,3.35-2.18,5.38-.59,0,.59.27.9.87.88,0,.97-.17,2.01,1.39,1.78.41-.03.82-.03,1.23,0-.53,2.23-.55,3.29-.09,4.9-.59.84-1.72-.15-2.37.59.49,1.5,1.78,1.92,2.91,1.33,1.08-.5,1.89-1.43,2.23-2.57-.17-1.22-2.33-1.43-1.69-3.09,1.42-.77,2.44-.21,3.41,1.09-.57,2.63.32,5.36,2.34,7.14,1.23-1.08,1.85-2.25.38-3.55-1.08-.97-1.53-1.96-.59-3.16,1.66-.54.87,1.49,1.87,1.58.59-.46.2-1.09.31-1.62h3.22c.85,2.04,2.96,3,4.41,4.57,1.45,1.57,1.98,4.15,4.64,4.5,0,1.83-2.4,2.48-2,4.56.12.59-1.22,1.52-3.26.95-.68-.08-.43.26-.4.24.38-.24,1.34.53,1.18-.37-.14-.7-1-.67-.76.13.62,1.02.92,2.21.84,3.4,1.42.97,1.85-.81,3.13-.44,1.78,1.28,1.72,4.68,4.74,5.16-.13.89,1.46,1.15.81,2.26-2.16.99-3.86,2.75-6.03,3.39-.12,2.4,2.61.32,2.62,2.52-2.08,2.19-5.06,1.14-7.62,1.55-.44,3.18-5.68,2.73-4.65,6.61-2.31,1.03-4.61,1.58-5.97,3.22-.4,1.33,1.5,1.78.59,2.93-.65.42-1.36.18-2.05.15-.78-3.1-1.99-4.1-5.03-4.31-1.22-.08-2.37.25-3.65-.72s-2.49.66-3.9,1.08c.06.55.06,1.1,0,1.65-.14.65-1.13.94-.82,1.84.99.78.81,2.37,2.12,3.07,1.02-.05,2.17.49,3.16-.43.86-.8,1.93-.23,2.9-.34.15,0,.35.37.27.28.73,1.33-.99,1.53-.59,2.54q3.06,1.94,1.65,4.93ZM63.69,248.28c.17.49-.34,1.3.79,1.71.77-.15,1.32-.73,1.95-1.71-.93.02-1.86-.01-2.79-.11.59-2.24-.76-3.49-2.48-4.32-1.01-.49-1.92.24-2.5,1.11-.19.29-.11.76-.15,1.05.71.93,1.78-.1,2.48.75.19.41-.05,1.09.59,1.4.7-.02,1.41.02,2.11.11ZM66.91,230.44c-1.92-2.67-3.83-1.44-5.39-.49-1.71,1.04-3.1,2.64-1.89,5,2.61,2.25,6.35,3.35,7.28,7.25.1.28.32.49.59.59.47.05.94.05,1.41,0,0-.63-.03-1.18,0-1.73s-.23-1.18.37-1.6c.5-.08,1.26.08,1.33-.65.18-.69.06-1.43-.34-2.03-.42-.54.46-4.04,1.03-4.46,1.28.66,2.01-.34,2.75-1.13-.59-1.58-2.28-1.18-3.48-1.72.75-1.04,1.83-.1,2.37-.66l1.06-2.19c-.64-.75-1.74.25-2.37-.59-.07-1.59-.13-3.19-3.06-3.1,1.97,3.09-2.27,4.13-1.68,7.51ZM55.75,221.61c-.25-1.66-1.84-1.68-3.27-1.87.23,1.66,1.83,1.68,3.27,1.87ZM60.66,250.8c.49-.31.63-.97.32-1.46-.08-.13-.19-.24-.32-.32-.49.31-.63.97-.32,1.46.08.13.19.24.32.32Z"/>
            <path class="cls-7" d="M66.32,210.64c.54-2,1.92-3.41,3.83-3.44,1.47,0,3.11-.65,4.45.73.28.28,1.1.04,1.78.04.91-.54.34-2.26,2.29-2.43,1.43,1.55,4.67.4,6.19,3.68,1.13,2.44,3.93,4.1,5.92,6.09-.4,1.33.41,2.2.85,3.19q0,2.46,1.75,2.62c-.77,2.3-1.26,4.74-2.81,6.67-.87,1.08-.93,1.93-.18,3.01.75,1.08.33,2.14.2,3.32h-3.13c-1.59-2.96-4.78-5.23-3.51-9.3-1.89-.11-1.85-1.09-2.02-2.31-.15-1.13-1.18-2.11-1.63-3.23-.44-1.12-1.6-1.59-2.14-2.55h-2.71c-1.14-.92-1.56-2.26-2.17-3.48,2.37-.86,1.87-2.56,1.18-4.36.46,2.04-2.71,2.26-2.07,4.36-1.3.08-.74,1.08-.87,1.75h-3.21q-.43-2.3-2-4.36Z"/>
            <path class="cls-7" d="M97.75,267.38c.59-3.08,2.37-5.66,3.7-8.41,1.98-4.15,3.61-8.22,3.33-12.92-.08-1.46-.18-2.88.68-4.47,1.11-2.08-.27-4.7-2.32-5.85v-7.11c1.01,1.78,1.71,3.26,3.34,3.84v12.52c0,4.85-1.28,9.33-3.06,13.84-1.25,2.95-2.71,5.81-4.37,8.54h-1.3Z"/>
            <path class="cls-7" d="M33.16,203.66c-.53-.1-1.13.25-1.58-.25-.37-.54-.23-1.28.31-1.65.08-.05.16-.1.25-.13,2.55-1.36,4.63-3.89,7.99-3.23.11.86-.23,1.71-.89,2.26-1.35,1.43-3.19,2.45-3.75,4.58-.85.04-1.96.92-2.33-.71.24-.09.66-.15.69-.29.12-.53-.27-.61-.69-.58Z"/>
            <path class="cls-7" d="M104.73,226.35l-2.62-1.74c-.42-2.78-1.69-5.26-2.96-7.7-.33-.58-.51-1.25-.52-1.92h1.26c2.11,2.82,2.41,6.56,4.81,9.24.34.41.03,1.39.03,2.12Z"/>
            <path class="cls-7" d="M98.5,223.84v3.14c-1.71.59-2.79.08-3.42-1.53.57-1.55,1.68-2,3.42-1.61Z"/>
            <path class="cls-7" d="M96.87,212.39q1.75.16,1.75,2.62c-1.38-.34-1.88-1.23-1.75-2.62Z"/>
            <path class="cls-7" d="M64.58,210.64c.07.83-.52.97-1.09.85-1.05-.2-.54-1.11-.66-1.72l1.75.87Z"/>
            <path class="cls-7" d="M96.87,269.12c.14-.66-.43-1.68.88-1.75-.13.66.43,1.67-.88,1.75Z"/>
            <path class="cls-7" d="M40.14,198.42c-.1-.31.07-.65.38-.75.05-.02.09-.02.14-.03.07,0,.27.19.25.26-.03.33-.31.57-.64.54-.05,0-.09-.01-.14-.03Z"/>
            <path class="cls-7" d="M66.95,269.56c1.26-.61,2.73-.61,3.99,0-1.26.62-2.73.62-3.99,0Z"/>
            <path class="cls-7" d="M59.52,266.28c.72-1.01,1.5-.35,2.29-.44-.66.99-1.52.44-2.29.44Z"/>
            <path class="cls-7" d="M63.71,267.38c1.18-.05,2.21,0,1.5,1.68-.75-.42-1.37-.84-1.5-1.68Z"/>
            <path class="cls-7" d="M63.71,267.37c-.31.1-.65-.07-.75-.38-.01-.04-.02-.09-.03-.14,0-.07.19-.27.26-.25.33.03.57.31.54.64,0,.04-.01.09-.03.13Z"/>
          </g>
        </g>
      </g>
      <path class="cls-7" d="M84.18,233.64c0-1.72-.19-3.44-.57-5.1l-.22-.98c-.15-.64-.71-1.09-1.37-1.09h-1.01c-3.01,0-10.58.04-18.6.08-8.48.04-17.25.08-20.92.08h-1.02c-.66,0-1.23.46-1.37,1.1l-.22.99c-.35,1.61-.53,3.26-.53,4.92,0,7.75,3.88,14.62,9.79,18.76l-3.66,9.17c-.25-.03-.49-.04-.75-.04-3.8,0-6.89,3.08-6.89,6.89s3.08,6.89,6.89,6.89,6.89-3.08,6.89-6.89c0-.42-.04-.83-.12-1.23h22.5l2.35,6.17c.16.47.45.88.84,1.18.43.32.95.48,1.48.46h5.29l-8.91-22.36c6.1-4.12,10.12-11.1,10.12-19ZM43.68,233.64c0-.56.03-1.13.08-1.69,4.37-.01,11.62-.05,18.67-.08,6.44-.03,12.6-.06,16.32-.07.06.61.09,1.22.09,1.84,0,9.69-7.89,17.58-17.58,17.58s-17.58-7.89-17.58-17.58ZM43.73,271.42c-1.66,0-3-1.35-3-3s1.35-3,3-3,3,1.35,3,3-1.35,3-3,3ZM69.4,257.73l1.87,4.9.26.68h-20.9l3.07-8.04c2.37.83,4.92,1.29,7.57,1.29s4.95-.42,7.23-1.18l.9,2.35Z"/>
      <path class="cls-7" d="M52.2,224.43c-1.05,0-1.95-.8-2.06-1.87-.15-1.53-.66-4.43-1.39-5.67-.46-.79-.99-1.17-1.79-1.75-.74-.54-1.67-1.2-2.63-2.31-2.3-2.64-2.19-6.39-2.17-6.8.05-1.14,1.03-2.04,2.17-1.97,1.14.05,2.02,1.02,1.97,2.16-.03.69.13,2.72,1.16,3.9.65.75,1.27,1.2,1.93,1.67.96.69,2.05,1.48,2.95,3.03,1.42,2.43,1.88,6.86,1.93,7.36.11,1.14-.72,2.15-1.86,2.26-.07,0-.14,0-.21,0Z"/>
      <path class="cls-7" d="M63.56,224.43c-1.05,0-1.95-.8-2.06-1.87-.15-1.53-.66-4.43-1.39-5.67-.46-.79-.99-1.17-1.79-1.75-.74-.54-1.67-1.2-2.63-2.31-2.3-2.64-2.19-6.39-2.17-6.8.05-1.14,1.03-2.04,2.17-1.97,1.14.05,2.02,1.02,1.97,2.16-.03.69.13,2.72,1.16,3.9.65.75,1.27,1.2,1.93,1.67.96.69,2.05,1.48,2.95,3.03,1.42,2.43,1.88,6.86,1.93,7.36.11,1.14-.72,2.15-1.86,2.26-.07,0-.14,0-.21,0Z"/>
      <path class="cls-7" d="M74.9,224.43c-1.05,0-1.95-.8-2.06-1.87-.15-1.53-.66-4.43-1.39-5.67-.46-.79-.99-1.17-1.79-1.75-.74-.54-1.67-1.2-2.63-2.31-2.3-2.64-2.19-6.39-2.17-6.8.05-1.14,1.02-2.04,2.17-1.97,1.14.05,2.02,1.02,1.97,2.16-.03.69.13,2.72,1.16,3.9.65.75,1.27,1.2,1.93,1.67.96.69,2.05,1.48,2.95,3.03,1.42,2.43,1.88,6.86,1.93,7.36.11,1.14-.72,2.15-1.86,2.26-.07,0-.14,0-.21,0Z"/>
    </g>
  </g>
</svg>