<?xml version="1.0" encoding="UTF-8"?>
<svg id="Layer_2" data-name="Layer 2" xmlns="http://www.w3.org/2000/svg" xmlns:xlink="http://www.w3.org/1999/xlink" viewBox="0 0 512.86 321.15">
  <defs>
    <style>
      .cls-1 {
        fill: none;
      }

      .cls-2 {
        fill: #f7d02d;
      }

      .cls-3 {
        fill: url(#radial-gradient-7);
      }

      .cls-4 {
        fill: url(#radial-gradient-6);
      }

      .cls-5 {
        fill: url(#radial-gradient-5);
      }

      .cls-6 {
        fill: url(#radial-gradient-4);
      }

      .cls-7 {
        fill: url(#radial-gradient-8);
      }

      .cls-8 {
        fill: url(#radial-gradient-3);
      }

      .cls-9 {
        fill: url(#radial-gradient-2);
      }

      .cls-10 {
        fill: url(#linear-gradient-7);
      }

      .cls-11 {
        fill: url(#linear-gradient-6);
      }

      .cls-12 {
        fill: url(#linear-gradient-9);
      }

      .cls-13 {
        fill: url(#linear-gradient-4);
      }

      .cls-14 {
        fill: url(#linear-gradient-2);
      }

      .cls-15 {
        fill: url(#radial-gradient);
      }

      .cls-16 {
        fill: url(#linear-gradient);
      }

      .cls-17 {
        fill: url(#linear-gradient-3);
      }

      .cls-17, .cls-18 {
        opacity: .46;
      }

      .cls-18 {
        fill: url(#linear-gradient-8);
      }

      .cls-19 {
        fill: url(#linear-gradient-5);
        opacity: .2;
      }

      .cls-20 {
        fill: #fff;
      }

      .cls-21 {
        fill: #471910;
        opacity: .62;
      }

      .cls-22 {
        fill: #3d360d;
      }
    </style>
    <linearGradient id="linear-gradient" x1="155.19" y1="21.1" x2="124.41" y2="17.21" gradientUnits="userSpaceOnUse">
      <stop offset="0" stop-color="#3b5728"/>
      <stop offset="1" stop-color="#294216"/>
    </linearGradient>
    <linearGradient id="linear-gradient-2" x1="349.18" y1="98.57" x2="345.77" y2="114.87" xlink:href="#linear-gradient"/>
    <radialGradient id="radial-gradient" cx="-865.9" cy="103.51" fx="-865.9" fy="103.51" r="83.76" gradientTransform="translate(876.95 19.73) scale(.87 .81)" gradientUnits="userSpaceOnUse">
      <stop offset=".48" stop-color="#a55105"/>
      <stop offset="1" stop-color="#602000"/>
    </radialGradient>
    <linearGradient id="linear-gradient-3" x1="124.49" y1="28.36" x2="127.42" y2="46.82" gradientUnits="userSpaceOnUse">
      <stop offset="0" stop-color="#9997b6"/>
      <stop offset="1" stop-color="#6a4b5a"/>
    </linearGradient>
    <linearGradient id="linear-gradient-4" x1="162.13" y1="24.06" x2="275.24" y2="114.29" gradientUnits="userSpaceOnUse">
      <stop offset="0" stop-color="#3b5728"/>
      <stop offset=".09" stop-color="#324c1f"/>
      <stop offset=".24" stop-color="#2b4418"/>
      <stop offset=".49" stop-color="#294216"/>
      <stop offset="1" stop-color="#3b5728"/>
    </linearGradient>
    <radialGradient id="radial-gradient-2" cx="133.35" cy="115.03" fx="133.35" fy="115.03" r="38.26" gradientTransform="translate(-35.48 33.73) rotate(-18.92) scale(1 1.14)" gradientUnits="userSpaceOnUse">
      <stop offset="0" stop-color="#fee93a"/>
      <stop offset="1" stop-color="#b95900"/>
    </radialGradient>
    <radialGradient id="radial-gradient-3" cx="99.22" cy="143.2" fx="99.22" fy="143.2" r="21.35" gradientTransform="translate(230.94 127.74) rotate(131.74) scale(1 .61)" gradientUnits="userSpaceOnUse">
      <stop offset=".17" stop-color="#fee93a"/>
      <stop offset="1" stop-color="#b95900"/>
    </radialGradient>
    <radialGradient id="radial-gradient-4" cx="123.29" cy="92.94" fx="123.29" fy="92.94" r="44.44" gradientUnits="userSpaceOnUse">
      <stop offset="0" stop-color="#fee93a"/>
      <stop offset=".39" stop-color="#fde739"/>
      <stop offset=".54" stop-color="#f9e036"/>
      <stop offset=".66" stop-color="#f3d331"/>
      <stop offset=".75" stop-color="#ebc22a"/>
      <stop offset=".83" stop-color="#e0ac21"/>
      <stop offset=".9" stop-color="#d39016"/>
      <stop offset=".96" stop-color="#c36f09"/>
      <stop offset="1" stop-color="#b95900"/>
    </radialGradient>
    <linearGradient id="linear-gradient-5" x1="204.07" y1="69.25" x2="417.41" y2="110.14" gradientUnits="userSpaceOnUse">
      <stop offset="0" stop-color="#f8cf00" stop-opacity="0"/>
      <stop offset=".11" stop-color="#f8cf00"/>
      <stop offset="1" stop-color="#f8cf00" stop-opacity=".3"/>
    </linearGradient>
    <linearGradient id="linear-gradient-6" x1="189.27" y1="28.21" x2="164.05" y2="23.32" gradientUnits="userSpaceOnUse">
      <stop offset="0" stop-color="#657c1c"/>
      <stop offset="1" stop-color="#3b5728"/>
    </linearGradient>
    <linearGradient id="linear-gradient-7" x1="95.29" y1="218.25" x2="81.96" y2="218.03" gradientUnits="userSpaceOnUse">
      <stop offset="0" stop-color="#5c7723"/>
      <stop offset="1" stop-color="#335119"/>
    </linearGradient>
    <radialGradient id="radial-gradient-5" cx="-947.55" cy="271.22" fx="-947.55" fy="271.22" r="54.61" gradientTransform="translate(876.95 51.7) scale(.87 .81)" xlink:href="#radial-gradient"/>
    <linearGradient id="linear-gradient-8" x1="53" y1="222.22" x2="54.91" y2="234.26" xlink:href="#linear-gradient-3"/>
    <radialGradient id="radial-gradient-6" cx="58.78" cy="278.73" fx="58.78" fy="278.73" r="24.94" gradientTransform="translate(-100.26 -3.98) rotate(-18.92) scale(1 1.14)" xlink:href="#radial-gradient-2"/>
    <radialGradient id="radial-gradient-7" cx="36.53" cy="297.09" fx="36.53" fy="297.09" r="13.92" gradientTransform="translate(197.06 391.38) rotate(131.74) scale(1 .61)" xlink:href="#radial-gradient-3"/>
    <radialGradient id="radial-gradient-8" cx="52.22" cy="264.33" fx="52.22" fy="264.33" r="28.98" xlink:href="#radial-gradient-4"/>
    <linearGradient id="linear-gradient-9" x1="509.47" y1="316.81" x2="81.47" y2="263.48" xlink:href="#linear-gradient-7"/>
  </defs>
  <g id="Layer_1-2" data-name="Layer 1">
    <g>
      <path class="cls-16" d="M185.65,26.31c-.19-1.91-.66-3.71-1.32-5.37-1.28-3.36-3.28-6.19-5.55-8.63-2.29-2.43-4.93-4.4-7.72-6-1.18-.7-2.27-1.2-3.38-1.74-.23-.11-.47-.22-.7-.34-1.35-.64-2.79-1.18-4.2-1.74-2.9-1.02-5.96-1.83-9.18-2.25-3.23-.37-6.62-.33-9.98.33-3.35.65-6.63,1.92-9.54,3.68-2.91,1.75-5.48,3.95-7.64,6.36-2.16,2.42-3.98,5.03-5.52,7.75-.77,1.36-1.46,2.75-2.1,4.18-.32.71-.62,1.43-.9,2.18-.14.37-.28.75-.42,1.13-.14.42-.25.73-.43,1.32l12.68,3.51.18-.61.26-.78c.19-.52.39-1.06.61-1.58.44-1.05.92-2.1,1.46-3.11,1.07-2.02,2.32-3.89,3.72-5.54,2.82-3.3,6.24-5.54,10.11-6.39,1.94-.44,4.01-.53,6.16-.36,1.31.14,2.63.4,3.97.72.87.21,1.74.45,2.61.73,1.1.41,2.22.79,3.32,1.28,1.08.5,2.27.99,3.18,1.51,1.93,1.04,3.7,2.3,5.15,3.77.17.18.33.36.49.54,1.21,1.33,2.24,2.78,2.83,4.27.74,1.68.9,3.36.66,4.52-.3,1.15-.76,1.76-1.87,2.35-.2.1-.43.18-.67.26-.45.14-.97.25-1.52.33-.46.01-.89.1-1.39.06h-.73s-.77-.09-.77-.09c-.51-.03-1.05-.14-1.59-.23-.53-.07-1.09-.23-1.64-.36l-.41-.1-.2-.05-.09-.03c-.13-.03-.25-.08-.37-.13-.23-.1-.45-.22-.63-.36-.38-.27-.66-.66-.79-.97-.06-.15-.09-.28-.11-.35,0-.01,0-.01,0-.02l-10-2.53c-.25.97-.36,1.96-.33,2.9.04,1.28.3,2.49.7,3.6.81,2.22,2.2,4.1,3.92,5.51.86.72,1.81,1.3,2.79,1.78.5.24,1,.44,1.51.61l.38.13.29.08.57.16c.76.2,1.5.43,2.31.57.79.16,1.58.33,2.41.41l1.24.15,1.29.06c.85.06,1.77-.01,2.66-.05,1.83-.19,3.73-.55,5.63-1.39.84-.37,1.66-.85,2.46-1.39.99-.69,1.93-1.49,2.74-2.44,1.46-1.7,2.46-3.75,2.99-5.79.01-.05.02-.1.03-.16.49-2,.55-3.97.36-5.83Z"/>
      <path class="cls-14" d="M403.95,97.78c-1.41,2.28-3.18,4.34-5.3,5.94-2.15,1.55-4.65,2.63-7.27,2.91l-.98.1c-.33.02-.66.01-.99.02-.66.03-1.32-.03-1.98-.09-.66-.03-1.31-.18-1.96-.29-.67-.09-1.25-.27-1.86-.51-2.41-1-4.66-2.54-6.96-3.95-2.3-1.43-4.63-2.85-7.15-4-2.5-1.12-5.26-2.06-8.21-1.84-.73.04-1.46.2-2.17.41-.36.11-.7.26-1.04.39l-.93.42-3.69,1.71c-2.45,1.15-4.88,2.31-7.34,3.38-4.91,2.13-9.95,3.97-15.15,4.6-5.25.65-10.59.66-15.76-.25-1.43-.25-2.85-.57-4.25-.95-1.75-.48-3.46-1.06-5.12-1.77-1.79-.76-3.52-1.66-5.15-2.7-.54-.34-1.08-.72-1.57-1.08l-.62-.53c-.21-.17-.36-.4-.54-.6-.67-.83-1.13-1.8-1.28-2.79-.31-2.02.72-3.97,2.55-5.19,1.79-1.29,4.26-1.84,6.71-2.06,2.54-.14,4.45.07,5.74,1.5.02.02.03.04.04.06.58.7.85,1.61.86,2.5.02.46-.04.91-.12,1.42-.1.54-.25,1.09-.44,1.64-.02.06-.06.13-.08.19h4.5c.09-.37.16-.75.23-1.13.11-.82.19-1.72.12-2.61-.1-1.67-.69-3.3-1.74-4.58-.06-.08-.11-.16-.18-.24-1.17-1.32-2.84-2.1-4.55-2.47-1.74-.35-3.25-.31-4.73-.17-.73.09-1.46.22-2.18.33-.73.13-1.45.37-2.17.55-.72.23-1.43.54-2.14.84l-1.03.57-.51.29-.48.36c-1.32.9-2.43,2.24-3.16,3.76-.72,1.53-1,3.33-.68,5,.3,1.67,1.09,3.2,2.15,4.43.28.29.54.62.85.88l.94.76c.61.42,1.19.8,1.8,1.17.9.54,1.82,1.02,2.75,1.48,2.05,1.01,4.17,1.83,6.34,2.49,2.21.66,4.45,1.16,6.72,1.5,5.51.83,11.11.67,16.56-.15,5.54-.81,10.73-2.88,15.66-5.17,2.47-1.15,4.89-2.38,7.3-3.59l3.62-1.8.91-.44c.28-.11.56-.25.85-.34.58-.18,1.18-.34,1.8-.39,2.48-.26,5.06.49,7.48,1.52,2.43,1.04,4.77,2.37,7.09,3.74,2.34,1.34,4.61,2.84,7.23,3.85.65.24,1.38.44,2.05.52.68.09,1.36.23,2.05.25.69.05,1.38.09,2.07.04.35-.02.69-.01,1.04-.05l1.03-.14c2.75-.36,5.35-1.57,7.53-3.23,2.16-1.71,3.91-3.87,5.28-6.22,2.73-4.72,4.28-10.02,5-15.37-.85,5.32-2.54,10.57-5.35,15.15Z"/>
      <path class="cls-20" d="M250.67,151.34h-2.6c-.27.02-.53-.07-.73-.25-.17-.17-.29-.39-.33-.63l-2.43-14h-21.43l-7.84,14c-.13.26-.33.47-.58.63-.25.16-.53.25-.83.25h-2.61l27.21-47.82h3.34l8.83,47.82ZM244.14,134l-4.21-24.33c-.06-.41-.12-.85-.18-1.34s-.11-1-.16-1.57c-.26.56-.52,1.09-.77,1.57l-.68,1.37-13.6,24.3h19.6Z"/>
      <path class="cls-20" d="M276.91,148.47c-1.02.78-2.12,1.45-3.28,2-1.02.48-2.09.81-3.2,1-1.12.18-2.26.27-3.4.27-1.72.05-3.43-.29-5-1-1.35-.62-2.51-1.59-3.37-2.79-.91-1.27-1.53-2.73-1.83-4.26-.37-1.76-.48-3.57-.34-5.37.27-3.58,1.25-7.07,2.88-10.27.79-1.55,1.74-3.01,2.84-4.36,1.05-1.29,2.26-2.45,3.59-3.45,1.28-.96,2.7-1.72,4.2-2.28,1.5-.55,3.1-.84,4.7-.83,1.01-.01,2.02.09,3,.32.83.2,1.63.51,2.39.91.7.39,1.35.88,1.93,1.44.58.58,1.1,1.21,1.55,1.89l-1,1.12c-.18.22-.45.36-.74.37-.22,0-.49-.18-.79-.54-.37-.43-.78-.82-1.23-1.17-.64-.48-1.33-.87-2.07-1.16-1.04-.39-2.16-.58-3.27-.54-1.91,0-3.77.53-5.4,1.52-1.76,1.06-3.3,2.45-4.54,4.09-1.38,1.8-2.48,3.8-3.26,5.93-.84,2.25-1.35,4.61-1.52,7-.11,1.45-.04,2.9.22,4.33.22,1.23.69,2.4,1.39,3.44.65.97,1.55,1.75,2.59,2.27,1.21.57,2.53.85,3.87.81,1.09.01,2.18-.12,3.23-.39.89-.24,1.76-.58,2.59-1,.71-.35,1.38-.78,2-1.27.59-.46,1.11-.88,1.56-1.27l1.17-1c.23-.22.53-.36.85-.39.27.02.51.14.69.34l.65.88c-1.13,1.23-2.35,2.37-3.65,3.41Z"/>
      <path class="cls-20" d="M307.12,148.47c-1.02.78-2.12,1.45-3.28,2-1.02.48-2.09.81-3.2,1-1.11.2-2.23.31-3.35.33-1.72.05-3.43-.29-5-1-1.34-.63-2.5-1.59-3.37-2.79-.9-1.28-1.52-2.73-1.83-4.26-.37-1.76-.48-3.57-.33-5.37.12-1.79.43-3.56.92-5.29.5-1.73,1.17-3.4,2-5,.79-1.55,1.74-3.01,2.84-4.36,1.05-1.29,2.25-2.45,3.58-3.45,1.28-.96,2.7-1.72,4.2-2.28,1.51-.55,3.1-.84,4.71-.83,1.01-.01,2.02.1,3,.32.83.2,1.63.51,2.38.91.71.39,1.35.87,1.93,1.44.58.58,1.11,1.21,1.56,1.89l-1,1.12c-.18.22-.45.36-.73.37-.23,0-.49-.18-.79-.54-.89-1.03-2.03-1.83-3.3-2.33-1.05-.39-2.16-.58-3.28-.54-1.9,0-3.77.53-5.39,1.52-1.76,1.06-3.31,2.45-4.55,4.09-1.37,1.8-2.47,3.8-3.25,5.93-.85,2.25-1.36,4.6-1.52,7-.12,1.45-.04,2.9.22,4.33.21,1.23.68,2.4,1.38,3.44.66.96,1.55,1.75,2.59,2.27,1.21.57,2.53.85,3.87.81,1.07,0,2.13-.13,3.16-.4.89-.25,1.76-.58,2.58-1,.71-.36,1.38-.78,2-1.27.58-.46,1.1-.88,1.56-1.27l1.16-1c.23-.22.54-.36.86-.39.26.02.51.14.68.34l.65.88c-1.13,1.22-2.35,2.35-3.66,3.38Z"/>
      <path class="cls-20" d="M341.55,145.09c-1.08,1.07-2.23,2.07-3.44,3-1.04.8-2.15,1.5-3.32,2.08-1.09.53-2.24.94-3.42,1.2-1.22.27-2.46.4-3.71.39-1.69.04-3.36-.28-4.92-.93-1.36-.58-2.55-1.49-3.48-2.64-.96-1.22-1.65-2.64-2-4.15-.42-1.8-.56-3.66-.4-5.5.13-1.72.42-3.43.87-5.1.45-1.7,1.07-3.35,1.85-4.93.77-1.57,1.69-3.05,2.77-4.43,1.05-1.34,2.26-2.55,3.62-3.58,1.32-1.01,2.79-1.82,4.35-2.4,1.6-.59,3.29-.89,5-.88,1.41-.04,2.81.19,4.13.69.99.39,1.89.97,2.65,1.72,1.16,1.19,1.78,2.82,1.7,4.48-.04.92-.21,1.82-.51,2.69-.33.88-.83,1.68-1.48,2.36-.79.84-1.71,1.55-2.72,2.1-1.35.75-2.78,1.36-4.26,1.81-2.01.62-4.07,1.12-6.14,1.5-2.38.45-5.15.85-8.33,1.19-.08.45-.15.91-.22,1.38s-.11.94-.14,1.39c-.24,3.35.34,6,1.73,7.87,1.39,1.87,3.61,2.84,6.68,2.84,2.05,0,4.07-.49,5.88-1.44.73-.37,1.42-.8,2.08-1.28.61-.45,1.15-.88,1.63-1.28.48-.4.89-.74,1.24-1,.26-.23.58-.36.92-.39.27,0,.53.12.69.34l.7.9ZM335.05,119.6c-1.73-.03-3.45.37-5,1.14-1.52.75-2.9,1.77-4.07,3-1.24,1.33-2.29,2.83-3.12,4.45-.85,1.67-1.52,3.43-2,5.25,2.89-.31,5.38-.68,7.48-1.09,1.81-.35,3.6-.79,5.37-1.32,1.26-.37,2.47-.87,3.62-1.51.81-.44,1.55-1,2.19-1.67.48-.51.86-1.11,1.11-1.77.21-.61.34-1.25.38-1.9.03-.52-.04-1.04-.21-1.53-.2-.58-.55-1.1-1-1.51-.54-.49-1.17-.88-1.86-1.13-.93-.31-1.91-.45-2.89-.41Z"/>
      <path class="cls-20" d="M370.75,121.8c-.15.29-.44.47-.77.48-.31-.04-.59-.19-.8-.42-.39-.37-.81-.7-1.25-1-.62-.42-1.29-.75-2-1-2.09-.61-4.32-.56-6.38.15-1,.36-1.94.88-2.78,1.54-.78.62-1.43,1.38-1.94,2.23-.49.82-.78,1.74-.85,2.69-.09.81.08,1.62.48,2.33.4.66.95,1.22,1.59,1.64.73.48,1.5.89,2.32,1.2.86.34,1.76.68,2.68,1s1.81.72,2.68,1.14c.83.39,1.6.9,2.29,1.5.67.59,1.21,1.33,1.56,2.15.39.97.53,2.02.42,3.06-.1,1.46-.5,2.88-1.15,4.19-.68,1.36-1.6,2.58-2.72,3.6-1.18,1.06-2.53,1.91-4,2.51-1.61.66-3.34,1-5.08,1-3.49.19-6.85-1.33-9-4.09l.89-1.15c.21-.32.56-.52.95-.54.23,0,.5.18.81.54.4.44.83.84,1.3,1.2.67.5,1.4.91,2.18,1.2,1.11.39,2.28.58,3.45.54,1.27.02,2.53-.21,3.71-.66,1.08-.41,2.08-1.03,2.93-1.81.82-.75,1.5-1.65,2-2.65.49-1,.78-2.08.86-3.19.09-.86-.07-1.73-.47-2.5-.39-.69-.93-1.28-1.58-1.74-.72-.51-1.49-.92-2.31-1.24-.87-.34-1.77-.67-2.69-1s-1.82-.69-2.68-1.09c-.83-.37-1.6-.85-2.3-1.43-.67-.56-1.2-1.27-1.56-2.06-.4-.95-.55-1.98-.43-3,.1-1.32.47-2.6,1.1-3.77.67-1.22,1.55-2.31,2.6-3.21,1.12-.96,2.4-1.71,3.78-2.23,1.5-.56,3.08-.84,4.68-.83,1.66-.04,3.31.26,4.85.88,1.36.6,2.56,1.5,3.52,2.64l-.89,1.2Z"/>
      <path class="cls-20" d="M397.29,121.8c-.15.29-.45.47-.78.48-.31-.04-.59-.19-.8-.42-.39-.37-.81-.7-1.25-1-.62-.42-1.29-.75-2-1-2.09-.61-4.32-.56-6.38.15-1,.36-1.94.88-2.78,1.54-.78.62-1.44,1.38-1.95,2.23-.49.82-.78,1.74-.85,2.69-.08.81.08,1.62.48,2.33.41.65.96,1.21,1.6,1.64.72.49,1.5.89,2.31,1.2.87.34,1.76.68,2.68,1,.91.33,1.81.71,2.68,1.14.83.39,1.6.9,2.29,1.5.67.59,1.21,1.33,1.56,2.15.39.97.54,2.02.43,3.06-.09,1.5-.47,2.96-1.14,4.31-.67,1.36-1.59,2.58-2.71,3.6-1.18,1.06-2.53,1.91-4,2.51-1.62.66-3.34,1-5.09,1-1.86.06-3.7-.32-5.38-1.13-1.39-.74-2.61-1.76-3.59-3l.89-1.15c.21-.32.56-.53.95-.54.22,0,.49.18.81.54.39.44.83.84,1.3,1.2.66.5,1.4.91,2.18,1.2,1.1.39,2.27.58,3.44.54,1.27.02,2.53-.21,3.71-.66,1.09-.41,2.08-1.03,2.94-1.81.83-.75,1.5-1.65,2-2.65.5-1,.79-2.08.87-3.19.09-.86-.07-1.73-.47-2.5-.39-.69-.94-1.29-1.59-1.74-.73-.51-1.52-.92-2.36-1.22-.87-.34-1.76-.67-2.68-1s-1.82-.69-2.68-1.09c-.83-.37-1.6-.85-2.3-1.43-.67-.56-1.2-1.27-1.57-2.06-.39-.95-.54-1.98-.43-3,.1-1.32.47-2.61,1.11-3.77.66-1.22,1.54-2.31,2.59-3.21,1.12-.96,2.41-1.71,3.79-2.23,1.49-.56,3.08-.84,4.67-.83,1.66-.04,3.32.26,4.86.88,1.36.6,2.56,1.5,3.51,2.64l-.87,1.1Z"/>
      <path class="cls-20" d="M258.53,54.57c-.23,3.95-1.12,7.84-2.64,11.49-1.36,3.27-3.31,6.27-5.74,8.85-2.31,2.42-5.08,4.36-8.14,5.71-3.09,1.35-6.44,2.03-9.81,2-2.57.05-5.12-.47-7.47-1.5-2.11-.96-3.97-2.4-5.43-4.21-1.52-1.94-2.61-4.17-3.21-6.56-.7-2.76-.93-5.61-.69-8.45.23-3.95,1.13-7.82,2.66-11.47,1.36-3.28,3.31-6.3,5.74-8.89,2.28-2.43,5.03-4.38,8.08-5.74,3.07-1.34,6.4-2.03,9.75-2,2.59-.05,5.15.47,7.52,1.51,2.14.96,4.02,2.41,5.48,4.24,1.52,1.94,2.61,4.18,3.21,6.57.7,2.76.93,5.61.69,8.45ZM255.05,54.63c.21-2.51.03-5.03-.55-7.48-.48-2.06-1.38-4-2.66-5.68-1.2-1.55-2.76-2.79-4.54-3.62-1.96-.87-4.08-1.31-6.22-1.27-2.85-.01-5.67.59-8.26,1.76-2.61,1.18-4.94,2.88-6.86,5-2.08,2.34-3.73,5.02-4.87,7.94-1.31,3.36-2.09,6.91-2.3,10.52-.22,2.51-.03,5.04.55,7.49.49,2.05,1.4,3.98,2.68,5.66,1.21,1.54,2.77,2.77,4.55,3.59,1.95.88,4.06,1.31,6.2,1.27,5.8.05,11.33-2.41,15.17-6.76,2.07-2.33,3.71-5.01,4.83-7.92,1.3-3.36,2.07-6.9,2.28-10.5Z"/>
      <path class="cls-20" d="M269.12,59.33c.96-1.7,2.09-3.3,3.35-4.78,1.14-1.33,2.43-2.53,3.83-3.57,1.23-.92,2.57-1.66,4-2.21,1.28-.5,2.63-.75,4-.76,1.27-.04,2.52.25,3.64.84.99.58,1.79,1.44,2.29,2.47.59,1.25.91,2.62.94,4,.06,1.8-.09,3.6-.46,5.36l-4,21.49h-3.18l4-21.49c.6-3.2.56-5.66-.13-7.37-.69-1.71-2.15-2.57-4.38-2.57-1.35.03-2.68.37-3.87,1-1.43.72-2.75,1.64-3.91,2.73-1.38,1.3-2.62,2.74-3.7,4.3-1.24,1.78-2.31,3.68-3.2,5.66l-3.3,17.77h-3.18l6.38-33.73h1.45c.79,0,1.16.41,1.1,1.22l-1.67,9.64Z"/>
      <path class="cls-20" d="M296.96,82.14l9.34-49.17h3.15l-9.42,49.17h-3.07Z"/>
      <path class="cls-20" d="M320.74,48.52l-6.44,33.62h-3.15l6.44-33.62h3.15ZM324.01,36.92c-.02.4-.13.79-.33,1.14-.19.35-.43.66-.72.93-.29.27-.63.48-1,.64-.34.15-.71.23-1.08.23-.37,0-.73-.07-1.06-.23-.32-.15-.61-.37-.84-.64-.23-.28-.41-.59-.54-.93-.14-.36-.19-.75-.16-1.14.03-.4.14-.79.32-1.15.17-.37.41-.71.69-1,.27-.27.59-.5.94-.66.35-.15.72-.23,1.1-.23.36,0,.72.08,1.05.23.35.16.66.4.92.69.26.29.46.63.58,1,.12.36.16.74.13,1.12Z"/>
      <path class="cls-20" d="M332.42,59.33c.96-1.7,2.09-3.3,3.36-4.78,1.12-1.33,2.39-2.53,3.78-3.57,1.23-.92,2.57-1.66,4-2.21,1.28-.5,2.63-.75,4-.76,1.27-.04,2.52.25,3.64.84.99.57,1.79,1.44,2.29,2.47.59,1.25.91,2.62.94,4,.07,1.8-.09,3.6-.46,5.36l-4,21.49h-3.18l4-21.49c.6-3.2.56-5.66-.13-7.37-.69-1.71-2.14-2.58-4.36-2.6-1.35.03-2.67.37-3.87,1-1.43.72-2.75,1.64-3.91,2.73-1.38,1.3-2.62,2.74-3.7,4.3-1.24,1.78-2.31,3.68-3.2,5.66l-3.32,17.74h-3.18l6.38-33.73h1.45c.79,0,1.16.41,1.1,1.22l-1.63,9.7Z"/>
      <path class="cls-20" d="M385.3,75.89c-1.08,1.07-2.23,2.07-3.44,3-1.04.8-2.15,1.5-3.32,2.08-1.09.53-2.23.93-3.41,1.2-1.22.26-2.47.39-3.72.38-1.69.03-3.36-.28-4.92-.92-1.36-.58-2.55-1.49-3.48-2.64-.96-1.22-1.65-2.64-2-4.16-.42-1.8-.55-3.65-.39-5.49.12-1.72.41-3.43.86-5.1.45-1.7,1.07-3.36,1.85-4.94.77-1.57,1.7-3.05,2.77-4.43,1.05-1.34,2.26-2.55,3.62-3.58,1.33-1.01,2.8-1.82,4.36-2.4,1.6-.59,3.29-.88,5-.88,1.41-.04,2.81.19,4.12.7.99.38,1.9.97,2.65,1.72.65.63,1.15,1.4,1.45,2.26.25.72.36,1.49.32,2.25-.06.9-.25,1.79-.56,2.63-.33.88-.83,1.69-1.48,2.37-.8.83-1.71,1.54-2.71,2.1-1.36.75-2.79,1.35-4.27,1.8-2.01.63-4.06,1.14-6.14,1.51-2.37.45-5.15.85-8.33,1.18-.08.45-.15.91-.21,1.39s-.12.93-.15,1.38c-.24,3.36.34,6,1.73,7.88,1.39,1.88,3.61,2.84,6.68,2.84,2.05.02,4.07-.45,5.89-1.39.73-.37,1.43-.8,2.09-1.28.6-.46,1.14-.88,1.62-1.29s.89-.74,1.24-1c.26-.22.58-.35.92-.38.27,0,.52.12.69.33l.67.88ZM378.8,50.41c-1.73-.02-3.45.36-5,1.13-1.53.77-2.9,1.81-4.07,3.06-1.23,1.33-2.28,2.83-3.11,4.44-.86,1.67-1.53,3.44-2,5.26,2.88-.32,5.37-.68,7.47-1.1,1.81-.34,3.61-.78,5.37-1.32,1.26-.37,2.47-.87,3.62-1.5.82-.44,1.57-1,2.22-1.67.49-.51.87-1.12,1.11-1.78.21-.61.34-1.25.38-1.89.03-.52-.04-1.05-.21-1.54-.2-.58-.54-1.09-1-1.5-.54-.5-1.17-.88-1.86-1.13-.94-.33-1.93-.49-2.92-.46Z"/>
      <path class="cls-22" d="M112.74,1.91c.43-.11,5.78-2.37,7.86,0s4.17,15.64,12.46,21.65c8.29,6.01,13.94,7.42,13.94,7.42l-32.93,12.61-15.13-11.27s14.98-4,16.17-8.9c1.19-4.89-2.82-13.64-3.41-14.53-.59-.89-2.87-6.01,1.04-6.97Z"/>
      <path class="cls-15" d="M114.25,31.13s3.23-2.22,9.17-2.22,8.65,2.22,8.65,2.22c0,0,6.71-1.11,9.68-1.11s5.55,1.11,5.55,1.11c0,0,4.26-1.11,8.65-1.11s30.98,7.04,42.6,46.5c11.62,39.45.13,68.52-11.62,81.72-11.75,13.2-28.53,19.43-31.11,19.13s-8-1.19-8-1.19c0,0-2.97,1.93-10.71,1.93s-9.68-1.93-9.68-1.93c0,0-6.45,1.93-13.17,1.93s-10.59-2.97-10.59-2.97c0,0-4.65,2.08-12.01,2.08s-24.4-3.86-36.66-27.29c-12.26-23.43-17.3-54.73-3.61-83.5,13.68-28.77,33.3-35.3,38.98-36.04,5.68-.74,7.23.3,7.23.3,0,0,4-1.19,8.78-1.19s7.87,1.63,7.87,1.63Z"/>
      <path class="cls-21" d="M198.54,76.51c-.36-1.21-.73-2.39-1.11-3.55.06.22-.14,12.39-.05,30.55.05,10.37-8.21,31.86-9.27,30.97-1.07-.89-.95-10.55,0-18.55,1.85-15.56-3.17-28.44-3.17-28.44,0,0,3.59,15.57-4.44,38.05-6,16.8-34.68,43.06-40.45,43.06s0-28.89,0-28.89c0,0-10.67,27.78-20.67,26.67-10-1.11-12-22.58-12-22.58,0,0-.44,24.81-13.11,24.81s-30.67-37.78-30.67-37.78c0,0,16,36.22,9.78,32.89s-17.11-13.82-24.44-31.69c-2.94-7.18-4.45-13.65-5.19-18.84,1.42,13.25,5.56,25.84,11.26,36.74,12.26,23.43,29.3,27.29,36.66,27.29s12.01-2.08,12.01-2.08c0,0,3.87,2.97,10.59,2.97s13.17-1.93,13.17-1.93c0,0,1.94,1.93,9.68,1.93s10.71-1.93,10.71-1.93c0,0,5.42.89,8,1.19,2.58.3,19.36-5.93,31.11-19.13,11.75-13.2,23.24-42.27,11.62-81.72Z"/>
      <path class="cls-17" d="M174.63,43.2c7.83,4.98,11.63,8.22,13.48,10.21-12.67-19.29-28.82-23.4-32.16-23.4-4.39,0-8.65,1.11-8.65,1.11,0,0-2.58-1.11-5.55-1.11s-9.68,1.11-9.68,1.11c0,0-2.71-2.22-8.65-2.22s-9.17,2.22-9.17,2.22c0,0-3.1-1.63-7.87-1.63s-8.78,1.19-8.78,1.19c0,0-1.55-1.04-7.23-.3-3.67.48-13.15,3.41-23.09,13.15.93-.51,11.86-6.46,15.48-6.88,3.78-.45-5.13,12.9-5.13,12.9,0,0,10.65-11.12,19.85-12.79,9.2-1.67,12.39-.56,12.39-.56,0,0-2.13,5.3-2.81,7.38-.68,2.08-1.84,7.08-1.84,7.08,0,0,9.62-16.91,18.07-16.24,8.45.67,16.97,17.69,16.97,17.69,0,0-5.91-15.94-1.74-17.71,4.16-1.76,31.17,16.48,31.17,16.48,0,0-4.26-7.56-5.62-9.01-1.36-1.45-5.03-8.59,10.55,1.32Z"/>
      <path class="cls-13" d="M316.75,92.63c-.1-1.67-.69-3.3-1.74-4.58l-3.32,2.57c.58.7.85,1.61.86,2.5.02.46-.04.91-.12,1.42-.1.54-.25,1.09-.44,1.64-.77,2.19-2.12,4.29-3.78,5.95-.74.73-1.54,1.37-2.38,1.88-.11.06-.21.14-.32.2-.47.27-.95.47-1.55.67-.58.19-1.11.45-1.74.58-.17.05-.35.09-.53.14-2.23.61-4.62.92-7,1.16-5.17.45-10.48.3-15.7-.23-2.6-.29-5.21-.66-7.69-1.21-.6-.15-1.25-.27-1.81-.46l-.86-.26c-.28-.09-.5-.19-.75-.29-1-.43-2.12-1.03-3.12-1.68-2.04-1.31-3.92-2.96-5.82-4.78-1.91-1.81-3.85-3.83-6.25-5.67-2.37-1.83-5.36-3.43-8.62-4-.81-.1-1.62-.2-2.43-.27-.83.01-1.66,0-2.48.06-1.66.19-3.32.58-4.81,1.2-3.01,1.22-5.4,2.94-7.64,4.47-2.23,1.56-4.36,3.01-6.55,4.3-2.19,1.29-4.47,2.34-6.8,3.29-1.19.41-2.36.88-3.58,1.22l-1.83.52c-.3.08-.62.19-.9.25l-.83.17c-2.21.46-4.21.35-5.39-.35-.61-.34-1.13-.82-1.6-1.52-.48-.68-.88-1.61-1.19-2.63-.63-2.05-.92-4.5-1.03-7-.11-2.51-.06-5.11.05-7.75l.4-8.1c.05-1.4.11-2.77.08-4.29-.03-1.48-.1-2.93-.24-4.36-.52-5.73-1.64-11.3-3.28-16.78-1.66-5.47-3.84-10.85-7.01-15.93-.54-.86-1.12-1.7-1.73-2.54-1.18-1.62-2.47-3.2-3.94-4.67-2.22-2.23-4.89-4.21-7.93-5.64l-1.15-.52-1.2-.43s-.06-.02-.08-.03c-.77-.29-1.57-.48-2.36-.69-1.64-.39-3.26-.64-5.12-.66-1.83,0-3.89.22-6.08,1.18-1.09.51-2.19,1.21-3.17,2.18-.97.98-1.75,2.2-2.24,3.51-.13.34-.24.69-.33,1.04-.25.97-.36,1.96-.33,2.9.04,1.28.3,2.49.7,3.6.81,2.22,2.2,4.1,3.92,5.51.73.61,1.53,1.11,2.36,1.54l5.81-9.03-.27-.07-.2-.05-.09-.03c-.13-.03-.25-.08-.37-.13-.23-.1-.45-.22-.63-.36-.38-.27-.66-.66-.79-.97-.06-.15-.09-.28-.11-.35,0-.01,0-.01,0-.02,0-.01,0-.03.02-.03.29-.14.96-.33,1.82-.34.85-.02,1.92.1,2.91.32.49.12.98.2,1.45.38l.72.23.7.3c.9.38,1.78.87,2.63,1.45,2.7,1.82,5.11,4.5,7.13,7.55.16.24.31.49.46.73,2.45,3.86,4.37,8.25,5.87,12.79,1.58,4.84,2.74,9.9,3.32,14.93.31,2.55.38,4.87.32,7.54l-.2,8.11c-.05,2.76-.04,5.57.16,8.46.1,1.44.25,2.9.5,4.4.23,1.49.58,3.01,1.1,4.56.52,1.54,1.21,3.13,2.31,4.65,1.07,1.51,2.59,2.92,4.38,3.82,1.78.91,3.73,1.34,5.48,1.36,1.77.06,3.43-.15,4.96-.51l1.15-.27c.38-.09.7-.21,1.05-.31l2.06-.64c1.37-.43,2.71-.99,4.06-1.5,2.65-1.15,5.25-2.45,7.69-3.97,2.44-1.51,4.73-3.17,6.89-4.77,2.16-1.58,4.21-3.06,6.2-3.91,1.97-.87,3.99-1.12,6.17-.8,2.1.32,4.05,1.26,5.99,2.66,3.87,2.8,7.56,7.3,12.71,10.39,1.29.79,2.57,1.45,4.07,2.05.38.13.79.3,1.15.4l1.09.29c.73.22,1.42.32,2.13.48,2.81.55,5.58.87,8.35,1.1,5.55.42,11.1.44,16.69-.18,2.79-.35,5.6-.77,8.39-1.68.7-.17,1.39-.5,2.09-.75.35-.15.68-.25,1.05-.43.36-.19.75-.36,1.08-.57.08-.04.15-.1.22-.14,1.09-.67,2.05-1.45,2.92-2.3.17-.16.34-.33.5-.49,2.09-2.22,3.68-4.82,4.64-7.75.23-.74.42-1.5.55-2.29.11-.82.19-1.72.12-2.61Z"/>
      <path class="cls-9" d="M116.32,70.91l-14.28,36.43c.65,2.01,1.79,3.82,3.15,5.33,1.59,1.73,4.11,3.72,6.33,4.61l.69-1.61,7.87-23.51c.45-1.13.91-2.54,1.39-4.05.47-1.51.93-3.16,1.38-4.92.76,3,1.71,5.96,2.83,8.85l13.12,34.18,8.36,23.94,3,5.86c.3.89.86,1.68,1.6,2.26.81.6,1.81.91,2.82.87h10.08l-35.14-88.23h-13.21Z"/>
      <path class="cls-8" d="M92.31,131.46l-.19.17-10.94,27.47h10.08c1.03.03,2.03-.31,2.82-.96.71-.55,1.26-1.28,1.59-2.11l3.08-5.86,3.78-12.12c-.08-.04-.17-.1-.26-.15-3.61-1.67-6.97-3.84-9.97-6.44Z"/>
      <path class="cls-2" d="M117.1,74.55l-12.85,32.84c.83,1.61,1.75,3.11,2.96,4.45,1.41,1.54,3.18,2.82,5.01,3.83l8.23-22.24c.4-1,.81-2.26,1.23-3.6.42-1.34.82-2.81,1.22-4.37.68,2.67,1.52,5.3,2.52,7.86l11.65,30.36,3.16,8.29,6.93,18.18c.27.79.76,1.49,1.42,2.01.72.54,1.61.81,2.51.77h8.96l-31.22-78.39h-11.73Z"/>
      <path class="cls-6" d="M128.4,126c-4.29.08-13.67-.01-17.67-1.58-3.66-1.48-6.95-3.76-9.62-6.67-2.75-3.07-4.84-6.67-6.14-10.59-1.5-4.57-2.23-9.36-2.16-14.17-.07-4.79.65-9.56,2.14-14.12,1.29-3.93,3.38-7.55,6.14-10.63,2.68-2.91,5.96-5.2,9.62-6.69,8.09-3.11,17.04-3.11,25.13,0,3.65,1.49,6.92,3.78,9.58,6.69,2.73,3.09,4.8,6.71,6.08,10.63,1.49,4.56,2.22,9.33,2.16,14.12.07,4.81-.66,9.6-2.16,14.17-.23.68.07,4.66.31,8.39l3.67,9.21.03.02c3.65-3.96,6.51-8.59,8.41-13.64,2.16-5.8,3.23-11.96,3.16-18.15.07-6.18-1.01-12.32-3.16-18.12-1.98-5.32-5.02-10.18-8.94-14.28-3.91-4.04-8.61-7.22-13.82-9.35-5.68-2.3-11.75-3.45-17.88-3.39-6.11-.06-12.18,1.09-17.85,3.39-5.19,2.12-9.87,5.31-13.76,9.35-3.95,4.1-7.02,8.96-9.03,14.28-2.17,5.79-3.24,11.93-3.16,18.12-.08,6.19.99,12.35,3.16,18.15,2.02,5.31,5.09,10.16,9.03,14.26,3.89,4.04,8.6,7.21,13.82,9.3,5.66,2.26,11.7,3.39,17.79,3.32,4.97.05,10.32-.66,15.07-2.13l-4.52-12-.76-.11s-3.22,2.23-4.69,2.22Z"/>
      <path class="cls-2" d="M123.29,125.04c-3.94.07-7.85-.63-11.52-2.07-3.36-1.35-6.37-3.44-8.82-6.11-2.52-2.81-4.44-6.12-5.63-9.7-1.37-4.19-2.04-8.58-1.98-12.98-.06-4.39.6-8.77,1.97-12.94,1.19-3.6,3.1-6.92,5.63-9.75,2.45-2.67,5.46-4.76,8.82-6.14,7.41-2.85,15.62-2.85,23.03,0,3.35,1.37,6.35,3.46,8.78,6.14,2.51,2.83,4.4,6.15,5.58,9.75,1.37,4.18,2.04,8.55,1.98,12.94.07,4.41-.6,8.8-1.98,12.98-.09.27-.21.57-.33.87l4.89,12.27c2.4-3.02,4.32-6.39,5.68-10.01,1.92-5.16,2.87-10.62,2.81-16.13.06-5.49-.89-10.95-2.81-16.1-1.76-4.73-4.46-9.04-7.94-12.69-3.47-3.59-7.65-6.41-12.27-8.3-5.04-2.04-10.44-3.07-15.88-3.01-5.43-.05-10.82.97-15.85,3.01-4.61,1.89-8.77,4.71-12.22,8.3-3.51,3.64-6.24,7.96-8.02,12.69-1.92,5.14-2.88,10.6-2.81,16.1-.07,5.5.88,10.97,2.81,16.13,1.79,4.72,4.52,9.03,8.02,12.67,3.46,3.59,7.64,6.41,12.27,8.26,5.02,2.01,10.39,3.01,15.8,2.95,4.42.04,8.82-.61,13.04-1.92l-3.24-8.47c-3.02.84-6.78,1.29-9.8,1.26Z"/>
      <path class="cls-19" d="M403.95,97.78c-1.41,2.28-3.18,4.34-5.3,5.94-2.15,1.55-4.65,2.63-7.27,2.91l-.98.1c-.33.02-.66.01-.99.02-.66.03-1.32-.03-1.98-.09-.66-.03-1.31-.18-1.96-.29-.67-.09-1.25-.27-1.86-.51-2.41-1-4.66-2.54-6.96-3.95-2.3-1.43-4.63-2.85-7.15-4-2.5-1.12-5.26-2.06-8.21-1.84-.73.04-1.46.2-2.17.41-.36.11-.7.26-1.04.39l-.93.42-3.69,1.71c-2.45,1.15-4.88,2.31-7.34,3.38-4.91,2.13-9.95,3.97-15.15,4.6-5.25.65-10.59.66-15.76-.25-1.43-.25-2.85-.57-4.25-.95.17-.16.34-.33.5-.49,2.09-2.22,3.68-4.82,4.64-7.75.23-.74.42-1.5.55-2.29.11-.82.19-1.72.12-2.61-.1-1.67-.69-3.3-1.74-4.58-.06-.08-.11-.16-.18-.24-1.17-1.32-2.84-2.1-4.55-2.47-1.74-.35-3.25-.31-4.73-.17-.73.09-1.46.22-2.18.33-.73.13-1.45.37-2.17.55-.72.23-1.43.54-2.14.84l-1.03.57-.51.29-.48.36c-1.32.9-2.43,2.24-3.16,3.76-.72,1.53-1,3.33-.68,5,.3,1.67,1.09,3.2,2.15,4.43.28.29.54.62.85.88l.94.76c.61.42,1.19.8,1.8,1.17.9.54,1.82,1.02,2.75,1.48-2.23.61-4.62.92-7,1.16-5.17.45-10.48.3-15.7-.23-2.6-.29-5.21-.66-7.69-1.21-.6-.15-1.25-.27-1.81-.46l-.86-.26c-.28-.09-.5-.19-.75-.29-1-.43-2.12-1.03-3.12-1.68-2.04-1.31-3.92-2.96-5.82-4.78-1.91-1.81-3.85-3.83-6.25-5.67-2.37-1.83-5.36-3.43-8.62-4-.81-.1-1.62-.2-2.43-.27-.83.01-1.66,0-2.48.06-1.66.19-3.32.58-4.81,1.2-3.01,1.22-5.4,2.94-7.64,4.47-2.23,1.56-4.36,3.01-6.55,4.3-2.19,1.29-4.47,2.34-6.8,3.29-1.19.41-2.36.88-3.58,1.22l-1.83.52c-.3.08-.62.19-.9.25l-.83.17c-2.21.46-4.21.35-5.39-.35-.61-.34-1.13-.82-1.6-1.52-.48-.68-.88-1.61-1.19-2.63-.63-2.05-.92-4.5-1.03-7-.11-2.51-.06-5.11.05-7.75l.4-8.1c.05-1.4.11-2.77.08-4.29-.03-1.48-.1-2.93-.24-4.36-.52-5.73-1.64-11.3-3.28-16.78-1.66-5.47-3.84-10.85-7.01-15.93-.54-.86-1.12-1.7-1.73-2.54-1.18-1.62-2.47-3.2-3.94-4.67-2.22-2.23-4.89-4.21-7.93-5.64l-1.15-.52-1.2-.43s-.06-.02-.08-.03c-.77-.29-1.57-.48-2.36-.69-1.64-.39-3.26-.64-5.12-.66-1.83,0-3.89.22-6.08,1.18-1.09.51-2.19,1.21-3.17,2.18-.97.98-1.75,2.2-2.24,3.51-.13.34-.24.69-.33,1.04l10,2.53s0-.03.02-.03c.29-.14.96-.33,1.82-.34.85-.02,1.92.1,2.91.32.49.12.98.2,1.45.38l.72.23.7.3c.9.38,1.78.87,2.63,1.45,2.7,1.82,5.11,4.5,7.13,7.55.16.24.31.49.46.73,2.45,3.86,4.37,8.25,5.87,12.79,1.58,4.84,2.74,9.9,3.32,14.93.31,2.55.38,4.87.32,7.54l-.2,8.11c-.05,2.76-.04,5.57.16,8.46.1,1.44.25,2.9.5,4.4.23,1.49.58,3.01,1.1,4.56.52,1.54,1.21,3.13,2.31,4.65,1.07,1.51,2.59,2.92,4.38,3.82,1.78.91,3.73,1.34,5.48,1.36,1.77.06,3.43-.15,4.96-.51l1.15-.27c.38-.09.7-.21,1.05-.31l2.06-.64c1.37-.43,2.71-.99,4.06-1.5,2.65-1.15,5.25-2.45,7.69-3.97,2.44-1.51,4.73-3.17,6.89-4.77,2.16-1.58,4.21-3.06,6.2-3.91,1.97-.87,3.99-1.12,6.17-.8,2.1.32,4.05,1.26,5.99,2.66,3.87,2.8,7.56,7.3,12.71,10.39,1.29.79,2.57,1.45,4.07,2.05.38.13.79.3,1.15.4l1.09.29c.73.22,1.42.32,2.13.48,2.81.55,5.58.87,8.35,1.1,5.55.42,11.1.44,16.69-.18,2.79-.35,5.6-.77,8.39-1.68.7-.17,1.39-.5,2.09-.75.35-.15.68-.25,1.05-.43.36-.19.75-.36,1.08-.57.08-.04.15-.1.22-.14,2.21.66,4.45,1.16,6.72,1.5,5.51.83,11.11.67,16.56-.15,5.54-.81,10.73-2.88,15.66-5.17,2.47-1.15,4.89-2.38,7.3-3.59l3.62-1.8.91-.44c.28-.11.56-.25.85-.34.58-.18,1.18-.34,1.8-.39,2.48-.26,5.06.49,7.48,1.52,2.43,1.04,4.77,2.37,7.09,3.74,2.34,1.34,4.61,2.84,7.23,3.85.65.24,1.38.44,2.05.52.68.09,1.36.23,2.05.25.69.05,1.38.09,2.07.04.35-.02.69-.01,1.04-.05l1.03-.14c2.75-.36,5.35-1.57,7.53-3.23,2.16-1.71,3.91-3.87,5.28-6.22,2.73-4.72,4.28-10.02,5-15.37-.85,5.32-2.54,10.57-5.35,15.15ZM300.68,101.32c-.54-.34-1.08-.72-1.57-1.08l-.62-.53c-.21-.17-.36-.4-.54-.6-.67-.83-1.13-1.8-1.28-2.79-.31-2.02.72-3.97,2.55-5.19,1.79-1.29,4.26-1.84,6.71-2.06,2.54-.14,4.45.07,5.74,1.5.02.02.03.04.04.06.58.7.85,1.61.86,2.5.02.46-.04.91-.12,1.42-.1.54-.25,1.09-.44,1.64-.77,2.19-2.12,4.29-3.78,5.95-.74.73-1.54,1.37-2.38,1.88-1.79-.76-3.52-1.66-5.15-2.7Z"/>
      <path class="cls-1" d="M311.99,96.19c.19-.55.33-1.1.44-1.64.08-.52.14-.97.12-1.42,0-.92-.29-1.86-.9-2.57-1.29-1.43-3.2-1.64-5.74-1.5-2.44.22-4.92.77-6.71,2.06-1.83,1.22-2.86,3.18-2.55,5.19.15,1,.61,1.97,1.28,2.79.19.19.33.42.54.6l.62.53c.5.36,1.04.74,1.57,1.08,1.63,1.04,3.36,1.93,5.15,2.7.84-.51,1.64-1.15,2.38-1.88,1.66-1.66,3.01-3.76,3.78-5.95Z"/>
      <path class="cls-11" d="M185.65,26.31c-.19-1.91-.66-3.71-1.32-5.37-1.28-3.36-3.28-6.19-5.55-8.63-2.29-2.43-4.93-4.4-7.72-6-1.18-.7-2.27-1.2-3.38-1.74l-11.44,8.45c.87.21,1.74.45,2.61.73,1.1.41,2.22.79,3.32,1.28,1.08.5,2.27.99,3.18,1.51,1.93,1.04,3.7,2.3,5.15,3.77.17.18.33.36.49.54,1.21,1.33,2.24,2.78,2.83,4.27.74,1.68.9,3.36.66,4.52-.3,1.15-.76,1.76-1.87,2.35-.2.1-.43.18-.67.26-.45.14-.97.25-1.52.33-.46.01-.89.1-1.39.06h-.73s-.77-.09-.77-.09c-.51-.03-1.05-.14-1.59-.23-.53-.07-1.09-.23-1.64-.36l-.41-.1-.2-.05-.09-.03c-.13-.03-.25-.08-.37-.13-.23-.1-.45-.22-.63-.36-.38-.27-.66-.66-.79-.97-.06-.15-.09-.28-.11-.35,0-.01,0-.01,0-.02l-10-2.53c-.25.97-.36,1.96-.33,2.9.04,1.28.3,2.49.7,3.6.81,2.22,2.2,4.1,3.92,5.51.86.72,1.81,1.3,2.79,1.78.5.24,1,.44,1.51.61l.38.13.29.08.57.16c.76.2,1.5.43,2.31.57.79.16,1.58.33,2.41.41l1.24.15,1.29.06c.85.06,1.77-.01,2.66-.05,1.83-.19,3.73-.55,5.63-1.39.84-.37,1.66-.85,2.46-1.39.99-.69,1.93-1.49,2.74-2.44,1.46-1.7,2.46-3.75,2.99-5.79.01-.05.02-.1.03-.16.49-2,.55-3.97.36-5.83Z"/>
      <path class="cls-2" d="M93.9,132.76l-8.02,20.14h8.96c.91.03,1.8-.28,2.51-.85.63-.49,1.12-1.13,1.41-1.88l4.52-11.85c-3.36-1.45-6.51-3.32-9.38-5.56Z"/>
    </g>
    <g>
      <path class="cls-10" d="M83.11,211.1c-2.95-1-6.15-1.18-9.01-.71-3.62.56-6.86,1.89-9.81,3.48-1.48.8-2.89,1.69-4.25,2.64-.68.47-1.34.97-2,1.48-.67.53-1.26,1-2,1.68l5.48,5.83c.38-.35.96-.85,1.48-1.26.53-.43,1.08-.85,1.64-1.25,1.12-.81,2.28-1.55,3.46-2.22,2.36-1.32,4.83-2.33,7.22-2.73,2.29-.39,4.41-.18,6.3.67l1.5-7.6Z"/>
      <g>
        <path class="cls-22" d="M45.34,204.98c.28-.07,3.77-1.55,5.12,0,1.35,1.55,2.72,10.2,8.12,14.12,5.4,3.92,9.09,4.83,9.09,4.83l-21.47,8.22-9.86-7.35s9.77-2.61,10.54-5.8c.77-3.19-1.84-8.9-2.22-9.48s-1.87-3.92.68-4.54Z"/>
        <path class="cls-5" d="M46.32,224.03s2.1-1.45,5.98-1.45,5.64,1.45,5.64,1.45c0,0,4.38-.73,6.31-.73s3.62.73,3.62.73c0,0,2.78-.73,5.64-.73s20.2,4.59,27.77,30.31.08,44.67-7.57,53.28c-7.66,8.61-18.6,12.67-20.28,12.47s-5.22-.77-5.22-.77c0,0-1.94,1.26-6.99,1.26s-6.31-1.26-6.31-1.26c0,0-4.21,1.26-8.58,1.26s-6.9-1.93-6.9-1.93c0,0-3.03,1.35-7.83,1.35s-15.91-2.51-23.9-17.79c-8-15.28-11.28-35.68-2.36-54.44,8.92-18.76,21.71-23.01,25.42-23.5,3.7-.48,4.71.19,4.71.19,0,0,2.61-.77,5.72-.77s5.13,1.06,5.13,1.06Z"/>
        <path class="cls-21" d="M101.28,253.62c-.23-.79-.48-1.56-.73-2.31.04.14-.09,8.08-.03,19.92.03,6.76-5.35,20.77-6.05,20.19-.7-.58-.62-6.88,0-12.1,1.2-10.15-2.07-18.54-2.07-18.54,0,0,2.34,10.15-2.89,24.8-3.91,10.95-22.61,28.08-26.37,28.08s0-18.83,0-18.83c0,0-6.95,18.11-13.47,17.39-6.52-.72-7.82-14.72-7.82-14.72,0,0-.29,16.17-8.55,16.17s-19.99-24.63-19.99-24.63c0,0,10.43,23.62,6.37,21.44-4.06-2.17-11.16-9.01-15.94-20.66-1.92-4.68-2.9-8.9-3.39-12.28.93,8.64,3.62,16.85,7.34,23.95,8,15.28,19.1,17.79,23.9,17.79s7.83-1.35,7.83-1.35c0,0,2.52,1.93,6.9,1.93s8.58-1.26,8.58-1.26c0,0,1.26,1.26,6.31,1.26s6.99-1.26,6.99-1.26c0,0,3.53.58,5.22.77,1.68.19,12.62-3.87,20.28-12.47,7.66-8.61,15.15-27.56,7.57-53.28Z"/>
        <path class="cls-18" d="M85.69,231.9c5.11,3.25,7.58,5.36,8.79,6.66-8.26-12.57-18.79-15.26-20.97-15.26-2.86,0-5.64.73-5.64.73,0,0-1.68-.73-3.62-.73s-6.31.73-6.31.73c0,0-1.77-1.45-5.64-1.45s-5.98,1.45-5.98,1.45c0,0-2.02-1.06-5.13-1.06s-5.72.77-5.72.77c0,0-1.01-.68-4.71-.19-2.39.31-8.57,2.23-15.06,8.57.61-.33,7.74-4.21,10.09-4.49,2.46-.29-3.35,8.41-3.35,8.41,0,0,6.94-7.25,12.94-8.34,6-1.09,8.08-.36,8.08-.36,0,0-1.39,3.46-1.83,4.81-.44,1.35-1.2,4.62-1.2,4.62,0,0,6.27-11.02,11.78-10.59,5.51.44,11.07,11.53,11.07,11.53,0,0-3.85-10.4-1.14-11.54,2.71-1.15,20.32,10.75,20.32,10.75,0,0-2.78-4.93-3.66-5.87-.88-.94-3.28-5.6,6.88.86Z"/>
        <path class="cls-4" d="M47.68,249.97l-9.31,23.75c.43,1.31,1.17,2.49,2.06,3.47,1.04,1.13,2.68,2.43,4.13,3.01l.45-1.05,5.13-15.33c.29-.74.6-1.66.91-2.64.31-.99.6-2.06.9-3.21.5,1.96,1.11,3.89,1.85,5.77l8.55,22.28,5.45,15.61,1.95,3.82c.2.58.56,1.09,1.04,1.47.53.39,1.18.59,1.84.57h6.57l-22.91-57.53h-8.61Z"/>
        <path class="cls-3" d="M32.02,289.44l-.12.11-7.13,17.91h6.57c.67.02,1.32-.2,1.84-.63.46-.36.82-.83,1.04-1.38l2.01-3.82,2.47-7.9c-.05-.02-.11-.07-.17-.1-2.36-1.09-4.54-2.5-6.5-4.2Z"/>
        <path class="cls-2" d="M48.18,252.34l-8.38,21.41c.54,1.05,1.14,2.03,1.93,2.9.92,1,2.07,1.84,3.27,2.5l5.37-14.5c.26-.65.53-1.47.8-2.35.27-.88.54-1.83.8-2.85.44,1.74.99,3.45,1.64,5.13l7.6,19.8,2.06,5.41,4.52,11.85c.18.52.5.97.93,1.31.47.35,1.05.53,1.63.5h5.84l-20.35-51.11h-7.65Z"/>
        <path class="cls-7" d="M55.55,285.88c-2.8.05-8.91,0-11.52-1.03-2.39-.96-4.53-2.45-6.27-4.35-1.8-2-3.16-4.35-4-6.9-.98-2.98-1.45-6.1-1.41-9.24-.05-3.12.43-6.24,1.4-9.21.84-2.56,2.21-4.92,4-6.93,1.74-1.9,3.88-3.39,6.27-4.36,5.27-2.03,11.11-2.03,16.38,0,2.38.97,4.51,2.46,6.25,4.36,1.78,2.02,3.13,4.37,3.97,6.93.97,2.97,1.45,6.08,1.41,9.21.05,3.14-.43,6.26-1.41,9.24-.15.44.04,3.04.2,5.47l2.39,6.01h.02c2.38-2.57,4.24-5.59,5.48-8.88,1.41-3.78,2.11-7.8,2.06-11.83.04-4.03-.66-8.03-2.06-11.81-1.29-3.47-3.27-6.64-5.83-9.31-2.55-2.63-5.62-4.71-9.01-6.09-3.7-1.5-7.66-2.25-11.66-2.21-3.99-.04-7.94.71-11.63,2.21-3.38,1.38-6.44,3.46-8.97,6.09-2.57,2.67-4.58,5.84-5.89,9.31-1.41,3.78-2.11,7.78-2.06,11.81-.05,4.04.64,8.05,2.06,11.83,1.32,3.46,3.32,6.62,5.89,9.29,2.54,2.64,5.61,4.7,9.01,6.06,3.69,1.47,7.63,2.21,11.6,2.16,3.24.03,6.73-.43,9.83-1.39l-2.95-7.82-.49-.07s-2.1,1.45-3.06,1.44Z"/>
        <path class="cls-2" d="M52.22,285.26c-2.57.05-5.12-.41-7.51-1.35-2.19-.88-4.15-2.24-5.75-3.99-1.65-1.83-2.89-3.99-3.67-6.33-.9-2.73-1.33-5.59-1.29-8.47-.04-2.86.39-5.72,1.28-8.44.77-2.35,2.02-4.51,3.67-6.35,1.6-1.74,3.56-3.11,5.75-4,4.83-1.86,10.18-1.86,15.02,0,2.18.89,4.14,2.26,5.73,4,1.63,1.85,2.87,4.01,3.64,6.35.89,2.72,1.33,5.57,1.29,8.44.04,2.87-.39,5.73-1.29,8.47-.06.17-.14.37-.22.57l3.19,8c1.56-1.97,2.82-4.17,3.7-6.52,1.25-3.36,1.87-6.93,1.83-10.51.04-3.58-.58-7.14-1.83-10.49-1.14-3.08-2.91-5.9-5.18-8.27-2.26-2.34-4.99-4.18-8-5.41-3.29-1.33-6.81-2-10.36-1.96-3.54-.04-7.05.63-10.34,1.96-3,1.23-5.72,3.07-7.97,5.41-2.29,2.37-4.07,5.19-5.23,8.27-1.25,3.35-1.88,6.91-1.83,10.49-.05,3.59.57,7.15,1.83,10.51,1.17,3.08,2.95,5.88,5.23,8.26,2.26,2.34,4.98,4.18,8,5.39,3.28,1.31,6.78,1.96,10.3,1.92,2.88.03,5.75-.39,8.5-1.25l-2.11-5.52c-1.97.55-4.42.84-6.39.82Z"/>
        <path class="cls-2" d="M33.06,290.29l-5.23,13.13h5.84c.59.02,1.17-.18,1.63-.56.41-.32.73-.74.92-1.22l2.95-7.72c-2.19-.94-4.25-2.16-6.12-3.63Z"/>
      </g>
      <g>
        <path class="cls-20" d="M167.21,262.53c-.23,3.95-1.12,7.84-2.64,11.49-1.36,3.28-3.31,6.28-5.74,8.86-2.31,2.42-5.08,4.36-8.14,5.71-3.09,1.35-6.44,2.03-9.81,2-2.57.05-5.12-.47-7.47-1.5-2.12-.96-3.98-2.41-5.43-4.22-1.52-1.94-2.61-4.17-3.21-6.56-.7-2.76-.93-5.61-.69-8.45.23-3.95,1.13-7.82,2.66-11.47,1.36-3.28,3.31-6.29,5.74-8.89,2.29-2.43,5.05-4.38,8.11-5.73,3.07-1.34,6.4-2.03,9.75-2,2.59-.04,5.15.47,7.52,1.51,2.14.96,4.02,2.41,5.48,4.24,1.52,1.94,2.61,4.18,3.21,6.57.68,2.76.91,5.61.66,8.44ZM163.73,262.6c.21-2.51.03-5.04-.55-7.49-.48-2.06-1.38-4-2.66-5.68-1.2-1.55-2.76-2.79-4.54-3.61-1.95-.88-4.08-1.31-6.22-1.27-2.85-.02-5.67.58-8.26,1.76-2.61,1.18-4.94,2.88-6.86,5-2.09,2.35-3.74,5.06-4.87,8-1.3,3.35-2.07,6.88-2.28,10.47-.22,2.51-.03,5.04.55,7.49.48,2.05,1.39,3.99,2.66,5.67,1.21,1.54,2.77,2.78,4.55,3.6,1.95.87,4.07,1.31,6.2,1.27,2.87.02,5.71-.57,8.33-1.74,2.6-1.17,4.93-2.88,6.84-5,2.07-2.33,3.71-5.02,4.83-7.93,1.31-3.37,2.08-6.93,2.28-10.54Z"/>
        <path class="cls-20" d="M177.8,267.29c.96-1.7,2.09-3.3,3.35-4.78,1.14-1.33,2.42-2.53,3.83-3.57,1.22-.92,2.57-1.67,4-2.22,1.28-.49,2.63-.75,4-.76,1.27-.04,2.52.25,3.64.85,1,.57,1.8,1.43,2.29,2.47.59,1.25.91,2.62.94,4,.06,1.8-.09,3.59-.46,5.35l-4,21.5h-3.18l4-21.5c.6-3.2.56-5.65-.13-7.36-.69-1.72-2.15-2.57-4.38-2.57-1.35.03-2.67.37-3.87,1-1.43.72-2.75,1.64-3.91,2.74-1.39,1.29-2.63,2.73-3.7,4.29-1.24,1.78-2.31,3.68-3.2,5.66l-3.3,17.78h-3.18l6.38-33.73h1.45c.79,0,1.16.4,1.1,1.21l-1.67,9.64Z"/>
        <path class="cls-20" d="M205.64,290.11l9.34-49.17h3.15l-9.42,49.18h-3.07Z"/>
        <path class="cls-20" d="M229.42,256.48l-6.44,33.63h-3.15l6.44-33.63h3.15ZM232.69,244.94c-.02.4-.14.78-.33,1.13-.19.35-.43.66-.72.93-.29.27-.63.48-1,.64-.34.16-.71.24-1.08.24-.37,0-.73-.08-1.06-.24-.32-.15-.61-.37-.84-.64-.23-.28-.42-.59-.54-.93-.13-.36-.18-.75-.14-1.13.03-.4.14-.79.32-1.15.18-.37.41-.7.69-1,.27-.27.59-.5.94-.65.35-.16.72-.24,1.1-.24.35,0,.69.09,1,.24.33.15.63.37.88.64.27.29.46.63.58,1,.15.37.21.76.2,1.16Z"/>
        <path class="cls-20" d="M241.1,267.29c.96-1.7,2.09-3.3,3.36-4.78,1.12-1.33,2.39-2.53,3.78-3.57,1.22-.92,2.57-1.67,4-2.22,1.28-.49,2.63-.75,4-.76,1.27-.04,2.52.25,3.64.85,1,.57,1.8,1.43,2.29,2.47.59,1.25.91,2.62.94,4,.06,1.8-.09,3.59-.46,5.35l-4,21.5h-3.18l4-21.5c.6-3.2.56-5.65-.13-7.36-.69-1.72-2.15-2.57-4.38-2.57-1.35.03-2.67.37-3.87,1-1.43.72-2.75,1.64-3.91,2.74-1.39,1.29-2.63,2.73-3.7,4.29-1.23,1.79-2.31,3.68-3.2,5.66l-3.3,17.72h-3.18l6.38-33.73h1.45c.79,0,1.16.4,1.1,1.21l-1.63,9.7Z"/>
        <path class="cls-20" d="M293.98,283.86c-1.08,1.07-2.23,2.07-3.44,3-1.04.8-2.15,1.5-3.32,2.08-1.09.53-2.23.93-3.41,1.2-1.22.27-2.47.4-3.72.39-1.69.04-3.36-.28-4.92-.93-1.36-.59-2.56-1.5-3.48-2.66-.96-1.22-1.65-2.64-2-4.15-.42-1.8-.55-3.66-.39-5.5.12-1.72.41-3.43.86-5.1.45-1.7,1.07-3.36,1.85-4.94.77-1.57,1.7-3.05,2.77-4.42,1.04-1.35,2.26-2.55,3.62-3.58,1.32-1.02,2.79-1.83,4.36-2.41,1.6-.58,3.29-.88,5-.87,1.41-.04,2.8.19,4.12.69.99.39,1.89.97,2.65,1.72.65.63,1.15,1.41,1.45,2.27.25.72.36,1.49.32,2.25-.06.9-.25,1.79-.56,2.64-.33.89-.84,1.71-1.49,2.4-.79.83-1.71,1.54-2.71,2.1-1.36.75-2.79,1.35-4.27,1.81-2.01.62-4.06,1.12-6.14,1.5-2.37.45-5.15.85-8.33,1.18-.08.45-.15.92-.21,1.39s-.12.93-.15,1.39c-.24,3.35.34,6,1.73,7.87s3.61,2.76,6.68,2.76c2.05.02,4.07-.45,5.89-1.39.73-.37,1.43-.8,2.09-1.28.6-.45,1.14-.88,1.62-1.29.48-.4.89-.73,1.24-1,.26-.23.58-.36.92-.39.27,0,.53.12.69.34l.68.93ZM287.48,258.37c-1.73-.02-3.45.36-5,1.13-1.53.77-2.9,1.81-4.07,3.06-1.23,1.34-2.28,2.83-3.11,4.45-.86,1.67-1.53,3.43-2,5.25,2.88-.31,5.37-.68,7.47-1.1,1.81-.34,3.6-.78,5.37-1.31,1.26-.38,2.47-.88,3.62-1.51.82-.44,1.57-1,2.22-1.67.47-.5.84-1.09,1.08-1.73.21-.61.34-1.25.38-1.89.03-.52-.04-1.05-.21-1.54-.2-.57-.55-1.09-1-1.5-.54-.5-1.17-.88-1.86-1.13-.92-.35-1.9-.52-2.89-.51Z"/>
        <path class="cls-20" d="M350.46,290.11h-2.61c-.26.01-.52-.08-.72-.26-.17-.17-.29-.38-.33-.62l-2.43-14h-21.39l-7.84,14c-.14.25-.34.47-.59.62-.24.17-.53.26-.83.26h-2.56l27.2-47.83h3.35l8.75,47.83ZM343.98,272.77l-4.26-24.33c-.06-.41-.13-.86-.18-1.34s-.11-1-.16-1.57c-.27.56-.52,1.09-.77,1.57s-.48.94-.69,1.37l-13.59,24.3h19.65Z"/>
        <path class="cls-20" d="M376.7,287.24c-1.02.78-2.13,1.45-3.29,2-1.02.48-2.09.82-3.2,1-1.12.18-2.25.27-3.39.27-1.72.04-3.43-.3-5-1-1.34-.63-2.5-1.59-3.37-2.79-.9-1.28-1.52-2.73-1.83-4.26-.37-1.76-.48-3.57-.33-5.37.12-1.79.43-3.56.93-5.29.48-1.73,1.13-3.4,1.95-5,.78-1.53,1.72-2.97,2.81-4.3,1.05-1.3,2.25-2.46,3.59-3.45,1.28-.96,2.69-1.73,4.19-2.28,1.51-.56,3.1-.84,4.71-.83,1.01-.01,2.02.1,3,.32.83.2,1.64.5,2.39.91.7.39,1.35.88,1.92,1.44.58.58,1.11,1.21,1.56,1.89l-1,1.12c-.18.22-.45.36-.74.37-.23,0-.49-.18-.79-.54-.37-.43-.79-.82-1.24-1.17-.63-.48-1.32-.87-2.06-1.16-1.05-.4-2.16-.59-3.28-.55-1.9,0-3.77.53-5.39,1.53-1.76,1.06-3.31,2.44-4.55,4.08-1.37,1.81-2.47,3.81-3.25,5.94-.84,2.25-1.35,4.61-1.52,7-.12,1.45-.04,2.9.22,4.33.21,1.25.68,2.43,1.37,3.49.66.97,1.55,1.75,2.6,2.27,1.2.57,2.53.85,3.86.81,1.09.01,2.18-.12,3.24-.39.89-.25,1.76-.58,2.58-1,.7-.36,1.37-.79,2-1.27.58-.46,1.1-.89,1.56-1.27l1.16-1c.24-.22.54-.36.86-.39.27,0,.52.13.69.34l.64.88c-1.11,1.2-2.32,2.31-3.6,3.32Z"/>
        <path class="cls-20" d="M406.91,287.24c-1.02.78-2.12,1.45-3.28,2-1.02.48-2.09.81-3.2,1-1.12.18-2.26.27-3.4.27-1.72.05-3.43-.3-5-1-1.35-.62-2.51-1.59-3.37-2.79-.9-1.28-1.52-2.73-1.83-4.26-.37-1.76-.48-3.57-.34-5.37.27-3.58,1.25-7.07,2.88-10.27.79-1.55,1.74-3.01,2.84-4.36,1.05-1.29,2.26-2.45,3.59-3.45,1.28-.96,2.7-1.72,4.2-2.28,1.5-.56,3.1-.84,4.7-.83,1.01-.01,2.02.09,3,.32.83.2,1.64.5,2.39.91.69.41,1.33.9,1.89,1.48.58.58,1.11,1.21,1.56,1.89l-1,1.12c-.18.22-.45.36-.74.37-.22,0-.48-.18-.79-.54-.89-1.04-2.02-1.84-3.3-2.33-1.04-.4-2.15-.59-3.27-.55-1.91,0-3.77.53-5.4,1.53-1.76,1.06-3.3,2.44-4.54,4.08-1.38,1.81-2.47,3.81-3.25,5.94-.85,2.25-1.37,4.6-1.53,7-.11,1.45-.04,2.9.23,4.33.2,1.25.68,2.44,1.38,3.49.66.96,1.55,1.75,2.59,2.27,1.21.57,2.53.85,3.87.81,1.09.01,2.18-.12,3.23-.39.89-.24,1.76-.58,2.59-1,.71-.36,1.38-.78,2-1.27.59-.46,1.11-.89,1.56-1.27l1.17-1c.23-.22.53-.36.85-.39.27,0,.52.13.69.34l.65.88c-1.12,1.2-2.33,2.3-3.62,3.32Z"/>
        <path class="cls-20" d="M441.33,283.86c-1.08,1.07-2.22,2.07-3.43,3-1.04.8-2.16,1.5-3.33,2.08-1.09.53-2.23.94-3.41,1.2-1.22.27-2.46.4-3.71.39-1.69.04-3.36-.28-4.92-.93-1.36-.59-2.56-1.5-3.48-2.66-.96-1.22-1.65-2.64-2-4.15-.41-1.8-.54-3.66-.39-5.5.26-3.48,1.18-6.87,2.71-10,.77-1.57,1.7-3.05,2.78-4.42,1.04-1.34,2.26-2.55,3.61-3.58,1.33-1.01,2.8-1.83,4.36-2.41,1.6-.58,3.29-.88,5-.87,1.41-.04,2.81.19,4.13.69,1.02.38,1.95.96,2.73,1.72.62.63,1.1,1.39,1.38,2.23.25.72.35,1.49.31,2.25-.06.9-.24,1.79-.55,2.64-.34.89-.85,1.71-1.51,2.4-.8.83-1.71,1.54-2.72,2.1-1.36.75-2.79,1.35-4.27,1.81-2.01.62-4.06,1.13-6.14,1.5-2.37.45-5.15.85-8.32,1.18-.08.45-.15.92-.22,1.39s-.12.93-.15,1.39c-.23,3.35.34,6,1.73,7.87,1.39,1.87,3.62,2.76,6.68,2.76,1.1.01,2.19-.12,3.26-.39.91-.24,1.8-.57,2.64-1,.73-.37,1.42-.8,2.08-1.28.61-.45,1.15-.88,1.63-1.29s.89-.73,1.23-1c.26-.22.59-.36.93-.39.27,0,.52.12.68.34l.68.93ZM434.84,258.37c-1.73-.02-3.45.36-5,1.13-1.52.77-2.9,1.81-4.06,3.06-1.24,1.33-2.29,2.83-3.12,4.45-.85,1.67-1.52,3.43-2,5.25,2.88-.31,5.38-.68,7.48-1.1,1.81-.34,3.6-.78,5.36-1.31,1.26-.38,2.47-.88,3.62-1.51.81-.44,1.55-1.01,2.2-1.67.48-.51.86-1.12,1.1-1.78.21-.61.34-1.25.39-1.89.02-.52-.05-1.04-.21-1.54-.2-.57-.55-1.09-1-1.5-.54-.5-1.18-.88-1.87-1.13-.93-.33-1.91-.49-2.89-.46h0Z"/>
        <path class="cls-20" d="M470.54,260.6c-.15.29-.45.48-.78.48-.31-.05-.59-.2-.8-.43-.39-.35-.81-.66-1.25-.94-.62-.42-1.29-.75-2-1-2.09-.61-4.32-.56-6.38.15-1,.36-1.94.88-2.78,1.54-.78.62-1.44,1.38-1.95,2.23-.49.82-.78,1.74-.84,2.69-.09.81.07,1.62.47,2.33.41.65.96,1.21,1.6,1.64.72.48,1.5.88,2.31,1.2.87.34,1.76.67,2.69,1,.91.34,1.8.72,2.67,1.14.83.39,1.61.9,2.3,1.5.67.59,1.2,1.32,1.55,2.14.39.97.53,2.02.43,3.06-.1,1.46-.49,2.88-1.15,4.19-.67,1.36-1.59,2.58-2.72,3.6-1.17,1.07-2.53,1.92-4,2.52-1.62.65-3.35.97-5.09.95-1.86.06-3.7-.32-5.38-1.13-1.39-.74-2.61-1.76-3.59-3l.89-1.15c.21-.32.56-.53.95-.54.23,0,.5.18.81.54.39.44.83.84,1.3,1.2.66.5,1.4.91,2.18,1.2,1.1.39,2.27.58,3.44.54,1.27.02,2.53-.21,3.72-.66,1.08-.41,2.08-1.03,2.93-1.81.83-.75,1.5-1.65,2-2.65.5-1,.79-2.08.87-3.19.1-.86-.07-1.73-.47-2.5-.39-.69-.93-1.29-1.58-1.75-.72-.5-1.5-.92-2.32-1.23-.86-.34-1.76-.67-2.68-1-.91-.31-1.81-.67-2.68-1.08-.83-.37-1.6-.85-2.3-1.43-.68-.54-1.23-1.23-1.61-2.01-.4-.95-.55-1.98-.44-3,.11-1.3.49-2.56,1.12-3.7.66-1.22,1.54-2.31,2.59-3.21,1.12-.96,2.41-1.71,3.79-2.23,1.47-.56,3.04-.86,4.62-.86,1.66-.04,3.32.26,4.86.88,1.36.6,2.56,1.5,3.51,2.64l-.81,1.14Z"/>
        <path class="cls-20" d="M497.1,260.6c-.15.29-.44.47-.77.48-.31-.04-.59-.2-.8-.43-.39-.34-.81-.66-1.25-.94-.62-.42-1.29-.75-2-1-2.09-.61-4.32-.56-6.38.15-1,.36-1.94.88-2.78,1.54-.78.62-1.43,1.38-1.94,2.23-.49.82-.78,1.74-.85,2.69-.08.81.08,1.62.48,2.33.4.66.95,1.22,1.59,1.64.73.48,1.5.89,2.32,1.2.86.34,1.76.67,2.68,1s1.82.72,2.68,1.14c.83.39,1.6.9,2.29,1.5.67.59,1.2,1.32,1.56,2.14.39.97.53,2.02.43,3.06-.11,1.46-.5,2.88-1.16,4.19-.67,1.36-1.59,2.58-2.72,3.6-2.49,2.26-5.74,3.5-9.11,3.47-3.49.19-6.85-1.33-9-4.09l.89-1.15c.22-.34.6-.54,1-.54.22,0,.49.18.8.54.4.44.83.84,1.3,1.2.67.5,1.41.91,2.19,1.2,1.1.4,2.27.58,3.44.54,1.27.02,2.53-.21,3.71-.66,1.08-.41,2.08-1.03,2.93-1.81.82-.75,1.5-1.65,2-2.65.49-1,.78-2.08.86-3.19.1-.86-.07-1.73-.47-2.5-.39-.69-.93-1.29-1.58-1.75-.72-.5-1.49-.91-2.31-1.23-.87-.34-1.76-.67-2.69-1-.91-.31-1.81-.68-2.68-1.08-.83-.37-1.6-.85-2.3-1.43-.68-.56-1.23-1.26-1.6-2.05-.4-.95-.55-1.98-.43-3,.09-1.32.47-2.61,1.11-3.77.66-1.22,1.54-2.31,2.59-3.21,1.12-.96,2.41-1.71,3.79-2.23,1.49-.56,3.08-.84,4.67-.83,1.66-.04,3.31.26,4.85.88,1.37.62,2.59,1.54,3.54,2.71l-.88,1.11Z"/>
      </g>
      <path class="cls-12" d="M512.22,264.33c.48,3,.62,6.05.49,9.07-.14,3.03-.57,6.05-1.45,8.94-.88,2.88-2.19,5.67-4.1,8-.95,1.17-2.02,2.23-3.21,3.15-1.2.91-2.45,1.76-3.74,2.56-5.16,3.16-10.73,5.62-16.45,7.56-5.73,1.93-11.64,3.34-17.63,4.06-5.98.71-12.07.74-17.98-.32-1.48-.26-2.94-.6-4.37-1.01-1.44-.4-2.82-.92-4.31-1.4-2.93-.96-5.98-1.6-9.06-1.87-6.18-.59-12.38.39-18.31,1.83-5.94,1.46-11.74,3.29-17.58,4.83-5.84,1.56-11.74,2.83-17.7,3.65-5.96.8-11.98,1.29-17.88.73-2.94-.29-5.83-.87-8.6-1.82-2.78-.93-5.43-2.24-8.08-3.67-2.65-1.43-5.3-2.95-8.06-4.33-2.75-1.4-5.58-2.65-8.48-3.73-1.45-.55-2.91-1.05-4.38-1.51-1.44-.48-3.03-.92-4.6-1.19-3.16-.58-6.44-.58-9.6-.08-3.17.49-6.19,1.44-9.09,2.55-2.9,1.11-5.7,2.37-8.47,3.6-5.53,2.49-11.04,4.85-16.73,6.58-5.69,1.75-11.53,2.92-17.45,3.46-5.91.57-11.89.53-17.84.06-2.95-.26-6.02-.51-8.73-1.11-2.78-.6-5.53-1.59-8.23-2.75-5.4-2.33-10.62-5.36-16.01-8.25-5.38-2.89-10.98-5.75-17.21-7.44-3.1-.85-6.38-1.34-9.7-1.29-1.66,0-3.32.2-4.97.48-1.61.32-3.21.72-4.77,1.26-3.12,1.06-6.06,2.59-8.72,4.35-2.69,1.74-5.12,3.68-7.52,5.52-4.74,3.7-9.47,6.92-14.83,8.59-5.33,1.71-11.09,2.03-16.86,1.53-.72-.05-1.44-.16-2.17-.23l-1.08-.13-.97-.16c-1.28-.25-2.51-.61-3.66-1.12-2.28-1.02-4.17-2.64-5.65-4.72-2.96-4.22-4.25-9.96-4.95-15.7-.69-5.79-.8-11.78-.82-17.8-.02-6.03.09-12.11,0-18.26-.09-6.14-.33-12.36-1.25-18.64-.46-3.14-1.11-6.3-2.08-9.43-.98-3.14-2.28-6.25-4.15-9.19-1.87-2.92-4.46-5.77-7.98-7.55-1.2-.62-2.48-1.06-3.78-1.37l-1.48,7.52c.64.16,1.26.38,1.85.66,1.96.94,3.68,2.67,5.11,4.82,2.86,4.38,4.43,9.95,5.34,15.65.92,5.73,1.25,11.68,1.41,17.67.16,6,.13,12.06.23,18.18.11,6.12.29,12.3,1.11,18.56.42,3.13,1.01,6.28,1.96,9.42.98,3.13,2.28,6.29,4.37,9.14,2.05,2.85,4.96,5.28,8.27,6.69,1.65.7,3.35,1.18,5.05,1.48l1.28.2,1.19.12c.79.07,1.57.17,2.37.22,6.31.46,12.92.05,19.16-2.05,3.12-1.02,6.07-2.51,8.8-4.2,2.75-1.69,5.23-3.63,7.63-5.53,4.76-3.81,9.29-7.41,14.57-9.23,1.3-.48,2.65-.83,4.01-1.12,1.34-.24,2.7-.43,4.08-.45,2.75-.08,5.55.28,8.31,1,5.54,1.41,10.91,4.02,16.24,6.8,5.35,2.77,10.69,5.8,16.49,8.2,2.89,1.2,5.91,2.24,9.07,2.88,1.56.35,3.23.53,4.73.68,1.53.16,3.07.29,4.62.38,6.16.4,12.38.36,18.55-.32,6.17-.66,12.28-1.97,18.18-3.87,5.9-1.89,11.56-4.41,17.06-6.97,5.5-2.52,10.94-5.16,16.63-6.13,2.83-.49,5.71-.53,8.53-.05,1.43.24,2.78.58,4.22,1.04,1.43.42,2.85.89,4.25,1.4,2.8,1.01,5.55,2.17,8.24,3.49,2.69,1.3,5.33,2.76,8.05,4.18,2.72,1.41,5.55,2.77,8.54,3.73,2.99.98,6.1,1.56,9.21,1.82,6.23.5,12.39-.1,18.44-.99,6.06-.93,12.04-2.3,17.91-3.95,5.88-1.63,11.65-3.55,17.48-5.07,5.82-1.51,11.79-2.53,17.75-2.04,2.97.22,5.91.8,8.77,1.68,1.41.44,2.88.96,4.37,1.35,1.49.4,2.99.73,4.51.97,6.08,1,12.27.88,18.32.07,6.06-.81,12.01-2.32,17.75-4.34,5.74-2.04,11.32-4.59,16.48-7.85,1.28-.83,2.53-1.7,3.74-2.64,1.2-.96,2.28-2.06,3.23-3.26,1.91-2.4,3.2-5.25,4.05-8.17.85-2.93,1.24-5.97,1.33-9.01.09-3.04-.1-6.09-.62-9.08Z"/>
    </g>
  </g>
</svg>