<?xml version="1.0" encoding="UTF-8"?>
<svg id="Layer_2" data-name="Layer 2" xmlns="http://www.w3.org/2000/svg" xmlns:xlink="http://www.w3.org/1999/xlink" viewBox="0 0 505 293.87">
  <defs>
    <style>
      .cls-1 {
        fill: none;
      }

      .cls-2 {
        fill: url(#radial-gradient-7);
      }

      .cls-3 {
        fill: url(#radial-gradient-6);
      }

      .cls-4 {
        fill: url(#radial-gradient-5);
      }

      .cls-5 {
        fill: url(#radial-gradient-4);
      }

      .cls-6 {
        fill: url(#radial-gradient-9);
      }

      .cls-7 {
        fill: url(#radial-gradient-8);
      }

      .cls-8 {
        fill: url(#radial-gradient-3);
      }

      .cls-9 {
        fill: url(#radial-gradient-2);
      }

      .cls-10 {
        fill: url(#linear-gradient-8);
      }

      .cls-11 {
        fill: url(#linear-gradient-7);
      }

      .cls-12 {
        fill: url(#linear-gradient-5);
      }

      .cls-13 {
        fill: url(#linear-gradient-6);
      }

      .cls-14 {
        fill: url(#linear-gradient-9);
      }

      .cls-15 {
        fill: url(#linear-gradient-4);
      }

      .cls-16 {
        fill: url(#linear-gradient-3);
      }

      .cls-17 {
        fill: url(#linear-gradient-2);
      }

      .cls-18 {
        fill: url(#radial-gradient);
      }

      .cls-19 {
        fill: url(#linear-gradient);
      }

      .cls-20 {
        clip-path: url(#clippath-1);
      }

      .cls-21 {
        fill: url(#radial-gradient-16);
      }

      .cls-22 {
        fill: url(#radial-gradient-12);
      }

      .cls-23 {
        fill: url(#radial-gradient-14);
      }

      .cls-24 {
        fill: url(#radial-gradient-13);
      }

      .cls-25 {
        fill: url(#radial-gradient-10);
      }

      .cls-26 {
        fill: url(#radial-gradient-17);
      }

      .cls-27 {
        fill: url(#radial-gradient-11);
      }

      .cls-28 {
        fill: url(#radial-gradient-18);
      }

      .cls-29 {
        fill: url(#radial-gradient-15);
      }

      .cls-30 {
        fill: #fff;
      }

      .cls-31 {
        fill: url(#linear-gradient-10);
      }

      .cls-32 {
        fill: url(#linear-gradient-11);
      }

      .cls-33 {
        fill: url(#linear-gradient-12);
      }

      .cls-34 {
        fill: url(#linear-gradient-13);
      }

      .cls-35 {
        fill: url(#linear-gradient-19);
      }

      .cls-36 {
        fill: url(#linear-gradient-14);
      }

      .cls-37 {
        fill: url(#linear-gradient-20);
      }

      .cls-38 {
        fill: url(#linear-gradient-15);
      }

      .cls-39 {
        fill: url(#linear-gradient-16);
      }

      .cls-40 {
        fill: url(#linear-gradient-17);
      }

      .cls-41 {
        fill: url(#linear-gradient-18);
      }

      .cls-42 {
        opacity: .44;
      }

      .cls-43 {
        clip-path: url(#clippath);
      }
    </style>
    <linearGradient id="linear-gradient" x1="5790.31" y1="5148.96" x2="5860.3" y2="5022.56" gradientTransform="translate(5247.23 -5741.38) rotate(90)" gradientUnits="userSpaceOnUse">
      <stop offset="0" stop-color="#0e81a3"/>
      <stop offset="1" stop-color="#5a1f7d"/>
    </linearGradient>
    <clipPath id="clippath">
      <polygon class="cls-1" points="203.39 11.6 119.39 11.6 77.39 83.87 119.39 156.15 203.39 156.15 245.39 83.87 203.39 11.6"/>
    </clipPath>
    <radialGradient id="radial-gradient" cx="219.72" cy="78.09" fx="219.72" fy="78.09" r="16.45" gradientUnits="userSpaceOnUse">
      <stop offset="0" stop-color="#ff0"/>
      <stop offset=".57" stop-color="#f396b3"/>
      <stop offset="1" stop-color="#f8c562"/>
    </radialGradient>
    <linearGradient id="linear-gradient-2" x1="219.72" y1="107.44" x2="219.72" y2="97.96" gradientUnits="userSpaceOnUse">
      <stop offset="0" stop-color="#ff0"/>
      <stop offset="1" stop-color="#ff0"/>
    </linearGradient>
    <linearGradient id="linear-gradient-3" y1="120.54" y2="110.79" xlink:href="#linear-gradient-2"/>
    <radialGradient id="radial-gradient-2" cx="120.18" cy="151.35" fx="120.18" fy="151.35" r="16.45" xlink:href="#radial-gradient"/>
    <linearGradient id="linear-gradient-4" x1="120.18" y1="180.69" x2="120.18" y2="171.22" xlink:href="#linear-gradient-2"/>
    <linearGradient id="linear-gradient-5" x1="120.18" y1="193.79" x2="120.18" y2="184.05" xlink:href="#linear-gradient-2"/>
    <radialGradient id="radial-gradient-3" cx="10011.26" cy="109.57" fx="10011.26" fy="109.57" r="17.38" gradientTransform="translate(10166.27) rotate(-180) scale(1 -1)" gradientUnits="userSpaceOnUse">
      <stop offset="0" stop-color="#ff0"/>
      <stop offset=".63" stop-color="#f34f8b"/>
      <stop offset="1" stop-color="#ff0"/>
    </radialGradient>
    <linearGradient id="linear-gradient-6" x1="155.01" y1="190.04" x2="155.01" y2="134.06" gradientUnits="userSpaceOnUse">
      <stop offset="0" stop-color="#f34f8b"/>
      <stop offset="1" stop-color="#ff0"/>
    </linearGradient>
    <radialGradient id="radial-gradient-4" cx="10083.68" cy="86.42" fx="10083.68" fy="86.42" r="17.38" xlink:href="#radial-gradient-3"/>
    <linearGradient id="linear-gradient-7" x1="82.6" y1="166.88" x2="82.6" y2="110.9" xlink:href="#linear-gradient-6"/>
    <radialGradient id="radial-gradient-5" cx="116.49" cy="38.83" fx="116.49" fy="38.83" r="28.87" gradientUnits="userSpaceOnUse">
      <stop offset="0" stop-color="#ff0"/>
      <stop offset=".75" stop-color="#f3962a"/>
      <stop offset="1" stop-color="#ff0"/>
    </radialGradient>
    <linearGradient id="linear-gradient-8" x1="115.45" y1="79.69" x2="117.52" y2="79.69" xlink:href="#linear-gradient-2"/>
    <linearGradient id="linear-gradient-9" x1="115.45" y1="104.97" x2="117.52" y2="104.97" xlink:href="#linear-gradient-2"/>
    <radialGradient id="radial-gradient-6" cx="198.05" cy="146.63" fx="198.05" fy="146.63" r="28.87" xlink:href="#radial-gradient-5"/>
    <linearGradient id="linear-gradient-10" x1="197.01" y1="187.49" x2="199.08" y2="187.49" xlink:href="#linear-gradient-2"/>
    <linearGradient id="linear-gradient-11" x1="197.01" y1="212.77" x2="199.08" y2="212.77" xlink:href="#linear-gradient-2"/>
    <radialGradient id="radial-gradient-7" cx="194.83" cy="11.31" fx="194.83" fy="11.31" r="28.87" xlink:href="#radial-gradient"/>
    <radialGradient id="radial-gradient-8" cx="194.83" cy="52.17" fx="194.83" fy="52.17" r="4.41" xlink:href="#radial-gradient"/>
    <radialGradient id="radial-gradient-9" cx="194.83" cy="77.45" fx="194.83" fy="77.45" r="7.84" xlink:href="#radial-gradient"/>
    <linearGradient id="linear-gradient-12" x1="265.39" y1="797.97" x2="431.15" y2="797.97" gradientTransform="translate(0 881.84) scale(1 -1)" gradientUnits="userSpaceOnUse">
      <stop offset="0" stop-color="#fff"/>
      <stop offset="1" stop-color="#fff" stop-opacity="0"/>
    </linearGradient>
    <linearGradient id="linear-gradient-13" x1="99" y1="592.52" x2="495" y2="592.52" gradientTransform="translate(0 882.88) scale(1 -1)" xlink:href="#linear-gradient-12"/>
    <linearGradient id="linear-gradient-14" x1="5594" y1="4856.17" x2="5635.46" y2="4781.3" gradientTransform="translate(4878.03 -5371.14) rotate(90)" xlink:href="#linear-gradient"/>
    <clipPath id="clippath-1">
      <polygon class="cls-1" points="84.12 200.74 34.36 200.74 9.48 243.55 34.36 286.37 84.12 286.37 109 243.55 84.12 200.74"/>
    </clipPath>
    <radialGradient id="radial-gradient-10" cx="93.79" cy="240.13" fx="93.79" fy="240.13" r="9.75" xlink:href="#radial-gradient"/>
    <linearGradient id="linear-gradient-15" x1="93.79" y1="257.51" x2="93.79" y2="251.9" xlink:href="#linear-gradient-2"/>
    <linearGradient id="linear-gradient-16" x1="93.79" y1="265.27" x2="93.79" y2="259.5" xlink:href="#linear-gradient-2"/>
    <radialGradient id="radial-gradient-11" cx="34.83" cy="283.52" fx="34.83" fy="283.52" r="9.75" xlink:href="#radial-gradient"/>
    <radialGradient id="radial-gradient-12" cx="10110.81" cy="258.78" fx="10110.81" fy="258.78" r="10.29" xlink:href="#radial-gradient-3"/>
    <linearGradient id="linear-gradient-17" x1="55.46" y1="306.44" x2="55.46" y2="273.28" xlink:href="#linear-gradient-6"/>
    <radialGradient id="radial-gradient-13" cx="10153.71" cy="245.06" fx="10153.71" fy="245.06" r="10.29" xlink:href="#radial-gradient-3"/>
    <linearGradient id="linear-gradient-18" x1="12.57" y1="292.72" x2="12.57" y2="259.56" xlink:href="#linear-gradient-6"/>
    <radialGradient id="radial-gradient-14" cx="32.64" cy="216.87" fx="32.64" fy="216.87" r="17.1" xlink:href="#radial-gradient-5"/>
    <linearGradient id="linear-gradient-19" x1="32.03" y1="241.07" x2="33.26" y2="241.07" xlink:href="#linear-gradient-2"/>
    <linearGradient id="linear-gradient-20" x1="32.03" y1="256.05" x2="33.26" y2="256.05" xlink:href="#linear-gradient-2"/>
    <radialGradient id="radial-gradient-15" cx="80.96" cy="280.73" fx="80.96" fy="280.73" r="17.1" xlink:href="#radial-gradient-5"/>
    <radialGradient id="radial-gradient-16" cx="79.05" cy="200.56" fx="79.05" fy="200.56" r="17.1" xlink:href="#radial-gradient"/>
    <radialGradient id="radial-gradient-17" cx="79.05" cy="224.77" fx="79.05" fy="224.77" r="2.61" xlink:href="#radial-gradient"/>
    <radialGradient id="radial-gradient-18" cx="79.05" cy="239.75" fx="79.05" fy="239.75" r="4.64" xlink:href="#radial-gradient"/>
  </defs>
  <g id="Layer_1-2" data-name="Layer 1">
    <g>
      <path class="cls-30" d="M280.77,140.54h-2.6c-.27.02-.53-.07-.73-.25-.17-.17-.29-.39-.33-.63l-2.43-14h-21.43l-7.84,14c-.13.26-.33.47-.58.63-.25.16-.53.25-.83.25h-2.61l27.21-47.82h3.34l8.83,47.82ZM274.24,123.2l-4.21-24.33c-.06-.41-.12-.85-.18-1.34s-.11-1-.16-1.57c-.26.57-.52,1.09-.77,1.57l-.68,1.37-13.6,24.3h19.6Z"/>
      <path class="cls-30" d="M307.01,137.67c-1.02.78-2.12,1.45-3.28,2-1.02.48-2.09.81-3.2,1-1.12.18-2.26.27-3.4.27-1.72.05-3.43-.29-5-1-1.35-.62-2.51-1.59-3.37-2.79-.9-1.27-1.53-2.72-1.83-4.25-.37-1.77-.48-3.58-.34-5.38.27-3.58,1.25-7.07,2.88-10.27.79-1.55,1.74-3.01,2.84-4.36,1.05-1.29,2.26-2.45,3.59-3.45,1.28-.96,2.7-1.72,4.2-2.28,1.5-.55,3.1-.84,4.7-.83,1.01-.01,2.02.09,3,.32.83.2,1.63.51,2.39.91.71.39,1.35.87,1.93,1.44.58.58,1.1,1.21,1.55,1.89l-1,1.12c-.18.22-.45.36-.74.37-.22,0-.49-.18-.79-.54-.37-.43-.78-.82-1.23-1.17-.64-.48-1.33-.87-2.07-1.16-1.04-.39-2.16-.58-3.27-.54-1.91,0-3.77.53-5.4,1.52-1.76,1.06-3.3,2.45-4.54,4.09-1.38,1.8-2.48,3.8-3.26,5.93-.84,2.25-1.35,4.61-1.52,7-.11,1.45-.04,2.9.22,4.33.22,1.23.69,2.4,1.39,3.44.66.96,1.55,1.75,2.59,2.27,1.21.57,2.53.85,3.87.81,1.09.01,2.18-.12,3.23-.39.89-.24,1.76-.58,2.59-1,.71-.35,1.38-.78,2-1.27.59-.46,1.11-.88,1.56-1.27l1.17-1c.23-.22.53-.36.85-.39.27.02.51.14.69.34l.65.88c-1.13,1.23-2.35,2.37-3.65,3.41Z"/>
      <path class="cls-30" d="M337.23,137.67c-1.02.78-2.13,1.45-3.29,2-1.02.48-2.09.81-3.2,1-1.11.2-2.23.31-3.35.33-1.72.05-3.43-.29-5-1-1.34-.63-2.5-1.59-3.37-2.79-.9-1.28-1.52-2.72-1.83-4.25-.37-1.77-.48-3.58-.33-5.38.12-1.79.43-3.56.92-5.29.5-1.73,1.17-3.4,2-5,.79-1.55,1.74-3.01,2.84-4.36,1.05-1.29,2.25-2.45,3.58-3.45,1.28-.96,2.7-1.72,4.2-2.28,1.51-.55,3.1-.84,4.71-.83,1.01-.01,2.02.1,3,.32.83.2,1.63.51,2.38.91.71.39,1.35.87,1.93,1.44.58.58,1.1,1.21,1.56,1.89l-1,1.12c-.18.22-.45.36-.73.37-.23,0-.49-.18-.79-.54-.38-.43-.79-.82-1.24-1.17-.63-.48-1.33-.87-2.06-1.16-1.05-.39-2.16-.58-3.28-.54-1.9,0-3.77.53-5.39,1.52-1.76,1.06-3.31,2.45-4.55,4.09-1.37,1.8-2.47,3.8-3.25,5.93-.85,2.25-1.36,4.6-1.52,7-.12,1.45-.04,2.9.22,4.33.21,1.23.68,2.4,1.38,3.44.66.96,1.55,1.75,2.59,2.27,1.21.57,2.53.85,3.87.81,1.07,0,2.13-.13,3.16-.4.89-.25,1.76-.58,2.58-1,.71-.36,1.38-.78,2-1.27.58-.46,1.1-.88,1.56-1.27l1.16-1c.23-.22.54-.36.86-.39.26.01.51.13.68.34l.65.88c-1.13,1.21-2.35,2.34-3.65,3.38Z"/>
      <path class="cls-30" d="M371.65,134.29c-1.08,1.07-2.23,2.07-3.44,3-1.04.8-2.15,1.5-3.32,2.08-1.09.53-2.24.94-3.42,1.2-1.22.27-2.46.4-3.71.39-1.69.04-3.36-.28-4.92-.93-1.36-.58-2.55-1.49-3.48-2.64-.96-1.22-1.65-2.64-2-4.15-.42-1.8-.56-3.66-.4-5.5.13-1.72.42-3.43.87-5.1.45-1.7,1.07-3.35,1.85-4.93.77-1.57,1.69-3.05,2.77-4.43,1.05-1.34,2.26-2.55,3.62-3.58,1.32-1.01,2.79-1.82,4.35-2.4,1.6-.59,3.29-.89,5-.88,1.41-.04,2.81.19,4.13.69.99.39,1.9.98,2.65,1.73.63.63,1.1,1.39,1.38,2.23.25.72.36,1.48.32,2.24-.04.92-.21,1.82-.51,2.69-.33.88-.83,1.68-1.48,2.36-.79.84-1.71,1.55-2.72,2.1-1.35.75-2.78,1.36-4.26,1.81-2.01.62-4.07,1.12-6.14,1.5-2.38.45-5.15.85-8.33,1.19-.08.45-.15.91-.22,1.38s-.11.94-.14,1.39c-.24,3.35.34,6,1.73,7.87s3.61,2.84,6.68,2.84c1.1.01,2.19-.12,3.25-.39.91-.24,1.8-.57,2.64-1,.73-.37,1.42-.81,2.08-1.29.61-.45,1.15-.88,1.63-1.28s.89-.74,1.24-1c.26-.23.58-.36.92-.39.27,0,.53.12.69.34l.69.86ZM365.15,108.8c-1.73-.03-3.45.37-5,1.14-1.52.75-2.9,1.77-4.07,3-1.24,1.33-2.29,2.83-3.12,4.45-.85,1.67-1.52,3.43-2,5.25,2.89-.31,5.38-.68,7.48-1.09,1.81-.35,3.6-.79,5.37-1.32,1.26-.37,2.47-.87,3.62-1.51.81-.44,1.55-1,2.19-1.67.49-.51.86-1.11,1.11-1.77.21-.61.34-1.25.38-1.9.03-.52-.04-1.04-.21-1.53-.2-.58-.55-1.1-1-1.51-.54-.49-1.18-.88-1.87-1.13-.93-.31-1.9-.45-2.88-.41Z"/>
      <path class="cls-30" d="M400.85,111c-.15.29-.44.47-.77.48-.31-.04-.59-.19-.8-.42-.39-.37-.81-.7-1.26-1-.62-.42-1.29-.76-2-1-2.09-.61-4.32-.56-6.38.15-1,.36-1.94.88-2.78,1.54-.77.62-1.43,1.38-1.94,2.23-.49.82-.78,1.74-.85,2.69-.09.81.08,1.62.48,2.33.4.66.95,1.22,1.59,1.64.73.48,1.5.89,2.32,1.2.86.34,1.76.68,2.68,1,.91.33,1.81.71,2.68,1.13.83.39,1.6.9,2.29,1.5.67.59,1.21,1.33,1.56,2.15.39.97.53,2.02.42,3.06-.1,1.46-.5,2.88-1.15,4.19-.68,1.36-1.6,2.58-2.72,3.6-1.18,1.06-2.53,1.91-4,2.51-1.61.67-3.34,1.01-5.08,1-3.49.19-6.85-1.33-9-4.09l.89-1.15c.21-.32.56-.52.95-.54.23,0,.5.18.81.54.4.44.83.84,1.3,1.2.67.5,1.4.91,2.18,1.2,1.11.39,2.28.58,3.45.54,1.27.02,2.53-.21,3.71-.66,1.08-.41,2.07-1.02,2.93-1.8.82-.76,1.5-1.66,2-2.66.49-1,.78-2.08.86-3.19.09-.86-.07-1.73-.47-2.5-.39-.69-.93-1.28-1.58-1.74-.72-.51-1.49-.92-2.31-1.24-.87-.34-1.77-.67-2.69-1s-1.82-.69-2.68-1.09c-.83-.37-1.6-.85-2.3-1.43-.67-.56-1.2-1.27-1.56-2.06-.4-.95-.55-1.98-.43-3,.1-1.32.47-2.6,1.1-3.77.67-1.22,1.55-2.31,2.6-3.21,1.12-.96,2.4-1.71,3.78-2.23,1.5-.56,3.08-.84,4.68-.83,1.66-.04,3.31.26,4.85.88,1.36.6,2.56,1.5,3.52,2.64l-.88,1.21Z"/>
      <path class="cls-30" d="M427.39,111c-.15.29-.45.47-.78.48-.31-.04-.59-.19-.8-.42-.39-.37-.81-.7-1.25-1-.62-.42-1.29-.75-2-1-2.09-.61-4.32-.56-6.38.15-1,.36-1.94.88-2.78,1.54-.78.62-1.44,1.38-1.95,2.23-.49.82-.78,1.74-.85,2.69-.08.81.08,1.62.48,2.33.41.65.95,1.21,1.59,1.64.73.48,1.51.89,2.32,1.2.87.34,1.76.68,2.68,1,.91.33,1.81.7,2.68,1.13.83.39,1.6.9,2.29,1.5.67.59,1.21,1.33,1.56,2.15.39.97.54,2.02.43,3.06-.08,1.5-.47,2.97-1.14,4.32-.67,1.36-1.59,2.58-2.71,3.6-1.18,1.06-2.53,1.91-4,2.51-1.61.67-3.34,1.01-5.09,1-1.86.06-3.7-.32-5.38-1.13-1.39-.74-2.61-1.76-3.59-3l.89-1.15c.21-.32.56-.53.95-.54.22,0,.49.18.81.54.39.44.83.84,1.3,1.2.66.5,1.4.91,2.18,1.2,1.1.39,2.27.58,3.44.54,1.27.02,2.53-.21,3.71-.66,2.15-.8,3.92-2.4,4.93-4.46.5-.99.79-2.08.87-3.19.09-.86-.07-1.73-.47-2.5-.39-.69-.94-1.29-1.59-1.74-.73-.51-1.52-.92-2.35-1.22-.87-.34-1.76-.67-2.68-1s-1.82-.69-2.68-1.09c-.83-.37-1.6-.85-2.3-1.43-.67-.56-1.2-1.27-1.57-2.06-.39-.95-.54-1.98-.43-3,.1-1.32.47-2.61,1.11-3.77.66-1.22,1.54-2.31,2.59-3.21,1.12-.96,2.41-1.71,3.79-2.23,1.49-.56,3.08-.84,4.67-.83,1.66-.04,3.32.26,4.86.88,1.36.6,2.56,1.5,3.51,2.64l-.87,1.1Z"/>
      <path class="cls-30" d="M298.62,43.77c-.23,3.95-1.12,7.84-2.64,11.49-1.36,3.27-3.31,6.27-5.74,8.85-2.31,2.42-5.08,4.36-8.14,5.71-3.09,1.35-6.44,2.03-9.81,2-2.57.05-5.12-.47-7.47-1.5-2.11-.96-3.97-2.4-5.43-4.21-1.52-1.94-2.61-4.17-3.21-6.56-.7-2.76-.93-5.61-.69-8.45.23-3.95,1.13-7.82,2.66-11.47,1.36-3.28,3.31-6.3,5.74-8.89,2.28-2.43,5.03-4.38,8.08-5.74,3.07-1.34,6.4-2.03,9.75-2,2.59-.05,5.15.47,7.52,1.51,2.14.96,4.02,2.41,5.48,4.24,1.52,1.94,2.61,4.18,3.21,6.57.7,2.76.93,5.61.69,8.45ZM295.14,43.83c.21-2.51.03-5.03-.55-7.48-.48-2.06-1.38-4-2.66-5.68-1.2-1.55-2.76-2.79-4.54-3.62-1.96-.87-4.08-1.31-6.22-1.27-2.85-.01-5.67.59-8.26,1.76-2.61,1.18-4.94,2.88-6.86,5-2.08,2.34-3.73,5.02-4.87,7.94-1.31,3.36-2.09,6.91-2.3,10.52-.22,2.51-.03,5.04.55,7.49.49,2.05,1.4,3.98,2.68,5.66,1.21,1.54,2.77,2.77,4.55,3.59,1.95.88,4.06,1.31,6.2,1.27,5.8.05,11.33-2.41,15.17-6.76,2.07-2.33,3.71-5.01,4.83-7.92,1.3-3.36,2.07-6.9,2.28-10.5Z"/>
      <path class="cls-30" d="M309.21,48.53c.96-1.7,2.09-3.3,3.35-4.78,1.14-1.33,2.43-2.53,3.83-3.57,1.23-.92,2.57-1.66,4-2.21,1.28-.5,2.63-.75,4-.76,1.27-.04,2.52.25,3.64.84.99.58,1.79,1.44,2.29,2.47.59,1.25.91,2.62.94,4,.06,1.8-.09,3.6-.46,5.36l-4,21.49h-3.18l4-21.49c.6-3.2.56-5.66-.13-7.37-.69-1.71-2.15-2.57-4.38-2.57-1.35.03-2.68.37-3.87,1-1.43.72-2.75,1.64-3.91,2.73-1.38,1.3-2.62,2.74-3.7,4.3-1.24,1.78-2.31,3.68-3.2,5.66l-3.3,17.77h-3.18l6.38-33.73h1.45c.79,0,1.16.41,1.1,1.22l-1.67,9.64Z"/>
      <path class="cls-30" d="M337.05,71.34l9.34-49.17h3.15l-9.42,49.17h-3.07Z"/>
      <path class="cls-30" d="M360.83,37.72l-6.44,33.62h-3.15l6.44-33.62h3.15ZM364.1,26.12c-.02.4-.13.79-.33,1.14-.19.35-.43.66-.72.93-.29.27-.63.48-1,.64-.34.15-.71.23-1.08.23-.37,0-.73-.07-1.06-.23-.32-.15-.61-.37-.84-.64-.23-.28-.41-.59-.54-.93-.14-.36-.19-.75-.16-1.14.03-.4.14-.79.32-1.15.17-.37.41-.71.69-1,.27-.27.59-.5.94-.66.35-.16.72-.23,1.1-.23.36,0,.72.08,1.05.23.35.16.66.4.92.69.26.29.46.63.58,1,.12.36.16.74.13,1.12Z"/>
      <path class="cls-30" d="M372.51,48.53c.96-1.7,2.09-3.3,3.35-4.78,1.13-1.33,2.4-2.52,3.79-3.57,1.23-.92,2.57-1.66,4-2.21,1.28-.5,2.63-.75,4-.76,1.27-.04,2.52.25,3.64.84.99.57,1.79,1.44,2.29,2.47.59,1.25.91,2.62.94,4,.07,1.8-.09,3.6-.46,5.36l-4,21.49h-3.18l4-21.49c.6-3.2.56-5.66-.13-7.37s-2.14-2.58-4.36-2.6c-1.35.03-2.67.37-3.87,1-1.43.72-2.75,1.64-3.91,2.73-1.38,1.3-2.62,2.74-3.7,4.3-1.24,1.78-2.31,3.68-3.2,5.66l-3.32,17.74h-3.18l6.38-33.73h1.45c.79,0,1.16.41,1.1,1.22l-1.63,9.7Z"/>
      <path class="cls-30" d="M425.39,65.09c-1.08,1.07-2.23,2.07-3.44,3-1.04.8-2.15,1.49-3.32,2.07-1.08.54-2.23.94-3.41,1.21-1.22.26-2.47.38-3.72.38-1.69.03-3.36-.28-4.92-.92-1.36-.58-2.55-1.49-3.48-2.64-.96-1.22-1.65-2.64-2-4.16-.42-1.8-.56-3.65-.4-5.49.13-1.72.42-3.43.87-5.1.45-1.7,1.07-3.36,1.85-4.94.77-1.57,1.7-3.05,2.77-4.43,1.05-1.34,2.26-2.55,3.62-3.58,1.33-1.01,2.8-1.82,4.36-2.4,1.6-.59,3.29-.88,5-.88,1.41-.04,2.81.19,4.12.7.99.38,1.9.97,2.65,1.72.65.63,1.15,1.4,1.45,2.26.25.72.36,1.49.32,2.25-.06.9-.25,1.79-.56,2.63-.33.88-.83,1.69-1.48,2.37-.8.83-1.71,1.54-2.72,2.1-1.35.75-2.78,1.35-4.26,1.8-2.01.63-4.06,1.14-6.14,1.51-2.37.45-5.15.85-8.33,1.18-.08.45-.15.91-.21,1.39s-.12.93-.15,1.38c-.24,3.36.34,6,1.73,7.88s3.61,2.84,6.68,2.84c2.05.02,4.07-.45,5.89-1.39.73-.37,1.43-.8,2.09-1.28.6-.46,1.14-.88,1.62-1.29s.89-.74,1.24-1c.26-.22.58-.35.92-.38.27,0,.52.12.69.33l.67.88ZM418.89,39.61c-1.73-.02-3.45.36-5,1.13-1.53.77-2.9,1.81-4.07,3.06-1.23,1.33-2.28,2.83-3.11,4.44-.86,1.67-1.53,3.44-2,5.26,2.88-.32,5.37-.68,7.47-1.1,1.81-.34,3.61-.78,5.37-1.32,1.26-.37,2.47-.87,3.62-1.5.82-.44,1.57-1,2.22-1.67.49-.51.87-1.12,1.11-1.78.21-.61.34-1.25.38-1.89.03-.52-.04-1.05-.21-1.54-.2-.58-.54-1.1-1-1.5-.54-.5-1.17-.88-1.86-1.13-.94-.33-1.93-.49-2.92-.46Z"/>
      <path class="cls-19" d="M77.39,83.87l42,72.28h84l42-72.28L203.39,11.6h-84l-42,72.27Z"/>
      <path class="cls-30" d="M61.39,83.87L111.39,0h100l50,83.87-50,83.87h-100l-50-83.87ZM114.98,6.25l-46.32,77.62,46.32,77.63h92.82l46.32-77.63L207.8,6.25h-92.82Z"/>
      <g class="cls-42">
        <g class="cls-43">
          <g>
            <path class="cls-18" d="M219.72,94.54c-.38,0-.69-.31-.69-.69v-3.94c0-.38.31-.69.69-.69s.69.31.69.69v3.94c0,.38-.31.69-.69.69ZM227.6,92.43c-.24,0-.47-.12-.6-.35l-4.38-7.59c-.19-.33-.08-.75.25-.95.33-.19.75-.08.95.25l4.38,7.59c.19.33.08.75-.25.95-.11.06-.23.09-.35.09ZM211.83,92.43c-.12,0-.24-.03-.35-.09-.33-.19-.44-.61-.25-.95l6.59-11.41-11.41,6.59c-.33.19-.76.08-.95-.25-.19-.33-.08-.75.25-.95l11.41-6.59h-13.18c-.38,0-.69-.31-.69-.69s.31-.69.69-.69h13.18l-11.41-6.59c-.33-.19-.44-.61-.25-.95.19-.33.62-.45.95-.25l11.41,6.59-6.59-11.41c-.19-.33-.08-.75.25-.95.33-.19.75-.08.95.25l6.59,11.41v-2.82c0-.38.31-.69.69-.69s.69.31.69.69v2.82l4.08-7.06c.19-.33.62-.45.95-.25.33.19.44.61.25.95l-4.08,7.06,5.68-3.28c.33-.19.75-.08.95.25.19.33.08.75-.25.95l-5.68,3.28h4.47c.38,0,.69.31.69.69s-.31.69-.69.69h-4.47l8.21,4.74c.33.19.44.61.25.95-.19.33-.62.44-.95.25l-8.21-4.74,1.16,2c.19.33.08.75-.25.95-.33.19-.75.08-.95-.25l-1.15-2v5.89c0,.38-.31.69-.69.69s-.69-.31-.69-.69v-5.89l-6.59,11.41c-.13.22-.36.35-.6.35ZM233.37,86.66c-.12,0-.24-.03-.35-.09l-1.61-.93c-.33-.19-.44-.61-.25-.95.19-.33.61-.45.95-.25l1.61.93c.33.19.44.61.25.95-.13.22-.36.35-.6.35ZM235.48,78.78h-6.2c-.38,0-.69-.31-.69-.69s.31-.69.69-.69h6.2c.38,0,.69.31.69.69s-.31.69-.69.69ZM230.76,72.4c-.24,0-.47-.12-.6-.35-.19-.33-.08-.75.25-.95l2.6-1.5c.33-.19.75-.08.95.25.19.33.08.75-.25.95l-2.6,1.5c-.11.06-.23.09-.35.09ZM219.72,70.2c-.38,0-.69-.31-.69-.69v-7.18c0-.38.31-.69.69-.69s.69.31.69.69v7.18c0,.38-.31.69-.69.69ZM226.43,67.14c-.12,0-.24-.03-.35-.09-.33-.19-.44-.61-.25-.95l1.16-2.01c.19-.33.61-.45.95-.25.33.19.44.61.25.95l-1.16,2.01c-.13.22-.36.35-.6.35Z"/>
            <path class="cls-17" d="M219.72,107.44c-.38,0-.69-.31-.69-.69v-8.09c0-.38.31-.69.69-.69s.69.31.69.69v8.09c0,.38-.31.69-.69.69Z"/>
            <path class="cls-16" d="M219.72,120.54c-.38,0-.69-.31-.69-.69v-8.36c0-.38.31-.69.69-.69s.69.31.69.69v8.36c0,.38-.31.69-.69.69Z"/>
          </g>
          <g>
            <path class="cls-9" d="M120.18,167.8c-.38,0-.69-.31-.69-.69v-3.94c0-.38.31-.69.69-.69s.69.31.69.69v3.94c0,.38-.31.69-.69.69ZM128.06,165.69c-.24,0-.47-.12-.6-.35l-4.38-7.59c-.19-.33-.08-.75.25-.95.33-.19.75-.08.95.25l4.38,7.59c.19.33.08.75-.25.95-.11.06-.23.09-.35.09ZM112.3,165.69c-.12,0-.24-.03-.35-.09-.33-.19-.44-.61-.25-.95l6.59-11.41-11.41,6.59c-.33.19-.76.08-.95-.25-.19-.33-.08-.75.25-.95l11.41-6.59h-13.18c-.38,0-.69-.31-.69-.69s.31-.69.69-.69h13.18l-11.41-6.59c-.33-.19-.44-.61-.25-.95.19-.33.62-.45.95-.25l11.41,6.59-6.59-11.41c-.19-.33-.08-.75.25-.95.33-.19.75-.08.95.25l6.59,11.41v-2.82c0-.38.31-.69.69-.69s.69.31.69.69v2.82l4.08-7.06c.19-.33.62-.45.95-.25.33.19.44.61.25.95l-4.08,7.06,5.68-3.28c.33-.19.75-.08.95.25.19.33.08.75-.25.95l-5.68,3.28h4.47c.38,0,.69.31.69.69s-.31.69-.69.69h-4.47l8.21,4.74c.33.19.44.61.25.95-.19.33-.62.44-.95.25l-8.21-4.74,1.16,2c.19.33.08.75-.25.95-.33.19-.75.08-.95-.25l-1.15-2v5.89c0,.38-.31.69-.69.69s-.69-.31-.69-.69v-5.89l-6.59,11.41c-.13.22-.36.35-.6.35ZM133.83,159.92c-.12,0-.24-.03-.35-.09l-1.61-.93c-.33-.19-.44-.61-.25-.95.19-.33.61-.45.95-.25l1.61.93c.33.19.44.61.25.95-.13.22-.36.35-.6.35ZM135.94,152.04h-6.2c-.38,0-.69-.31-.69-.69s.31-.69.69-.69h6.2c.38,0,.69.31.69.69s-.31.69-.69.69ZM131.23,145.66c-.24,0-.47-.12-.6-.35-.19-.33-.08-.75.25-.95l2.6-1.5c.33-.19.75-.08.95.25.19.33.08.75-.25.95l-2.6,1.5c-.11.06-.23.09-.35.09ZM120.18,143.46c-.38,0-.69-.31-.69-.69v-7.18c0-.38.31-.69.69-.69s.69.31.69.69v7.18c0,.38-.31.69-.69.69ZM126.9,140.4c-.12,0-.24-.03-.35-.09-.33-.19-.44-.61-.25-.95l1.16-2.01c.19-.33.61-.45.95-.25.33.19.44.61.25.95l-1.16,2.01c-.13.22-.36.35-.6.35Z"/>
            <path class="cls-15" d="M120.18,180.69c-.38,0-.69-.31-.69-.69v-8.09c0-.38.31-.69.69-.69s.69.31.69.69v8.09c0,.38-.31.69-.69.69Z"/>
            <path class="cls-12" d="M120.18,193.79c-.38,0-.69-.31-.69-.69v-8.36c0-.38.31-.69.69-.69s.69.31.69.69v8.36c0,.38-.31.69-.69.69Z"/>
          </g>
          <g>
            <path class="cls-8" d="M155.01,126.95c-.38,0-.69-.31-.69-.69v-4.17c0-.38.31-.69.69-.69s.69.31.69.69v4.17c0,.38-.31.69-.69.69ZM163.35,124.72c-.24,0-.47-.12-.6-.35l-7.05-12.21v6.39c0,.38-.31.69-.69.69s-.69-.31-.69-.69v-6.39l-1.3,2.25c-.19.33-.62.44-.95.25-.33-.19-.44-.61-.25-.95l1.3-2.25-8.82,5.09c-.33.19-.75.08-.95-.25-.19-.33-.08-.75.25-.95l8.82-5.09h-4.88c-.38,0-.69-.31-.69-.69s.31-.69.69-.69h4.88l-6.14-3.54c-.33-.19-.44-.61-.25-.95.19-.33.62-.44.95-.25l6.14,3.54-4.39-7.61c-.19-.33-.08-.75.25-.95.33-.19.75-.08.95.25l4.39,7.61v-3.13c0-.38.31-.69.69-.69s.69.31.69.69v3.13l7.05-12.21c.19-.33.62-.45.95-.25.33.19.44.61.25.95l-7.05,12.21,12.21-7.05c.33-.19.75-.08.95.25.19.33.08.75-.25.95l-12.21,7.05h14.1c.38,0,.69.31.69.69s-.31.69-.69.69h-14.1l12.21,7.05c.33.19.44.61.25.95-.19.33-.62.44-.95.25l-12.21-7.05,7.05,12.21c.19.33.08.75-.25.95-.11.06-.23.09-.35.09ZM146.67,124.72c-.12,0-.24-.03-.35-.09-.33-.19-.44-.61-.25-.95l4.64-8.03c.19-.33.61-.44.95-.25s.44.61.25.95l-4.64,8.03c-.13.22-.36.35-.6.35ZM140.56,118.61c-.24,0-.47-.12-.6-.35-.19-.33-.08-.75.25-.95l1.71-.99c.33-.19.75-.08.95.25.19.33.08.75-.25.95l-1.71.99c-.11.06-.23.09-.35.09ZM144.89,110.27h-6.56c-.38,0-.69-.31-.69-.69s.31-.69.69-.69h6.56c.38,0,.69.31.69.69s-.31.69-.69.69ZM143.32,103.51c-.12,0-.24-.03-.35-.09l-2.76-1.59c-.33-.19-.44-.61-.25-.95.19-.33.62-.45.95-.25l2.76,1.59c.33.19.44.61.25.95-.13.22-.36.35-.6.35ZM155.01,101.18c-.38,0-.69-.31-.69-.69v-7.6c0-.38.31-.69.69-.69s.69.31.69.69v7.6c0,.38-.31.69-.69.69ZM147.9,97.95c-.24,0-.47-.12-.6-.35l-1.23-2.13c-.19-.33-.08-.75.25-.95.33-.19.75-.08.95.25l1.23,2.13c.19.33.08.75-.25.95-.11.06-.23.09-.35.09Z"/>
            <path class="cls-13" d="M155.01,190.04c-.38,0-.69-.31-.69-.69v-54.59c0-.38.31-.69.69-.69s.69.31.69.69v54.59c0,.38-.31.69-.69.69Z"/>
          </g>
          <g>
            <path class="cls-5" d="M82.6,103.8c-.38,0-.69-.31-.69-.69v-4.17c0-.38.31-.69.69-.69s.69.31.69.69v4.17c0,.38-.31.69-.69.69ZM90.94,101.56c-.24,0-.47-.12-.6-.35l-7.05-12.21v6.39c0,.38-.31.69-.69.69s-.69-.31-.69-.69v-6.39l-1.3,2.25c-.19.33-.62.44-.95.25-.33-.19-.44-.61-.25-.95l1.3-2.25-8.82,5.09c-.33.19-.75.08-.95-.25-.19-.33-.08-.75.25-.95l8.82-5.09h-4.88c-.38,0-.69-.31-.69-.69s.31-.69.69-.69h4.88l-6.14-3.54c-.33-.19-.44-.61-.25-.95.19-.33.62-.44.95-.25l6.14,3.54-4.39-7.61c-.19-.33-.08-.75.25-.95.33-.19.75-.08.95.25l4.39,7.61v-3.13c0-.38.31-.69.69-.69s.69.31.69.69v3.13l7.05-12.21c.19-.33.62-.45.95-.25.33.19.44.61.25.95l-7.05,12.21,12.21-7.05c.33-.19.75-.08.95.25.19.33.08.75-.25.95l-12.21,7.05h14.1c.38,0,.69.31.69.69s-.31.69-.69.69h-14.1l12.21,7.05c.33.19.44.61.25.95-.19.33-.62.44-.95.25l-12.21-7.05,7.05,12.21c.19.33.08.75-.25.95-.11.06-.23.09-.35.09ZM74.25,101.56c-.12,0-.24-.03-.35-.09-.33-.19-.44-.61-.25-.95l4.64-8.03c.19-.33.61-.44.95-.25s.44.61.25.95l-4.64,8.03c-.13.22-.36.35-.6.35ZM68.15,95.45c-.24,0-.47-.12-.6-.35-.19-.33-.08-.75.25-.95l1.71-.99c.33-.19.75-.08.95.25.19.33.08.75-.25.95l-1.71.99c-.11.06-.23.09-.35.09ZM72.48,87.11h-6.56c-.38,0-.69-.31-.69-.69s.31-.69.69-.69h6.56c.38,0,.69.31.69.69s-.31.69-.69.69ZM70.9,80.36c-.12,0-.24-.03-.35-.09l-2.76-1.59c-.33-.19-.44-.61-.25-.95.19-.33.62-.45.95-.25l2.76,1.59c.33.19.44.61.25.95-.13.22-.36.35-.6.35ZM82.6,78.03c-.38,0-.69-.31-.69-.69v-7.6c0-.38.31-.69.69-.69s.69.31.69.69v7.6c0,.38-.31.69-.69.69ZM75.49,74.79c-.24,0-.47-.12-.6-.35l-1.23-2.13c-.19-.33-.08-.75.25-.95.33-.19.75-.08.95.25l1.23,2.13c.19.33.08.75-.25.95-.11.06-.23.09-.35.09Z"/>
            <path class="cls-11" d="M82.6,166.88c-.38,0-.69-.31-.69-.69v-54.59c0-.38.31-.69.69-.69s.69.31.69.69v54.59c0,.38-.31.69-.69.69Z"/>
          </g>
          <g>
            <path class="cls-4" d="M116.49,67.69c-.57,0-1.04-.46-1.04-1.04v-23.95l-4.9,8.49c-.29.5-.92.67-1.42.38-.5-.29-.67-.92-.38-1.42l4.91-8.5-20.74,11.98c-.5.29-1.13.12-1.42-.38-.29-.5-.12-1.13.38-1.42l20.74-11.98h-14.9c-.57,0-1.04-.46-1.04-1.04s.47-1.04,1.04-1.04h14.9l-14.11-8.15c-.5-.29-.67-.92-.38-1.42.29-.5.92-.67,1.42-.38l14.11,8.14-8.03-13.91c-.29-.5-.12-1.13.38-1.42.5-.29,1.13-.12,1.42.38l8.03,13.91v-13.75c0-.57.47-1.04,1.04-1.04s1.04.46,1.04,1.04v13.75l11.98-20.75c.29-.5.92-.67,1.42-.38.5.29.67.92.38,1.42l-11.98,20.74,14.62-8.44c.5-.29,1.13-.12,1.42.38.29.5.12,1.13-.38,1.42l-14.62,8.44h6.39c.57,0,1.04.46,1.04,1.04s-.47,1.04-1.04,1.04h-6.39l20.74,11.98c.5.29.67.92.38,1.42-.29.5-.92.67-1.42.38l-20.74-11.98,11.98,20.74c.29.5.12,1.13-.38,1.42-.5.29-1.13.12-1.42-.38l-11.98-20.74v23.95c0,.57-.47,1.04-1.04,1.04ZM102.57,63.97c-.18,0-.35-.04-.52-.14-.5-.29-.67-.92-.38-1.42l4.91-8.5c.29-.5.92-.67,1.42-.38.5.29.67.92.38,1.42l-4.91,8.5c-.19.33-.54.52-.9.52ZM144.31,39.87h-11.99c-.57,0-1.04-.46-1.04-1.04s.47-1.04,1.04-1.04h11.99c.57,0,1.04.46,1.04,1.04s-.47,1.04-1.04,1.04ZM93.21,39.87h-4.55c-.57,0-1.04-.46-1.04-1.04s.47-1.04,1.04-1.04h4.55c.57,0,1.04.46,1.04,1.04s-.47,1.04-1.04,1.04ZM138.44,27.19c-.36,0-.71-.19-.9-.52-.29-.5-.12-1.13.38-1.42l2.14-1.24c.5-.29,1.13-.12,1.42.38.29.5.12,1.13-.38,1.42l-2.14,1.24c-.16.09-.34.14-.52.14ZM93.57,26.64c-.18,0-.35-.04-.52-.14l-1.19-.68c-.5-.29-.67-.92-.38-1.42.29-.5.92-.67,1.42-.38l1.19.68c.5.29.67.92.38,1.42-.19.33-.54.52-.9.52ZM104.29,18.74c-.36,0-.71-.19-.9-.52l-1.71-2.97c-.29-.5-.12-1.13.38-1.42.5-.29,1.13-.12,1.42.38l1.71,2.97c.29.5.12,1.13-.38,1.42-.16.09-.34.14-.52.14ZM116.49,17.86c-.57,0-1.04-.46-1.04-1.04v-5.82c0-.57.47-1.04,1.04-1.04s1.04.46,1.04,1.04v5.82c0,.57-.47,1.04-1.04,1.04Z"/>
            <path class="cls-10" d="M116.49,85.83c-.57,0-1.04-.46-1.04-1.04v-10.21c0-.57.47-1.04,1.04-1.04s1.04.46,1.04,1.04v10.21c0,.57-.47,1.04-1.04,1.04Z"/>
            <path class="cls-14" d="M116.49,116.01c-.57,0-1.04-.46-1.04-1.04v-20c0-.57.47-1.04,1.04-1.04s1.04.46,1.04,1.04v20c0,.57-.47,1.04-1.04,1.04Z"/>
          </g>
          <g>
            <path class="cls-3" d="M198.05,175.49c-.57,0-1.04-.46-1.04-1.04v-23.95l-4.9,8.49c-.29.5-.92.67-1.42.38-.5-.29-.67-.92-.38-1.42l4.91-8.5-20.74,11.98c-.5.29-1.13.12-1.42-.38-.29-.5-.12-1.13.38-1.42l20.74-11.98h-14.9c-.57,0-1.04-.46-1.04-1.04s.47-1.04,1.04-1.04h14.9l-14.11-8.15c-.5-.29-.67-.92-.38-1.42.29-.5.92-.67,1.42-.38l14.11,8.14-8.03-13.91c-.29-.5-.12-1.13.38-1.42.5-.29,1.13-.12,1.42.38l8.03,13.91v-13.75c0-.57.47-1.04,1.04-1.04s1.04.46,1.04,1.04v13.75l11.98-20.75c.29-.5.92-.67,1.42-.38.5.29.67.92.38,1.42l-11.98,20.74,14.62-8.44c.5-.29,1.13-.12,1.42.38.29.5.12,1.13-.38,1.42l-14.62,8.44h6.39c.57,0,1.04.46,1.04,1.04s-.47,1.04-1.04,1.04h-6.39l20.74,11.98c.5.29.67.92.38,1.42-.29.5-.92.67-1.42.38l-20.74-11.98,11.98,20.74c.29.5.12,1.13-.38,1.42-.5.29-1.13.12-1.42-.38l-11.98-20.74v23.95c0,.57-.47,1.04-1.04,1.04ZM184.13,171.77c-.18,0-.35-.04-.52-.14-.5-.29-.67-.92-.38-1.42l4.91-8.5c.29-.5.92-.67,1.42-.38.5.29.67.92.38,1.42l-4.91,8.5c-.19.33-.54.52-.9.52ZM225.87,147.67h-11.99c-.57,0-1.04-.46-1.04-1.04s.47-1.04,1.04-1.04h11.99c.57,0,1.04.46,1.04,1.04s-.47,1.04-1.04,1.04ZM174.77,147.67h-4.55c-.57,0-1.04-.46-1.04-1.04s.47-1.04,1.04-1.04h4.55c.57,0,1.04.46,1.04,1.04s-.47,1.04-1.04,1.04ZM220,134.99c-.36,0-.71-.19-.9-.52-.29-.5-.12-1.13.38-1.42l2.14-1.24c.5-.29,1.13-.12,1.42.38.29.5.12,1.13-.38,1.42l-2.14,1.24c-.16.09-.34.14-.52.14ZM175.13,134.44c-.18,0-.35-.04-.52-.14l-1.19-.68c-.5-.29-.67-.92-.38-1.42.29-.5.92-.67,1.42-.38l1.19.68c.5.29.67.92.38,1.42-.19.33-.54.52-.9.52ZM185.85,126.54c-.36,0-.71-.19-.9-.52l-1.71-2.97c-.29-.5-.12-1.13.38-1.42.5-.29,1.13-.12,1.42.38l1.71,2.97c.29.5.12,1.13-.38,1.42-.16.09-.34.14-.52.14ZM198.05,125.66c-.57,0-1.04-.46-1.04-1.04v-5.82c0-.57.47-1.04,1.04-1.04s1.04.46,1.04,1.04v5.82c0,.57-.47,1.04-1.04,1.04Z"/>
            <path class="cls-31" d="M198.05,193.63c-.57,0-1.04-.46-1.04-1.04v-10.21c0-.57.47-1.04,1.04-1.04s1.04.46,1.04,1.04v10.21c0,.57-.47,1.04-1.04,1.04Z"/>
            <path class="cls-32" d="M198.05,223.81c-.57,0-1.04-.46-1.04-1.04v-20c0-.57.47-1.04,1.04-1.04s1.04.46,1.04,1.04v20c0,.57-.47,1.04-1.04,1.04Z"/>
          </g>
          <g>
            <path class="cls-2" d="M194.83,40.17c-.57,0-1.04-.46-1.04-1.04V15.19l-4.9,8.49c-.29.5-.92.67-1.42.38-.5-.29-.67-.92-.38-1.42l4.91-8.5-20.74,11.98c-.5.29-1.13.12-1.42-.38-.29-.5-.12-1.13.38-1.42l20.74-11.98h-14.9c-.57,0-1.04-.46-1.04-1.04s.47-1.04,1.04-1.04h14.9l-14.11-8.15c-.5-.29-.67-.92-.38-1.42.29-.5.92-.67,1.42-.38l14.11,8.14-8.03-13.91c-.29-.5-.12-1.13.38-1.42.5-.29,1.13-.12,1.42.38l8.03,13.91V-6.31c0-.57.47-1.04,1.04-1.04s1.04.46,1.04,1.04V7.44l11.98-20.75c.29-.5.92-.67,1.42-.38.5.29.67.92.38,1.42l-11.98,20.74L212.29.03c.5-.29,1.13-.12,1.42.38.29.5.12,1.13-.38,1.42l-14.62,8.44h6.39c.57,0,1.04.46,1.04,1.04s-.47,1.04-1.04,1.04h-6.39l20.74,11.98c.5.29.67.92.38,1.42-.29.5-.92.67-1.42.38l-20.74-11.98,11.98,20.74c.29.5.12,1.13-.38,1.42-.5.29-1.13.12-1.42-.38l-11.98-20.74v23.95c0,.57-.47,1.04-1.04,1.04ZM180.91,36.45c-.18,0-.35-.04-.52-.14-.5-.29-.67-.92-.38-1.42l4.91-8.5c.29-.5.92-.67,1.42-.38.5.29.67.92.38,1.42l-4.91,8.5c-.19.33-.54.52-.9.52ZM222.65,12.35h-11.99c-.57,0-1.04-.46-1.04-1.04s.47-1.04,1.04-1.04h11.99c.57,0,1.04.46,1.04,1.04s-.47,1.04-1.04,1.04ZM171.55,12.35h-4.55c-.57,0-1.04-.46-1.04-1.04s.47-1.04,1.04-1.04h4.55c.57,0,1.04.46,1.04,1.04s-.47,1.04-1.04,1.04ZM216.78-.33c-.36,0-.71-.19-.9-.52-.29-.5-.12-1.13.38-1.42l2.14-1.24c.5-.29,1.13-.12,1.42.38.29.5.12,1.13-.38,1.42l-2.14,1.24c-.16.09-.34.14-.52.14ZM171.91-.88c-.18,0-.35-.04-.52-.14l-1.19-.68c-.5-.29-.67-.92-.38-1.42.29-.5.92-.67,1.42-.38l1.19.68c.5.29.67.92.38,1.42-.19.33-.54.52-.9.52ZM182.63-8.78c-.36,0-.71-.19-.9-.52l-1.71-2.97c-.29-.5-.12-1.13.38-1.42.5-.29,1.13-.12,1.42.38l1.71,2.97c.29.5.12,1.13-.38,1.42-.16.09-.34.14-.52.14ZM194.83-9.66c-.57,0-1.04-.46-1.04-1.04v-5.82c0-.57.47-1.04,1.04-1.04s1.04.46,1.04,1.04v5.82c0,.57-.47,1.04-1.04,1.04Z"/>
            <path class="cls-7" d="M194.83,58.31c-.57,0-1.04-.46-1.04-1.04v-10.21c0-.57.47-1.04,1.04-1.04s1.04.46,1.04,1.04v10.21c0,.57-.47,1.04-1.04,1.04Z"/>
            <path class="cls-6" d="M194.83,88.49c-.57,0-1.04-.46-1.04-1.04v-20c0-.57.47-1.04,1.04-1.04s1.04.46,1.04,1.04v20c0,.57-.47,1.04-1.04,1.04Z"/>
          </g>
        </g>
      </g>
      <polygon class="cls-33" points="431.15 87.37 265.39 87.37 267.39 83.87 265.39 80.37 431.15 80.37 431.15 87.37"/>
      <path class="cls-30" d="M170.74,100c-3.02.96-6.18,1.43-9.35,1.4-3.81.07-7.59-.61-11.13-2-3.25-1.31-6.16-3.33-8.52-5.91-2.44-2.72-4.29-5.91-5.44-9.38-1.33-4.05-1.97-8.29-1.91-12.55-.06-4.25.58-8.47,1.9-12.51,1.15-3.48,3-6.69,5.44-9.42,2.37-2.58,5.28-4.6,8.52-5.93,7.16-2.76,15.1-2.76,22.26,0,3.23,1.32,6.14,3.35,8.49,5.93,2.42,2.74,4.26,5.94,5.39,9.42,1.32,4.04,1.97,8.26,1.91,12.51.06,4.26-.58,8.5-1.91,12.55-.39,1.12-.84,2.22-1.36,3.29l4.91,12.32c3.24-3.51,5.77-7.61,7.45-12.08,1.92-5.14,2.86-10.59,2.8-16.08.06-5.48-.89-10.92-2.8-16.05-1.75-4.71-4.45-9.02-7.92-12.65-3.46-3.58-7.63-6.4-12.24-8.28-5.03-2.04-10.41-3.06-15.84-3-5.42-.05-10.79.97-15.81,3-4.6,1.88-8.75,4.7-12.19,8.28-3.5,3.63-6.22,7.94-8,12.65-1.92,5.13-2.87,10.57-2.8,16.05-.07,5.49.87,10.94,2.8,16.08,1.79,4.71,4.51,9,8,12.63,3.45,3.58,7.62,6.39,12.24,8.24,5.01,2,10.36,3,15.76,2.94,4.41.04,8.79-.6,13-1.91l-3.65-9.54Z"/>
      <path class="cls-30" d="M155.22,52l-13.78,34.57c.83,1.6,1.86,3.09,3.07,4.43,1.41,1.53,3.06,2.83,4.88,3.83l9.17-24c.4-1,.81-2.25,1.23-3.59s.82-2.8,1.22-4.36c.68,2.66,1.51,5.28,2.51,7.84l11.62,30.28,3.15,8.27,6.91,18.13c.27.79.76,1.49,1.42,2,.72.53,1.6.81,2.5.77h8.93l-31.13-78.17h-11.7Z"/>
      <path class="cls-30" d="M133.78,105.79l-9.69,24.34h8.93c.91.03,1.8-.28,2.5-.85.63-.48,1.12-1.13,1.41-1.87l6.08-15.93c-3.32-1.47-6.43-3.38-9.23-5.69Z"/>
    </g>
    <g>
      <path class="cls-30" d="M174.23,241.46c-.23,3.95-1.12,7.84-2.64,11.49-1.36,3.28-3.31,6.28-5.74,8.86-2.31,2.42-5.08,4.36-8.14,5.71-3.09,1.35-6.44,2.03-9.81,2-2.57.05-5.12-.47-7.47-1.5-2.12-.96-3.98-2.41-5.43-4.22-1.52-1.94-2.61-4.17-3.21-6.56-.7-2.76-.93-5.61-.69-8.45.23-3.95,1.13-7.82,2.66-11.47,1.36-3.28,3.31-6.29,5.74-8.89,2.29-2.43,5.05-4.38,8.11-5.73,3.07-1.34,6.4-2.03,9.75-2,2.59-.04,5.15.47,7.52,1.51,2.14.96,4.02,2.41,5.48,4.24,1.52,1.94,2.61,4.18,3.21,6.57.68,2.76.91,5.61.66,8.44ZM170.75,241.53c.21-2.51.03-5.04-.55-7.49-.48-2.06-1.38-4-2.66-5.68-1.2-1.55-2.76-2.79-4.54-3.61-1.95-.88-4.08-1.31-6.22-1.27-2.85-.02-5.67.58-8.26,1.76-2.61,1.18-4.94,2.88-6.86,5-2.09,2.35-3.74,5.06-4.87,8-1.3,3.35-2.07,6.88-2.28,10.47-.22,2.51-.03,5.04.55,7.49.48,2.05,1.39,3.99,2.66,5.67,1.21,1.54,2.77,2.78,4.55,3.6,1.95.87,4.07,1.31,6.2,1.27,2.87.02,5.71-.57,8.33-1.74,2.6-1.17,4.93-2.88,6.84-5,2.07-2.33,3.71-5.02,4.83-7.93,1.31-3.37,2.08-6.93,2.28-10.54Z"/>
      <path class="cls-30" d="M184.82,246.22c.96-1.7,2.09-3.3,3.35-4.78,1.14-1.33,2.42-2.53,3.83-3.57,1.22-.92,2.57-1.67,4-2.22,1.28-.49,2.63-.75,4-.76,1.27-.04,2.52.25,3.64.85,1,.57,1.8,1.43,2.29,2.47.59,1.25.91,2.62.94,4,.06,1.8-.09,3.59-.46,5.35l-4,21.5h-3.18l4-21.5c.6-3.2.56-5.65-.13-7.36-.69-1.72-2.15-2.57-4.38-2.57-1.35.03-2.67.37-3.87,1-1.43.72-2.75,1.64-3.91,2.74-1.39,1.29-2.63,2.73-3.7,4.29-1.24,1.78-2.31,3.68-3.2,5.66l-3.3,17.78h-3.18l6.38-33.73h1.45c.79,0,1.16.4,1.1,1.21l-1.67,9.64Z"/>
      <path class="cls-30" d="M212.66,269.04l9.34-49.17h3.15l-9.42,49.18h-3.07Z"/>
      <path class="cls-30" d="M236.44,235.41l-6.44,33.63h-3.15l6.44-33.63h3.15ZM239.71,223.87c-.02.4-.14.78-.33,1.13-.19.35-.43.66-.72.93-.29.27-.63.48-1,.64-.34.16-.71.24-1.08.24-.37,0-.73-.08-1.06-.24-.32-.15-.61-.37-.84-.64-.23-.28-.42-.59-.54-.93-.13-.36-.18-.75-.14-1.13.03-.4.14-.79.32-1.15.18-.37.41-.7.69-1,.27-.27.59-.5.94-.65.35-.16.72-.24,1.1-.24.35,0,.69.09,1,.24.33.15.63.37.88.64.27.29.46.63.58,1,.15.37.21.76.2,1.16Z"/>
      <path class="cls-30" d="M248.12,246.22c.96-1.7,2.09-3.3,3.36-4.78,1.12-1.33,2.39-2.53,3.78-3.57,1.22-.92,2.57-1.67,4-2.22,1.28-.49,2.63-.75,4-.76,1.27-.04,2.52.25,3.64.85,1,.57,1.8,1.43,2.29,2.47.59,1.25.91,2.62.94,4,.06,1.8-.09,3.59-.46,5.35l-4,21.5h-3.18l4-21.5c.6-3.2.56-5.65-.13-7.36-.69-1.72-2.15-2.57-4.38-2.57-1.35.03-2.67.37-3.87,1-1.43.72-2.75,1.64-3.91,2.74-1.39,1.29-2.63,2.73-3.7,4.29-1.23,1.79-2.31,3.68-3.2,5.66l-3.3,17.72h-3.18l6.38-33.73h1.45c.79,0,1.16.4,1.1,1.21l-1.63,9.7Z"/>
      <path class="cls-30" d="M301,262.79c-1.08,1.07-2.23,2.07-3.44,3-1.04.8-2.15,1.5-3.32,2.08-1.09.53-2.23.93-3.41,1.2-1.22.27-2.47.4-3.72.39-1.69.04-3.36-.28-4.92-.93-1.36-.59-2.56-1.5-3.48-2.66-.96-1.22-1.65-2.64-2-4.15-.42-1.8-.55-3.66-.39-5.5.12-1.72.41-3.43.86-5.1.45-1.7,1.07-3.36,1.85-4.94.77-1.57,1.7-3.05,2.77-4.42,1.04-1.35,2.26-2.55,3.62-3.58,1.32-1.02,2.79-1.83,4.36-2.41,1.6-.58,3.29-.88,5-.87,1.41-.04,2.8.19,4.12.69.99.39,1.89.97,2.65,1.72.65.63,1.15,1.41,1.45,2.27.25.72.36,1.49.32,2.25-.06.9-.25,1.79-.56,2.64-.33.89-.84,1.71-1.49,2.4-.79.83-1.71,1.54-2.71,2.1-1.36.75-2.79,1.35-4.27,1.81-2.01.62-4.06,1.12-6.14,1.5-2.37.45-5.15.85-8.33,1.18-.08.45-.15.92-.21,1.39s-.12.93-.15,1.39c-.24,3.35.34,6,1.73,7.87,1.39,1.87,3.61,2.76,6.68,2.76,2.05.02,4.07-.45,5.89-1.39.73-.37,1.43-.8,2.09-1.28.6-.45,1.14-.88,1.62-1.29.48-.4.89-.73,1.24-1,.26-.23.58-.36.92-.39.27,0,.53.12.69.34l.68.93ZM294.5,237.3c-1.73-.02-3.45.36-5,1.13-1.53.77-2.9,1.81-4.07,3.06-1.23,1.34-2.28,2.83-3.11,4.45-.86,1.67-1.53,3.43-2,5.25,2.88-.31,5.37-.68,7.47-1.1,1.81-.34,3.6-.78,5.37-1.31,1.26-.38,2.47-.88,3.62-1.51.82-.44,1.57-1,2.22-1.67.47-.5.84-1.09,1.08-1.73.21-.61.34-1.25.38-1.89.03-.52-.04-1.05-.21-1.54-.2-.57-.55-1.09-1-1.5-.54-.5-1.17-.88-1.86-1.13-.92-.35-1.9-.52-2.89-.51Z"/>
      <path class="cls-30" d="M357.48,269.04h-2.61c-.26.01-.52-.08-.72-.26-.17-.17-.29-.38-.33-.62l-2.43-14h-21.39l-7.84,14c-.14.25-.34.47-.59.62-.24.17-.53.26-.83.26h-2.56l27.2-47.83h3.35l8.75,47.83ZM351,251.7l-4.26-24.33c-.06-.41-.13-.86-.18-1.34-.05-.48-.11-1-.16-1.57-.27.56-.52,1.09-.77,1.57s-.48.94-.69,1.37l-13.59,24.3h19.65Z"/>
      <path class="cls-30" d="M383.72,266.17c-1.02.78-2.13,1.45-3.29,2-1.02.48-2.09.82-3.2,1-1.12.18-2.25.27-3.39.27-1.72.04-3.43-.3-5-1-1.34-.63-2.5-1.59-3.37-2.79-.9-1.28-1.52-2.73-1.83-4.26-.37-1.76-.48-3.57-.33-5.37.12-1.79.43-3.56.93-5.29.48-1.73,1.13-3.4,1.95-5,.78-1.53,1.72-2.97,2.81-4.3,1.05-1.3,2.25-2.46,3.59-3.45,1.28-.96,2.69-1.73,4.19-2.28,1.51-.56,3.1-.84,4.71-.83,1.01-.01,2.02.1,3,.32.83.2,1.64.5,2.39.91.7.39,1.35.88,1.92,1.44.58.58,1.11,1.21,1.56,1.89l-1,1.12c-.18.22-.45.36-.74.37-.23,0-.49-.18-.79-.54-.37-.43-.79-.82-1.24-1.17-.63-.48-1.32-.87-2.06-1.16-1.05-.4-2.16-.59-3.28-.55-1.9,0-3.77.53-5.39,1.53-1.76,1.06-3.31,2.44-4.55,4.08-1.37,1.81-2.47,3.81-3.25,5.94-.84,2.25-1.35,4.61-1.52,7-.12,1.45-.04,2.9.22,4.33.21,1.25.68,2.43,1.37,3.49.66.97,1.55,1.75,2.6,2.27,1.2.57,2.53.85,3.86.81,1.09.01,2.18-.12,3.24-.39.89-.25,1.76-.58,2.58-1,.7-.36,1.37-.79,2-1.27.58-.46,1.1-.89,1.56-1.27l1.16-1c.24-.22.54-.36.86-.39.27,0,.52.13.69.34l.64.88c-1.11,1.2-2.32,2.31-3.6,3.32Z"/>
      <path class="cls-30" d="M413.93,266.17c-1.02.78-2.12,1.45-3.28,2-1.02.48-2.09.81-3.2,1-1.12.18-2.26.27-3.4.27-1.72.05-3.43-.3-5-1-1.35-.62-2.51-1.59-3.37-2.79-.9-1.28-1.52-2.73-1.83-4.26-.37-1.76-.48-3.57-.34-5.37.27-3.58,1.25-7.07,2.88-10.27.79-1.55,1.74-3.01,2.84-4.36,1.05-1.29,2.26-2.45,3.59-3.45,1.28-.96,2.7-1.72,4.2-2.28,1.5-.56,3.1-.84,4.7-.83,1.01-.01,2.02.09,3,.32.83.2,1.64.5,2.39.91.69.41,1.33.9,1.89,1.48.58.58,1.11,1.21,1.56,1.89l-1,1.12c-.18.22-.45.36-.74.37-.22,0-.48-.18-.79-.54-.89-1.04-2.02-1.84-3.3-2.33-1.04-.4-2.15-.59-3.27-.55-1.91,0-3.77.53-5.4,1.53-1.76,1.06-3.3,2.44-4.54,4.08-1.38,1.81-2.47,3.81-3.25,5.94-.85,2.25-1.37,4.6-1.53,7-.11,1.45-.04,2.9.23,4.33.2,1.25.68,2.44,1.38,3.49.66.96,1.55,1.75,2.59,2.27,1.21.57,2.53.85,3.87.81,1.09.01,2.18-.12,3.23-.39.89-.24,1.76-.58,2.59-1,.71-.36,1.38-.78,2-1.27.59-.46,1.11-.89,1.56-1.27l1.17-1c.23-.22.53-.36.85-.39.27,0,.52.13.69.34l.65.88c-1.12,1.2-2.33,2.3-3.62,3.32Z"/>
      <path class="cls-30" d="M448.35,262.79c-1.08,1.07-2.22,2.07-3.43,3-1.04.8-2.16,1.5-3.33,2.08-1.09.53-2.23.94-3.41,1.2-1.22.27-2.46.4-3.71.39-1.69.04-3.36-.28-4.92-.93-1.36-.59-2.56-1.5-3.48-2.66-.96-1.22-1.65-2.64-2-4.15-.41-1.8-.54-3.66-.39-5.5.26-3.48,1.18-6.87,2.71-10,.77-1.57,1.7-3.05,2.78-4.42,1.04-1.34,2.26-2.55,3.61-3.58,1.33-1.01,2.8-1.83,4.36-2.41,1.6-.58,3.29-.88,5-.87,1.41-.04,2.81.19,4.13.69,1.02.38,1.95.96,2.73,1.72.62.63,1.1,1.39,1.38,2.23.25.72.35,1.49.31,2.25-.06.9-.24,1.79-.55,2.64-.34.89-.85,1.71-1.51,2.4-.8.83-1.71,1.54-2.72,2.1-1.36.75-2.79,1.35-4.27,1.81-2.01.62-4.06,1.13-6.14,1.5-2.37.45-5.15.85-8.32,1.18-.08.45-.15.92-.22,1.39s-.12.93-.15,1.39c-.23,3.35.34,6,1.73,7.87,1.39,1.87,3.62,2.76,6.68,2.76,1.1.01,2.19-.12,3.26-.39.91-.24,1.8-.57,2.64-1,.73-.37,1.42-.8,2.08-1.28.61-.45,1.15-.88,1.63-1.29s.89-.73,1.23-1c.26-.22.59-.36.93-.39.27,0,.52.12.68.34l.68.93ZM441.86,237.3c-1.73-.02-3.45.36-5,1.13-1.52.77-2.9,1.81-4.06,3.06-1.24,1.33-2.29,2.83-3.12,4.45-.85,1.67-1.52,3.43-2,5.25,2.88-.31,5.38-.68,7.48-1.1,1.81-.34,3.6-.78,5.36-1.31,1.26-.38,2.47-.88,3.62-1.51.81-.44,1.55-1.01,2.2-1.67.48-.51.86-1.12,1.1-1.78.21-.61.34-1.25.39-1.89.02-.52-.05-1.04-.21-1.54-.2-.57-.55-1.09-1-1.5-.54-.5-1.18-.88-1.87-1.13-.93-.33-1.91-.49-2.89-.46h0Z"/>
      <path class="cls-30" d="M477.56,239.53c-.15.29-.45.48-.78.48-.31-.05-.59-.2-.8-.43-.39-.35-.81-.66-1.25-.94-.62-.42-1.29-.75-2-1-2.09-.61-4.32-.56-6.38.15-1,.36-1.94.88-2.78,1.54-.78.62-1.44,1.38-1.95,2.23-.49.82-.78,1.74-.84,2.69-.09.81.07,1.62.47,2.33.41.65.96,1.21,1.6,1.64.72.48,1.5.88,2.31,1.2.87.34,1.76.67,2.69,1,.91.34,1.8.72,2.67,1.14.83.39,1.61.9,2.3,1.5.67.59,1.2,1.32,1.55,2.14.39.97.53,2.02.43,3.06-.1,1.46-.49,2.88-1.15,4.19-.67,1.36-1.59,2.58-2.72,3.6-1.17,1.07-2.53,1.92-4,2.52-1.62.65-3.35.97-5.09.95-1.86.06-3.7-.32-5.38-1.13-1.39-.74-2.61-1.76-3.59-3l.89-1.15c.21-.32.56-.53.95-.54.23,0,.5.18.81.54.39.44.83.84,1.3,1.2.66.5,1.4.91,2.18,1.2,1.1.39,2.27.58,3.44.54,1.27.02,2.53-.21,3.72-.66,1.08-.41,2.08-1.03,2.93-1.81.83-.75,1.5-1.65,2-2.65.5-1,.79-2.08.87-3.19.1-.86-.07-1.73-.47-2.5-.39-.69-.93-1.29-1.58-1.75-.72-.5-1.5-.92-2.32-1.23-.86-.34-1.76-.67-2.68-1-.91-.31-1.81-.67-2.68-1.08-.83-.37-1.6-.85-2.3-1.43-.68-.54-1.23-1.23-1.61-2.01-.4-.95-.55-1.98-.44-3,.11-1.3.49-2.56,1.12-3.7.66-1.22,1.54-2.31,2.59-3.21,1.12-.96,2.41-1.71,3.79-2.23,1.47-.56,3.04-.86,4.62-.86,1.66-.04,3.32.26,4.86.88,1.36.6,2.56,1.5,3.51,2.64l-.81,1.14Z"/>
      <path class="cls-30" d="M504.12,239.53c-.15.29-.44.47-.77.48-.31-.04-.59-.2-.8-.43-.39-.34-.81-.66-1.25-.94-.62-.42-1.29-.75-2-1-2.09-.61-4.32-.56-6.38.15-1,.36-1.94.88-2.78,1.54-.78.62-1.43,1.38-1.94,2.23-.49.82-.78,1.74-.85,2.69-.08.81.08,1.62.48,2.33.4.66.95,1.22,1.59,1.64.73.48,1.5.89,2.32,1.2.86.34,1.76.67,2.68,1s1.82.72,2.68,1.14c.83.39,1.6.9,2.29,1.5.67.59,1.2,1.32,1.56,2.14.39.97.53,2.02.43,3.06-.11,1.46-.5,2.88-1.16,4.19-.67,1.36-1.59,2.58-2.72,3.6-2.49,2.26-5.74,3.5-9.11,3.47-3.49.19-6.85-1.33-9-4.09l.89-1.15c.22-.34.6-.54,1-.54.22,0,.49.18.8.54.4.44.83.84,1.3,1.2.67.5,1.41.91,2.19,1.2,1.1.4,2.27.58,3.44.54,1.27.02,2.53-.21,3.71-.66,1.08-.41,2.08-1.03,2.93-1.81.82-.75,1.5-1.65,2-2.65.49-1,.78-2.08.86-3.19.1-.86-.07-1.73-.47-2.5-.39-.69-.93-1.29-1.58-1.75-.72-.5-1.49-.91-2.31-1.23-.87-.34-1.76-.67-2.69-1-.91-.31-1.81-.68-2.68-1.08-.83-.37-1.6-.85-2.3-1.43-.68-.56-1.23-1.26-1.6-2.05-.4-.95-.55-1.98-.43-3,.09-1.32.47-2.61,1.11-3.77.66-1.22,1.54-2.31,2.59-3.21,1.12-.96,2.41-1.71,3.79-2.23,1.49-.56,3.08-.84,4.67-.83,1.66-.04,3.31.26,4.85.88,1.37.62,2.59,1.54,3.54,2.71l-.88,1.11Z"/>
      <polygon class="cls-34" points="495 293.87 99 293.87 103 286.87 495 286.87 495 293.87"/>
      <path class="cls-36" d="M9.46,243.56l24.88,42.81h49.8l24.86-42.81-24.86-42.82h-49.8l-24.88,42.82Z"/>
      <path class="cls-30" d="M0,243.56l29.64-49.69h59.2l29.64,49.69-29.64,49.68H29.64L0,243.56ZM31.74,197.56l-27.43,46,27.43,46h55l27.43-46-27.43-45.99H31.74Z"/>
      <g class="cls-42">
        <g class="cls-20">
          <g>
            <path class="cls-25" d="M93.79,249.87c-.23,0-.41-.18-.41-.41v-2.33c0-.23.18-.41.41-.41s.41.18.41.41v2.33c0,.23-.18.41-.41.41ZM98.46,248.62c-.14,0-.28-.07-.36-.21l-2.59-4.49c-.11-.2-.05-.45.15-.56.2-.11.45-.05.56.15l2.59,4.49c.11.2.05.45-.15.56-.06.04-.13.05-.2.05ZM89.13,248.62c-.07,0-.14-.02-.2-.05-.2-.11-.26-.36-.15-.56l3.9-6.76-6.76,3.9c-.2.11-.45.05-.56-.15-.11-.2-.05-.45.15-.56l6.76-3.9h-7.81c-.23,0-.41-.18-.41-.41s.18-.41.41-.41h7.81l-6.76-3.9c-.2-.11-.26-.36-.15-.56.11-.2.36-.26.56-.15l6.76,3.9-3.9-6.76c-.11-.2-.05-.45.15-.56.2-.11.45-.05.56.15l3.9,6.76v-1.67c0-.23.18-.41.41-.41s.41.18.41.41v1.67l2.42-4.18c.11-.2.36-.26.56-.15.2.11.26.36.15.56l-2.42,4.18,3.36-1.94c.2-.11.45-.05.56.15.11.2.05.45-.15.56l-3.36,1.94h2.65c.23,0,.41.18.41.41s-.18.41-.41.41h-2.65l4.86,2.81c.2.11.26.36.15.56-.11.2-.36.26-.56.15l-4.86-2.81.68,1.19c.11.2.05.45-.15.56-.2.11-.45.05-.56-.15l-.68-1.18v3.49c0,.23-.18.41-.41.41s-.41-.18-.41-.41v-3.49l-3.9,6.76c-.08.13-.21.21-.36.21ZM101.88,245.2c-.07,0-.14-.02-.2-.05l-.95-.55c-.2-.11-.26-.36-.15-.56.11-.2.36-.26.56-.15l.95.55c.2.11.26.36.15.56-.08.13-.21.21-.36.21ZM103.13,240.54h-3.67c-.23,0-.41-.18-.41-.41s.18-.41.41-.41h3.67c.23,0,.41.18.41.41s-.18.41-.41.41ZM100.34,236.76c-.14,0-.28-.07-.36-.21-.11-.2-.05-.45.15-.56l1.54-.89c.2-.11.45-.05.56.15.11.2.05.45-.15.56l-1.54.89c-.06.04-.13.05-.2.05ZM93.79,235.45c-.23,0-.41-.18-.41-.41v-4.26c0-.23.18-.41.41-.41s.41.18.41.41v4.26c0,.23-.18.41-.41.41ZM97.77,233.64c-.07,0-.14-.02-.2-.05-.2-.11-.26-.36-.15-.56l.69-1.19c.11-.2.36-.26.56-.15.2.11.26.36.15.56l-.69,1.19c-.08.13-.21.21-.36.21Z"/>
            <path class="cls-38" d="M93.79,257.51c-.23,0-.41-.18-.41-.41v-4.79c0-.23.18-.41.41-.41s.41.18.41.41v4.79c0,.23-.18.41-.41.41Z"/>
            <path class="cls-39" d="M93.79,265.27c-.23,0-.41-.18-.41-.41v-4.95c0-.23.18-.41.41-.41s.41.18.41.41v4.95c0,.23-.18.41-.41.41Z"/>
          </g>
          <path class="cls-27" d="M34.83,293.27c-.23,0-.41-.18-.41-.41v-2.33c0-.23.18-.41.41-.41s.41.18.41.41v2.33c0,.23-.18.41-.41.41ZM39.5,292.02c-.14,0-.28-.07-.36-.21l-2.59-4.49c-.11-.2-.05-.45.15-.56.2-.11.45-.05.56.15l2.59,4.49c.11.2.05.45-.15.56-.06.04-.13.05-.2.05ZM30.16,292.02c-.07,0-.14-.02-.2-.05-.2-.11-.26-.36-.15-.56l3.9-6.76-6.76,3.9c-.2.11-.45.05-.56-.15-.11-.2-.05-.45.15-.56l6.76-3.9h-7.81c-.23,0-.41-.18-.41-.41s.18-.41.41-.41h7.81l-6.76-3.9c-.2-.11-.26-.36-.15-.56.11-.2.36-.26.56-.15l6.76,3.9-3.9-6.76c-.11-.2-.05-.45.15-.56.2-.11.45-.05.56.15l3.9,6.76v-1.67c0-.23.18-.41.41-.41s.41.18.41.41v1.67l2.42-4.18c.11-.2.36-.26.56-.15.2.11.26.36.15.56l-2.42,4.18,3.36-1.94c.2-.11.45-.05.56.15.11.2.05.45-.15.56l-3.36,1.94h2.65c.23,0,.41.18.41.41s-.18.41-.41.41h-2.65l4.86,2.81c.2.11.26.36.15.56-.11.2-.36.26-.56.15l-4.86-2.81.68,1.19c.11.2.05.45-.15.56-.2.11-.45.05-.56-.15l-.68-1.18v3.49c0,.23-.18.41-.41.41s-.41-.18-.41-.41v-3.49l-3.9,6.76c-.08.13-.21.21-.36.21ZM42.92,288.6c-.07,0-.14-.02-.2-.05l-.95-.55c-.2-.11-.26-.36-.15-.56.11-.2.36-.26.56-.15l.95.55c.2.11.26.36.15.56-.08.13-.21.21-.36.21ZM44.17,283.93h-3.67c-.23,0-.41-.18-.41-.41s.18-.41.41-.41h3.67c.23,0,.41.18.41.41s-.18.41-.41.41ZM41.38,280.15c-.14,0-.28-.07-.36-.21-.11-.2-.05-.45.15-.56l1.54-.89c.2-.11.45-.05.56.15.11.2.05.45-.15.56l-1.54.89c-.06.04-.13.05-.2.05ZM34.83,278.85c-.23,0-.41-.18-.41-.41v-4.26c0-.23.18-.41.41-.41s.41.18.41.41v4.26c0,.23-.18.41-.41.41ZM38.81,277.04c-.07,0-.14-.02-.2-.05-.2-.11-.26-.36-.15-.56l.69-1.19c.11-.2.36-.26.56-.15.2.11.26.36.15.56l-.69,1.19c-.08.13-.21.21-.36.21Z"/>
          <g>
            <path class="cls-22" d="M55.46,269.07c-.23,0-.41-.18-.41-.41v-2.47c0-.23.18-.41.41-.41s.41.18.41.41v2.47c0,.23-.18.41-.41.41ZM60.41,267.75c-.14,0-.28-.07-.36-.21l-4.18-7.23v3.79c0,.23-.18.41-.41.41s-.41-.18-.41-.41v-3.79l-.77,1.33c-.11.2-.36.26-.56.15-.2-.11-.26-.36-.15-.56l.77-1.33-5.23,3.02c-.2.11-.45.05-.56-.15-.11-.2-.05-.45.15-.56l5.22-3.02h-2.89c-.23,0-.41-.18-.41-.41s.18-.41.41-.41h2.89l-3.64-2.1c-.2-.11-.26-.36-.15-.56.11-.2.36-.26.56-.15l3.64,2.1-2.6-4.51c-.11-.2-.05-.45.15-.56.2-.11.45-.05.56.15l2.6,4.51v-1.86c0-.23.18-.41.41-.41s.41.18.41.41v1.86l4.18-7.23c.11-.2.36-.26.56-.15.2.11.26.36.15.56l-4.18,7.23,7.24-4.18c.2-.11.45-.05.56.15.11.2.05.45-.15.56l-7.24,4.18h8.35c.23,0,.41.18.41.41s-.18.41-.41.41h-8.35l7.24,4.18c.2.11.26.36.15.56-.11.2-.37.26-.56.15l-7.24-4.18,4.18,7.23c.11.2.05.45-.15.56-.06.04-.13.05-.2.05ZM50.52,267.75c-.07,0-.14-.02-.2-.05-.2-.11-.26-.36-.15-.56l2.75-4.76c.11-.2.36-.26.56-.15s.26.36.15.56l-2.75,4.76c-.08.13-.21.21-.36.21ZM46.9,264.13c-.14,0-.28-.07-.36-.2-.11-.2-.05-.45.15-.56l1.01-.58c.2-.11.45-.05.56.15.11.2.05.45-.15.56l-1.01.58c-.06.04-.13.06-.2.06ZM49.47,259.19h-3.89c-.23,0-.41-.18-.41-.41s.18-.41.41-.41h3.89c.23,0,.41.18.41.41s-.18.41-.41.41ZM48.53,255.19c-.07,0-.14-.02-.2-.06l-1.63-.94c-.2-.11-.26-.36-.15-.56.11-.2.36-.26.56-.15l1.63.94c.2.11.26.36.15.56-.08.13-.21.21-.36.21ZM55.46,253.81c-.23,0-.41-.18-.41-.41v-4.5c0-.23.18-.41.41-.41s.41.18.41.41v4.5c0,.23-.18.41-.41.41ZM51.25,251.89c-.14,0-.28-.07-.36-.21l-.73-1.26c-.11-.2-.05-.45.15-.56.2-.11.45-.05.56.15l.73,1.26c.11.2.05.45-.15.56-.06.04-.13.06-.2.06Z"/>
            <path class="cls-40" d="M55.46,306.44c-.23,0-.41-.18-.41-.41v-32.34c0-.23.18-.41.41-.41s.41.18.41.41v32.34c0,.23-.18.41-.41.41Z"/>
          </g>
          <g>
            <path class="cls-24" d="M12.57,255.35c-.23,0-.41-.18-.41-.41v-2.47c0-.23.18-.41.41-.41s.41.18.41.41v2.47c0,.23-.18.41-.41.41ZM17.51,254.03c-.14,0-.28-.07-.36-.21l-4.18-7.23v3.79c0,.23-.18.41-.41.41s-.41-.18-.41-.41v-3.79l-.77,1.33c-.11.2-.36.26-.56.15-.2-.11-.26-.36-.15-.56l.77-1.33-5.23,3.02c-.2.11-.45.05-.56-.15-.11-.2-.05-.45.15-.56l5.22-3.02h-2.89c-.23,0-.41-.18-.41-.41s.18-.41.41-.41h2.89l-3.64-2.1c-.2-.11-.26-.36-.15-.56.11-.2.36-.26.56-.15l3.64,2.1-2.6-4.51c-.11-.2-.05-.45.15-.56.2-.11.45-.05.56.15l2.6,4.51v-1.86c0-.23.18-.41.41-.41s.41.18.41.41v1.86l4.18-7.23c.11-.2.36-.26.56-.15.2.11.26.36.15.56l-4.18,7.23,7.24-4.18c.2-.11.45-.05.56.15.11.2.05.45-.15.56l-7.24,4.18h8.35c.23,0,.41.18.41.41s-.18.41-.41.41h-8.35l7.24,4.18c.2.11.26.36.15.56-.11.2-.37.26-.56.15l-7.24-4.18,4.18,7.23c.11.2.05.45-.15.56-.06.04-.13.05-.2.05ZM7.62,254.03c-.07,0-.14-.02-.2-.05-.2-.11-.26-.36-.15-.56l2.75-4.76c.11-.2.36-.26.56-.15s.26.36.15.56l-2.75,4.76c-.08.13-.21.21-.36.21ZM4.01,250.41c-.14,0-.28-.07-.36-.2-.11-.2-.05-.45.15-.56l1.01-.58c.2-.11.45-.05.56.15.11.2.05.45-.15.56l-1.01.58c-.06.04-.13.06-.2.06ZM6.57,245.47h-3.89c-.23,0-.41-.18-.41-.41s.18-.41.41-.41h3.89c.23,0,.41.18.41.41s-.18.41-.41.41ZM5.64,241.47c-.07,0-.14-.02-.2-.06l-1.63-.94c-.2-.11-.26-.36-.15-.56.11-.2.36-.26.56-.15l1.63.94c.2.11.26.36.15.56-.08.13-.21.21-.36.21ZM12.57,240.09c-.23,0-.41-.18-.41-.41v-4.5c0-.23.18-.41.41-.41s.41.18.41.41v4.5c0,.23-.18.41-.41.41ZM8.35,238.17c-.14,0-.28-.07-.36-.21l-.73-1.26c-.11-.2-.05-.45.15-.56.2-.11.45-.05.56.15l.73,1.26c.11.2.05.45-.15.56-.06.04-.13.06-.2.06Z"/>
            <path class="cls-41" d="M12.57,292.72c-.23,0-.41-.18-.41-.41v-32.34c0-.23.18-.41.41-.41s.41.18.41.41v32.34c0,.23-.18.41-.41.41Z"/>
          </g>
          <g>
            <path class="cls-23" d="M32.64,233.97c-.34,0-.62-.28-.62-.62v-14.19l-2.91,5.03c-.17.29-.55.39-.84.23-.29-.17-.39-.55-.23-.84l2.91-5.03-12.29,7.09c-.29.17-.67.07-.84-.23-.17-.29-.07-.67.23-.84l12.29-7.09h-8.83c-.34,0-.62-.28-.62-.62s.28-.62.62-.62h8.83l-8.36-4.83c-.29-.17-.39-.55-.23-.84.17-.29.55-.39.84-.23l8.36,4.82-4.76-8.24c-.17-.29-.07-.67.23-.84.29-.17.67-.07.84.23l4.76,8.24v-8.14c0-.34.28-.62.62-.62s.62.28.62.62v8.15l7.1-12.29c.17-.29.55-.4.84-.23.29.17.39.55.23.84l-7.09,12.29,8.66-5c.29-.17.67-.07.84.23.17.29.07.67-.23.84l-8.66,5h3.79c.34,0,.62.28.62.62s-.28.62-.62.62h-3.79l12.29,7.09c.29.17.39.55.23.84-.17.29-.55.4-.84.23l-12.29-7.09,7.09,12.29c.17.29.07.67-.23.84-.29.17-.67.07-.84-.23l-7.1-12.29v14.19c0,.34-.28.62-.62.62ZM24.4,231.76c-.1,0-.21-.03-.31-.08-.29-.17-.39-.55-.23-.84l2.91-5.04c.17-.29.55-.39.84-.23.29.17.39.55.23.84l-2.91,5.04c-.11.2-.32.31-.53.31ZM49.13,217.48h-7.1c-.34,0-.62-.28-.62-.62s.28-.62.62-.62h7.1c.34,0,.62.28.62.62s-.28.62-.62.62ZM18.85,217.48h-2.69c-.34,0-.62-.28-.62-.62s.28-.62.62-.62h2.69c.34,0,.62.28.62.62s-.28.62-.62.62ZM45.65,209.97c-.21,0-.42-.11-.53-.31-.17-.29-.07-.67.23-.84l1.27-.73c.29-.17.67-.07.84.22.17.29.07.67-.23.84l-1.27.73c-.1.06-.2.08-.31.08ZM19.07,209.65c-.1,0-.21-.03-.31-.08l-.7-.41c-.29-.17-.39-.55-.23-.84.17-.29.55-.4.84-.23l.7.41c.29.17.39.55.23.84-.11.2-.32.31-.53.31ZM25.42,204.97c-.21,0-.42-.11-.53-.31l-1.02-1.76c-.17-.29-.07-.67.23-.84.29-.17.67-.07.84.23l1.02,1.76c.17.29.07.67-.23.84-.1.06-.2.08-.31.08ZM32.64,204.44c-.34,0-.62-.28-.62-.62v-3.45c0-.34.28-.62.62-.62s.62.28.62.62v3.45c0,.34-.28.62-.62.62Z"/>
            <path class="cls-35" d="M32.64,244.71c-.34,0-.62-.28-.62-.62v-6.05c0-.34.28-.62.62-.62s.62.28.62.62v6.05c0,.34-.28.62-.62.62Z"/>
            <path class="cls-37" d="M32.64,262.59c-.34,0-.62-.28-.62-.62v-11.85c0-.34.28-.62.62-.62s.62.28.62.62v11.85c0,.34-.28.62-.62.62Z"/>
          </g>
          <path class="cls-29" d="M80.96,297.83c-.34,0-.62-.28-.62-.62v-14.19l-2.91,5.03c-.17.29-.55.39-.84.23-.29-.17-.39-.55-.23-.84l2.91-5.03-12.29,7.09c-.29.17-.67.07-.84-.23-.17-.29-.07-.67.23-.84l12.29-7.09h-8.83c-.34,0-.62-.28-.62-.62s.28-.62.62-.62h8.83l-8.36-4.83c-.29-.17-.39-.55-.23-.84.17-.29.55-.39.84-.23l8.36,4.82-4.76-8.24c-.17-.29-.07-.67.23-.84.29-.17.67-.07.84.23l4.76,8.24v-8.14c0-.34.28-.62.62-.62s.62.28.62.62v8.15l7.1-12.29c.17-.29.55-.4.84-.23.29.17.39.55.23.84l-7.09,12.29,8.66-5c.29-.17.67-.07.84.23.17.29.07.67-.23.84l-8.66,5h3.79c.34,0,.62.28.62.62s-.28.62-.62.62h-3.79l12.29,7.09c.29.17.39.55.23.84-.17.29-.55.4-.84.23l-12.29-7.09,7.09,12.29c.17.29.07.67-.23.84-.29.17-.67.07-.84-.23l-7.1-12.29v14.19c0,.34-.28.62-.62.62ZM72.71,295.62c-.1,0-.21-.03-.31-.08-.29-.17-.39-.55-.23-.84l2.91-5.04c.17-.29.55-.39.84-.23.29.17.39.55.23.84l-2.91,5.04c-.11.2-.32.31-.53.31ZM97.44,281.34h-7.1c-.34,0-.62-.28-.62-.62s.28-.62.62-.62h7.1c.34,0,.62.28.62.62s-.28.62-.62.62ZM67.17,281.34h-2.69c-.34,0-.62-.28-.62-.62s.28-.62.62-.62h2.69c.34,0,.62.28.62.62s-.28.62-.62.62ZM93.96,273.83c-.21,0-.42-.11-.53-.31-.17-.29-.07-.67.23-.84l1.27-.73c.29-.17.67-.07.84.22.17.29.07.67-.23.84l-1.27.73c-.1.06-.2.08-.31.08ZM67.38,273.51c-.1,0-.21-.03-.31-.08l-.7-.41c-.29-.17-.39-.55-.23-.84.17-.29.55-.4.84-.23l.7.41c.29.17.39.55.23.84-.11.2-.32.31-.53.31ZM73.73,268.83c-.21,0-.42-.11-.53-.31l-1.02-1.76c-.17-.29-.07-.67.23-.84.29-.17.67-.07.84.23l1.02,1.76c.17.29.07.67-.23.84-.1.06-.2.08-.31.08ZM80.96,268.3c-.34,0-.62-.28-.62-.62v-3.45c0-.34.28-.62.62-.62s.62.28.62.62v3.45c0,.34-.28.62-.62.62Z"/>
          <g>
            <path class="cls-21" d="M79.05,217.66c-.34,0-.62-.28-.62-.62v-14.19l-2.91,5.03c-.17.29-.55.39-.84.23-.29-.17-.39-.55-.23-.84l2.91-5.03-12.29,7.09c-.29.17-.67.07-.84-.23-.17-.29-.07-.67.23-.84l12.29-7.09h-8.83c-.34,0-.62-.28-.62-.62s.28-.62.62-.62h8.83l-8.36-4.83c-.29-.17-.39-.55-.23-.84.17-.29.55-.39.84-.23l8.36,4.82-4.76-8.24c-.17-.29-.07-.67.23-.84.29-.17.67-.07.84.23l4.76,8.24v-8.14c0-.34.28-.62.62-.62s.62.28.62.62v8.15l7.1-12.29c.17-.29.55-.4.84-.23.29.17.39.55.23.84l-7.09,12.29,8.66-5c.29-.17.67-.07.84.23.17.29.07.67-.23.84l-8.66,5h3.79c.34,0,.62.28.62.62s-.28.62-.62.62h-3.79l12.29,7.09c.29.17.39.55.23.84-.17.29-.55.4-.84.23l-12.29-7.09,7.09,12.29c.17.29.07.67-.23.84-.29.17-.67.07-.84-.23l-7.1-12.29v14.19c0,.34-.28.62-.62.62ZM70.81,215.46c-.1,0-.21-.03-.31-.08-.29-.17-.39-.55-.23-.84l2.91-5.04c.17-.29.55-.39.84-.23.29.17.39.55.23.84l-2.91,5.04c-.11.2-.32.31-.53.31ZM95.53,201.18h-7.1c-.34,0-.62-.28-.62-.62s.28-.62.62-.62h7.1c.34,0,.62.28.62.62s-.28.62-.62.62ZM65.26,201.18h-2.69c-.34,0-.62-.28-.62-.62s.28-.62.62-.62h2.69c.34,0,.62.28.62.62s-.28.62-.62.62ZM92.06,193.67c-.21,0-.42-.11-.53-.31-.17-.29-.07-.67.23-.84l1.27-.73c.29-.17.67-.07.84.22.17.29.07.67-.23.84l-1.27.73c-.1.06-.2.08-.31.08ZM65.48,193.34c-.1,0-.21-.03-.31-.08l-.7-.41c-.29-.17-.39-.55-.23-.84.17-.29.55-.4.84-.23l.7.41c.29.17.39.55.23.84-.11.2-.32.31-.53.31ZM71.82,188.66c-.21,0-.42-.11-.53-.31l-1.02-1.76c-.17-.29-.07-.67.23-.84.29-.17.67-.07.84.23l1.02,1.76c.17.29.07.67-.23.84-.1.06-.2.08-.31.08ZM79.05,188.14c-.34,0-.62-.28-.62-.62v-3.45c0-.34.28-.62.62-.62s.62.28.62.62v3.45c0,.34-.28.62-.62.62Z"/>
            <path class="cls-26" d="M79.05,228.41c-.34,0-.62-.28-.62-.62v-6.05c0-.34.28-.62.62-.62s.62.28.62.62v6.05c0,.34-.28.62-.62.62Z"/>
            <path class="cls-28" d="M79.05,246.29c-.34,0-.62-.28-.62-.62v-11.85c0-.34.28-.62.62-.62s.62.28.62.62v11.85c0,.34-.28.62-.62.62Z"/>
          </g>
        </g>
      </g>
      <path class="cls-30" d="M64.78,253.13c-1.79.57-3.66.85-5.54.83-2.25.03-4.49-.38-6.59-1.21-1.9-.78-3.61-1.97-5-3.49-1.45-1.61-2.54-3.5-3.22-5.56-.79-2.4-1.17-4.91-1.13-7.44-.05-2.51.32-5,1.08-7.39.67-2.07,1.77-3.98,3.22-5.6,1.39-1.52,3.1-2.72,5-3.51,4.24-1.64,8.94-1.64,13.18,0,1.91.78,3.62,1.98,5,3.51,1.47,1.62,2.59,3.53,3.29,5.6.78,2.39,1.16,4.89,1.13,7.41.04,2.53-.34,5.04-1.13,7.44-.23.68-.5,1.35-.81,2l2.91,7.3c1.91-2.08,3.41-4.51,4.4-7.16,1.13-3.05,1.69-6.28,1.66-9.53.03-3.24-.53-6.47-1.66-9.51-1.04-2.79-2.63-5.34-4.69-7.49-2.05-2.12-4.53-3.79-7.26-4.9-2.98-1.2-6.17-1.8-9.38-1.76-3.21-.04-6.39.56-9.37,1.76-2.73,1.11-5.2,2.78-7.25,4.9-2.05,2.16-3.64,4.7-4.69,7.49-1.14,3.04-1.71,6.26-1.68,9.51-.04,3.25.53,6.49,1.68,9.53,1.05,2.78,2.64,5.32,4.69,7.48,2.05,2.12,4.52,3.78,7.25,4.88,2.99,1.16,6.17,1.72,9.37,1.65,2.61.02,5.2-.36,7.69-1.13l-2.15-5.61Z"/>
      <path class="cls-30" d="M55.58,224.66l-8.16,20.49c.49.94,1.11,1.82,1.82,2.61.84.91,1.82,1.69,2.91,2.29l5.43-14.18c.24-.63.48-1.34.73-2.13s.49-1.66.72-2.58c.4,1.58.9,3.13,1.49,4.64l6.86,18,1.87,4.9,4.1,10.74c.16.46.46.86.84,1.16.43.31.95.47,1.48.45h5.33l-18.48-46.39h-6.94Z"/>
      <path class="cls-30" d="M42.89,256.54l-5.75,14.42h5.29c.54.01,1.06-.16,1.48-.5.37-.29.66-.67.84-1.11l3.6-9.48c-1.97-.85-3.8-1.97-5.46-3.33Z"/>
    </g>
  </g>
</svg>