<?xml version="1.0" encoding="UTF-8"?>
<svg id="Layer_2" data-name="Layer 2" xmlns="http://www.w3.org/2000/svg" xmlns:xlink="http://www.w3.org/1999/xlink" viewBox="0 0 502.87 335.69">
  <defs>
    <style>
      .cls-1 {
        fill: none;
      }

      .cls-2 {
        mask: url(#mask);
      }

      .cls-3 {
        fill: #599b3e;
      }

      .cls-4 {
        fill: #d19d09;
      }

      .cls-5 {
        fill: url(#linear-gradient-8);
      }

      .cls-6 {
        fill: url(#linear-gradient-7);
      }

      .cls-7 {
        fill: url(#linear-gradient-5);
      }

      .cls-8 {
        fill: url(#linear-gradient-6);
      }

      .cls-9 {
        fill: url(#linear-gradient-9);
      }

      .cls-10 {
        fill: url(#linear-gradient-4);
      }

      .cls-11 {
        fill: url(#linear-gradient-3);
      }

      .cls-12 {
        fill: url(#linear-gradient-2);
      }

      .cls-13 {
        fill: #f4d93b;
      }

      .cls-14 {
        fill: #831ea5;
      }

      .cls-15 {
        fill: url(#linear-gradient);
      }

      .cls-16 {
        fill: #d19d0b;
      }

      .cls-17 {
        mask: url(#mask-1);
      }

      .cls-18 {
        clip-path: url(#clippath-17);
      }

      .cls-19 {
        clip-path: url(#clippath-19);
      }

      .cls-20 {
        clip-path: url(#clippath-11);
      }

      .cls-21 {
        clip-path: url(#clippath-16);
      }

      .cls-22 {
        clip-path: url(#clippath-18);
      }

      .cls-23 {
        clip-path: url(#clippath-10);
      }

      .cls-24 {
        clip-path: url(#clippath-15);
      }

      .cls-25 {
        clip-path: url(#clippath-13);
      }

      .cls-26 {
        clip-path: url(#clippath-14);
      }

      .cls-27 {
        clip-path: url(#clippath-12);
      }

      .cls-28 {
        clip-path: url(#clippath-20);
      }

      .cls-29 {
        clip-path: url(#clippath-21);
      }

      .cls-30 {
        clip-path: url(#clippath-22);
      }

      .cls-31 {
        clip-path: url(#clippath-23);
      }

      .cls-32 {
        fill: #2637b5;
      }

      .cls-33 {
        clip-path: url(#clippath-1);
      }

      .cls-34 {
        clip-path: url(#clippath-3);
      }

      .cls-35 {
        clip-path: url(#clippath-4);
      }

      .cls-36 {
        clip-path: url(#clippath-2);
      }

      .cls-37 {
        clip-path: url(#clippath-7);
      }

      .cls-38 {
        clip-path: url(#clippath-6);
      }

      .cls-39 {
        clip-path: url(#clippath-9);
      }

      .cls-40 {
        clip-path: url(#clippath-8);
      }

      .cls-41 {
        clip-path: url(#clippath-5);
      }

      .cls-42 {
        fill: #d8a516;
      }

      .cls-43 {
        fill: #fff;
      }

      .cls-44 {
        fill: #447c29;
      }

      .cls-45 {
        fill: url(#linear-gradient-31);
      }

      .cls-45, .cls-46 {
        opacity: .84;
      }

      .cls-46 {
        fill: url(#linear-gradient-15);
      }

      .cls-47 {
        fill: url(#linear-gradient-10);
      }

      .cls-48 {
        fill: url(#linear-gradient-11);
      }

      .cls-49 {
        fill: url(#linear-gradient-12);
      }

      .cls-50 {
        fill: url(#linear-gradient-13);
      }

      .cls-51 {
        fill: url(#linear-gradient-19);
      }

      .cls-52 {
        fill: url(#linear-gradient-14);
      }

      .cls-53 {
        fill: url(#linear-gradient-21);
      }

      .cls-54 {
        fill: url(#linear-gradient-20);
      }

      .cls-55 {
        fill: url(#linear-gradient-22);
      }

      .cls-56 {
        fill: url(#linear-gradient-23);
      }

      .cls-57 {
        fill: url(#linear-gradient-28);
      }

      .cls-58 {
        fill: url(#linear-gradient-25);
      }

      .cls-59 {
        fill: url(#linear-gradient-32);
      }

      .cls-60 {
        fill: url(#linear-gradient-30);
      }

      .cls-61 {
        fill: url(#linear-gradient-16);
      }

      .cls-62 {
        fill: url(#linear-gradient-17);
      }

      .cls-63 {
        fill: url(#linear-gradient-18);
      }

      .cls-64 {
        fill: url(#linear-gradient-27);
      }

      .cls-65 {
        fill: url(#linear-gradient-24);
      }

      .cls-66 {
        fill: url(#linear-gradient-26);
      }

      .cls-67 {
        fill: url(#linear-gradient-29);
      }

      .cls-68 {
        fill: #d38c1a;
      }

      .cls-69 {
        fill: #d19028;
      }

      .cls-70 {
        fill: #d6a10d;
      }

      .cls-71 {
        fill: #d1cc1c;
      }

      .cls-72 {
        fill: #29b725;
      }

      .cls-73 {
        fill: #dda814;
      }

      .cls-74 {
        fill: #d61818;
      }

      .cls-75 {
        clip-path: url(#clippath);
      }

      .cls-76 {
        fill: #e5b10c;
      }
    </style>
    <linearGradient id="linear-gradient" x1="252.34" y1="101.11" x2="454.08" y2="101.11" gradientUnits="userSpaceOnUse">
      <stop offset="0" stop-color="#fff"/>
      <stop offset=".99" stop-color="#000"/>
    </linearGradient>
    <mask id="mask" x="252.34" y="92.67" width="201.74" height="16.89" maskUnits="userSpaceOnUse">
      <rect class="cls-15" x="252.34" y="92.67" width="201.74" height="16.89"/>
    </mask>
    <linearGradient id="linear-gradient-2" x1="181.42" y1="45.26" x2="210.34" y2="45.26" gradientUnits="userSpaceOnUse">
      <stop offset="0" stop-color="#7bb748"/>
      <stop offset="1" stop-color="#1d8724"/>
    </linearGradient>
    <linearGradient id="linear-gradient-3" x1="181.64" y1="146.74" x2="218.48" y2="146.74" xlink:href="#linear-gradient-2"/>
    <linearGradient id="linear-gradient-4" x1="75.09" y1="91.82" x2="116.63" y2="91.82" xlink:href="#linear-gradient-2"/>
    <linearGradient id="linear-gradient-5" x1="158.96" y1="154.99" x2="196.23" y2="154.99" xlink:href="#linear-gradient-2"/>
    <clipPath id="clippath">
      <ellipse class="cls-1" cx="174.93" cy="46.57" rx="6.94" ry="8.59" transform="translate(75.58 197.89) rotate(-71.62)"/>
    </clipPath>
    <linearGradient id="linear-gradient-6" x1="176.05" y1="42.21" x2="174.12" y2="49.69" gradientTransform="translate(163.97 -134.12) rotate(71.62)" gradientUnits="userSpaceOnUse">
      <stop offset="0" stop-color="#efd30a"/>
      <stop offset=".15" stop-color="#efcf0d"/>
      <stop offset="1" stop-color="#efbd20"/>
    </linearGradient>
    <clipPath id="clippath-1">
      <ellipse class="cls-1" cx="166.99" cy="56.26" rx="4.41" ry="8.59" transform="translate(40.19 178.62) rotate(-62.6)"/>
    </clipPath>
    <linearGradient id="linear-gradient-7" x1="167.14" y1="52.68" x2="167.96" y2="59.83" gradientTransform="translate(139.83 -118.64) rotate(62.6)" gradientUnits="userSpaceOnUse">
      <stop offset="0" stop-color="#efd30a"/>
      <stop offset=".47" stop-color="#edbf0b"/>
      <stop offset="1" stop-color="#edad0c"/>
    </linearGradient>
    <clipPath id="clippath-2">
      <ellipse class="cls-1" cx="175.82" cy="55.31" rx="4.41" ry="8.59" transform="translate(45.8 185.95) rotate(-62.6)"/>
    </clipPath>
    <linearGradient id="linear-gradient-8" x1="175.07" y1="50.84" x2="177.55" y2="58.58" gradientTransform="translate(143.76 -126.99) rotate(62.6)" xlink:href="#linear-gradient-7"/>
    <clipPath id="clippath-3">
      <ellipse class="cls-1" cx="186.61" cy="55.31" rx="8.59" ry="4.41" transform="translate(-7.8 64.65) rotate(-19.26)"/>
    </clipPath>
    <linearGradient id="linear-gradient-9" x1="190.76" y1="50.51" x2="183.13" y2="57.8" gradientTransform="translate(28.44 -58.47) rotate(19.26)" gradientUnits="userSpaceOnUse">
      <stop offset="0" stop-color="#efd30a"/>
      <stop offset=".04" stop-color="#efd30b"/>
      <stop offset=".05" stop-color="#f0d412"/>
      <stop offset=".06" stop-color="#f1d51e"/>
      <stop offset=".07" stop-color="#f3d82f"/>
      <stop offset=".07" stop-color="#f6db45"/>
      <stop offset=".08" stop-color="#f9de5f"/>
      <stop offset=".08" stop-color="#fce170"/>
      <stop offset=".14" stop-color="#fce170"/>
      <stop offset=".14" stop-color="#f9de5f"/>
      <stop offset=".15" stop-color="#f6db45"/>
      <stop offset=".16" stop-color="#f3d82f"/>
      <stop offset=".18" stop-color="#f1d51e"/>
      <stop offset=".19" stop-color="#f0d412"/>
      <stop offset=".22" stop-color="#efd30b"/>
      <stop offset=".28" stop-color="#efd30a"/>
      <stop offset="1" stop-color="#edad0c"/>
    </linearGradient>
    <clipPath id="clippath-4">
      <ellipse class="cls-1" cx="181.01" cy="51.94" rx="2.94" ry="8.59" transform="translate(114.38 228.07) rotate(-85.29)"/>
    </clipPath>
    <clipPath id="clippath-5">
      <ellipse class="cls-1" cx="157.69" cy="48.92" rx="8.59" ry="6.74" transform="translate(-5.95 70.84) rotate(-24.86)"/>
    </clipPath>
    <linearGradient id="linear-gradient-10" x1="159.15" y1="42" x2="157.37" y2="47.81" gradientTransform="translate(34.69 -61.74) rotate(24.86)" xlink:href="#linear-gradient-7"/>
    <clipPath id="clippath-6">
      <ellipse class="cls-1" cx="155.64" cy="54.98" rx="8.59" ry="6.74" transform="translate(-8.69 70.54) rotate(-24.86)"/>
    </clipPath>
    <linearGradient id="linear-gradient-11" x1="153.87" y1="59.45" x2="156.23" y2="50.36" gradientTransform="translate(37.05 -60.31) rotate(24.86)" gradientUnits="userSpaceOnUse">
      <stop offset="0" stop-color="#efd30a"/>
      <stop offset=".28" stop-color="#edca0f"/>
      <stop offset="1" stop-color="#eab81b"/>
    </linearGradient>
    <clipPath id="clippath-7">
      <ellipse class="cls-1" cx="168.89" cy="49.78" rx="4.67" ry="8.59" transform="translate(68.4 194.36) rotate(-71.62)"/>
    </clipPath>
    <linearGradient id="linear-gradient-12" x1="170.81" y1="45.99" x2="168.25" y2="51.24" gradientTransform="translate(162.5 -127.06) rotate(71.62)" gradientUnits="userSpaceOnUse">
      <stop offset="0" stop-color="#efd30a"/>
      <stop offset=".11" stop-color="#efd30b"/>
      <stop offset=".15" stop-color="#f0d312"/>
      <stop offset=".18" stop-color="#f1d51e"/>
      <stop offset=".21" stop-color="#f3d62f"/>
      <stop offset=".23" stop-color="#f5d945"/>
      <stop offset=".24" stop-color="#f9dc5f"/>
      <stop offset=".33" stop-color="#f9dc5f"/>
      <stop offset=".35" stop-color="#f5d945"/>
      <stop offset=".36" stop-color="#f3d62f"/>
      <stop offset=".38" stop-color="#f1d51e"/>
      <stop offset=".4" stop-color="#f0d312"/>
      <stop offset=".42" stop-color="#efd30b"/>
      <stop offset=".5" stop-color="#efd30a"/>
      <stop offset=".58" stop-color="#efd30b"/>
      <stop offset=".61" stop-color="#f0d312"/>
      <stop offset=".63" stop-color="#f1d51e"/>
      <stop offset=".64" stop-color="#f3d62f"/>
      <stop offset=".66" stop-color="#f5d945"/>
      <stop offset=".67" stop-color="#f9dc5f"/>
      <stop offset=".69" stop-color="#f9dc5f"/>
      <stop offset=".84" stop-color="#f9dc5f"/>
      <stop offset=".85" stop-color="#f5d945"/>
      <stop offset=".86" stop-color="#f3d62f"/>
      <stop offset=".88" stop-color="#f1d51e"/>
      <stop offset=".9" stop-color="#f0d312"/>
      <stop offset=".93" stop-color="#efd30b"/>
      <stop offset="1" stop-color="#efd30a"/>
    </linearGradient>
    <clipPath id="clippath-8">
      <ellipse class="cls-1" cx="152.74" cy="45.75" rx="8.59" ry="6.74"/>
    </clipPath>
    <linearGradient id="linear-gradient-13" x1="157.08" y1="47.82" x2="145.9" y2="39.23" gradientUnits="userSpaceOnUse">
      <stop offset="0" stop-color="#edd565"/>
      <stop offset=".66" stop-color="#f0d537"/>
      <stop offset="1" stop-color="#f2d525"/>
    </linearGradient>
    <clipPath id="clippath-9">
      <ellipse class="cls-1" cx="135.81" cy="54.33" rx="8.59" ry="6.74" transform="translate(-10.46 55.61) rotate(-22.3)"/>
    </clipPath>
    <linearGradient id="linear-gradient-14" x1="131.43" y1="49.43" x2="136.62" y2="54.21" gradientTransform="translate(30.34 -47.46) rotate(22.3)" xlink:href="#linear-gradient-7"/>
    <clipPath id="clippath-10">
      <ellipse class="cls-1" cx="142.26" cy="50.69" rx="6.74" ry="8.59" transform="translate(26.34 147.49) rotate(-59.48)"/>
    </clipPath>
    <linearGradient id="linear-gradient-15" x1="138.72" y1="52.64" x2="145.98" y2="47.79" gradientTransform="translate(113.27 -98.66) rotate(59.48)" gradientUnits="userSpaceOnUse">
      <stop offset="0" stop-color="#efd30a"/>
      <stop offset=".11" stop-color="#efd30b"/>
      <stop offset=".15" stop-color="#f0d412"/>
      <stop offset=".18" stop-color="#f1d51e"/>
      <stop offset=".2" stop-color="#f3d82f"/>
      <stop offset=".22" stop-color="#f6db45"/>
      <stop offset=".23" stop-color="#f9de5f"/>
      <stop offset=".24" stop-color="#fce170"/>
      <stop offset=".33" stop-color="#fce170"/>
      <stop offset=".34" stop-color="#f9de5f"/>
      <stop offset=".35" stop-color="#f6db45"/>
      <stop offset=".37" stop-color="#f3d82f"/>
      <stop offset=".38" stop-color="#f1d51e"/>
      <stop offset=".4" stop-color="#f0d412"/>
      <stop offset=".43" stop-color="#efd30b"/>
      <stop offset=".5" stop-color="#efd30a"/>
      <stop offset=".58" stop-color="#efd30b"/>
      <stop offset=".6" stop-color="#f0d412"/>
      <stop offset=".62" stop-color="#f1d51e"/>
      <stop offset=".64" stop-color="#f3d82f"/>
      <stop offset=".65" stop-color="#f6db45"/>
      <stop offset=".66" stop-color="#f9de5f"/>
      <stop offset=".67" stop-color="#fce170"/>
      <stop offset=".69" stop-color="#fce170"/>
      <stop offset=".84" stop-color="#fce170"/>
      <stop offset=".84" stop-color="#f9de5f"/>
      <stop offset=".86" stop-color="#f6db45"/>
      <stop offset=".87" stop-color="#f3d82f"/>
      <stop offset=".88" stop-color="#f1d51e"/>
      <stop offset=".9" stop-color="#f0d412"/>
      <stop offset=".93" stop-color="#efd30b"/>
      <stop offset="1" stop-color="#efd30a"/>
    </linearGradient>
    <clipPath id="clippath-11">
      <ellipse class="cls-1" cx="132.7" cy="55.77" rx="4.02" ry="8.59" transform="translate(51.21 174.42) rotate(-78.31)"/>
    </clipPath>
    <linearGradient id="linear-gradient-16" x1="124.55" y1="55.14" x2="141.46" y2="55.14" gradientTransform="translate(160.06 -86.27) rotate(78.31)" gradientUnits="userSpaceOnUse">
      <stop offset="0" stop-color="#efd30a"/>
      <stop offset=".28" stop-color="#efd312"/>
      <stop offset="1" stop-color="#f2d525"/>
    </linearGradient>
    <linearGradient id="linear-gradient-17" x1="89.28" y1="329.42" x2="503.07" y2="329.42" xlink:href="#linear-gradient"/>
    <mask id="mask-1" x="89.28" y="320.98" width="413.79" height="16.89" maskUnits="userSpaceOnUse">
      <rect class="cls-62" x="89.28" y="320.98" width="413.79" height="16.89"/>
    </mask>
    <linearGradient id="linear-gradient-18" x1="70.4" y1="251.73" x2="87.04" y2="251.73" xlink:href="#linear-gradient-2"/>
    <linearGradient id="linear-gradient-19" x1="70.53" y1="310.13" x2="91.73" y2="310.13" xlink:href="#linear-gradient-2"/>
    <linearGradient id="linear-gradient-20" x1="9.21" y1="278.52" x2="33.11" y2="278.52" xlink:href="#linear-gradient-2"/>
    <linearGradient id="linear-gradient-21" x1="57.48" y1="314.87" x2="78.93" y2="314.87" xlink:href="#linear-gradient-2"/>
    <clipPath id="clippath-12">
      <ellipse class="cls-1" cx="66.66" cy="252.48" rx="4" ry="4.95" transform="translate(-193.95 236.13) rotate(-71.62)"/>
    </clipPath>
    <linearGradient id="linear-gradient-22" x1="67.31" y1="249.97" x2="66.2" y2="254.27" gradientTransform="translate(285.24 109.61) rotate(71.62)" xlink:href="#linear-gradient-6"/>
    <clipPath id="clippath-13">
      <ellipse class="cls-1" cx="62.1" cy="258.05" rx="2.54" ry="4.95" transform="translate(-195.58 194.41) rotate(-62.6)"/>
    </clipPath>
    <linearGradient id="linear-gradient-23" x1="62.18" y1="255.99" x2="62.65" y2="260.11" gradientTransform="translate(262.47 83.73) rotate(62.6)" xlink:href="#linear-gradient-7"/>
    <clipPath id="clippath-14">
      <ellipse class="cls-1" cx="67.18" cy="257.51" rx="2.54" ry="4.95" transform="translate(-192.35 198.63) rotate(-62.6)"/>
    </clipPath>
    <linearGradient id="linear-gradient-24" x1="66.74" y1="254.93" x2="68.17" y2="259.39" gradientTransform="translate(264.73 78.92) rotate(62.6)" xlink:href="#linear-gradient-7"/>
    <clipPath id="clippath-15">
      <ellipse class="cls-1" cx="73.39" cy="257.51" rx="4.95" ry="2.54" transform="translate(-80.84 38.62) rotate(-19.26)"/>
    </clipPath>
    <linearGradient id="linear-gradient-25" x1="75.77" y1="254.74" x2="71.38" y2="258.94" gradientTransform="translate(88.9 -9.8) rotate(19.26)" xlink:href="#linear-gradient-9"/>
    <clipPath id="clippath-16">
      <ellipse class="cls-1" cx="70.16" cy="255.57" rx="1.69" ry="4.95" transform="translate(-190.3 304.5) rotate(-85.29)"/>
    </clipPath>
    <clipPath id="clippath-17">
      <ellipse class="cls-1" cx="56.75" cy="253.83" rx="4.95" ry="3.88" transform="translate(-101.47 47.39) rotate(-24.86)"/>
    </clipPath>
    <linearGradient id="linear-gradient-26" x1="57.58" y1="249.85" x2="56.56" y2="253.19" gradientTransform="translate(111.7 -.31) rotate(24.86)" xlink:href="#linear-gradient-7"/>
    <clipPath id="clippath-18">
      <ellipse class="cls-1" cx="55.56" cy="257.32" rx="4.95" ry="3.88" transform="translate(-103.04 47.21) rotate(-24.86)"/>
    </clipPath>
    <linearGradient id="linear-gradient-27" x1="54.54" y1="259.89" x2="55.9" y2="254.66" gradientTransform="translate(113.06 .51) rotate(24.86)" xlink:href="#linear-gradient-11"/>
    <clipPath id="clippath-19">
      <ellipse class="cls-1" cx="63.19" cy="254.32" rx="2.69" ry="4.95" transform="translate(-198.09 234.1) rotate(-71.62)"/>
    </clipPath>
    <linearGradient id="linear-gradient-28" x1="64.29" y1="252.14" x2="62.82" y2="255.17" gradientTransform="translate(284.4 113.67) rotate(71.62)" xlink:href="#linear-gradient-12"/>
    <clipPath id="clippath-20">
      <ellipse class="cls-1" cx="53.89" cy="252.01" rx="4.95" ry="3.88"/>
    </clipPath>
    <linearGradient id="linear-gradient-29" x1="56.39" y1="253.2" x2="49.96" y2="248.25" xlink:href="#linear-gradient-13"/>
    <clipPath id="clippath-21">
      <ellipse class="cls-1" cx="44.15" cy="256.95" rx="4.95" ry="3.88" transform="translate(-94.22 35.98) rotate(-22.3)"/>
    </clipPath>
    <linearGradient id="linear-gradient-30" x1="41.63" y1="254.12" x2="44.62" y2="256.87" gradientTransform="translate(100.57 2.48) rotate(22.3)" xlink:href="#linear-gradient-7"/>
    <clipPath id="clippath-22">
      <ellipse class="cls-1" cx="47.86" cy="254.85" rx="3.88" ry="4.95" transform="translate(-195.98 166.65) rotate(-59.48)"/>
    </clipPath>
    <linearGradient id="linear-gradient-31" x1="45.83" y1="255.97" x2="50.01" y2="253.18" gradientTransform="translate(242.85 83.58) rotate(59.48)" xlink:href="#linear-gradient-15"/>
    <clipPath id="clippath-23">
      <ellipse class="cls-1" cx="42.36" cy="257.77" rx="2.32" ry="4.95" transform="translate(-218.65 247.05) rotate(-78.31)"/>
    </clipPath>
    <linearGradient id="linear-gradient-32" x1="37.67" y1="257.41" x2="47.4" y2="257.41" gradientTransform="translate(286 163.62) rotate(78.31)" xlink:href="#linear-gradient-16"/>
  </defs>
  <g id="Layer_1-2" data-name="Layer 1">
    <g>
      <path class="cls-3" d="M242.02,50.73c-2.63-1.02-6.05-1.68-9.91-2-20.97-1.77-41.32,7.79-54.71,24.03l-7.74,9.39,4.07-10.29c7.73-19.56,6.26-41.97-5.41-59.46-2.16-3.23-4.4-5.93-6.58-7.74h0c-12.7-10.62-34.36-1.63-37.79,12.71-.58,2.43-3.28,3.76-5.55,2.71-13.49-6.22-33.83,5.46-33.25,22.02h0c.1,2.83.84,6.26,2.07,9.95,6.64,19.95,23.42,34.88,43.6,40.79l11.97,3.51-12.36-.03c-21.02-.06-41.35,9.47-53.39,26.71-2.24,3.2-3.93,6.28-4.83,8.98-5.17,15.48,11.69,30.82,25.48,30.08,2.68-.15,5.14,1.82,5.17,4.51.16,14.03,17.07,29.59,32.17,23.05,2.57-1.11,5.45-3.03,8.4-5.48,16.22-13.45,24.03-34.56,22.16-55.55l-2.02-22.69c6.06,15.17,16.28,39.19,24.98,51.91,13.32,19.46,31.73,27.7,36.05,25.59,4.78-2.34,1.8-8.69-2.81-6.44-2.62,1.28-18.72-5.08-29.95-20.56-9.06-12.49-19.72-35.17-26.3-50.07l14.22,14.09c14.91,14.77,36.04,22.26,56.69,18.46,3.87-.71,7.28-1.72,9.83-3.02,14.56-7.4,13.31-30.18,2.95-39.32-2.08-1.84-2.25-4.96-.35-6.98,9.57-10.18,8.38-32.92-6.88-38.84Z"/>
      <g class="cls-2">
        <g>
          <path class="cls-74" d="M255.15,95.51c.46.57.9,1.16,1.33,1.77h197.51v-1.77h-198.83Z"/>
          <path class="cls-68" d="M256.47,97.28c.4.57.77,1.16,1.13,1.77h196.39v-1.77h-197.51Z"/>
          <path class="cls-71" d="M257.59,99.04c.34.58.66,1.17.96,1.77h195.43v-1.77h-196.39Z"/>
          <path class="cls-72" d="M258.56,100.82c.29.58.56,1.17.82,1.77h194.61v-1.77h-195.43Z"/>
          <path class="cls-32" d="M259.35,102.53c.25.58.48,1.17.7,1.77h193.93v-1.77h-194.63Z"/>
          <path class="cls-14" d="M260.05,104.31c.21.58.41,1.17.59,1.77h193.34v-1.77h-193.93Z"/>
        </g>
      </g>
      <g>
        <path class="cls-12" d="M182.19,60.7c8.28-7.18,17.93-12.27,28.14-14.97l-9.24-15.9h-19.68c2.52,9.92,2.81,20.47.77,30.87Z"/>
        <path class="cls-11" d="M181.64,128.82c5.39,10.69,10.26,19.13,14.27,24.65,3.35,4.62,7.18,8.33,10.83,11.18l11.73-20.19c-13.2-1.45-26.04-6.84-36.83-15.64Z"/>
        <path class="cls-10" d="M116.63,92.55c-9.66-4.92-17.94-11.85-24.24-20.2l-17.29,29.75,5.34,9.19c9.68-9.61,22.3-16.14,36.19-18.74Z"/>
        <path class="cls-7" d="M184.44,160.65c-4.39-6.41-9.1-15.46-13.57-25.05-.16,14.13-4.35,27.62-11.91,38.77h37.27c-4.18-3.91-8.23-8.52-11.79-13.73Z"/>
      </g>
      <g>
        <path class="cls-69" d="M226.3,144.87l-14.06,23.57c2.15,1.29,4.08,2.23,5.61,2.84l16.06-26.93c-2.53.32-5.07.5-7.6.52Z"/>
        <path class="cls-69" d="M202.6,179.73h-47.69c-1.85,2.2-3.84,4.29-5.97,6.24h60.16l.87-1.45c-2.39-1.31-4.87-2.92-7.36-4.79Z"/>
        <path class="cls-69" d="M179.83,24.48h25.67l11.82,19.81c2.28-.35,4.59-.57,6.9-.68l-15.13-25.38h-31.78c.95,2.04,1.79,4.13,2.52,6.25Z"/>
        <path class="cls-69" d="M72.96,120.14c.74-1.06,1.52-2.09,2.32-3.1l-8.92-14.94,21.65-36.28c-1.24-2.13-2.36-4.33-3.36-6.6l-25.56,42.88,12.23,20.51c.51-.81,1.05-1.63,1.63-2.47Z"/>
      </g>
      <polygon class="cls-44" points="160.1 97.81 235.71 93.97 160.37 93.93 125.55 27.11 156.89 95.61 110.18 154.71 160.1 97.81"/>
      <path class="cls-43" d="M278.47,158.77h-2.6c-.27.02-.53-.07-.73-.25-.17-.17-.29-.39-.33-.63l-2.43-14h-21.43l-7.84,14c-.13.26-.33.47-.58.63-.25.16-.53.25-.83.25h-2.61l27.21-47.82h3.34l8.83,47.82ZM271.94,141.43l-4.21-24.33c-.06-.41-.12-.85-.18-1.34s-.11-1-.16-1.57c-.26.57-.52,1.09-.77,1.57l-.68,1.37-13.6,24.3h19.6Z"/>
      <path class="cls-43" d="M304.71,155.9c-1.02.78-2.12,1.45-3.28,2-1.02.48-2.09.81-3.2,1-1.12.18-2.26.27-3.4.27-1.72.05-3.43-.29-5-1-1.35-.62-2.51-1.59-3.37-2.79-.9-1.27-1.53-2.72-1.83-4.25-.37-1.77-.48-3.58-.34-5.38.27-3.58,1.25-7.07,2.88-10.27.79-1.55,1.74-3.01,2.84-4.36,1.05-1.29,2.26-2.45,3.59-3.45,1.28-.96,2.7-1.72,4.2-2.28,1.5-.55,3.1-.84,4.7-.83,1.01-.01,2.02.09,3,.32.83.2,1.63.51,2.39.91.71.39,1.35.87,1.93,1.44.58.58,1.1,1.21,1.55,1.89l-1,1.12c-.18.22-.45.36-.74.37-.22,0-.49-.18-.79-.54-.37-.43-.78-.82-1.23-1.17-.64-.48-1.33-.87-2.07-1.16-1.04-.39-2.16-.58-3.27-.54-1.91,0-3.77.53-5.4,1.52-1.76,1.06-3.3,2.45-4.54,4.09-1.38,1.8-2.48,3.8-3.26,5.93-.84,2.25-1.35,4.61-1.52,7-.11,1.45-.04,2.9.22,4.33.22,1.23.69,2.4,1.39,3.44.66.96,1.55,1.75,2.59,2.27,1.21.57,2.53.85,3.87.81,1.09.01,2.18-.12,3.23-.39.89-.24,1.76-.58,2.59-1,.71-.35,1.38-.78,2-1.27.59-.46,1.11-.88,1.56-1.27l1.17-1c.23-.22.53-.36.85-.39.27.02.51.14.69.34l.65.88c-1.13,1.23-2.35,2.37-3.65,3.41Z"/>
      <path class="cls-43" d="M334.93,155.9c-1.02.78-2.13,1.45-3.29,2-1.02.48-2.09.81-3.2,1-1.11.2-2.23.31-3.35.33-1.72.05-3.43-.29-5-1-1.34-.63-2.5-1.59-3.37-2.79-.9-1.28-1.52-2.72-1.83-4.25-.37-1.77-.48-3.58-.33-5.38.12-1.79.43-3.56.92-5.29.5-1.73,1.17-3.4,2-5,.79-1.55,1.74-3.01,2.84-4.36,1.05-1.29,2.25-2.45,3.58-3.45,1.28-.96,2.7-1.72,4.2-2.28,1.51-.55,3.1-.84,4.71-.83,1.01-.01,2.02.1,3,.32.83.2,1.63.51,2.38.91.71.39,1.35.87,1.93,1.44.58.58,1.1,1.21,1.56,1.89l-1,1.12c-.18.22-.45.36-.73.37-.23,0-.49-.18-.79-.54-.38-.43-.79-.82-1.24-1.17-.63-.48-1.33-.87-2.06-1.16-1.05-.39-2.16-.58-3.28-.54-1.9,0-3.77.53-5.39,1.52-1.76,1.06-3.31,2.45-4.55,4.09-1.37,1.8-2.47,3.8-3.25,5.93-.85,2.25-1.36,4.6-1.52,7-.12,1.45-.04,2.9.22,4.33.21,1.23.68,2.4,1.38,3.44.66.96,1.55,1.75,2.59,2.27,1.21.57,2.53.85,3.87.81,1.07,0,2.13-.13,3.16-.4.89-.25,1.76-.58,2.58-1,.71-.36,1.38-.78,2-1.27.58-.46,1.1-.88,1.56-1.27l1.16-1c.23-.22.54-.36.86-.39.26.01.51.13.68.34l.65.88c-1.13,1.21-2.35,2.34-3.65,3.38Z"/>
      <path class="cls-43" d="M369.35,152.52c-1.08,1.07-2.23,2.07-3.44,3-1.04.8-2.15,1.5-3.32,2.08-1.09.53-2.24.94-3.42,1.2-1.22.27-2.46.4-3.71.39-1.69.04-3.36-.28-4.92-.93-1.36-.58-2.55-1.49-3.48-2.64-.96-1.22-1.65-2.64-2-4.15-.42-1.8-.56-3.66-.4-5.5.13-1.72.42-3.43.87-5.1.45-1.7,1.07-3.35,1.85-4.93.77-1.57,1.69-3.05,2.77-4.43,1.05-1.34,2.26-2.55,3.62-3.58,1.32-1.01,2.79-1.82,4.35-2.4,1.6-.59,3.29-.89,5-.88,1.41-.04,2.81.19,4.13.69.99.39,1.9.98,2.65,1.73.63.63,1.1,1.39,1.38,2.23.25.72.36,1.48.32,2.24-.04.92-.21,1.82-.51,2.69-.33.88-.83,1.68-1.48,2.36-.79.84-1.71,1.55-2.72,2.1-1.35.75-2.78,1.36-4.26,1.81-2.01.62-4.07,1.12-6.14,1.5-2.38.45-5.15.85-8.33,1.19-.08.45-.15.91-.22,1.38s-.11.94-.14,1.39c-.24,3.35.34,6,1.73,7.87,1.39,1.87,3.61,2.84,6.68,2.84,1.1.01,2.19-.12,3.25-.39.91-.24,1.8-.57,2.64-1,.73-.37,1.42-.81,2.08-1.29.61-.45,1.15-.88,1.63-1.28s.89-.74,1.24-1c.26-.23.58-.36.92-.39.27,0,.53.12.69.34l.69.86ZM362.85,127.03c-1.73-.03-3.45.37-5,1.14-1.52.75-2.9,1.77-4.07,3-1.24,1.33-2.29,2.83-3.12,4.45-.85,1.67-1.52,3.43-2,5.25,2.89-.31,5.38-.68,7.48-1.09,1.81-.35,3.6-.79,5.37-1.32,1.26-.37,2.47-.87,3.62-1.51.81-.44,1.55-1,2.19-1.67.49-.51.86-1.11,1.11-1.77.21-.61.34-1.25.38-1.9.03-.52-.04-1.04-.21-1.53-.2-.58-.55-1.1-1-1.51-.54-.49-1.18-.88-1.87-1.13-.93-.31-1.9-.45-2.88-.41Z"/>
      <path class="cls-43" d="M398.55,129.23c-.15.29-.44.47-.77.48-.31-.04-.59-.19-.8-.42-.39-.37-.81-.7-1.26-1-.62-.42-1.29-.76-2-1-2.09-.61-4.32-.56-6.38.15-1,.36-1.94.88-2.78,1.54-.77.62-1.43,1.38-1.94,2.23-.49.82-.78,1.74-.85,2.69-.09.81.08,1.62.48,2.33.4.66.95,1.22,1.59,1.64.73.48,1.5.89,2.32,1.2.86.34,1.76.68,2.68,1,.91.33,1.81.71,2.68,1.13.83.39,1.6.9,2.29,1.5.67.59,1.21,1.33,1.56,2.15.39.97.53,2.02.42,3.06-.1,1.46-.5,2.88-1.15,4.19-.68,1.36-1.6,2.58-2.72,3.6-1.18,1.06-2.53,1.91-4,2.51-1.61.67-3.34,1.01-5.08,1-3.49.19-6.85-1.33-9-4.09l.89-1.15c.21-.32.56-.52.95-.54.23,0,.5.18.81.54.4.44.83.84,1.3,1.2.67.5,1.4.91,2.18,1.2,1.11.39,2.28.58,3.45.54,1.27.02,2.53-.21,3.71-.66,1.08-.41,2.07-1.02,2.93-1.8.82-.76,1.5-1.66,2-2.66.49-1,.78-2.08.86-3.19.09-.86-.07-1.73-.47-2.5-.39-.69-.93-1.28-1.58-1.74-.72-.51-1.49-.92-2.31-1.24-.87-.34-1.77-.67-2.69-1s-1.82-.69-2.68-1.09c-.83-.37-1.6-.85-2.3-1.43-.67-.56-1.2-1.27-1.56-2.06-.4-.95-.55-1.98-.43-3,.1-1.32.47-2.6,1.1-3.77.67-1.22,1.55-2.31,2.6-3.21,1.12-.96,2.4-1.71,3.78-2.23,1.5-.56,3.08-.84,4.68-.83,1.66-.04,3.31.26,4.85.88,1.36.6,2.56,1.5,3.52,2.64l-.88,1.21Z"/>
      <path class="cls-43" d="M425.09,129.23c-.15.29-.45.47-.78.48-.31-.04-.59-.19-.8-.42-.39-.37-.81-.7-1.25-1-.62-.42-1.29-.75-2-1-2.09-.61-4.32-.56-6.38.15-1,.36-1.94.88-2.78,1.54-.78.62-1.44,1.38-1.95,2.23-.49.82-.78,1.74-.85,2.69-.08.81.08,1.62.48,2.33.41.65.95,1.21,1.59,1.64.73.48,1.51.89,2.32,1.2.87.34,1.76.68,2.68,1,.91.33,1.81.7,2.68,1.13.83.39,1.6.9,2.29,1.5.67.59,1.21,1.33,1.56,2.15.39.97.54,2.02.43,3.06-.08,1.5-.47,2.97-1.14,4.32-.67,1.36-1.59,2.58-2.71,3.6-1.18,1.06-2.53,1.91-4,2.51-1.61.67-3.34,1.01-5.09,1-1.86.06-3.7-.32-5.38-1.13-1.39-.74-2.61-1.76-3.59-3l.89-1.15c.21-.32.56-.53.95-.54.22,0,.49.18.81.54.39.44.83.84,1.3,1.2.66.5,1.4.91,2.18,1.2,1.1.39,2.27.58,3.44.54,1.27.02,2.53-.21,3.71-.66,2.15-.8,3.92-2.4,4.93-4.46.5-.99.79-2.08.87-3.19.09-.86-.07-1.73-.47-2.5-.39-.69-.94-1.29-1.59-1.74-.73-.51-1.52-.92-2.35-1.22-.87-.34-1.76-.67-2.68-1-.92-.33-1.82-.69-2.68-1.09-.83-.37-1.6-.85-2.3-1.43-.67-.56-1.2-1.27-1.57-2.06-.39-.95-.54-1.98-.43-3,.1-1.32.47-2.61,1.11-3.77.66-1.22,1.54-2.31,2.59-3.21,1.12-.96,2.41-1.71,3.79-2.23,1.49-.56,3.08-.84,4.67-.83,1.66-.04,3.32.26,4.86.88,1.36.6,2.56,1.5,3.51,2.64l-.87,1.1Z"/>
      <path class="cls-43" d="M296.32,62c-.23,3.95-1.12,7.84-2.64,11.49-1.36,3.27-3.31,6.27-5.74,8.85-2.31,2.42-5.08,4.36-8.14,5.71-3.09,1.35-6.44,2.03-9.81,2-2.57.05-5.12-.47-7.47-1.5-2.11-.96-3.97-2.4-5.43-4.21-1.52-1.94-2.61-4.17-3.21-6.56-.7-2.76-.93-5.61-.69-8.45.23-3.95,1.13-7.82,2.66-11.47,1.36-3.28,3.31-6.3,5.74-8.89,2.28-2.43,5.03-4.38,8.08-5.74,3.07-1.34,6.4-2.03,9.75-2,2.59-.05,5.15.47,7.52,1.51,2.14.96,4.02,2.41,5.48,4.24,1.52,1.94,2.61,4.18,3.21,6.57.7,2.76.93,5.61.69,8.45ZM292.84,62.06c.21-2.51.03-5.03-.55-7.48-.48-2.06-1.38-4-2.66-5.68-1.2-1.55-2.76-2.79-4.54-3.62-1.96-.87-4.08-1.31-6.22-1.27-2.85-.01-5.67.59-8.26,1.76-2.61,1.18-4.94,2.88-6.86,5-2.08,2.34-3.73,5.02-4.87,7.94-1.31,3.36-2.09,6.91-2.3,10.52-.22,2.51-.03,5.04.55,7.49.49,2.05,1.4,3.98,2.68,5.66,1.21,1.54,2.77,2.77,4.55,3.59,1.95.88,4.06,1.31,6.2,1.27,5.8.05,11.33-2.41,15.17-6.76,2.07-2.33,3.71-5.01,4.83-7.92,1.3-3.36,2.07-6.9,2.28-10.5Z"/>
      <path class="cls-43" d="M306.91,66.76c.96-1.7,2.09-3.3,3.35-4.78,1.14-1.33,2.43-2.53,3.83-3.57,1.23-.92,2.57-1.66,4-2.21,1.28-.5,2.63-.75,4-.76,1.27-.04,2.52.25,3.64.84.99.58,1.79,1.44,2.29,2.47.59,1.25.91,2.62.94,4,.06,1.8-.09,3.6-.46,5.36l-4,21.49h-3.18l4-21.49c.6-3.2.56-5.66-.13-7.37s-2.15-2.57-4.38-2.57c-1.35.03-2.68.37-3.87,1-1.43.72-2.75,1.64-3.91,2.73-1.38,1.3-2.62,2.74-3.7,4.3-1.24,1.78-2.31,3.68-3.2,5.66l-3.3,17.77h-3.18l6.38-33.73h1.45c.79,0,1.16.41,1.1,1.22l-1.67,9.64Z"/>
      <path class="cls-43" d="M334.75,89.57l9.34-49.17h3.15l-9.42,49.17h-3.07Z"/>
      <path class="cls-43" d="M358.53,55.95l-6.44,33.62h-3.15l6.44-33.62h3.15ZM361.8,44.35c-.02.4-.13.79-.33,1.14-.19.35-.43.66-.72.93-.29.27-.63.48-1,.64-.34.15-.71.23-1.08.23-.37,0-.73-.07-1.06-.23-.32-.15-.61-.37-.84-.64-.23-.28-.41-.59-.54-.93-.14-.36-.19-.75-.16-1.14.03-.4.14-.79.32-1.15.17-.37.41-.71.69-1,.27-.27.59-.5.94-.66.35-.16.72-.23,1.1-.23.36,0,.72.08,1.05.23.35.16.66.4.92.69.26.29.46.63.58,1,.12.36.16.74.13,1.12Z"/>
      <path class="cls-43" d="M370.21,66.76c.96-1.7,2.09-3.3,3.35-4.78,1.13-1.33,2.4-2.52,3.79-3.57,1.23-.92,2.57-1.66,4-2.21,1.28-.5,2.63-.75,4-.76,1.27-.04,2.52.25,3.64.84.99.57,1.79,1.44,2.29,2.47.59,1.25.91,2.62.94,4,.07,1.8-.09,3.6-.46,5.36l-4,21.49h-3.18l4-21.49c.6-3.2.56-5.66-.13-7.37s-2.14-2.58-4.36-2.6c-1.35.03-2.67.37-3.87,1-1.43.72-2.75,1.64-3.91,2.73-1.38,1.3-2.62,2.74-3.7,4.3-1.24,1.78-2.31,3.68-3.2,5.66l-3.32,17.74h-3.18l6.38-33.73h1.45c.79,0,1.16.41,1.1,1.22l-1.63,9.7Z"/>
      <path class="cls-43" d="M423.09,83.32c-1.08,1.07-2.23,2.07-3.44,3-1.04.8-2.15,1.49-3.32,2.07-1.08.54-2.23.94-3.41,1.21-1.22.26-2.47.38-3.72.38-1.69.03-3.36-.28-4.92-.92-1.36-.58-2.55-1.49-3.48-2.64-.96-1.22-1.65-2.64-2-4.16-.42-1.8-.56-3.65-.4-5.49.13-1.72.42-3.43.87-5.1.45-1.7,1.07-3.36,1.85-4.94.77-1.57,1.7-3.05,2.77-4.43,1.05-1.34,2.26-2.55,3.62-3.58,1.33-1.01,2.8-1.82,4.36-2.4,1.6-.59,3.29-.88,5-.88,1.41-.04,2.81.19,4.12.7.99.38,1.9.97,2.65,1.72.65.63,1.15,1.4,1.45,2.26.25.72.36,1.49.32,2.25-.06.9-.25,1.79-.56,2.63-.33.88-.83,1.69-1.48,2.37-.8.83-1.71,1.54-2.72,2.1-1.35.75-2.78,1.35-4.26,1.8-2.01.63-4.06,1.14-6.14,1.51-2.37.45-5.15.85-8.33,1.18-.08.45-.15.91-.21,1.39s-.12.93-.15,1.38c-.24,3.36.34,6,1.73,7.88s3.61,2.84,6.68,2.84c2.05.02,4.07-.45,5.89-1.39.73-.37,1.43-.8,2.09-1.28.6-.46,1.14-.88,1.62-1.29s.89-.74,1.24-1c.26-.22.58-.35.92-.38.27,0,.52.12.69.33l.67.88ZM416.59,57.84c-1.73-.02-3.45.36-5,1.13-1.53.77-2.9,1.81-4.07,3.06-1.23,1.33-2.28,2.83-3.11,4.44-.86,1.67-1.53,3.44-2,5.26,2.88-.32,5.37-.68,7.47-1.1,1.81-.34,3.61-.78,5.37-1.32,1.26-.37,2.47-.87,3.62-1.5.82-.44,1.57-1,2.22-1.67.49-.51.87-1.12,1.11-1.78.21-.61.34-1.25.38-1.89.03-.52-.04-1.05-.21-1.54-.2-.58-.54-1.1-1-1.5-.54-.5-1.17-.88-1.86-1.13-.94-.33-1.93-.49-2.92-.46Z"/>
      <g>
        <g class="cls-75">
          <ellipse class="cls-76" cx="174.93" cy="46.57" rx="7.18" ry="8.89" transform="translate(75.58 197.89) rotate(-71.62)"/>
          <ellipse class="cls-8" cx="174.93" cy="46.57" rx="6.94" ry="8.59" transform="translate(75.58 197.89) rotate(-71.62)"/>
        </g>
        <g class="cls-33">
          <ellipse class="cls-76" cx="166.99" cy="56.26" rx="4.57" ry="8.89" transform="translate(40.19 178.62) rotate(-62.6)"/>
          <ellipse class="cls-6" cx="167.48" cy="55.68" rx="4.41" ry="8.59" transform="translate(40.97 178.74) rotate(-62.6)"/>
        </g>
        <g class="cls-36">
          <ellipse class="cls-4" cx="175.82" cy="55.31" rx="4.57" ry="8.89" transform="translate(45.8 185.95) rotate(-62.6)"/>
          <ellipse class="cls-5" cx="176.32" cy="54.73" rx="4.41" ry="8.59" transform="translate(46.58 186.07) rotate(-62.6)"/>
        </g>
        <g class="cls-34">
          <ellipse class="cls-70" cx="186.61" cy="55.31" rx="8.89" ry="4.57" transform="translate(-7.8 64.65) rotate(-19.26)"/>
          <ellipse class="cls-9" cx="186.52" cy="54.56" rx="8.59" ry="4.41" transform="translate(-7.56 64.58) rotate(-19.26)"/>
        </g>
        <g class="cls-35">
          <ellipse class="cls-76" cx="181.01" cy="51.94" rx="3.04" ry="8.89" transform="translate(114.38 228.07) rotate(-85.29)"/>
          <ellipse class="cls-13" cx="181.22" cy="51.46" rx="2.94" ry="8.59" transform="translate(115.05 227.84) rotate(-85.29)"/>
        </g>
        <g class="cls-41">
          <ellipse class="cls-76" cx="157.69" cy="48.92" rx="8.89" ry="6.98" transform="translate(-5.95 70.84) rotate(-24.86)"/>
          <ellipse class="cls-47" cx="157.37" cy="47.82" rx="8.59" ry="6.74" transform="translate(-5.52 70.6) rotate(-24.86)"/>
        </g>
        <g class="cls-38">
          <ellipse class="cls-76" cx="155.64" cy="54.98" rx="8.89" ry="6.98" transform="translate(-8.69 70.54) rotate(-24.86)"/>
          <ellipse class="cls-48" cx="155.32" cy="53.88" rx="8.59" ry="6.74" transform="translate(-8.26 70.3) rotate(-24.86)"/>
        </g>
        <g class="cls-37">
          <ellipse class="cls-42" cx="168.89" cy="49.78" rx="4.84" ry="8.89" transform="translate(68.4 194.36) rotate(-71.62)"/>
          <ellipse class="cls-49" cx="169.3" cy="49.09" rx="4.67" ry="8.59" transform="translate(69.34 194.27) rotate(-71.62)"/>
        </g>
        <g class="cls-40">
          <ellipse class="cls-16" cx="152.74" cy="45.75" rx="8.89" ry="6.98"/>
          <ellipse class="cls-50" cx="152.91" cy="44.62" rx="8.59" ry="6.74"/>
        </g>
        <g class="cls-39">
          <ellipse class="cls-76" cx="135.81" cy="54.33" rx="8.89" ry="6.98" transform="translate(-10.46 55.61) rotate(-22.3)"/>
          <ellipse class="cls-52" cx="135.54" cy="53.22" rx="8.59" ry="6.74" transform="translate(-10.06 55.42) rotate(-22.3)"/>
        </g>
        <g class="cls-23">
          <ellipse class="cls-76" cx="142.26" cy="50.69" rx="6.98" ry="8.89" transform="translate(26.34 147.49) rotate(-59.48)"/>
          <ellipse class="cls-46" cx="142.98" cy="49.8" rx="6.74" ry="8.59" transform="translate(27.47 147.68) rotate(-59.48)"/>
        </g>
        <g class="cls-20">
          <ellipse class="cls-73" cx="132.7" cy="55.77" rx="4.16" ry="8.89" transform="translate(51.21 174.42) rotate(-78.31)"/>
          <ellipse class="cls-61" cx="133" cy="55.14" rx="4.02" ry="8.59" transform="translate(52.07 174.22) rotate(-78.31)"/>
        </g>
      </g>
      <path class="cls-43" d="M151.94,68.56l-13.04,32.71c.83,1.6,1.86,3.09,3.07,4.43,1.41,1.53,3.06,2.83,4.88,3.83l9.17-24c.4-1,.81-2.25,1.23-3.59s.82-2.8,1.22-4.36c.68,2.66,1.51,5.28,2.51,7.84l11.62,30.28,3.15,8.27,6.91,18.13c.27.79.76,1.49,1.42,2,.72.53,1.6.81,2.5.77h8.93l-30.4-76.34-13.17.03Z"/>
      <path class="cls-43" d="M131.24,120.5l-9.69,24.34h8.93c.91.03,1.8-.28,2.5-.85.63-.48,1.12-1.13,1.41-1.87l6.08-15.93c-3.32-1.47-6.43-3.38-9.23-5.69Z"/>
      <path class="cls-43" d="M198.51,75.87c-.17,0-.33.02-.49.03-.57-3.86-1.63-7.54-3.12-10.97.03-.01.06-.03.09-.05h.02s.15-.02.34-.19c1.47-.81,2.47-2.36,2.47-4.15,0-2.63-2.13-4.77-4.77-4.77h-67.29c-2.63,0-4.77,2.13-4.77,4.77,0,1.77.97,3.29,2.4,4.12-1.55,3.51-2.65,7.29-3.24,11.25-.16-.01-.32-.03-.49-.03-3.88,0-7.02,3.98-7.02,8.88s3.14,8.88,7.02,8.88c.32,0,.62-.04.93-.09.46,3,1.22,5.95,2.28,8.81,1.79,4.71,4.51,9,8,12.63,3.45,3.58,7.62,6.39,12.24,8.24,5.01,2,10.36,3,15.76,2.94,4.41.04,8.79-.6,13-1.91l-3.65-9.54c-3.02.96-6.18,1.43-9.35,1.4-3.81.07-7.59-.61-11.13-2-3.25-1.31-6.16-3.33-8.52-5.91-2.44-2.72-4.29-5.91-5.44-9.38-1.33-4.05-1.97-8.29-1.91-12.55-.06-4.25.58-8.47,1.9-12.51,1.01-3.08,2.58-5.94,4.62-8.45h40.91c2.02,2.51,3.57,5.38,4.58,8.45,1.32,4.04,1.97,8.26,1.91,12.51.06,4.26-.58,8.5-1.91,12.55-.39,1.12-.84,2.22-1.36,3.29l4.91,12.32c3.24-3.51,5.77-7.61,7.45-12.08,1.07-2.88,1.83-5.86,2.29-8.88.43.11.88.17,1.34.17,3.88,0,7.02-3.97,7.02-8.88s-3.14-8.88-7.02-8.88ZM120.14,88.87c0,.15.02.31.03.46-.18.07-.36.11-.54.11-1.29,0-2.73-1.88-2.73-4.59s1.44-4.59,2.73-4.59c.04,0,.08.02.12.02-.04.74-.06,1.48-.06,2.22,0,2.16.17,4.28.46,6.36ZM198.46,89.45c-.16,0-.32-.03-.49-.09.34-2.23.54-4.51.54-6.85,0-.75-.03-1.5-.07-2.24,0,0,0,0,0,0,1.29,0,2.73,1.88,2.73,4.59s-1.44,4.59-2.73,4.59Z"/>
    </g>
    <g>
      <g>
        <path class="cls-43" d="M172.1,281.49c-.23,3.95-1.12,7.84-2.64,11.49-1.36,3.28-3.31,6.28-5.74,8.86-2.31,2.42-5.08,4.36-8.14,5.71-3.09,1.35-6.44,2.03-9.81,2-2.57.05-5.12-.47-7.47-1.5-2.12-.96-3.98-2.41-5.43-4.22-1.52-1.94-2.61-4.17-3.21-6.56-.7-2.76-.93-5.61-.69-8.45.23-3.95,1.13-7.82,2.66-11.47,1.36-3.28,3.31-6.29,5.74-8.89,2.29-2.43,5.05-4.38,8.11-5.73,3.07-1.34,6.4-2.03,9.75-2,2.59-.04,5.15.47,7.52,1.51,2.14.96,4.02,2.41,5.48,4.24,1.52,1.94,2.61,4.18,3.21,6.57.68,2.76.91,5.61.66,8.44ZM168.62,281.56c.21-2.51.03-5.04-.55-7.49-.48-2.06-1.38-4-2.66-5.68-1.2-1.55-2.76-2.79-4.54-3.61-1.95-.88-4.08-1.31-6.22-1.27-2.85-.02-5.67.58-8.26,1.76-2.61,1.18-4.94,2.88-6.86,5-2.09,2.35-3.74,5.06-4.87,8-1.3,3.35-2.07,6.88-2.28,10.47-.22,2.51-.03,5.04.55,7.49.48,2.05,1.39,3.99,2.66,5.67,1.21,1.54,2.77,2.78,4.55,3.6,1.95.87,4.07,1.31,6.2,1.27,2.87.02,5.71-.57,8.33-1.74,2.6-1.17,4.93-2.88,6.84-5,2.07-2.33,3.71-5.02,4.83-7.93,1.31-3.37,2.08-6.93,2.28-10.54Z"/>
        <path class="cls-43" d="M182.69,286.25c.96-1.7,2.09-3.3,3.35-4.78,1.14-1.33,2.42-2.53,3.83-3.57,1.22-.92,2.57-1.67,4-2.22,1.28-.49,2.63-.75,4-.76,1.27-.04,2.52.25,3.64.85,1,.57,1.8,1.43,2.29,2.47.59,1.25.91,2.62.94,4,.06,1.8-.09,3.59-.46,5.35l-4,21.5h-3.18l4-21.5c.6-3.2.56-5.65-.13-7.36-.69-1.72-2.15-2.57-4.38-2.57-1.35.03-2.67.37-3.87,1-1.43.72-2.75,1.64-3.91,2.74-1.39,1.29-2.63,2.73-3.7,4.29-1.24,1.78-2.31,3.68-3.2,5.66l-3.3,17.78h-3.18l6.38-33.73h1.45c.79,0,1.16.4,1.1,1.21l-1.67,9.64Z"/>
        <path class="cls-43" d="M210.53,309.07l9.34-49.17h3.15l-9.42,49.18h-3.07Z"/>
        <path class="cls-43" d="M234.31,275.44l-6.44,33.63h-3.15l6.44-33.63h3.15ZM237.58,263.9c-.02.4-.14.78-.33,1.13-.19.35-.43.66-.72.93-.29.27-.63.48-1,.64-.34.16-.71.24-1.08.24-.37,0-.73-.08-1.06-.24-.32-.15-.61-.37-.84-.64-.23-.28-.42-.59-.54-.93-.13-.36-.18-.75-.14-1.13.03-.4.14-.79.32-1.15.18-.37.41-.7.69-1,.27-.27.59-.5.94-.65.35-.16.72-.24,1.1-.24.35,0,.69.09,1,.24.33.15.63.37.88.64.27.29.46.63.58,1,.15.37.21.76.2,1.16Z"/>
        <path class="cls-43" d="M245.99,286.25c.96-1.7,2.09-3.3,3.36-4.78,1.12-1.33,2.39-2.53,3.78-3.57,1.22-.92,2.57-1.67,4-2.22,1.28-.49,2.63-.75,4-.76,1.27-.04,2.52.25,3.64.85,1,.57,1.8,1.43,2.29,2.47.59,1.25.91,2.62.94,4,.06,1.8-.09,3.59-.46,5.35l-4,21.5h-3.18l4-21.5c.6-3.2.56-5.65-.13-7.36-.69-1.72-2.15-2.57-4.38-2.57-1.35.03-2.67.37-3.87,1-1.43.72-2.75,1.64-3.91,2.74-1.39,1.29-2.63,2.73-3.7,4.29-1.23,1.79-2.31,3.68-3.2,5.66l-3.3,17.72h-3.18l6.38-33.73h1.45c.79,0,1.16.4,1.1,1.21l-1.63,9.7Z"/>
        <path class="cls-43" d="M298.87,302.82c-1.08,1.07-2.23,2.07-3.44,3-1.04.8-2.15,1.5-3.32,2.08-1.09.53-2.23.93-3.41,1.2-1.22.27-2.47.4-3.72.39-1.69.04-3.36-.28-4.92-.93-1.36-.59-2.56-1.5-3.48-2.66-.96-1.22-1.65-2.64-2-4.15-.42-1.8-.55-3.66-.39-5.5.12-1.72.41-3.43.86-5.1.45-1.7,1.07-3.36,1.85-4.94.77-1.57,1.7-3.05,2.77-4.42,1.04-1.35,2.26-2.55,3.62-3.58,1.32-1.02,2.79-1.83,4.36-2.41,1.6-.58,3.29-.88,5-.87,1.41-.04,2.8.19,4.12.69.99.39,1.89.97,2.65,1.72.65.63,1.15,1.41,1.45,2.27.25.72.36,1.49.32,2.25-.06.9-.25,1.79-.56,2.64-.33.89-.84,1.71-1.49,2.4-.79.83-1.71,1.54-2.71,2.1-1.36.75-2.79,1.35-4.27,1.81-2.01.62-4.06,1.12-6.14,1.5-2.37.45-5.15.85-8.33,1.18-.08.45-.15.92-.21,1.39s-.12.93-.15,1.39c-.24,3.35.34,6,1.73,7.87s3.61,2.76,6.68,2.76c2.05.02,4.07-.45,5.89-1.39.73-.37,1.43-.8,2.09-1.28.6-.45,1.14-.88,1.62-1.29.48-.4.89-.73,1.24-1,.26-.23.58-.36.92-.39.27,0,.53.12.69.34l.68.93ZM292.37,277.33c-1.73-.02-3.45.36-5,1.13-1.53.77-2.9,1.81-4.07,3.06-1.23,1.34-2.28,2.83-3.11,4.45-.86,1.67-1.53,3.43-2,5.25,2.88-.31,5.37-.68,7.47-1.1,1.81-.34,3.6-.78,5.37-1.31,1.26-.38,2.47-.88,3.62-1.51.82-.44,1.57-1,2.22-1.67.47-.5.84-1.09,1.08-1.73.21-.61.34-1.25.38-1.89.03-.52-.04-1.05-.21-1.54-.2-.57-.55-1.09-1-1.5-.54-.5-1.17-.88-1.86-1.13-.92-.35-1.9-.52-2.89-.51Z"/>
        <path class="cls-43" d="M355.35,309.07h-2.61c-.26.01-.52-.08-.72-.26-.17-.17-.29-.38-.33-.62l-2.43-14h-21.39l-7.84,14c-.14.25-.34.47-.59.62-.24.17-.53.26-.83.26h-2.56l27.2-47.83h3.35l8.75,47.83ZM348.87,291.73l-4.26-24.33c-.06-.41-.13-.86-.18-1.34s-.11-1-.16-1.57c-.27.56-.52,1.09-.77,1.57s-.48.94-.69,1.37l-13.59,24.3h19.65Z"/>
        <path class="cls-43" d="M381.59,306.2c-1.02.78-2.13,1.45-3.29,2-1.02.48-2.09.82-3.2,1-1.12.18-2.25.27-3.39.27-1.72.04-3.43-.3-5-1-1.34-.63-2.5-1.59-3.37-2.79-.9-1.28-1.52-2.73-1.83-4.26-.37-1.76-.48-3.57-.33-5.37.12-1.79.43-3.56.93-5.29.48-1.73,1.13-3.4,1.95-5,.78-1.53,1.72-2.97,2.81-4.3,1.05-1.3,2.25-2.46,3.59-3.45,1.28-.96,2.69-1.73,4.19-2.28,1.51-.56,3.1-.84,4.71-.83,1.01-.01,2.02.1,3,.32.83.2,1.64.5,2.39.91.7.39,1.35.88,1.92,1.44.58.58,1.11,1.21,1.56,1.89l-1,1.12c-.18.22-.45.36-.74.37-.23,0-.49-.18-.79-.54-.37-.43-.79-.82-1.24-1.17-.63-.48-1.32-.87-2.06-1.16-1.05-.4-2.16-.59-3.28-.55-1.9,0-3.77.53-5.39,1.53-1.76,1.06-3.31,2.44-4.55,4.08-1.37,1.81-2.47,3.81-3.25,5.94-.84,2.25-1.35,4.61-1.52,7-.12,1.45-.04,2.9.22,4.33.21,1.25.68,2.43,1.37,3.49.66.97,1.55,1.75,2.6,2.27,1.2.57,2.53.85,3.86.81,1.09.01,2.18-.12,3.24-.39.89-.25,1.76-.58,2.58-1,.7-.36,1.37-.79,2-1.27.58-.46,1.1-.89,1.56-1.27l1.16-1c.24-.22.54-.36.86-.39.27,0,.52.13.69.34l.64.88c-1.11,1.2-2.32,2.31-3.6,3.32Z"/>
        <path class="cls-43" d="M411.8,306.2c-1.02.78-2.12,1.45-3.28,2-1.02.48-2.09.81-3.2,1-1.12.18-2.26.27-3.4.27-1.72.05-3.43-.3-5-1-1.35-.62-2.51-1.59-3.37-2.79-.9-1.28-1.52-2.73-1.83-4.26-.37-1.76-.48-3.57-.34-5.37.27-3.58,1.25-7.07,2.88-10.27.79-1.55,1.74-3.01,2.84-4.36,1.05-1.29,2.26-2.45,3.59-3.45,1.28-.96,2.7-1.72,4.2-2.28,1.5-.56,3.1-.84,4.7-.83,1.01-.01,2.02.09,3,.32.83.2,1.64.5,2.39.91.69.41,1.33.9,1.89,1.48.58.58,1.11,1.21,1.56,1.89l-1,1.12c-.18.22-.45.36-.74.37-.22,0-.48-.18-.79-.54-.89-1.04-2.02-1.84-3.3-2.33-1.04-.4-2.15-.59-3.27-.55-1.91,0-3.77.53-5.4,1.53-1.76,1.06-3.3,2.44-4.54,4.08-1.38,1.81-2.47,3.81-3.25,5.94-.85,2.25-1.37,4.6-1.53,7-.11,1.45-.04,2.9.23,4.33.2,1.25.68,2.44,1.38,3.49.66.96,1.55,1.75,2.59,2.27,1.21.57,2.53.85,3.87.81,1.09.01,2.18-.12,3.23-.39.89-.24,1.76-.58,2.59-1,.71-.36,1.38-.78,2-1.27.59-.46,1.11-.89,1.56-1.27l1.17-1c.23-.22.53-.36.85-.39.27,0,.52.13.69.34l.65.88c-1.12,1.2-2.33,2.3-3.62,3.32Z"/>
        <path class="cls-43" d="M446.22,302.82c-1.08,1.07-2.22,2.07-3.43,3-1.04.8-2.16,1.5-3.33,2.08-1.09.53-2.23.94-3.41,1.2-1.22.27-2.46.4-3.71.39-1.69.04-3.36-.28-4.92-.93-1.36-.59-2.56-1.5-3.48-2.66-.96-1.22-1.65-2.64-2-4.15-.41-1.8-.54-3.66-.39-5.5.26-3.48,1.18-6.87,2.71-10,.77-1.57,1.7-3.05,2.78-4.42,1.04-1.34,2.26-2.55,3.61-3.58,1.33-1.01,2.8-1.83,4.36-2.41,1.6-.58,3.29-.88,5-.87,1.41-.04,2.81.19,4.13.69,1.02.38,1.95.96,2.73,1.72.62.63,1.1,1.39,1.38,2.23.25.72.35,1.49.31,2.25-.06.9-.24,1.79-.55,2.64-.34.89-.85,1.71-1.51,2.4-.8.83-1.71,1.54-2.72,2.1-1.36.75-2.79,1.35-4.27,1.81-2.01.62-4.06,1.13-6.14,1.5-2.37.45-5.15.85-8.32,1.18-.08.45-.15.92-.22,1.39s-.12.93-.15,1.39c-.23,3.35.34,6,1.73,7.87,1.39,1.87,3.62,2.76,6.68,2.76,1.1.01,2.19-.12,3.26-.39.91-.24,1.8-.57,2.64-1,.73-.37,1.42-.8,2.08-1.28.61-.45,1.15-.88,1.63-1.29s.89-.73,1.23-1c.26-.22.59-.36.93-.39.27,0,.52.12.68.34l.68.93ZM439.73,277.33c-1.73-.02-3.45.36-5,1.13-1.52.77-2.9,1.81-4.06,3.06-1.24,1.33-2.29,2.83-3.12,4.45-.85,1.67-1.52,3.43-2,5.25,2.88-.31,5.38-.68,7.48-1.1,1.81-.34,3.6-.78,5.36-1.31,1.26-.38,2.47-.88,3.62-1.51.81-.44,1.55-1.01,2.2-1.67.48-.51.86-1.12,1.1-1.78.21-.61.34-1.25.39-1.89.02-.52-.05-1.04-.21-1.54-.2-.57-.55-1.09-1-1.5-.54-.5-1.18-.88-1.87-1.13-.93-.33-1.91-.49-2.89-.46h0Z"/>
        <path class="cls-43" d="M475.43,279.56c-.15.29-.45.48-.78.48-.31-.05-.59-.2-.8-.43-.39-.35-.81-.66-1.25-.94-.62-.42-1.29-.75-2-1-2.09-.61-4.32-.56-6.38.15-1,.36-1.94.88-2.78,1.54-.78.62-1.44,1.38-1.95,2.23-.49.82-.78,1.74-.84,2.69-.09.81.07,1.62.47,2.33.41.65.96,1.21,1.6,1.64.72.48,1.5.88,2.31,1.2.87.34,1.76.67,2.69,1,.91.34,1.8.72,2.67,1.14.83.39,1.61.9,2.3,1.5.67.59,1.2,1.32,1.55,2.14.39.97.53,2.02.43,3.06-.1,1.46-.49,2.88-1.15,4.19-.67,1.36-1.59,2.58-2.72,3.6-1.17,1.07-2.53,1.92-4,2.52-1.62.65-3.35.97-5.09.95-1.86.06-3.7-.32-5.38-1.13-1.39-.74-2.61-1.76-3.59-3l.89-1.15c.21-.32.56-.53.95-.54.23,0,.5.18.81.54.39.44.83.84,1.3,1.2.66.5,1.4.91,2.18,1.2,1.1.39,2.27.58,3.44.54,1.27.02,2.53-.21,3.72-.66,1.08-.41,2.08-1.03,2.93-1.81.83-.75,1.5-1.65,2-2.65.5-1,.79-2.08.87-3.19.1-.86-.07-1.73-.47-2.5-.39-.69-.93-1.29-1.58-1.75-.72-.5-1.5-.92-2.32-1.23-.86-.34-1.76-.67-2.68-1-.91-.31-1.81-.67-2.68-1.08-.83-.37-1.6-.85-2.3-1.43-.68-.54-1.23-1.23-1.61-2.01-.4-.95-.55-1.98-.44-3,.11-1.3.49-2.56,1.12-3.7.66-1.22,1.54-2.31,2.59-3.21,1.12-.96,2.41-1.71,3.79-2.23,1.47-.56,3.04-.86,4.62-.86,1.66-.04,3.32.26,4.86.88,1.36.6,2.56,1.5,3.51,2.64l-.81,1.14Z"/>
        <path class="cls-43" d="M501.99,279.56c-.15.29-.44.47-.77.48-.31-.04-.59-.2-.8-.43-.39-.34-.81-.66-1.25-.94-.62-.42-1.29-.75-2-1-2.09-.61-4.32-.56-6.38.15-1,.36-1.94.88-2.78,1.54-.78.62-1.43,1.38-1.94,2.23-.49.82-.78,1.74-.85,2.69-.08.81.08,1.62.48,2.33.4.66.95,1.22,1.59,1.64.73.48,1.5.89,2.32,1.2.86.34,1.76.67,2.68,1,.92.33,1.82.72,2.68,1.14.83.39,1.6.9,2.29,1.5.67.59,1.2,1.32,1.56,2.14.39.97.53,2.02.43,3.06-.11,1.46-.5,2.88-1.16,4.19-.67,1.36-1.59,2.58-2.72,3.6-2.49,2.26-5.74,3.5-9.11,3.47-3.49.19-6.85-1.33-9-4.09l.89-1.15c.22-.34.6-.54,1-.54.22,0,.49.18.8.54.4.44.83.84,1.3,1.2.67.5,1.41.91,2.19,1.2,1.1.4,2.27.58,3.44.54,1.27.02,2.53-.21,3.71-.66,1.08-.41,2.08-1.03,2.93-1.81.82-.75,1.5-1.65,2-2.65.49-1,.78-2.08.86-3.19.1-.86-.07-1.73-.47-2.5-.39-.69-.93-1.29-1.58-1.75-.72-.5-1.49-.91-2.31-1.23-.87-.34-1.76-.67-2.69-1-.91-.31-1.81-.68-2.68-1.08-.83-.37-1.6-.85-2.3-1.43-.68-.56-1.23-1.26-1.6-2.05-.4-.95-.55-1.98-.43-3,.09-1.32.47-2.61,1.11-3.77.66-1.22,1.54-2.31,2.59-3.21,1.12-.96,2.41-1.71,3.79-2.23,1.49-.56,3.08-.84,4.67-.83,1.66-.04,3.31.26,4.85.88,1.37.62,2.59,1.54,3.54,2.71l-.88,1.11Z"/>
      </g>
      <g class="cls-17">
        <g>
          <path class="cls-74" d="M95.03,323.82c.95.57,1.85,1.16,2.72,1.77h405.11v-1.77H95.03Z"/>
          <path class="cls-68" d="M97.74,325.59c.81.57,1.58,1.16,2.31,1.77h402.81v-1.77H97.74Z"/>
          <path class="cls-71" d="M100.05,327.35c.69.58,1.35,1.17,1.98,1.77h400.85v-1.77H100.05Z"/>
          <path class="cls-72" d="M102.02,329.13c.59.58,1.16,1.17,1.68,1.77h399.16v-1.77H102.02Z"/>
          <path class="cls-32" d="M103.65,330.84c.51.58.99,1.17,1.43,1.77h397.78v-1.77H103.65Z"/>
          <path class="cls-14" d="M105.09,332.62c.43.58.83,1.17,1.2,1.77h396.57v-1.77H105.09Z"/>
        </g>
      </g>
      <g>
        <path class="cls-3" d="M105.27,254.87c-1.51-.59-3.48-.97-5.7-1.15-12.07-1.02-23.78,4.48-31.49,13.83l-4.45,5.4,2.34-5.92c4.45-11.26,3.6-24.15-3.11-34.22-1.24-1.86-2.53-3.41-3.78-4.46h0c-7.31-6.11-19.78-.94-21.75,7.32-.33,1.4-1.89,2.16-3.19,1.56-7.76-3.58-19.47,3.14-19.14,12.67h0c.06,1.63.49,3.6,1.19,5.72,3.82,11.48,13.48,20.07,25.09,23.48l6.89,2.02-7.11-.02c-12.1-.03-23.8,5.45-30.72,15.37-1.29,1.84-2.26,3.62-2.78,5.17-2.98,8.91,6.73,17.74,14.66,17.31,1.54-.08,2.96,1.05,2.97,2.59.09,8.07,9.82,17.03,18.51,13.27,1.48-.64,3.14-1.74,4.84-3.15,9.33-7.74,13.83-19.89,12.76-31.97l-1.16-13.06c3.49,8.73,9.37,22.56,14.38,29.87,7.67,11.2,18.26,15.94,20.75,14.73,2.75-1.35,1.03-5-1.62-3.71-1.51.74-10.77-2.92-17.24-11.83-5.22-7.19-11.35-20.24-15.14-28.82l8.18,8.11c8.58,8.5,20.74,12.81,32.62,10.63,2.23-.41,4.19-.99,5.66-1.74,8.38-4.26,7.66-17.37,1.7-22.63-1.2-1.06-1.29-2.86-.2-4.02,5.51-5.86,4.82-18.95-3.96-22.35Z"/>
        <g>
          <path class="cls-63" d="M70.84,260.61c4.77-4.13,10.32-7.06,16.2-8.61l-5.32-9.15h-11.32c1.45,5.71,1.62,11.78.45,17.77Z"/>
          <path class="cls-51" d="M70.53,299.81c3.1,6.15,5.91,11.01,8.21,14.19,1.93,2.66,4.13,4.79,6.23,6.44l6.75-11.62c-7.6-.84-14.98-3.93-21.2-9Z"/>
          <path class="cls-54" d="M33.11,278.94c-5.56-2.83-10.32-6.82-13.95-11.63l-9.95,17.12,3.07,5.29c5.57-5.53,12.83-9.29,20.83-10.78Z"/>
          <path class="cls-53" d="M72.14,318.13c-2.52-3.69-5.24-8.9-7.81-14.42-.09,8.13-2.5,15.89-6.85,22.31h21.45c-2.4-2.25-4.73-4.9-6.79-7.9Z"/>
        </g>
        <g>
          <path class="cls-69" d="M96.23,309.05l-8.09,13.56c1.24.74,2.35,1.29,3.23,1.63l9.24-15.5c-1.46.19-2.92.29-4.38.3Z"/>
          <path class="cls-69" d="M82.59,329.11h-27.44c-1.06,1.27-2.21,2.47-3.44,3.59h34.62l.5-.84c-1.37-.75-2.8-1.68-4.24-2.75Z"/>
          <path class="cls-69" d="M69.49,239.76h14.77l6.8,11.4c1.31-.2,2.64-.33,3.97-.39l-8.71-14.61h-18.29c.55,1.17,1.03,2.37,1.45,3.6Z"/>
          <path class="cls-69" d="M7.98,294.82c.43-.61.88-1.2,1.34-1.78l-5.13-8.6,12.46-20.88c-.72-1.23-1.36-2.49-1.93-3.8l-14.71,24.68,7.04,11.8c.29-.47.6-.94.94-1.42Z"/>
        </g>
        <polygon class="cls-44" points="58.13 281.97 101.64 279.76 58.28 279.73 38.25 241.28 56.28 280.7 29.4 314.71 58.13 281.97"/>
        <g>
          <g class="cls-27">
            <ellipse class="cls-76" cx="66.66" cy="252.48" rx="4.13" ry="5.12" transform="translate(-193.95 236.13) rotate(-71.62)"/>
            <ellipse class="cls-55" cx="66.66" cy="252.48" rx="4" ry="4.95" transform="translate(-193.95 236.13) rotate(-71.62)"/>
          </g>
          <g class="cls-25">
            <ellipse class="cls-76" cx="62.1" cy="258.05" rx="2.63" ry="5.12" transform="translate(-195.58 194.41) rotate(-62.6)"/>
            <ellipse class="cls-56" cx="62.38" cy="257.72" rx="2.54" ry="4.95" transform="translate(-195.13 194.48) rotate(-62.6)"/>
          </g>
          <g class="cls-26">
            <ellipse class="cls-4" cx="67.18" cy="257.51" rx="2.63" ry="5.12" transform="translate(-192.35 198.63) rotate(-62.6)"/>
            <ellipse class="cls-65" cx="67.46" cy="257.17" rx="2.54" ry="4.95" transform="translate(-191.9 198.7) rotate(-62.6)"/>
          </g>
          <g class="cls-24">
            <ellipse class="cls-70" cx="73.39" cy="257.51" rx="5.12" ry="2.63" transform="translate(-80.84 38.62) rotate(-19.26)"/>
            <ellipse class="cls-58" cx="73.34" cy="257.07" rx="4.95" ry="2.54" transform="translate(-80.69 38.58) rotate(-19.26)"/>
          </g>
          <g class="cls-21">
            <ellipse class="cls-76" cx="70.16" cy="255.57" rx="1.75" ry="5.12" transform="translate(-190.3 304.5) rotate(-85.29)"/>
            <ellipse class="cls-13" cx="70.29" cy="255.29" rx="1.69" ry="4.95" transform="translate(-189.91 304.37) rotate(-85.29)"/>
          </g>
          <g class="cls-18">
            <ellipse class="cls-76" cx="56.75" cy="253.83" rx="5.12" ry="4.01" transform="translate(-101.47 47.39) rotate(-24.86)"/>
            <ellipse class="cls-66" cx="56.56" cy="253.2" rx="4.95" ry="3.88" transform="translate(-101.22 47.25) rotate(-24.86)"/>
          </g>
          <g class="cls-22">
            <ellipse class="cls-76" cx="55.56" cy="257.32" rx="5.12" ry="4.01" transform="translate(-103.04 47.21) rotate(-24.86)"/>
            <ellipse class="cls-64" cx="55.38" cy="256.68" rx="4.95" ry="3.88" transform="translate(-102.79 47.07) rotate(-24.86)"/>
          </g>
          <g class="cls-19">
            <ellipse class="cls-42" cx="63.19" cy="254.32" rx="2.78" ry="5.12" transform="translate(-198.09 234.1) rotate(-71.62)"/>
            <ellipse class="cls-57" cx="63.43" cy="253.93" rx="2.69" ry="4.95" transform="translate(-197.55 234.05) rotate(-71.62)"/>
          </g>
          <g class="cls-28">
            <ellipse class="cls-16" cx="53.89" cy="252.01" rx="5.12" ry="4.01"/>
            <ellipse class="cls-67" cx="53.99" cy="251.35" rx="4.95" ry="3.88"/>
          </g>
          <g class="cls-29">
            <ellipse class="cls-76" cx="44.15" cy="256.95" rx="5.12" ry="4.01" transform="translate(-94.22 35.98) rotate(-22.3)"/>
            <ellipse class="cls-60" cx="44" cy="256.3" rx="4.95" ry="3.88" transform="translate(-93.98 35.88) rotate(-22.3)"/>
          </g>
          <g class="cls-30">
            <ellipse class="cls-76" cx="47.86" cy="254.85" rx="4.01" ry="5.12" transform="translate(-195.98 166.65) rotate(-59.48)"/>
            <ellipse class="cls-45" cx="48.28" cy="254.34" rx="3.88" ry="4.95" transform="translate(-195.34 166.76) rotate(-59.48)"/>
          </g>
          <g class="cls-31">
            <ellipse class="cls-73" cx="42.36" cy="257.77" rx="2.4" ry="5.12" transform="translate(-218.65 247.05) rotate(-78.31)"/>
            <ellipse class="cls-59" cx="42.54" cy="257.41" rx="2.32" ry="4.95" transform="translate(-218.15 246.93) rotate(-78.31)"/>
          </g>
        </g>
        <path class="cls-43" d="M53.44,265.13l-7.5,18.83c.48.92,1.07,1.78,1.77,2.55.81.88,1.76,1.63,2.81,2.2l5.28-13.81c.23-.58.47-1.29.71-2.07s.47-1.61.7-2.51c.39,1.53.87,3.04,1.44,4.51l6.69,17.43,1.81,4.76,3.98,10.43c.15.46.44.86.82,1.15.42.31.92.46,1.44.44h5.14l-17.5-43.94-7.58.02Z"/>
        <path class="cls-43" d="M41.52,295.02l-5.58,14.01h5.14c.52.01,1.03-.16,1.44-.49.36-.28.64-.65.81-1.08l3.5-9.17c-1.91-.84-3.7-1.95-5.31-3.27Z"/>
        <path class="cls-43" d="M80.24,269.34c-.1,0-.19,0-.28.02-.33-2.22-.94-4.34-1.79-6.31.02,0,.04-.02.05-.03h0s.09-.01.2-.11c.84-.47,1.42-1.36,1.42-2.39,0-1.52-1.23-2.74-2.74-2.74h-38.72c-1.52,0-2.74,1.23-2.74,2.74,0,1.02.56,1.89,1.38,2.37-.89,2.02-1.53,4.19-1.86,6.47-.09,0-.19-.02-.28-.02-2.23,0-4.04,2.29-4.04,5.11s1.81,5.11,4.04,5.11c.18,0,.36-.02.53-.05.26,1.73.7,3.43,1.31,5.07,1.03,2.71,2.6,5.18,4.6,7.27,1.99,2.06,4.39,3.68,7.04,4.74,2.88,1.15,5.97,1.73,9.07,1.69,2.54.02,5.06-.35,7.48-1.1l-2.1-5.49c-1.74.55-3.56.82-5.38.81-2.19.04-4.37-.35-6.41-1.15-1.87-.75-3.54-1.92-4.9-3.4-1.4-1.56-2.47-3.4-3.13-5.4-.76-2.33-1.14-4.77-1.1-7.22-.04-2.44.33-4.88,1.09-7.2.58-1.77,1.49-3.42,2.66-4.86h23.54c1.16,1.45,2.06,3.09,2.63,4.86.76,2.32,1.13,4.76,1.1,7.2.04,2.45-.33,4.89-1.1,7.22-.22.65-.48,1.28-.78,1.89l2.83,7.09c1.86-2.02,3.32-4.38,4.29-6.95.62-1.66,1.05-3.37,1.32-5.11.25.06.51.09.77.09,2.23,0,4.04-2.29,4.04-5.11s-1.81-5.11-4.04-5.11ZM35.13,276.82c0,.09.01.18.01.27-.1.04-.21.07-.31.07-.74,0-1.57-1.08-1.57-2.64s.83-2.64,1.57-2.64c.02,0,.04,0,.07.01-.02.42-.04.85-.04,1.28,0,1.24.1,2.46.27,3.66ZM80.21,277.15c-.09,0-.19-.02-.28-.05.2-1.28.31-2.6.31-3.94,0-.43-.02-.86-.04-1.29,0,0,0,0,0,0,.74,0,1.57,1.08,1.57,2.64s-.83,2.64-1.57,2.64Z"/>
      </g>
    </g>
  </g>
</svg>