<?xml version="1.0" encoding="UTF-8"?>
<svg id="Layer_2" data-name="Layer 2" xmlns="http://www.w3.org/2000/svg" xmlns:xlink="http://www.w3.org/1999/xlink" viewBox="0 0 493.74 359.89">
  <defs>
    <style>
      .cls-1 {
        fill: url(#radial-gradient-7);
      }

      .cls-2 {
        fill: url(#radial-gradient-6);
      }

      .cls-3 {
        fill: url(#radial-gradient-5);
      }

      .cls-4 {
        fill: url(#radial-gradient-4);
      }

      .cls-5 {
        fill: url(#radial-gradient-9);
      }

      .cls-6 {
        fill: url(#radial-gradient-8);
      }

      .cls-7 {
        fill: url(#radial-gradient-3);
      }

      .cls-8 {
        fill: url(#radial-gradient-2);
      }

      .cls-9 {
        fill: url(#linear-gradient-2);
      }

      .cls-10 {
        fill: #986400;
      }

      .cls-11 {
        fill: url(#radial-gradient);
      }

      .cls-12 {
        fill: url(#linear-gradient);
      }

      .cls-13 {
        fill: url(#radial-gradient-16);
      }

      .cls-14 {
        fill: url(#radial-gradient-12);
      }

      .cls-15 {
        fill: url(#radial-gradient-14);
      }

      .cls-16 {
        fill: url(#radial-gradient-13);
      }

      .cls-17 {
        fill: url(#radial-gradient-10);
      }

      .cls-18 {
        fill: url(#radial-gradient-17);
      }

      .cls-19 {
        fill: url(#radial-gradient-19);
      }

      .cls-20 {
        fill: url(#radial-gradient-11);
      }

      .cls-21 {
        fill: url(#radial-gradient-18);
      }

      .cls-22 {
        fill: url(#radial-gradient-15);
      }

      .cls-23 {
        fill: url(#radial-gradient-20);
      }

      .cls-24 {
        fill: #fff;
      }

      .cls-25 {
        fill: #282828;
      }

      .cls-26 {
        fill: #353535;
      }

      .cls-27 {
        fill: #e5b415;
      }
    </style>
    <linearGradient id="linear-gradient" x1="215.52" y1="811.15" x2="433.17" y2="811.15" gradientTransform="translate(0 917.36) scale(1 -1)" gradientUnits="userSpaceOnUse">
      <stop offset=".17" stop-color="#8e3f13"/>
      <stop offset="1" stop-color="#c46c1e" stop-opacity="0"/>
    </linearGradient>
    <radialGradient id="radial-gradient" cx="155.64" cy="81.45" fx="155.64" fy="81.45" r="79.97" gradientUnits="userSpaceOnUse">
      <stop offset=".51" stop-color="#c4c2bf"/>
      <stop offset="1" stop-color="#e8e8e8"/>
    </radialGradient>
    <radialGradient id="radial-gradient-2" cx="155.19" cy="66.84" fx="155.19" fy="66.84" r="91.09" gradientUnits="userSpaceOnUse">
      <stop offset=".82" stop-color="#d3af79"/>
      <stop offset="1" stop-color="#ba8e54"/>
    </radialGradient>
    <radialGradient id="radial-gradient-3" cx="155.19" cy="114.66" fx="155.19" fy="114.66" r="89.42" xlink:href="#radial-gradient-2"/>
    <radialGradient id="radial-gradient-4" cx="155.19" cy="127.34" fx="155.19" fy="127.34" r="79.11" xlink:href="#radial-gradient-2"/>
    <radialGradient id="radial-gradient-5" cx="155.19" cy="127.34" fx="155.19" fy="127.34" r="79.11" gradientUnits="userSpaceOnUse">
      <stop offset=".82" stop-color="#eeca91"/>
      <stop offset="1" stop-color="#cb9f5f"/>
    </radialGradient>
    <radialGradient id="radial-gradient-6" cx="155.19" cy="114.24" fx="155.19" fy="114.24" r="90.47" gradientUnits="userSpaceOnUse">
      <stop offset=".28" stop-color="#c18e3a"/>
      <stop offset=".52" stop-color="#bf8c36"/>
      <stop offset=".71" stop-color="#ba862d"/>
      <stop offset=".87" stop-color="#b27c1c"/>
      <stop offset="1" stop-color="#a9710b"/>
    </radialGradient>
    <radialGradient id="radial-gradient-7" cx="155.19" cy="77.98" fx="155.19" fy="77.98" r="79.11" xlink:href="#radial-gradient-2"/>
    <radialGradient id="radial-gradient-8" cx="155.19" cy="77.98" fx="155.19" fy="77.98" r="79.11" xlink:href="#radial-gradient-5"/>
    <radialGradient id="radial-gradient-9" cx="155.19" cy="77.98" fx="155.19" fy="77.98" r="79.11" xlink:href="#radial-gradient-6"/>
    <radialGradient id="radial-gradient-10" cx="10068.38" cy="-1312.19" fx="10068.38" fy="-1312.19" r="41.72" gradientTransform="translate(-9473.84 -2701.46) rotate(10.59) scale(1 -.69)" gradientUnits="userSpaceOnUse">
      <stop offset="0" stop-color="#101214"/>
      <stop offset="1" stop-color="#282828"/>
    </radialGradient>
    <linearGradient id="linear-gradient-2" x1="55.53" y1="574.6" x2="493.74" y2="574.6" xlink:href="#linear-gradient"/>
    <radialGradient id="radial-gradient-11" cx="47.8" cy="282.78" fx="47.8" fy="282.78" r="47.11" xlink:href="#radial-gradient"/>
    <radialGradient id="radial-gradient-12" cx="47.54" cy="274.18" fx="47.54" fy="274.18" r="53.66" xlink:href="#radial-gradient-2"/>
    <radialGradient id="radial-gradient-13" cx="47.54" cy="302.35" fx="47.54" fy="302.35" r="52.68" xlink:href="#radial-gradient-2"/>
    <radialGradient id="radial-gradient-14" cx="47.54" cy="309.82" fx="47.54" fy="309.82" r="46.61" xlink:href="#radial-gradient-2"/>
    <radialGradient id="radial-gradient-15" cx="47.54" cy="309.82" fx="47.54" fy="309.82" r="46.61" xlink:href="#radial-gradient-5"/>
    <radialGradient id="radial-gradient-16" cx="47.54" cy="302.1" fx="47.54" fy="302.1" r="53.3" xlink:href="#radial-gradient-6"/>
    <radialGradient id="radial-gradient-17" cx="47.54" cy="280.74" fx="47.54" fy="280.74" r="46.61" xlink:href="#radial-gradient-2"/>
    <radialGradient id="radial-gradient-18" cx="47.54" cy="280.74" fx="47.54" fy="280.74" r="46.61" xlink:href="#radial-gradient-5"/>
    <radialGradient id="radial-gradient-19" cx="47.54" cy="280.74" fx="47.54" fy="280.74" r="46.61" xlink:href="#radial-gradient-6"/>
    <radialGradient id="radial-gradient-20" cx="10255.22" cy="-1128.21" fx="10255.22" fy="-1128.21" r="41.72" gradientTransform="translate(-9811.09 -2383.55) rotate(10.59) scale(1 -.69)" xlink:href="#radial-gradient-10"/>
  </defs>
  <g id="Layer_1-2" data-name="Layer 1">
    <g>
      <path class="cls-24" d="M275.32,162.88h-2.6c-.27.02-.53-.07-.73-.25-.17-.17-.29-.39-.33-.63l-2.43-14h-21.43l-7.84,14c-.13.26-.33.47-.58.63-.25.16-.53.25-.83.25h-2.61l27.21-47.82h3.34l8.83,47.82ZM268.79,145.54l-4.21-24.33c-.06-.41-.12-.85-.18-1.34-.06-.49-.11-1-.16-1.57-.26.57-.52,1.09-.77,1.57l-.68,1.37-13.6,24.3h19.6Z"/>
      <path class="cls-24" d="M301.56,160.01c-1.02.78-2.12,1.45-3.28,2-1.02.48-2.09.81-3.2,1-1.12.18-2.26.27-3.4.27-1.72.05-3.43-.29-5-1-1.35-.62-2.51-1.59-3.37-2.79-.9-1.27-1.53-2.72-1.83-4.25-.37-1.77-.48-3.58-.34-5.38.27-3.58,1.25-7.07,2.88-10.27.79-1.55,1.74-3.01,2.84-4.36,1.05-1.29,2.26-2.45,3.59-3.45,1.28-.96,2.7-1.72,4.2-2.28,1.5-.55,3.1-.84,4.7-.83,1.01-.01,2.02.09,3,.32.83.2,1.63.51,2.39.91.71.39,1.35.87,1.93,1.44.58.58,1.1,1.21,1.55,1.89l-1,1.12c-.18.22-.45.36-.74.37-.22,0-.49-.18-.79-.54-.37-.43-.78-.82-1.23-1.17-.64-.48-1.33-.87-2.07-1.16-1.04-.39-2.16-.58-3.27-.54-1.91,0-3.77.53-5.4,1.52-1.76,1.06-3.3,2.45-4.54,4.09-1.38,1.8-2.48,3.8-3.26,5.93-.84,2.25-1.35,4.61-1.52,7-.11,1.45-.04,2.9.22,4.33.22,1.23.69,2.4,1.39,3.44.66.96,1.55,1.75,2.59,2.27,1.21.57,2.53.85,3.87.81,1.09.01,2.18-.12,3.23-.39.89-.24,1.76-.58,2.59-1,.71-.35,1.38-.78,2-1.27.59-.46,1.11-.88,1.56-1.27l1.17-1c.23-.22.53-.36.85-.39.27.02.51.14.69.34l.65.88c-1.13,1.23-2.35,2.37-3.65,3.41Z"/>
      <path class="cls-24" d="M331.78,160.01c-1.02.78-2.13,1.45-3.29,2-1.02.48-2.09.81-3.2,1-1.11.2-2.23.31-3.35.33-1.72.05-3.43-.29-5-1-1.34-.63-2.5-1.59-3.37-2.79-.9-1.28-1.52-2.72-1.83-4.25-.37-1.77-.48-3.58-.33-5.38.12-1.79.43-3.56.92-5.29.5-1.73,1.17-3.4,2-5,.79-1.55,1.74-3.01,2.84-4.36,1.05-1.29,2.25-2.45,3.58-3.45,1.28-.96,2.7-1.72,4.2-2.28,1.51-.55,3.1-.84,4.71-.83,1.01-.01,2.02.1,3,.32.83.2,1.63.51,2.38.91.71.39,1.35.87,1.93,1.44.58.58,1.1,1.21,1.56,1.89l-1,1.12c-.18.22-.45.36-.73.37-.23,0-.49-.18-.79-.54-.38-.43-.79-.82-1.24-1.17-.63-.48-1.33-.87-2.06-1.16-1.05-.39-2.16-.58-3.28-.54-1.9,0-3.77.53-5.39,1.52-1.76,1.06-3.31,2.45-4.55,4.09-1.37,1.8-2.47,3.8-3.25,5.93-.85,2.25-1.36,4.6-1.52,7-.12,1.45-.04,2.9.22,4.33.21,1.23.68,2.4,1.38,3.44.66.96,1.55,1.75,2.59,2.27,1.21.57,2.53.85,3.87.81,1.07,0,2.13-.13,3.16-.4.89-.25,1.76-.58,2.58-1,.71-.36,1.38-.78,2-1.27.58-.46,1.1-.88,1.56-1.27l1.16-1c.23-.22.54-.36.86-.39.26.01.51.13.68.34l.65.88c-1.13,1.21-2.35,2.34-3.65,3.38Z"/>
      <path class="cls-24" d="M366.2,156.63c-1.08,1.07-2.23,2.07-3.44,3-1.04.8-2.15,1.5-3.32,2.08-1.09.53-2.24.94-3.42,1.2-1.22.27-2.46.4-3.71.39-1.69.04-3.36-.28-4.92-.93-1.36-.58-2.55-1.49-3.48-2.64-.96-1.22-1.65-2.64-2-4.15-.42-1.8-.56-3.66-.4-5.5.13-1.72.42-3.43.87-5.1.45-1.7,1.07-3.35,1.85-4.93.77-1.57,1.69-3.05,2.77-4.43,1.05-1.34,2.26-2.55,3.62-3.58,1.32-1.01,2.79-1.82,4.35-2.4,1.6-.59,3.29-.89,5-.88,1.41-.04,2.81.19,4.13.69.99.39,1.9.98,2.65,1.73.63.63,1.1,1.39,1.38,2.23.25.72.36,1.48.32,2.24-.04.92-.21,1.82-.51,2.69-.33.88-.83,1.68-1.48,2.36-.79.84-1.71,1.55-2.72,2.1-1.35.75-2.78,1.36-4.26,1.81-2.01.62-4.07,1.12-6.14,1.5-2.38.45-5.15.85-8.33,1.19-.08.45-.15.91-.22,1.38s-.11.94-.14,1.39c-.24,3.35.34,6,1.73,7.87s3.61,2.84,6.68,2.84c1.1.01,2.19-.12,3.25-.39.91-.24,1.8-.57,2.64-1,.73-.37,1.42-.81,2.08-1.29.61-.45,1.15-.88,1.63-1.28s.89-.74,1.24-1c.26-.23.58-.36.92-.39.27,0,.53.12.69.34l.69.86ZM359.7,131.14c-1.73-.03-3.45.37-5,1.14-1.52.75-2.9,1.77-4.07,3-1.24,1.33-2.29,2.83-3.12,4.45-.85,1.67-1.52,3.43-2,5.25,2.89-.31,5.38-.68,7.48-1.09,1.81-.35,3.6-.79,5.37-1.32,1.26-.37,2.47-.87,3.62-1.51.81-.44,1.55-1,2.19-1.67.49-.51.86-1.11,1.11-1.77.21-.61.34-1.25.38-1.9.03-.52-.04-1.04-.21-1.53-.2-.58-.55-1.1-1-1.51-.54-.49-1.18-.88-1.87-1.13-.93-.31-1.9-.45-2.88-.41Z"/>
      <path class="cls-24" d="M395.4,133.34c-.15.29-.44.47-.77.48-.31-.04-.59-.19-.8-.42-.39-.37-.81-.7-1.26-1-.62-.42-1.29-.76-2-1-2.09-.61-4.32-.56-6.38.15-1,.36-1.94.88-2.78,1.54-.77.62-1.43,1.38-1.94,2.23-.49.82-.78,1.74-.85,2.69-.09.81.08,1.62.48,2.33.4.66.95,1.22,1.59,1.64.73.48,1.5.89,2.32,1.2.86.34,1.76.68,2.68,1,.91.33,1.81.71,2.68,1.13.83.39,1.6.9,2.29,1.5.67.59,1.21,1.33,1.56,2.15.39.97.53,2.02.42,3.06-.1,1.46-.5,2.88-1.15,4.19-.68,1.36-1.6,2.58-2.72,3.6-1.18,1.06-2.53,1.91-4,2.51-1.61.67-3.34,1.01-5.08,1-3.49.19-6.85-1.33-9-4.09l.89-1.15c.21-.32.56-.52.95-.54.23,0,.5.18.81.54.4.44.83.84,1.3,1.2.67.5,1.4.91,2.18,1.2,1.11.39,2.28.58,3.45.54,1.27.02,2.53-.21,3.71-.66,1.08-.41,2.07-1.02,2.93-1.8.82-.76,1.5-1.66,2-2.66.49-1,.78-2.08.86-3.19.09-.86-.07-1.73-.47-2.5-.39-.69-.93-1.28-1.58-1.74-.72-.51-1.49-.92-2.31-1.24-.87-.34-1.77-.67-2.69-1-.92-.33-1.82-.69-2.68-1.09-.83-.37-1.6-.85-2.3-1.43-.67-.56-1.2-1.27-1.56-2.06-.4-.95-.55-1.98-.43-3,.1-1.32.47-2.6,1.1-3.77.67-1.22,1.55-2.31,2.6-3.21,1.12-.96,2.4-1.71,3.78-2.23,1.5-.56,3.08-.84,4.68-.83,1.66-.04,3.31.26,4.85.88,1.36.6,2.56,1.5,3.52,2.64l-.88,1.21Z"/>
      <path class="cls-24" d="M421.94,133.34c-.15.29-.45.47-.78.48-.31-.04-.59-.19-.8-.42-.39-.37-.81-.7-1.25-1-.62-.42-1.29-.75-2-1-2.09-.61-4.32-.56-6.38.15-1,.36-1.94.88-2.78,1.54-.78.62-1.44,1.38-1.95,2.23-.49.82-.78,1.74-.85,2.69-.08.81.08,1.62.48,2.33.41.65.95,1.21,1.59,1.64.73.48,1.51.89,2.32,1.2.87.34,1.76.68,2.68,1,.91.33,1.81.7,2.68,1.13.83.39,1.6.9,2.29,1.5.67.59,1.21,1.33,1.56,2.15.39.97.54,2.02.43,3.06-.08,1.5-.47,2.97-1.14,4.32-.67,1.36-1.59,2.58-2.71,3.6-1.18,1.06-2.53,1.91-4,2.51-1.61.67-3.34,1.01-5.09,1-1.86.06-3.7-.32-5.38-1.13-1.39-.74-2.61-1.76-3.59-3l.89-1.15c.21-.32.56-.53.95-.54.22,0,.49.18.81.54.39.44.83.84,1.3,1.2.66.5,1.4.91,2.18,1.2,1.1.39,2.27.58,3.44.54,1.27.02,2.53-.21,3.71-.66,2.15-.8,3.92-2.4,4.93-4.46.5-.99.79-2.08.87-3.19.09-.86-.07-1.73-.47-2.5-.39-.69-.94-1.29-1.59-1.74-.73-.51-1.52-.92-2.35-1.22-.87-.34-1.76-.67-2.68-1s-1.82-.69-2.68-1.09c-.83-.37-1.6-.85-2.3-1.43-.67-.56-1.2-1.27-1.57-2.06-.39-.95-.54-1.98-.43-3,.1-1.32.47-2.61,1.11-3.77.66-1.22,1.54-2.31,2.59-3.21,1.12-.96,2.41-1.71,3.79-2.23,1.49-.56,3.08-.84,4.67-.83,1.66-.04,3.32.26,4.86.88,1.36.6,2.56,1.5,3.51,2.64l-.87,1.1Z"/>
      <path class="cls-24" d="M293.17,66.11c-.23,3.95-1.12,7.84-2.64,11.49-1.36,3.27-3.31,6.27-5.74,8.85-2.31,2.42-5.08,4.36-8.14,5.71-3.09,1.35-6.44,2.03-9.81,2-2.57.05-5.12-.47-7.47-1.5-2.11-.96-3.97-2.4-5.43-4.21-1.52-1.94-2.61-4.17-3.21-6.56-.7-2.76-.93-5.61-.69-8.45.23-3.95,1.13-7.82,2.66-11.47,1.36-3.28,3.31-6.3,5.74-8.89,2.28-2.43,5.03-4.38,8.08-5.74,3.07-1.34,6.4-2.03,9.75-2,2.59-.05,5.15.47,7.52,1.51,2.14.96,4.02,2.41,5.48,4.24,1.52,1.94,2.61,4.18,3.21,6.57.7,2.76.93,5.61.69,8.45ZM289.69,66.17c.21-2.51.03-5.03-.55-7.48-.48-2.06-1.38-4-2.66-5.68-1.2-1.55-2.76-2.79-4.54-3.62-1.96-.87-4.08-1.31-6.22-1.27-2.85-.01-5.67.59-8.26,1.76-2.61,1.18-4.94,2.88-6.86,5-2.08,2.34-3.73,5.02-4.87,7.94-1.31,3.36-2.09,6.91-2.3,10.52-.22,2.51-.03,5.04.55,7.49.49,2.05,1.4,3.98,2.68,5.66,1.21,1.54,2.77,2.77,4.55,3.59,1.95.88,4.06,1.31,6.2,1.27,5.8.05,11.33-2.41,15.17-6.76,2.07-2.33,3.71-5.01,4.83-7.92,1.3-3.36,2.07-6.9,2.28-10.5Z"/>
      <path class="cls-24" d="M303.76,70.87c.96-1.7,2.09-3.3,3.35-4.78,1.14-1.33,2.43-2.53,3.83-3.57,1.23-.92,2.57-1.66,4-2.21,1.28-.5,2.63-.75,4-.76,1.27-.04,2.52.25,3.64.84.99.58,1.79,1.44,2.29,2.47.59,1.25.91,2.62.94,4,.06,1.8-.09,3.6-.46,5.36l-4,21.49h-3.18l4-21.49c.6-3.2.56-5.66-.13-7.37s-2.15-2.57-4.38-2.57c-1.35.03-2.68.37-3.87,1-1.43.72-2.75,1.64-3.91,2.73-1.38,1.3-2.62,2.74-3.7,4.3-1.24,1.78-2.31,3.68-3.2,5.66l-3.3,17.77h-3.18l6.38-33.73h1.45c.79,0,1.16.41,1.1,1.22l-1.67,9.64Z"/>
      <path class="cls-24" d="M331.6,93.68l9.34-49.17h3.15l-9.42,49.17h-3.07Z"/>
      <path class="cls-24" d="M355.38,60.06l-6.44,33.62h-3.15l6.44-33.62h3.15ZM358.65,48.46c-.02.4-.13.79-.33,1.14-.19.35-.43.66-.72.93-.29.27-.63.48-1,.64-.34.15-.71.23-1.08.23-.37,0-.73-.07-1.06-.23-.32-.15-.61-.37-.84-.64-.23-.28-.41-.59-.54-.93-.14-.36-.19-.75-.16-1.14.03-.4.14-.79.32-1.15.17-.37.41-.71.69-1,.27-.27.59-.5.94-.66.35-.16.72-.23,1.1-.23.36,0,.72.08,1.05.23.35.16.66.4.92.69.26.29.46.63.58,1,.12.36.16.74.13,1.12Z"/>
      <path class="cls-24" d="M367.06,70.87c.96-1.7,2.09-3.3,3.35-4.78,1.13-1.33,2.4-2.52,3.79-3.57,1.23-.92,2.57-1.66,4-2.21,1.28-.5,2.63-.75,4-.76,1.27-.04,2.52.25,3.64.84.99.57,1.79,1.44,2.29,2.47.59,1.25.91,2.62.94,4,.07,1.8-.09,3.6-.46,5.36l-4,21.49h-3.18l4-21.49c.6-3.2.56-5.66-.13-7.37-.69-1.71-2.14-2.58-4.36-2.6-1.35.03-2.67.37-3.87,1-1.43.72-2.75,1.64-3.91,2.73-1.38,1.3-2.62,2.74-3.7,4.3-1.24,1.78-2.31,3.68-3.2,5.66l-3.32,17.74h-3.18l6.38-33.73h1.45c.79,0,1.16.41,1.1,1.22l-1.63,9.7Z"/>
      <path class="cls-24" d="M419.94,87.43c-1.08,1.07-2.23,2.07-3.44,3-1.04.8-2.15,1.49-3.32,2.07-1.08.54-2.23.94-3.41,1.21-1.22.26-2.47.38-3.72.38-1.69.03-3.36-.28-4.92-.92-1.36-.58-2.55-1.49-3.48-2.64-.96-1.22-1.65-2.64-2-4.16-.42-1.8-.56-3.65-.4-5.49.13-1.72.42-3.43.87-5.1.45-1.7,1.07-3.36,1.85-4.94.77-1.57,1.7-3.05,2.77-4.43,1.05-1.34,2.26-2.55,3.62-3.58,1.33-1.01,2.8-1.82,4.36-2.4,1.6-.59,3.29-.88,5-.88,1.41-.04,2.81.19,4.12.7.99.38,1.9.97,2.65,1.72.65.63,1.15,1.4,1.45,2.26.25.72.36,1.49.32,2.25-.06.9-.25,1.79-.56,2.63-.33.88-.83,1.69-1.48,2.37-.8.83-1.71,1.54-2.72,2.1-1.35.75-2.78,1.35-4.26,1.8-2.01.63-4.06,1.14-6.14,1.51-2.37.45-5.15.85-8.33,1.18-.08.45-.15.91-.21,1.39s-.12.93-.15,1.38c-.24,3.36.34,6,1.73,7.88,1.39,1.88,3.61,2.84,6.68,2.84,2.05.02,4.07-.45,5.89-1.39.73-.37,1.43-.8,2.09-1.28.6-.46,1.14-.88,1.62-1.29s.89-.74,1.24-1c.26-.22.58-.35.92-.38.27,0,.52.12.69.33l.67.88ZM413.44,61.95c-1.73-.02-3.45.36-5,1.13-1.53.77-2.9,1.81-4.07,3.06-1.23,1.33-2.28,2.83-3.11,4.44-.86,1.67-1.53,3.44-2,5.26,2.88-.32,5.37-.68,7.47-1.1,1.81-.34,3.61-.78,5.37-1.32,1.26-.37,2.47-.87,3.62-1.5.82-.44,1.57-1,2.22-1.67.49-.51.87-1.12,1.11-1.78.21-.61.34-1.25.38-1.89.03-.52-.04-1.05-.21-1.54-.2-.58-.54-1.1-1-1.5-.54-.5-1.17-.88-1.86-1.13-.94-.33-1.93-.49-2.92-.46Z"/>
      <polygon class="cls-12" points="433.17 109.71 215.52 109.71 217.33 106.21 215.52 102.71 433.17 102.71 433.17 109.71"/>
      <circle class="cls-11" cx="155.94" cy="81.45" r="77.47"/>
      <g>
        <path class="cls-8" d="M161.27,74.69l-35.36,66.98c-.39.61-1.09.97-1.82.91l-.95-.07c-.89-.07-1.77.27-2.39.91l-4.08,4.82-2.67,2.78-.42-23.36,44.17-70.98,3.52,18Z"/>
        <path class="cls-10" d="M120.2,140.73l3.38.6c.72.19,1.48-.11,1.89-.73l35.5-66.95-5.56-7.48-35.21,74.57Z"/>
      </g>
      <g>
        <g>
          <path class="cls-7" d="M199.81,198.76l.13-.29s-1.53-3.14-1.99-3.94-1.25-2.15-1.51-2.65c-.18-.35-.22-1.14-.31-1.54-.07-.28-.12-1.21-.11-1.5,0-.38.11-.99.15-1.24l.42-.89c.37-.63.37-1.41,0-2.03l-33.13-68.71h-.83l-1.38,1.23,31.95,78.59,6.62,2.98Z"/>
          <path class="cls-10" d="M193.19,189.35l2.05-2.75c.49-.56.57-1.37.19-2.02l-32.81-68.62-6.68,2.36,37.25,71.03Z"/>
        </g>
        <g>
          <path class="cls-4" d="M197.49,196.08l-.64-1.9h0s-2.92-1.73-2.92-1.73l-.46-3.5-73.27,1.14-3.88,6.43-1.15,1.11c-.75.72-1.17,1.71-1.17,2.75.1.04.19.09.29.13,1.82.75,3.54,1.7,5.16,2.82,3.23,2.26,6.92,3.78,10.8,4.47,1.94.34,3.83.9,5.64,1.65h0c3.64,1.51,7.57,2.21,11.51,2.05,1.96-.08,3.93.05,5.87.4,3.88.69,7.87.53,11.68-.47,1.9-.5,3.85-.79,5.81-.87,3.94-.16,7.8-1.17,11.31-2.97h0c1.75-.9,3.59-1.6,5.49-2.1,3.81-1,7.36-2.82,10.4-5.33.6-.49,1.22-.95,1.85-1.39-.77-.68-1.88-1.87-2.32-2.68Z"/>
          <path class="cls-3" d="M194.81,191.8c-1.2-1.87-1.33-2.85-1.33-2.85h0l-73.27,1.14s-1.38.88-2.58,2.75c-.94,1.47-1.3,3.68-1.3,3.68,2.86-.82,5.97,1.34,5.87,4.6-.14,4.26,5.08,6.42,7.99,3.3,2.59-2.77,7.22-1.41,7.92,2.31.78,4.19,6.34,5.18,8.51,1.51,1.93-3.26,6.75-2.93,8.23.55,1.67,3.92,7.3,3.69,8.64-.36h0c1.19-3.6,5.96-4.32,8.15-1.23h0c2.47,3.48,7.93,2.04,8.36-2.21.39-3.77,4.89-5.5,7.7-2.95h0c3.16,2.86,8.18.28,7.69-3.95h0c-.18-1.6.44-2.99,1.47-3.93,0,0-1.1-.9-2.05-2.37Z"/>
          <path class="cls-2" d="M120.2,190.09c10.43,6.3,22.66,9.93,35.74,9.93,13.84,0,26.72-4.08,37.54-11.07l-37.54-70.63-35.74,71.77Z"/>
        </g>
      </g>
      <g>
        <path class="cls-1" d="M236.83,76.7c-.4-1.93-.58-3.89-.56-5.85.05-3.94-.75-7.85-2.36-11.45-.8-1.8-1.41-3.67-1.8-5.6-.8-3.86-2.42-7.5-4.76-10.68-1.17-1.58-2.16-3.28-2.96-5.08-1.61-3.6-3.98-6.81-6.95-9.4-1.48-1.29-2.82-2.74-3.99-4.32-2.34-3.17-5.35-5.79-8.81-7.69-1.72-.94-3.34-2.07-4.82-3.37-2.97-2.59-6.47-4.51-10.25-5.62-1.89-.55-3.71-1.31-5.43-2.25-3.46-1.89-7.29-3.01-11.22-3.28-1.96-.13-3.9-.48-5.79-1.03-3.78-1.11-7.76-1.38-11.66-.79-1.94.29-3.91.37-5.87.24-3.93-.27-7.88.33-11.56,1.73-1.84.7-3.74,1.2-5.69,1.5-3.9.58-7.62,2.01-10.92,4.18-1.64,1.08-3.4,1.98-5.23,2.68-3.68,1.41-7.01,3.6-9.76,6.43-1.37,1.41-2.89,2.66-4.53,3.75-3.29,2.17-6.08,5.03-8.15,8.38-1.04,1.67-2.25,3.22-3.62,4.63-2.75,2.83-4.85,6.22-6.16,9.93-.65,1.85-1.5,3.63-2.54,5.3-2.08,3.35-3.4,7.11-3.88,11.03-.24,1.95-.69,3.87-1.34,5.72-1.31,3.72-1.79,7.68-1.42,11.6.19,1.96.16,3.93-.08,5.88-.48,3.91-.1,7.88,1.11,11.64.6,1.87,1,3.8,1.19,5.76.37,3.93,1.6,7.72,3.58,11.13.99,1.7,1.79,3.5,2.4,5.37,1.21,3.75,3.22,7.2,5.89,10.1,1.33,1.45,2.5,3.03,3.49,4.73,1.99,3.41,4.69,6.34,7.92,8.6,1.61,1.12,3.1,2.42,4.43,3.87,2.6,2.82,5.77,5.05,9.29,6.56l2.33-3.86,1.13-5.78c.62-.64,38.67-75.05,38.67-75.05l40.73,78.48s-.1,1.09.38,1.87c.48.78,2.58,2.72,2.58,2.72.98-.68,2-1.3,3.06-1.84,3.51-1.8,6.58-4.34,9.01-7.45,1.21-1.55,2.59-2.96,4.1-4.21h0c3.04-2.51,5.5-5.65,7.2-9.21.85-1.77,1.89-3.45,3.1-5,2.43-3.11,4.15-6.7,5.05-10.54.45-1.91,1.1-3.77,1.95-5.55,1.7-3.56,2.61-7.44,2.67-11.38.03-1.97.27-3.92.71-5.84.9-3.84.95-7.83.16-11.69Z"/>
        <path class="cls-6" d="M233.77,86.77h0c4.01-1.45,4.08-7.09.11-8.65h0c-3.53-1.38-3.99-6.18-.79-8.21h0c3.6-2.28,2.46-7.81-1.75-8.47-3.74-.59-5.22-5.18-2.53-7.85,3.03-3,.73-8.15-3.53-7.89-3.78.23-6.21-3.94-4.16-7.12,2.31-3.58-1.04-8.12-5.14-6.95-3.64,1.04-6.92-2.51-5.59-6.06,1.49-3.99-2.76-7.7-6.52-5.68h0c-3.33,1.79-7.29-.96-6.76-4.71.6-4.22-4.36-6.93-7.59-4.15-2.87,2.47-7.33.63-7.62-3.15-.32-4.25-5.74-5.83-8.3-2.42-2.27,3.03-7.02,2.19-8.12-1.44-1.23-4.08-6.86-4.46-8.63-.58-1.57,3.45-6.39,3.65-8.24.34-2.08-3.72-7.66-2.88-8.55,1.29h0c-.79,3.7-5.46,4.93-7.97,2.1-2.83-3.19-8.1-1.17-8.07,3.1.02,3.79-4.27,5.99-7.33,3.77h0c-3.45-2.5-8.16.6-7.22,4.76.84,3.69-2.88,6.77-6.35,5.26-3.91-1.7-7.84,2.34-6.03,6.2,1.61,3.43-1.36,7.23-5.07,6.5h0c-4.18-.82-7.15,3.97-4.55,7.35,2.31,3,.23,7.35-3.56,7.44-4.26.09-6.13,5.42-2.87,8.16h0c2.9,2.43,1.8,7.13-1.88,8.03h0c-4.14,1.01-4.82,6.61-1.05,8.58,3.36,1.75,3.29,6.58-.11,8.24h0c-3.83,1.88-3.29,7.49.82,8.61h0c3.66.99,4.63,5.72,1.67,8.07-3.34,2.65-1.6,8.03,2.65,8.23h0c3.78.18,5.75,4.59,3.36,7.53-2.69,3.31.16,8.18,4.36,7.47,3.73-.64,6.6,3.24,4.9,6.63h0c-1.91,3.81,1.91,7.96,5.87,6.35h0c3.51-1.42,7.15,1.75,6.21,5.42-1.05,4.13,3.58,7.36,7.09,4.95h0c.44-.3.9-.51,1.37-.64,0,0,.51-1.88,1.72-3.82,1.22-1.96,2.16-2.62,2.16-2.62l35.74-81.65,37.54,80.51c.41,1.94,1.51,3.7,3.24,5.1l.14.13c1.39-1.27,3.52-1.69,5.42-.61,3.7,2.12,8.05-1.48,6.66-5.51-1.23-3.58,2.13-7.04,5.75-5.91,4.07,1.27,7.54-3.18,5.32-6.82h0c-1.97-3.23.57-7.34,4.34-7.01,4.25.37,6.68-4.72,3.73-7.8h0c-2.62-2.73-1.02-7.29,2.73-7.78,4.23-.55,5.51-6.05,1.97-8.42-3.15-2.11-2.56-6.9,1-8.18Z"/>
        <path class="cls-5" d="M225.16,81.45c0-38.23-30.99-69.22-69.22-69.22s-69.22,30.99-69.22,69.22c0,25.15,13.42,47.17,33.48,59.29l35.74-71.77,37.54,70.63c19.06-12.33,31.68-33.76,31.68-58.15Z"/>
      </g>
      <g>
        <path class="cls-17" d="M265.18,33.13c17.21-4.82,32.77-2.96,34.76,4.15s-10.34,16.78-27.55,21.6c-17.21,4.82-32.77,2.96-34.76-4.15-1.99-7.11,10.34-16.78,27.55-21.6Z"/>
        <path class="cls-25" d="M287.82,42.52l-13.77-23.39c-2.81-4.42-25.68,3.35-25,9.1l2.13,24.94c12.07,2.34,24.2,1.74,36.63-10.65h0Z"/>
        <path class="cls-26" d="M273.89,21.96l-1.5,1.78,7.4,13.85,1.67-1.58-7.58-14.05h0Z"/>
        <path d="M284.49,36.86l3.42,5.64-.66.77-3.92,3.33-5.68,3.63-4.21,1.96-3.78,1.06-4.54.79-5.19.19-5.87-.49-2.9-.64-.48-5.89c12.39,3.37,24.25-1.85,33.59-10.09l.23-.25Z"/>
        <path class="cls-26" d="M272.96,20.3c-2.28-3.05-22.51,3.18-22.17,7.25,7.16.23,17.67-2.08,22.17-7.25Z"/>
        <path class="cls-26" d="M290.72,33.17s1.84.32,3.66,1.29c1.83.97,3.73,2.57,3.46,4.79-.85,7.04-15.11,14.75-24.54,17.96-1.22.33,10.09-4.69,15.3-8.66,2.86-2.08,4.83-4.78,5.63-6.25.81-1.48,1.28-3.42.44-5-1.26-2.36-3.96-4.13-3.96-4.13Z"/>
        <path class="cls-27" d="M280.57,39.57l-8.44,5.06,3.27,7.49,8.81-5.66-3.63-6.89h0ZM279.71,41.5l2.36,4.53-5.83,3.82-2.26-4.77,5.73-3.58h0Z"/>
      </g>
    </g>
    <g>
      <g>
        <path class="cls-24" d="M162.97,293.68c-.23,3.95-1.12,7.84-2.64,11.49-1.36,3.28-3.31,6.28-5.74,8.86-2.31,2.42-5.08,4.36-8.14,5.71-3.09,1.35-6.44,2.03-9.81,2-2.57.05-5.12-.47-7.47-1.5-2.12-.96-3.98-2.41-5.43-4.22-1.52-1.94-2.61-4.17-3.21-6.56-.7-2.76-.93-5.61-.69-8.45.23-3.95,1.13-7.82,2.66-11.47,1.36-3.28,3.31-6.29,5.74-8.89,2.29-2.43,5.05-4.38,8.11-5.73,3.07-1.34,6.4-2.03,9.75-2,2.59-.04,5.15.47,7.52,1.51,2.14.96,4.02,2.41,5.48,4.24,1.52,1.94,2.61,4.18,3.21,6.57.68,2.76.91,5.61.66,8.44ZM159.49,293.75c.21-2.51.03-5.04-.55-7.49-.48-2.06-1.38-4-2.66-5.68-1.2-1.55-2.76-2.79-4.54-3.61-1.95-.88-4.08-1.31-6.22-1.27-2.85-.02-5.67.58-8.26,1.76-2.61,1.18-4.94,2.88-6.86,5-2.09,2.35-3.74,5.06-4.87,8-1.3,3.35-2.07,6.88-2.28,10.47-.22,2.51-.03,5.04.55,7.49.48,2.05,1.39,3.99,2.66,5.67,1.21,1.54,2.77,2.78,4.55,3.6,1.95.87,4.07,1.31,6.2,1.27,2.87.02,5.71-.57,8.33-1.74,2.6-1.17,4.93-2.88,6.84-5,2.07-2.33,3.71-5.02,4.83-7.93,1.31-3.37,2.08-6.93,2.28-10.54Z"/>
        <path class="cls-24" d="M173.56,298.44c.96-1.7,2.09-3.3,3.35-4.78,1.14-1.33,2.42-2.53,3.83-3.57,1.22-.92,2.57-1.67,4-2.22,1.28-.49,2.63-.75,4-.76,1.27-.04,2.52.25,3.64.85,1,.57,1.8,1.43,2.29,2.47.59,1.25.91,2.62.94,4,.06,1.8-.09,3.59-.46,5.35l-4,21.5h-3.18l4-21.5c.6-3.2.56-5.65-.13-7.36-.69-1.72-2.15-2.57-4.38-2.57-1.35.03-2.67.37-3.87,1-1.43.72-2.75,1.64-3.91,2.74-1.39,1.29-2.63,2.73-3.7,4.29-1.24,1.78-2.31,3.68-3.2,5.66l-3.3,17.78h-3.18l6.38-33.73h1.45c.79,0,1.16.4,1.1,1.21l-1.67,9.64Z"/>
        <path class="cls-24" d="M201.4,321.26l9.34-49.17h3.15l-9.42,49.18h-3.07Z"/>
        <path class="cls-24" d="M225.18,287.63l-6.44,33.63h-3.15l6.44-33.63h3.15ZM228.45,276.09c-.02.4-.14.78-.33,1.13-.19.35-.43.66-.72.93-.29.27-.63.48-1,.64-.34.16-.71.24-1.08.24-.37,0-.73-.08-1.06-.24-.32-.15-.61-.37-.84-.64-.23-.28-.42-.59-.54-.93-.13-.36-.18-.75-.14-1.13.03-.4.14-.79.32-1.15.18-.37.41-.7.69-1,.27-.27.59-.5.94-.65.35-.16.72-.24,1.1-.24.35,0,.69.09,1,.24.33.15.63.37.88.64.27.29.46.63.58,1,.15.37.21.76.2,1.16Z"/>
        <path class="cls-24" d="M236.86,298.44c.96-1.7,2.09-3.3,3.36-4.78,1.12-1.33,2.39-2.53,3.78-3.57,1.22-.92,2.57-1.67,4-2.22,1.28-.49,2.63-.75,4-.76,1.27-.04,2.52.25,3.64.85,1,.57,1.8,1.43,2.29,2.47.59,1.25.91,2.62.94,4,.06,1.8-.09,3.59-.46,5.35l-4,21.5h-3.18l4-21.5c.6-3.2.56-5.65-.13-7.36-.69-1.72-2.15-2.57-4.38-2.57-1.35.03-2.67.37-3.87,1-1.43.72-2.75,1.64-3.91,2.74-1.39,1.29-2.63,2.73-3.7,4.29-1.23,1.79-2.31,3.68-3.2,5.66l-3.3,17.72h-3.18l6.38-33.73h1.45c.79,0,1.16.4,1.1,1.21l-1.63,9.7Z"/>
        <path class="cls-24" d="M289.74,315.01c-1.08,1.07-2.23,2.07-3.44,3-1.04.8-2.15,1.5-3.32,2.08-1.09.53-2.23.93-3.41,1.2-1.22.27-2.47.4-3.72.39-1.69.04-3.36-.28-4.92-.93-1.36-.59-2.56-1.5-3.48-2.66-.96-1.22-1.65-2.64-2-4.15-.42-1.8-.55-3.66-.39-5.5.12-1.72.41-3.43.86-5.1.45-1.7,1.07-3.36,1.85-4.94.77-1.57,1.7-3.05,2.77-4.42,1.04-1.35,2.26-2.55,3.62-3.58,1.32-1.02,2.79-1.83,4.36-2.41,1.6-.58,3.29-.88,5-.87,1.41-.04,2.8.19,4.12.69.99.39,1.89.97,2.65,1.72.65.63,1.15,1.41,1.45,2.27.25.72.36,1.49.32,2.25-.06.9-.25,1.79-.56,2.64-.33.89-.84,1.71-1.49,2.4-.79.83-1.71,1.54-2.71,2.1-1.36.75-2.79,1.35-4.27,1.81-2.01.62-4.06,1.12-6.14,1.5-2.37.45-5.15.85-8.33,1.18-.08.45-.15.92-.21,1.39s-.12.93-.15,1.39c-.24,3.35.34,6,1.73,7.87s3.61,2.76,6.68,2.76c2.05.02,4.07-.45,5.89-1.39.73-.37,1.43-.8,2.09-1.28.6-.45,1.14-.88,1.62-1.29.48-.4.89-.73,1.24-1,.26-.23.58-.36.92-.39.27,0,.53.12.69.34l.68.93ZM283.24,289.52c-1.73-.02-3.45.36-5,1.13-1.53.77-2.9,1.81-4.07,3.06-1.23,1.34-2.28,2.83-3.11,4.45-.86,1.67-1.53,3.43-2,5.25,2.88-.31,5.37-.68,7.47-1.1,1.81-.34,3.6-.78,5.37-1.31,1.26-.38,2.47-.88,3.62-1.51.82-.44,1.57-1,2.22-1.67.47-.5.84-1.09,1.08-1.73.21-.61.34-1.25.38-1.89.03-.52-.04-1.05-.21-1.54-.2-.57-.55-1.09-1-1.5-.54-.5-1.17-.88-1.86-1.13-.92-.35-1.9-.52-2.89-.51Z"/>
        <path class="cls-24" d="M346.22,321.26h-2.61c-.26.01-.52-.08-.72-.26-.17-.17-.29-.38-.33-.62l-2.43-14h-21.39l-7.84,14c-.14.25-.34.47-.59.62-.24.17-.53.26-.83.26h-2.56l27.2-47.83h3.35l8.75,47.83ZM339.74,303.92l-4.26-24.33c-.06-.41-.13-.86-.18-1.34s-.11-1-.16-1.57c-.27.56-.52,1.09-.77,1.57s-.48.94-.69,1.37l-13.59,24.3h19.65Z"/>
        <path class="cls-24" d="M372.46,318.39c-1.02.78-2.13,1.45-3.29,2-1.02.48-2.09.82-3.2,1-1.12.18-2.25.27-3.39.27-1.72.04-3.43-.3-5-1-1.34-.63-2.5-1.59-3.37-2.79-.9-1.28-1.52-2.73-1.83-4.26-.37-1.76-.48-3.57-.33-5.37.12-1.79.43-3.56.93-5.29.48-1.73,1.13-3.4,1.95-5,.78-1.53,1.72-2.97,2.81-4.3,1.05-1.3,2.25-2.46,3.59-3.45,1.28-.96,2.69-1.73,4.19-2.28,1.51-.56,3.1-.84,4.71-.83,1.01-.01,2.02.1,3,.32.83.2,1.64.5,2.39.91.7.39,1.35.88,1.92,1.44.58.58,1.11,1.21,1.56,1.89l-1,1.12c-.18.22-.45.36-.74.37-.23,0-.49-.18-.79-.54-.37-.43-.79-.82-1.24-1.17-.63-.48-1.32-.87-2.06-1.16-1.05-.4-2.16-.59-3.28-.55-1.9,0-3.77.53-5.39,1.53-1.76,1.06-3.31,2.44-4.55,4.08-1.37,1.81-2.47,3.81-3.25,5.94-.84,2.25-1.35,4.61-1.52,7-.12,1.45-.04,2.9.22,4.33.21,1.25.68,2.43,1.37,3.49.66.97,1.55,1.75,2.6,2.27,1.2.57,2.53.85,3.86.81,1.09.01,2.18-.12,3.24-.39.89-.25,1.76-.58,2.58-1,.7-.36,1.37-.79,2-1.27.58-.46,1.1-.89,1.56-1.27l1.16-1c.24-.22.54-.36.86-.39.27,0,.52.13.69.34l.64.88c-1.11,1.2-2.32,2.31-3.6,3.32Z"/>
        <path class="cls-24" d="M402.67,318.39c-1.02.78-2.12,1.45-3.28,2-1.02.48-2.09.81-3.2,1-1.12.18-2.26.27-3.4.27-1.72.05-3.43-.3-5-1-1.35-.62-2.51-1.59-3.37-2.79-.9-1.28-1.52-2.73-1.83-4.26-.37-1.76-.48-3.57-.34-5.37.27-3.58,1.25-7.07,2.88-10.27.79-1.55,1.74-3.01,2.84-4.36,1.05-1.29,2.26-2.45,3.59-3.45,1.28-.96,2.7-1.72,4.2-2.28,1.5-.56,3.1-.84,4.7-.83,1.01-.01,2.02.09,3,.32.83.2,1.64.5,2.39.91.69.41,1.33.9,1.89,1.48.58.58,1.11,1.21,1.56,1.89l-1,1.12c-.18.22-.45.36-.74.37-.22,0-.48-.18-.79-.54-.89-1.04-2.02-1.84-3.3-2.33-1.04-.4-2.15-.59-3.27-.55-1.91,0-3.77.53-5.4,1.53-1.76,1.06-3.3,2.44-4.54,4.08-1.38,1.81-2.47,3.81-3.25,5.94-.85,2.25-1.37,4.6-1.53,7-.11,1.45-.04,2.9.23,4.33.2,1.25.68,2.44,1.38,3.49.66.96,1.55,1.75,2.59,2.27,1.21.57,2.53.85,3.87.81,1.09.01,2.18-.12,3.23-.39.89-.24,1.76-.58,2.59-1,.71-.36,1.38-.78,2-1.27.59-.46,1.11-.89,1.56-1.27l1.17-1c.23-.22.53-.36.85-.39.27,0,.52.13.69.34l.65.88c-1.12,1.2-2.33,2.3-3.62,3.32Z"/>
        <path class="cls-24" d="M437.09,315.01c-1.08,1.07-2.22,2.07-3.43,3-1.04.8-2.16,1.5-3.33,2.08-1.09.53-2.23.94-3.41,1.2-1.22.27-2.46.4-3.71.39-1.69.04-3.36-.28-4.92-.93-1.36-.59-2.56-1.5-3.48-2.66-.96-1.22-1.65-2.64-2-4.15-.41-1.8-.54-3.66-.39-5.5.26-3.48,1.18-6.87,2.71-10,.77-1.57,1.7-3.05,2.78-4.42,1.04-1.34,2.26-2.55,3.61-3.58,1.33-1.01,2.8-1.83,4.36-2.41,1.6-.58,3.29-.88,5-.87,1.41-.04,2.81.19,4.13.69,1.02.38,1.95.96,2.73,1.72.62.63,1.1,1.39,1.38,2.23.25.72.35,1.49.31,2.25-.06.9-.24,1.79-.55,2.64-.34.89-.85,1.71-1.51,2.4-.8.83-1.71,1.54-2.72,2.1-1.36.75-2.79,1.35-4.27,1.81-2.01.62-4.06,1.13-6.14,1.5-2.37.45-5.15.85-8.32,1.18-.08.45-.15.92-.22,1.39s-.12.93-.15,1.39c-.23,3.35.34,6,1.73,7.87,1.39,1.87,3.62,2.76,6.68,2.76,1.1.01,2.19-.12,3.26-.39.91-.24,1.8-.57,2.64-1,.73-.37,1.42-.8,2.08-1.28.61-.45,1.15-.88,1.63-1.29s.89-.73,1.23-1c.26-.22.59-.36.93-.39.27,0,.52.12.68.34l.68.93ZM430.6,289.52c-1.73-.02-3.45.36-5,1.13-1.52.77-2.9,1.81-4.06,3.06-1.24,1.33-2.29,2.83-3.12,4.45-.85,1.67-1.52,3.43-2,5.25,2.88-.31,5.38-.68,7.48-1.1,1.81-.34,3.6-.78,5.36-1.31,1.26-.38,2.47-.88,3.62-1.51.81-.44,1.55-1.01,2.2-1.67.48-.51.86-1.12,1.1-1.78.21-.61.34-1.25.39-1.89.02-.52-.05-1.04-.21-1.54-.2-.57-.55-1.09-1-1.5-.54-.5-1.18-.88-1.87-1.13-.93-.33-1.91-.49-2.89-.46h0Z"/>
        <path class="cls-24" d="M466.3,291.75c-.15.29-.45.48-.78.48-.31-.05-.59-.2-.8-.43-.39-.35-.81-.66-1.25-.94-.62-.42-1.29-.75-2-1-2.09-.61-4.32-.56-6.38.15-1,.36-1.94.88-2.78,1.54-.78.62-1.44,1.38-1.95,2.23-.49.82-.78,1.74-.84,2.69-.09.81.07,1.62.47,2.33.41.65.96,1.21,1.6,1.64.72.48,1.5.88,2.31,1.2.87.34,1.76.67,2.69,1,.91.34,1.8.72,2.67,1.14.83.39,1.61.9,2.3,1.5.67.59,1.2,1.32,1.55,2.14.39.97.53,2.02.43,3.06-.1,1.46-.49,2.88-1.15,4.19-.67,1.36-1.59,2.58-2.72,3.6-1.17,1.07-2.53,1.92-4,2.52-1.62.65-3.35.97-5.09.95-1.86.06-3.7-.32-5.38-1.13-1.39-.74-2.61-1.76-3.59-3l.89-1.15c.21-.32.56-.53.95-.54.23,0,.5.18.81.54.39.44.83.84,1.3,1.2.66.5,1.4.91,2.18,1.2,1.1.39,2.27.58,3.44.54,1.27.02,2.53-.21,3.72-.66,1.08-.41,2.08-1.03,2.93-1.81.83-.75,1.5-1.65,2-2.65.5-1,.79-2.08.87-3.19.1-.86-.07-1.73-.47-2.5-.39-.69-.93-1.29-1.58-1.75-.72-.5-1.5-.92-2.32-1.23-.86-.34-1.76-.67-2.68-1-.91-.31-1.81-.67-2.68-1.08-.83-.37-1.6-.85-2.3-1.43-.68-.54-1.23-1.23-1.61-2.01-.4-.95-.55-1.98-.44-3,.11-1.3.49-2.56,1.12-3.7.66-1.22,1.54-2.31,2.59-3.21,1.12-.96,2.41-1.71,3.79-2.23,1.47-.56,3.04-.86,4.62-.86,1.66-.04,3.32.26,4.86.88,1.36.6,2.56,1.5,3.51,2.64l-.81,1.14Z"/>
        <path class="cls-24" d="M492.86,291.75c-.15.29-.44.47-.77.48-.31-.04-.59-.2-.8-.43-.39-.34-.81-.66-1.25-.94-.62-.42-1.29-.75-2-1-2.09-.61-4.32-.56-6.38.15-1,.36-1.94.88-2.78,1.54-.78.62-1.43,1.38-1.94,2.23-.49.82-.78,1.74-.85,2.69-.08.81.08,1.62.48,2.33.4.66.95,1.22,1.59,1.64.73.48,1.5.89,2.32,1.2.86.34,1.76.67,2.68,1,.92.33,1.82.72,2.68,1.14.83.39,1.6.9,2.29,1.5.67.59,1.2,1.32,1.56,2.14.39.97.53,2.02.43,3.06-.11,1.46-.5,2.88-1.16,4.19-.67,1.36-1.59,2.58-2.72,3.6-2.49,2.26-5.74,3.5-9.11,3.47-3.49.19-6.85-1.33-9-4.09l.89-1.15c.22-.34.6-.54,1-.54.22,0,.49.18.8.54.4.44.83.84,1.3,1.2.67.5,1.41.91,2.19,1.2,1.1.4,2.27.58,3.44.54,1.27.02,2.53-.21,3.71-.66,1.08-.41,2.08-1.03,2.93-1.81.82-.75,1.5-1.65,2-2.65.49-1,.78-2.08.86-3.19.1-.86-.07-1.73-.47-2.5-.39-.69-.93-1.29-1.58-1.75-.72-.5-1.49-.91-2.31-1.23-.87-.34-1.76-.67-2.69-1-.91-.31-1.81-.68-2.68-1.08-.83-.37-1.6-.85-2.3-1.43-.68-.56-1.23-1.26-1.6-2.05-.4-.95-.55-1.98-.43-3,.09-1.32.47-2.61,1.11-3.77.66-1.22,1.54-2.31,2.59-3.21,1.12-.96,2.41-1.71,3.79-2.23,1.49-.56,3.08-.84,4.67-.83,1.66-.04,3.31.26,4.85.88,1.37.62,2.59,1.54,3.54,2.71l-.88,1.11Z"/>
      </g>
      <polygon class="cls-9" points="493.74 346.26 55.53 346.26 59.17 342.76 55.53 339.26 493.74 339.26 493.74 346.26"/>
      <circle class="cls-20" cx="47.98" cy="282.78" r="45.64"/>
      <g>
        <path class="cls-14" d="M51.12,278.8l-20.83,39.46c-.23.36-.64.57-1.07.54l-.56-.04c-.53-.04-1.04.16-1.41.54l-2.4,2.84-1.57,1.64-.25-13.76,26.02-41.82,2.07,10.6Z"/>
        <path class="cls-10" d="M26.93,317.71l1.99.35c.42.11.87-.06,1.11-.43l20.92-39.44-3.27-4.41-20.74,43.93Z"/>
      </g>
      <g>
        <g>
          <path class="cls-16" d="M73.82,351.89l.08-.17s-.9-1.85-1.18-2.32-.74-1.27-.89-1.56c-.11-.2-.13-.67-.19-.91-.04-.17-.07-.71-.07-.88,0-.22.07-.59.09-.73l.25-.53c.22-.37.22-.83,0-1.2l-19.51-40.48h-.49l-.82.73,18.82,46.3,3.9,1.75Z"/>
          <path class="cls-10" d="M69.93,346.35l1.21-1.62c.29-.33.33-.81.11-1.19l-19.33-40.43-3.94,1.39,21.94,41.84Z"/>
        </g>
        <g>
          <path class="cls-15" d="M72.46,350.31l-.38-1.12h0s-1.72-1.02-1.72-1.02l-.27-2.06-43.17.67-2.28,3.79-.68.65c-.44.42-.69,1.01-.69,1.62.06.02.11.05.17.08,1.07.44,2.09,1,3.04,1.66,1.9,1.33,4.08,2.23,6.36,2.64,1.14.2,2.25.53,3.32.97h0c2.15.89,4.46,1.3,6.78,1.21,1.16-.05,2.32.03,3.46.23,2.29.41,4.63.31,6.88-.28,1.12-.29,2.27-.47,3.43-.51,2.32-.09,4.59-.69,6.66-1.75h0c1.03-.53,2.11-.94,3.23-1.24,2.25-.59,4.34-1.66,6.13-3.14.35-.29.72-.56,1.09-.82-.45-.4-1.11-1.1-1.37-1.58Z"/>
          <path class="cls-22" d="M70.88,347.79c-.71-1.1-.78-1.68-.78-1.68h0l-43.17.67s-.81.52-1.52,1.62c-.56.87-.77,2.17-.77,2.17,1.68-.48,3.52.79,3.46,2.71-.08,2.51,2.99,3.78,4.71,1.95,1.52-1.63,4.25-.83,4.66,1.36.46,2.47,3.73,3.05,5.02.89,1.14-1.92,3.97-1.73,4.85.33.98,2.31,4.3,2.18,5.09-.21h0c.7-2.12,3.51-2.54,4.8-.72h0c1.45,2.05,4.67,1.2,4.93-1.3.23-2.22,2.88-3.24,4.54-1.74h0c1.86,1.69,4.82.17,4.53-2.33h0c-.11-.94.26-1.76.86-2.31,0,0-.65-.53-1.2-1.4Z"/>
          <path class="cls-13" d="M26.93,346.79c6.15,3.71,13.35,5.85,21.05,5.85,8.15,0,15.74-2.4,22.11-6.52l-22.11-41.61-21.05,42.28Z"/>
        </g>
      </g>
      <g>
        <path class="cls-18" d="M95.63,279.98c-.23-1.13-.34-2.29-.33-3.45.03-2.32-.44-4.62-1.39-6.75-.47-1.06-.83-2.16-1.06-3.3-.47-2.27-1.43-4.42-2.81-6.29-.69-.93-1.27-1.93-1.75-2.99-.95-2.12-2.34-4.01-4.09-5.54-.87-.76-1.66-1.62-2.35-2.55-1.38-1.87-3.15-3.41-5.19-4.53-1.02-.56-1.97-1.22-2.84-1.98-1.75-1.53-3.81-2.66-6.04-3.31-1.11-.32-2.18-.77-3.2-1.33-2.04-1.12-4.29-1.77-6.61-1.93-1.16-.08-2.3-.28-3.41-.61-2.23-.65-4.57-.81-6.87-.47-1.15.17-2.31.22-3.46.14-2.32-.16-4.64.19-6.81,1.02-1.08.41-2.2.71-3.35.88-2.3.34-4.49,1.18-6.43,2.46-.97.64-2,1.17-3.08,1.58-2.17.83-4.13,2.12-5.75,3.79-.81.83-1.7,1.57-2.67,2.21-1.94,1.28-3.58,2.96-4.8,4.94-.61.98-1.33,1.9-2.13,2.73-1.62,1.66-2.86,3.66-3.63,5.85-.38,1.09-.89,2.14-1.5,3.12-1.22,1.97-2,4.19-2.29,6.5-.14,1.15-.41,2.28-.79,3.37-.77,2.19-1.06,4.52-.84,6.84.11,1.15.09,2.31-.05,3.46-.28,2.31-.06,4.64.65,6.86.35,1.1.59,2.24.7,3.39.22,2.31.94,4.55,2.11,6.56.58,1,1.06,2.06,1.41,3.16.71,2.21,1.9,4.24,3.47,5.95.78.85,1.48,1.79,2.06,2.79,1.17,2.01,2.76,3.73,4.67,5.06.95.66,1.82,1.43,2.61,2.28,1.53,1.66,3.4,2.98,5.48,3.87l1.37-2.27.66-3.4c.37-.38,22.78-44.21,22.78-44.21l24,46.23s-.06.64.22,1.1c.28.46,1.52,1.6,1.52,1.6.58-.4,1.18-.77,1.8-1.09,2.07-1.06,3.88-2.56,5.31-4.39.71-.91,1.52-1.74,2.42-2.48h0c1.79-1.48,3.24-3.33,4.24-5.43.5-1.04,1.11-2.03,1.83-2.94,1.43-1.83,2.45-3.95,2.98-6.21.26-1.13.65-2.22,1.15-3.27,1-2.09,1.54-4.38,1.57-6.71.02-1.16.16-2.31.42-3.44.53-2.26.56-4.61.09-6.89Z"/>
        <path class="cls-21" d="M93.83,285.92h0c2.36-.85,2.4-4.18.07-5.09h0c-2.08-.81-2.35-3.64-.46-4.83h0c2.12-1.34,1.45-4.6-1.03-4.99-2.2-.35-3.08-3.05-1.49-4.62,1.78-1.77.43-4.8-2.08-4.65-2.23.13-3.66-2.32-2.45-4.19,1.36-2.11-.61-4.78-3.03-4.1-2.15.61-4.07-1.48-3.29-3.57.88-2.35-1.63-4.54-3.84-3.35h0c-1.96,1.06-4.3-.57-3.98-2.78.35-2.49-2.57-4.08-4.47-2.44-1.69,1.45-4.32.37-4.49-1.86-.19-2.5-3.38-3.43-4.89-1.43-1.34,1.78-4.14,1.29-4.78-.85-.73-2.4-4.04-2.63-5.08-.34-.92,2.03-3.76,2.15-4.85.2-1.23-2.19-4.51-1.7-5.04.76h0c-.47,2.18-3.22,2.91-4.7,1.24-1.67-1.88-4.77-.69-4.76,1.82.01,2.23-2.51,3.53-4.32,2.22h0c-2.03-1.48-4.81.35-4.25,2.8.49,2.18-1.7,3.99-3.74,3.1-2.3-1-4.62,1.38-3.55,3.65.95,2.02-.8,4.26-2.99,3.83h0c-2.46-.49-4.21,2.34-2.68,4.33,1.36,1.77.13,4.33-2.1,4.38-2.51.06-3.61,3.19-1.69,4.81h0c1.71,1.43,1.06,4.2-1.11,4.73h0c-2.44.59-2.84,3.89-.62,5.06,1.98,1.03,1.94,3.88-.06,4.86h0c-2.26,1.1-1.94,4.41.49,5.07h0c2.15.58,2.73,3.37.98,4.76-1.97,1.56-.94,4.73,1.56,4.85h0c2.23.11,3.39,2.7,1.98,4.43-1.58,1.95.09,4.82,2.57,4.4,2.2-.37,3.89,1.91,2.89,3.9h0c-1.13,2.24,1.13,4.69,3.46,3.74h0c2.07-.84,4.21,1.03,3.66,3.19-.62,2.43,2.11,4.34,4.18,2.91h0c.26-.18.53-.3.81-.38,0,0,.3-1.11,1.01-2.25.72-1.16,1.27-1.54,1.27-1.54l21.05-48.1,22.11,47.43c.24,1.14.89,2.18,1.91,3l.08.07c.82-.75,2.08-1,3.19-.36,2.18,1.25,4.74-.87,3.93-3.25-.73-2.11,1.26-4.15,3.39-3.48,2.4.75,4.44-1.87,3.14-4.02h0c-1.16-1.9.34-4.32,2.56-4.13,2.5.22,3.94-2.78,2.2-4.6h0c-1.54-1.61-.6-4.29,1.61-4.58,2.49-.33,3.25-3.56,1.16-4.96-1.85-1.24-1.51-4.06.59-4.82Z"/>
        <path class="cls-19" d="M88.76,282.78c0-22.52-18.26-40.78-40.78-40.78s-40.78,18.26-40.78,40.78c0,14.82,7.9,27.79,19.73,34.93l21.05-42.28,22.11,41.61c11.23-7.26,18.67-19.89,18.67-34.25Z"/>
      </g>
      <g>
        <path class="cls-23" d="M134.91,260.7c17.21-4.82,32.77-2.96,34.76,4.15,1.99,7.11-10.34,16.78-27.55,21.6-17.21,4.82-32.77,2.96-34.76-4.15s10.34-16.78,27.55-21.6Z"/>
        <path class="cls-25" d="M157.54,270.09l-13.77-23.39c-2.81-4.42-25.68,3.35-25,9.1l2.13,24.94c12.07,2.34,24.2,1.74,36.63-10.65h0Z"/>
        <path class="cls-26" d="M143.62,249.54l-1.5,1.78,7.4,13.85,1.67-1.58-7.58-14.05h0Z"/>
        <path d="M154.21,264.43l3.42,5.64-.66.77-3.92,3.33-5.68,3.63-4.21,1.96-3.78,1.06-4.54.79-5.19.19-5.87-.49-2.9-.64-.48-5.89c12.39,3.37,24.25-1.85,33.59-10.09l.23-.25Z"/>
        <path class="cls-26" d="M142.69,247.88c-2.28-3.05-22.51,3.18-22.17,7.25,7.16.23,17.67-2.08,22.17-7.25Z"/>
        <path class="cls-26" d="M160.45,260.74s1.84.32,3.66,1.29c1.83.97,3.73,2.57,3.46,4.79-.85,7.04-15.11,14.75-24.54,17.96-1.22.33,10.09-4.69,15.3-8.66,2.86-2.08,4.83-4.78,5.63-6.25.81-1.48,1.28-3.42.44-5-1.26-2.36-3.96-4.13-3.96-4.13Z"/>
        <path class="cls-27" d="M150.29,267.14l-8.44,5.06,3.27,7.49,8.81-5.66-3.63-6.89h0ZM149.44,269.07l2.36,4.53-5.83,3.82-2.26-4.77,5.73-3.58h0Z"/>
      </g>
    </g>
  </g>
</svg>